<?xml version="1.0" standalone="no"?>
<!DOCTYPE svg PUBLIC "-//W3C//DTD SVG 1.1//EN" "http://www.w3.org/Graphics/SVG/1.1/DTD/svg11.dtd" >
<svg>
<metadata>
Created by FontForge 20090914 at Tue Jun 25 13:10:37 2013
 By www-data
Copyright (c) 2013 by Nate Piekos. Blambot.com. All rights reserved.
</metadata>
<defs>
<font id="GovernmentAgentBB" horiz-adv-x="607" >
  <font-face 
    font-family="Government Agent BB"
    font-weight="400"
    font-stretch="normal"
    units-per-em="1000"
    panose-1="2 0 5 6 4 0 0 2 0 4"
    ascent="750"
    descent="-250"
    x-height="589"
    cap-height="670"
    bbox="4 -108 821 770"
    underline-thickness="50"
    underline-position="-50"
    unicode-range="U+000D-U+2122"
  />
<missing-glyph horiz-adv-x="485" 
d="M31 700h420v-700h-419zM136 42h210v614h-210v-614z" />
    <glyph glyph-name="copyright" unicode="&#x28;C&#x29;" horiz-adv-x="789" 
d="M638 669c14 0 27.167 -2.66699 39.5 -8s23.166 -12.666 32.499 -21.999s16.666 -20.166 21.999 -32.499s8 -25.5 8 -39.5v-465c0 -14 -2.66699 -27.167 -8 -39.5s-12.666 -23.166 -21.999 -32.499s-20.166 -16.666 -32.499 -21.999s-25.5 -8 -39.5 -8h-484
c-14 0 -27.167 2.66699 -39.5 8s-23 12.666 -32 21.999s-16.167 20.166 -21.5 32.499s-8 25.5 -8 39.5v465c0 14 2.66699 27.167 8 39.5s12.5 23.166 21.5 32.499s19.667 16.666 32 21.999s25.5 8 39.5 8h484zM615 567h-437v-467h437v467zM250 215v239
c0 17.333 6.16699 32.333 18.5 45s27.166 19 44.499 19h229l-18 -91h-170v-186h187l-17 -90h-211c-17.333 0 -32.166 6.33301 -44.499 19s-18.5 27.667 -18.5 45z" />
    <glyph glyph-name="registered" unicode="&#x28;R&#x29;" horiz-adv-x="789" 
d="M638 669c14 0 27.167 -2.66699 39.5 -8s23.166 -12.666 32.499 -21.999s16.666 -20.166 21.999 -32.499s8 -25.5 8 -39.5v-465c0 -14 -2.66699 -27.167 -8 -39.5s-12.666 -23.166 -21.999 -32.499s-20.166 -16.666 -32.499 -21.999s-25.5 -8 -39.5 -8h-484
c-14 0 -27.167 2.66699 -39.5 8s-23 12.666 -32 21.999s-16.167 20.166 -21.5 32.499s-8 25.5 -8 39.5v465c0 14 2.66699 27.167 8 39.5s12.5 23.166 21.5 32.499s19.667 16.666 32 21.999s25.5 8 39.5 8h484zM615 567h-437v-467h437v467zM258 428h-27l16 91h249
c18 0 33.333 -6.16699 46 -18.5s19 -27.5 19 -45.5v-128c0 -17.333 -6.33301 -32.333 -19 -45s-28 -19 -46 -19h-4l70 -117h-114l-70 117h-16v-117h-104v282zM362 354h94v74h-94v-74z" />
    <glyph glyph-name=".notdef" horiz-adv-x="485" 
d="M31 700h420v-700h-419zM136 42h210v614h-210v-614z" />
    <glyph glyph-name="NULL" horiz-adv-x="0" 
 />
    <glyph glyph-name="NULL" horiz-adv-x="0" 
 />
    <glyph glyph-name="nonmarkingreturn" unicode="&#xd;" horiz-adv-x="190" 
 />
    <glyph glyph-name="space" unicode=" " horiz-adv-x="190" 
 />
    <glyph glyph-name="exclam" unicode="!" horiz-adv-x="280" 
d="M222 216h-165v454h165v-454zM182 144h-85c-12.667 0 -23.334 -4.5 -32.001 -13.5s-13 -19.5 -13 -31.5v-54c0 -12.667 4.33301 -23.334 13 -32.001s19.334 -13 32.001 -13h85c12.667 0 23.334 4.33301 32.001 13s13 19.334 13 32.001v54c0 12 -4.33301 22.5 -13 31.5
s-19.334 13.5 -32.001 13.5z" />
    <glyph glyph-name="quotedbl" unicode="&#x22;" horiz-adv-x="495" 
d="M446 669v-206h-165v206h165zM55 463h166v206h-166v-206z" />
    <glyph glyph-name="numbersign" unicode="#" horiz-adv-x="687" 
d="M563 367l-12 -57h76l-26 -146h-81l-35 -164h-165l35 164h-99l-34 -164h-165l34 164h-68l27 146h72l12 57h-75l27 145h78l34 158h165l-33 -158h98l33 158h165l-33 -158h70l-26 -145h-74zM397 367h-98l-12 -57h98z" />
    <glyph glyph-name="dollar" unicode="$" horiz-adv-x="560" 
d="M519 141c0 -14 -2.66797 -27.1641 -8.00098 -39.4971s-12.5 -23 -21.5 -32s-19.5 -16.167 -31.5 -21.5s-25 -8 -39 -8v-83h-105v83h-53v-83h-105v83h-98l26 143h270v66l-219 26c-2 0 -8.33301 0.833008 -19 2.5s-21.667 6 -33 13s-21.666 17 -30.999 30
s-14 31.167 -14 54.5v152c0 14 2.66699 27.167 8 39.5s12.5 23.166 21.5 32.499s19.833 16.666 32.5 21.999s26 8 40 8h16v86h105v-86h53v86h105v-86h71l-27 -145h-258v-64l214 -27c12 0 24 -2.33301 36 -7s22.667 -11.334 32 -20.001s17 -19 23 -31s9 -25 9 -39v-155z" />
    <glyph glyph-name="percent" unicode="%" horiz-adv-x="859" 
d="M656 670l-289 -670h-166l289 670h166zM821 240v-167c0 -20.667 -7.16699 -38 -21.5 -52s-31.5 -21 -51.5 -21h-167c-20 0 -37.167 7 -51.5 21s-21.5 31.333 -21.5 52v167c0 20 7.16699 37.167 21.5 51.5s31.5 21.5 51.5 21.5h167c20 0 37.167 -7.16699 51.5 -21.5
s21.5 -31.5 21.5 -51.5zM703 195h-77v-78h77v78zM277 357h-166c-20.667 0 -38.167 7.16699 -52.5 21.5s-21.5 31.5 -21.5 51.5v167c0 20 7.16699 37.167 21.5 51.5s31.833 21.5 52.5 21.5h166c20.667 0 38.167 -7.16699 52.5 -21.5s21.5 -31.5 21.5 -51.5v-167
c0 -20 -7.16699 -37.167 -21.5 -51.5s-31.833 -21.5 -52.5 -21.5zM233 552h-78v-77h78v77z" />
    <glyph glyph-name="ampersand" unicode="&#x26;" horiz-adv-x="707" 
d="M622 0l-88.002 63.999c0 -8 -2.33301 -15.833 -7 -23.5s-10.667 -14.5 -18 -20.5s-15.666 -10.833 -24.999 -14.5s-18.666 -5.5 -27.999 -5.5h-313c-14 0 -27.167 2.66699 -39.5 8s-23.166 12.5 -32.499 21.5s-16.666 19.667 -21.999 32s-8 25.5 -8 39.5v119
c0 18.667 4.16699 34.5 12.5 47.5s18 23.833 29 32.5s22.333 15.167 34 19.5s20.5 7.5 26.5 9.5v3c-11.333 6.66699 -23 14.334 -35 23.001s-23 19 -33 31s-18.167 25.667 -24.5 41s-9.5 33 -9.5 53v87c0 14 2.66699 27.167 8 39.5s12.666 23 21.999 32
s20.166 16.167 32.499 21.5s25.5 8 39.5 8h360l-27 -143h-269v-52l190 -131v66h165v-179l136 -97zM396.998 158.999l-190 129v-143h190v14z" />
    <glyph glyph-name="quotesingle" unicode="'" horiz-adv-x="268" 
d="M54 669h166v-206h-166v206z" />
    <glyph glyph-name="parenleft" unicode="(" horiz-adv-x="320" 
d="M284 737c-18 -44.667 -33.999 -90.3311 -47.999 -136.998c-12 -40 -22.833 -84 -32.5 -132s-14.5 -94.333 -14.5 -139s4.66699 -90.5 14 -137.5s19.666 -89.833 30.999 -128.5c13.333 -46 28.666 -90.333 45.999 -133h-111c-26 31.333 -49 67.333 -69 108
c-17.333 34.667 -33.166 76.5 -47.499 125.5s-21.5 104.833 -21.5 167.5c0 62 7 117.667 21 167s29.667 91.666 47 126.999c20 41.333 42.667 77.666 68 108.999z" />
    <glyph glyph-name="parenright" unicode=")" horiz-adv-x="320" 
d="M33 -70c17.333 44.667 33 90.333 47 137c6 20 11.667 41.167 17 63.5s10.333 45.166 15 68.499s8.33398 46.666 11.001 69.999s4 46.333 4 69c0 44.667 -4.83301 90.334 -14.5 137.001s-20.167 89.667 -31.5 129c-13.333 45.333 -28.333 89.666 -45 132.999h112
c25.333 -31.333 48 -67.333 68 -108c17.333 -34.667 33.166 -76.667 47.499 -126s21.5 -105 21.5 -167c0 -62.667 -7 -118.667 -21 -168s-29.667 -91.666 -47 -126.999c-20 -41.333 -42.667 -77.666 -68 -108.999z" />
    <glyph glyph-name="asterisk" unicode="*" horiz-adv-x="383" 
d="M290 514l59 -34l-50 -86l-58 34v-67h-100v68l-59 -34l-49 86l58 34l-58 33l50 86l58 -33v67h100v-68l59 34l49 -87z" />
    <glyph glyph-name="plus" unicode="+" horiz-adv-x="401" 
d="M348 274h-76v-89h-145v89h-102l26 145h76v89l145 1v-90h102z" />
    <glyph glyph-name="comma" unicode="," horiz-adv-x="270" 
d="M235 130l-74 -206h-143l51 206h166z" />
    <glyph glyph-name="hyphen" unicode="-" horiz-adv-x="363" 
d="M311 222h-284l27 145h284z" />
    <glyph glyph-name="period" unicode="." horiz-adv-x="276" 
d="M229 44c0 -12.667 -4.33301 -23.334 -13 -32.001s-19.334 -13 -32.001 -13h-85c-12.667 0 -23.334 4.33301 -32.001 13s-13 19.334 -13 32.001v53c0 12.667 4.33301 23.334 13 32.001s19.334 13 32.001 13h85c12.667 0 23.334 -4.33301 32.001 -13s13 -19.334 13 -32.001
v-53z" />
    <glyph glyph-name="slash" unicode="/" horiz-adv-x="476" 
d="M176 0h-165l288 670h165z" />
    <glyph glyph-name="zero" unicode="0" horiz-adv-x="610" 
d="M464 669c14 0 27.167 -2.66699 39.5 -8s23.166 -12.666 32.499 -21.999s16.666 -20.166 21.999 -32.499s8 -25.5 8 -39.5v-465c0 -14 -2.66699 -27.167 -8 -39.5s-12.666 -23.166 -21.999 -32.499s-20.166 -16.666 -32.499 -21.999s-25.5 -8 -39.5 -8h-317
c-14 0 -27.167 2.66699 -39.5 8s-23.166 12.666 -32.499 21.999s-16.666 20.166 -21.999 32.499s-8 25.5 -8 39.5v465c0 14 2.66699 27.167 8 39.5s12.666 23.166 21.999 32.499s20.166 16.666 32.499 21.999s25.5 8 39.5 8h317zM401 523h-189v-379h189v379z" />
    <glyph glyph-name="one" unicode="1" horiz-adv-x="278" 
d="M229 670v-670h-165v525h-43l26 145h182z" />
    <glyph glyph-name="two" unicode="2" horiz-adv-x="604" 
d="M563 568l0.00195312 -194.002c0 -14 -2.83301 -26.833 -8.5 -38.5s-13.167 -21.667 -22.5 -30s-20 -15 -32 -20s-24.333 -8.16699 -37 -9.5l-254 -26v-103h338l-27 -147h-477l-1 295c0 22.667 4.66699 40.667 14 54s19.833 23.333 31.5 30s22.667 11 33 13s16.5 3 18.5 3
l258 26v105h-334l25 144h373c14 0 27.167 -2.66699 39.5 -8s23.166 -12.666 32.499 -21.999s16.666 -20.166 21.999 -32.499s8 -25.5 8 -39.5z" />
    <glyph glyph-name="three" unicode="3" horiz-adv-x="587" 
d="M542 443c0 -18.667 -4.16699 -34.5029 -12.5 -47.5029s-18.166 -23.833 -29.499 -32.5s-22.666 -15.167 -33.999 -19.5s-20 -7.5 -26 -9.5v-3c6 -1.33301 14.667 -4.16602 26 -8.49902s22.666 -10.833 33.999 -19.5s21.166 -19.667 29.499 -33s12.5 -30 12.5 -50v-118
c0 -14 -2.66699 -27.167 -8 -39.5s-12.666 -23.166 -21.999 -32.499s-20.166 -16.666 -32.499 -21.999s-25.5 -8 -39.5 -8h-410l26 144h320v118h-294v145h294v116h-347l27 145h384c14 0 27.167 -2.66699 39.5 -8s23.166 -12.5 32.499 -21.5s16.666 -19.667 21.999 -32
s8 -25.5 8 -39.5v-124v0z" />
    <glyph glyph-name="four" unicode="4" horiz-adv-x="593" 
d="M540 670v-670h-166v178h-361l120 492h166l-85 -347h160v347h166z" />
    <glyph glyph-name="five" unicode="5" horiz-adv-x="612" 
d="M567 296v-194.002c0 -14 -2.66699 -27.167 -8 -39.5s-12.5 -23.166 -21.5 -32.499s-19.667 -16.666 -32 -21.999s-25.5 -8 -39.5 -8h-412l26 144h322v105h-355v419h490l-25 -145h-299v-129h254c12 0 24 -2.5 36 -7.5s22.667 -11.833 32 -20.5s17 -19 23 -31s9 -25 9 -39z
" />
    <glyph glyph-name="six" unicode="6" horiz-adv-x="601" 
d="M459 394c12 0 23.998 -2.5 35.998 -7.5s22.833 -11.833 32.5 -20.5s17.5 -19 23.5 -31s9 -25 9 -39v-194c0 -14 -2.66699 -27.167 -8 -39.5s-12.666 -23.166 -21.999 -32.499s-20.166 -16.666 -32.499 -21.999s-25.5 -8 -39.5 -8h-312c-14 0 -27.167 2.66699 -39.5 8
s-23 12.666 -32 21.999s-16.167 20.166 -21.5 32.499s-8 25.5 -8 39.5v465c0 14 2.66699 27.167 8 39.5s12.5 23 21.5 32s19.667 16.167 32 21.5s25.5 8 39.5 8h378l-27 -145h-286v-129h248zM393.998 144v105h-183v-105h183z" />
    <glyph glyph-name="seven" unicode="7" horiz-adv-x="512" 
d="M502 670l-147 -670h-165l120 525h-297l26 145h463z" />
    <glyph glyph-name="eight" unicode="8" 
d="M567 443c0 -18.667 -4.16699 -34.4971 -12.5 -47.4971s-18 -23.833 -29 -32.5s-22.333 -15.167 -34 -19.5s-20.5 -7.5 -26.5 -9.5v-3c6 -1.33301 14.833 -4.16602 26.5 -8.49902s23 -10.833 34 -19.5s20.667 -19.667 29 -33s12.5 -30 12.5 -50v-118
c0 -14 -2.66699 -27.167 -8 -39.5s-12.5 -23.166 -21.5 -32.499s-19.833 -16.666 -32.5 -21.999s-26 -8 -40 -8h-321c-14 0 -27.167 2.66699 -39.5 8s-23 12.666 -32 21.999s-16.167 20.166 -21.5 32.499s-8 25.5 -8 39.5v123c0 18.667 4.16699 34.667 12.5 48
s18 24.166 29 32.499s22.167 14.666 33.5 18.999s20 7.5 26 9.5v4c-6 1.33301 -14.667 4.16602 -26 8.49902s-22.5 10.666 -33.5 18.999s-20.667 19.333 -29 33s-12.5 30.5 -12.5 50.5v118c0 14 2.66699 27.167 8 39.5s12.5 23 21.5 32s19.667 16.167 32 21.5s25.5 8 39.5 8
h321c14 0 27.333 -2.66699 40 -8s23.5 -12.5 32.5 -21.5s16.167 -19.667 21.5 -32s8 -25.5 8 -39.5v-124zM402 262.003h-194v-117l194 -1v118zM402 523.003l-194 2v-118h194v116z" />
    <glyph glyph-name="nine" unicode="9" horiz-adv-x="609" 
d="M460 668c14 0 27.335 -2.66992 40.002 -8.00293s23.5 -12.5 32.5 -21.5s16.167 -19.667 21.5 -32s8 -25.5 8 -39.5v-465c0 -14 -2.66699 -27.167 -8 -39.5s-12.5 -23.166 -21.5 -32.499s-19.833 -16.666 -32.5 -21.999s-26 -8 -40 -8h-378l27 145h286v130h-248
c-12 0 -24 2.33301 -36 7s-22.667 11.334 -32 20.001s-17 19 -23 31s-9 25 -9 39v195c0 14 2.66699 27.167 8 39.5s12.666 23 21.999 32s20.166 16.167 32.499 21.5s25.5 8 39.5 8h311zM395.002 419.997v105h-182v-105h182z" />
    <glyph glyph-name="colon" unicode=":" horiz-adv-x="279" 
d="M231 225v-54c0 -12.667 -4.33301 -23.334 -13 -32.001s-19.334 -13 -32.001 -13h-85c-12.667 0 -23.334 4.33301 -32.001 13s-13 19.334 -13 32.001v54c0 12 4.33301 22.5 13 31.5s19.334 13.5 32.001 13.5h85c12.667 0 23.334 -4.5 32.001 -13.5s13 -19.5 13 -31.5z
M186 467c12.667 0 23.334 -4.33301 32.001 -13s13 -19.334 13 -32.001v-53c0 -12.667 -4.33301 -23.334 -13 -32.001s-19.334 -13 -32.001 -13h-85c-12.667 0 -23.334 4.33301 -32.001 13s-13 19.334 -13 32.001v53c0 12.667 4.33301 23.334 13 32.001s19.334 13 32.001 13
h85z" />
    <glyph glyph-name="semicolon" unicode=";" horiz-adv-x="271" 
d="M178 340c12.667 0 23.334 -4.33301 32.001 -13s13 -19.334 13 -32.001v-53c0 -12.667 -4.33301 -23.334 -13 -32.001s-19.334 -13 -32.001 -13h-85c-12.667 0 -23.334 4.33301 -32.001 13s-13 19.334 -13 32.001v53c0 12.667 4.33301 23.334 13 32.001
s19.334 13 32.001 13h85zM221 130l-74 -206h-143l51 206h166z" />
    <glyph glyph-name="less" unicode="&#x3c;" horiz-adv-x="393" 
d="M350 0h-165l-169 333l169 337h165l-169 -337z" />
    <glyph glyph-name="equal" unicode="=" horiz-adv-x="405" 
d="M333 356h-284l26 146h284zM49 141h284l26 146h-284z" />
    <glyph glyph-name="greater" unicode="&#x3e;" horiz-adv-x="393" 
d="M41 670h165l169 -333l-169 -337h-164l168 337z" />
    <glyph glyph-name="question" unicode="?" horiz-adv-x="544" 
d="M263 99v-54c0 -12.667 -4.33301 -23.334 -13 -32.001s-19.334 -13 -32.001 -13h-85c-12.667 0 -23.334 4.33301 -32.001 13s-13 19.334 -13 32.001v54c0 12 4.33301 22.5 13 31.5s19.334 13.5 32.001 13.5h85c12.667 0 23.334 -4.5 32.001 -13.5s13 -19.5 13 -31.5z
M407 672c14 0 27.1689 -2.66504 39.502 -7.99805s23.166 -12.666 32.499 -21.999s16.666 -20.166 21.999 -32.499s8 -25.5 8 -39.5v-194c0 -14 -3 -26.833 -9 -38.5s-13.667 -21.834 -23 -30.501s-20.166 -15.334 -32.499 -20.001s-24.5 -7.33398 -36.5 -8.00098l-150 -1
v-59h-167v104c0 17.333 3.66699 32.166 11 44.499s16.166 22.5 26.499 30.5s21 14 32 18s20.167 6 27.5 6l155 1v105h-300l25 144h339z" />
    <glyph glyph-name="at" unicode="@" horiz-adv-x="727" 
d="M580 669c14 0 27.167 -2.66699 39.5 -8s23 -12.666 32 -21.999s16.167 -20.166 21.5 -32.499s8 -25.5 8 -39.5v-465c0 -14 -2.66699 -27.167 -8 -39.5s-12.5 -23.166 -21.5 -32.499s-19.667 -16.666 -32 -21.999s-25.5 -8 -39.5 -8l-112 1
c-17.333 0 -31.833 5.83301 -43.5 17.5s-17.5 26.167 -17.5 43.5v103h-125c-17.333 0 -32 5.83301 -44 17.5s-18 26.167 -18 43.5v234c0 16.667 6 31 18 43s26.667 18 44 18l226 -1v-419h48v466h-383v-467h174v-100h-199c-14 0 -27.167 2.66699 -39.5 8
s-23 12.666 -32 21.999s-16.167 20.166 -21.5 32.499s-8 25.5 -8 39.5v465c0 14 2.66699 27.167 8 39.5s12.5 23.166 21.5 32.499s19.667 16.666 32 21.999s25.5 8 39.5 8h432zM407 252v181h-86v-181h86z" />
    <glyph glyph-name="A" unicode="A" 
d="M594 0h-164l-25 99h-205l-24 -99h-163l137 525h-41l26 145h282zM369 244l-66 267l-67 -267h133z" />
    <glyph glyph-name="B" unicode="B" horiz-adv-x="618" 
d="M574 443c0 -18.667 -4.16699 -34.5059 -12.5 -47.5059s-18 -23.833 -29 -32.5s-22.333 -15.167 -34 -19.5s-20.5 -7.16602 -26.5 -8.49902v-4c6 -1.33301 14.833 -4.16602 26.5 -8.49902s23 -10.833 34 -19.5s20.667 -19.667 29 -33s12.5 -30 12.5 -50v-118
c0 -14 -2.66699 -27.167 -8 -39.5s-12.666 -23.166 -21.999 -32.499s-20.166 -16.666 -32.499 -21.999s-25.5 -8 -39.5 -8h-415l-2 524h-42l26 145h433c14 0 27.167 -2.66699 39.5 -8s23.166 -12.666 32.499 -21.999s16.666 -20.166 21.999 -32.499s8 -25.5 8 -39.5v-124z
M408 261.994h-188v-118h188v118zM408 522.994h-188v-116h188v116z" />
    <glyph glyph-name="C" unicode="C" horiz-adv-x="576" 
d="M211 144l340 0.00390625l-26 -144h-379c-14 0 -27.167 2.66699 -39.5 8s-23.166 12.666 -32.499 21.999s-16.666 20.166 -21.999 32.499s-8 25.5 -8 39.5v465c0 14 2.66699 27.167 8 39.5s12.666 23.166 21.999 32.499s20.166 16.666 32.499 21.999s25.5 8 39.5 8h404
l-27 -146h-312v-379z" />
    <glyph glyph-name="D" unicode="D" horiz-adv-x="623" 
d="M478 669c14 0 27.167 -2.66797 39.5 -8.00098s23 -12.5 32 -21.5s16.167 -19.667 21.5 -32s8 -25.5 8 -39.5v-465c0 -14 -2.66699 -27.333 -8 -40s-12.5 -23.667 -21.5 -33s-19.667 -16.666 -32 -21.999s-25.5 -8 -39.5 -8h-420v526h-43l26 143h437zM413 525.999h-190
v-380h190v380z" />
    <glyph glyph-name="E" unicode="E" horiz-adv-x="579" 
d="M218 146h329l-26 -146h-468v670h496l-28 -145h-303v-118h284l-20 -144h-264v-117z" />
    <glyph glyph-name="F" unicode="F" horiz-adv-x="562" 
d="M212 525v-118h284l-20 -144h-264v-263h-165l-1 670h495l-27 -145h-302z" />
    <glyph glyph-name="G" unicode="G" horiz-adv-x="612" 
d="M568 0l-419 0.00390625c-14 0 -27.167 2.66699 -39.5 8s-23.166 12.666 -32.499 21.999s-16.666 20.166 -21.999 32.499s-8 25.5 -8 39.5v465c0 14 2.66699 27.167 8 39.5s12.666 23.166 21.999 32.499s20.166 16.666 32.499 21.999s25.5 8 39.5 8h391l-27 -144h-299
v-380h188v119h-107l27 145h246v-409z" />
    <glyph glyph-name="H" unicode="H" horiz-adv-x="624" 
d="M571 670v-670h-166v263h-189v-263h-165v670h165v-263h189v263h166z" />
    <glyph glyph-name="I" unicode="I" horiz-adv-x="266" 
d="M215 0h-165v670h165v-670z" />
    <glyph glyph-name="J" unicode="J" horiz-adv-x="529" 
d="M480 669v-567.002c0 -14 -2.66699 -27.167 -8 -39.5s-12.5 -23.166 -21.5 -32.499s-19.833 -16.666 -32.5 -21.999s-26 -8 -40 -8h-363l25 145h273v524h167z" />
    <glyph glyph-name="K" unicode="K" horiz-adv-x="589" 
d="M578 0h-193l-156 263h-16v-263h-165v670h165v-262h17l155 262h193l-211 -334z" />
    <glyph glyph-name="L" unicode="L" horiz-adv-x="562" 
d="M515 0h-467l-1 670h165v-524h329z" />
    <glyph glyph-name="M" unicode="M" horiz-adv-x="717" 
d="M668 670v-670h-166v300l-137 -262h-2l-139 266v-304h-165v525h-43l27 145h181l140 -266l137 266h1h166z" />
    <glyph glyph-name="N" unicode="N" horiz-adv-x="623" 
d="M576 670v-670h-165l-189 331v-331h-165v526h-42l26 145l183 -1l187 -333v333h165z" />
    <glyph glyph-name="O" unicode="O" horiz-adv-x="612" 
d="M464 669c14 0 27.167 -2.66699 39.5 -8s23.166 -12.666 32.499 -21.999s16.666 -20.166 21.999 -32.499s8 -25.5 8 -39.5v-465c0 -14 -2.66699 -27.167 -8 -39.5s-12.666 -23.166 -21.999 -32.499s-20.166 -16.666 -32.499 -21.999s-25.5 -8 -39.5 -8h-317
c-14 0 -27.167 2.66699 -39.5 8s-23.166 12.666 -32.499 21.999s-16.666 20.166 -21.999 32.499s-8 25.5 -8 39.5v465c0 14 2.66699 27.167 8 39.5s12.666 23.166 21.999 32.499s20.166 16.666 32.499 21.999s25.5 8 39.5 8h317zM401 523h-189v-379h189v379z" />
    <glyph glyph-name="P" unicode="P" 
d="M472 669c14 0 27.167 -2.66699 39.5 -8s23 -12.5 32 -21.5s16.167 -19.667 21.5 -32s8 -25.5 8 -39.5v-241c0 -14 -2.66699 -27.167 -8 -39.5s-12.5 -23 -21.5 -32s-19.667 -16.167 -32 -21.5s-25.5 -8 -39.5 -8h-252v-226h-165v525h-43l26 144h434zM408 524h-189v-155
h189v155z" />
    <glyph glyph-name="Q" unicode="Q" 
d="M461 668c14 0 27.167 -2.66699 39.5 -8s23 -12.5 32 -21.5s16.167 -19.667 21.5 -32s8 -25.5 8 -39.5v-466c0 -14 -2.66699 -27.167 -8 -39.5s-12.5 -23 -21.5 -32s-19.667 -16.167 -32 -21.5s-25.5 -8 -39.5 -8h-47l56 -108h-180l-56 108h-91
c-14 0 -27.167 2.66699 -39.5 8s-23 12.5 -32 21.5s-16.167 19.667 -21.5 32s-8 25.5 -8 39.5v466c0 14 2.66699 27.167 8 39.5s12.5 23 21.5 32s19.667 16.167 32 21.5s25.5 8 39.5 8h318zM208 143h189v380h-189v-380z" />
    <glyph glyph-name="R" unicode="R" horiz-adv-x="621" 
d="M254 224l-30 -0.00390625v-224h-165v525h-43l26 145h434c14 0 27.167 -2.66699 39.5 -8s23 -12.666 32 -21.999s16.167 -20.166 21.5 -32.499s8 -25.5 8 -39.5v-242c0 -14 -2.66699 -27.167 -8 -39.5s-12.5 -23.166 -21.5 -32.499s-19.667 -16.666 -32 -21.999
s-25.5 -8 -39.5 -8h-42l145 -224h-180zM412 367.996v156h-189v-156h189z" />
    <glyph glyph-name="S" unicode="S" 
d="M42 567c0 14 2.66602 27.167 7.99902 39.5s12.5 23.166 21.5 32.499s19.667 16.666 32 21.999s25.5 8 39.5 8h390l-27 -145h-298v-104l254 -26c12 0 24 -2.5 36 -7.5s22.667 -11.833 32 -20.5s17 -19 23 -31s9 -25 9 -39v-194c0 -14 -2.66699 -27.167 -8 -39.5
s-12.5 -23.166 -21.5 -32.499s-19.667 -16.666 -32 -21.999s-25.5 -8 -39.5 -8h-399l27 144h308v105l-258 26c-2 0 -8.33301 1 -19 3s-21.667 6.33301 -33 13s-21.666 16.667 -30.999 30s-14 31.333 -14 54v192z" />
    <glyph glyph-name="T" unicode="T" horiz-adv-x="548" 
d="M514 524h-166v-524h-165v524h-172l26 145h503z" />
    <glyph glyph-name="U" unicode="U" horiz-adv-x="612" 
d="M568 670v-669.998h-419c-14 0 -27.167 2.66699 -39.5 8s-23 12.666 -32 21.999s-16.167 20.166 -21.5 32.499s-8 25.5 -8 39.5v568h165v-524h189v524h166z" />
    <glyph glyph-name="V" unicode="V" horiz-adv-x="601" 
d="M593 670l-177 -670h-229l-176 670h164l127 -481l127 481h164z" />
    <glyph glyph-name="W" unicode="W" horiz-adv-x="669" 
d="M655 670l-82 -670h-151v0v0v0v1l-86 213l-89 -213v-1h-151l-82 670h164l42 -303l115 265h2l113 -259l41 297h164z" />
    <glyph glyph-name="X" unicode="X" horiz-adv-x="584" 
d="M385 334l184 -334h-187l-90 165l-89 -165h-186l183 334l-184 336h183l93 -169l94 169h183z" />
    <glyph glyph-name="Y" unicode="Y" horiz-adv-x="576" 
d="M367 228v-228h-165v231l-194 439h189l88 -226l92 226h190z" />
    <glyph glyph-name="Z" unicode="Z" horiz-adv-x="528" 
d="M499 518l-272 -372h272l-27 -146h-436l-1 146l282 378h-282l26 145l438 1v-152z" />
    <glyph glyph-name="bracketleft" unicode="[" horiz-adv-x="385" 
d="M220 670v-669h127v-99h-291l-1 868h292v-100h-127z" />
    <glyph glyph-name="backslash" unicode="\" horiz-adv-x="477" 
d="M10 670h165l289 -670h-165z" />
    <glyph glyph-name="bracketright" unicode="]" horiz-adv-x="384" 
d="M163 1v669h-126v100h291v-868h-290v99h125z" />
    <glyph glyph-name="asciicircum" unicode="^" horiz-adv-x="386" 
d="M259 481l-60 126l-60 -126h-100l88 187h144l88 -187h-100z" />
    <glyph glyph-name="underscore" unicode="_" horiz-adv-x="596" 
d="M536 0h-504l26 145h505z" />
    <glyph glyph-name="grave" unicode="`" horiz-adv-x="259" 
d="M236 494l-209 68v106l209 -68v-106z" />
    <glyph glyph-name="a" unicode="a" horiz-adv-x="584" 
d="M378 82h-162l-20 -82h-177l137 446h-41l26 145l256 -1l177 -590h-174zM344 215l-49 189l-46 -189h95z" />
    <glyph glyph-name="b" unicode="b" horiz-adv-x="582" 
d="M539 404c0 -19.333 -4.16699 -35.502 -12.5 -48.502s-18 -23.833 -29 -32.5s-22.333 -15.167 -34 -19.5s-20.5 -7.16602 -26.5 -8.49902v-4c6 -1.33301 14.833 -4.16602 26.5 -8.49902s23 -10.833 34 -19.5s20.667 -19.667 29 -33s12.5 -30 12.5 -50v-78
c0 -14 -2.66699 -27.333 -8 -40s-12.5 -23.5 -21.5 -32.5s-19.667 -16.167 -32 -21.5s-25.5 -8 -39.5 -8h-378v444h-42l26 145h394c14 0 27.167 -2.66699 39.5 -8s23 -12.5 32 -21.5s16.167 -19.667 21.5 -32s8 -25.5 8 -39.5v-84zM374 221.998h-149v-79h149v79z
M374 443.998h-149v-77h149v77z" />
    <glyph glyph-name="c" unicode="c" horiz-adv-x="536" 
d="M202 143h301l-26 -143h-340c-14 0 -27.167 2.66699 -39.5 8s-23 12.5 -32 21.5s-16.167 19.833 -21.5 32.5s-8 26 -8 40v386c0 14 2.66699 27.167 8 39.5s12.5 23 21.5 32s19.667 16.167 32 21.5s25.5 8 39.5 8h368l-29 -145h-274v-301z" />
    <glyph glyph-name="d" unicode="d" horiz-adv-x="582" 
d="M435 590c14 0 27.167 -2.6709 39.5 -8.00391s23.166 -12.666 32.499 -21.999s16.666 -20.166 21.999 -32.499s8 -25.5 8 -39.5v-386c0 -14 -2.66699 -27.167 -8 -39.5s-12.666 -23.166 -21.999 -32.499s-20.166 -16.666 -32.499 -21.999s-25.5 -8 -39.5 -8h-380v446h-43
l26 144h397zM370 445.996h-150v-300h150v300z" />
    <glyph glyph-name="e" unicode="e" horiz-adv-x="533" 
d="M209 146h289l-26 -146h-429v590l456 1l-27 -145h-263v-78h244l-20 -145h-224v-77z" />
    <glyph glyph-name="f" unicode="f" horiz-adv-x="512" 
d="M207 446v-78h245l-20 -145h-225v-223h-165v590l452 1l-26 -145h-261z" />
    <glyph glyph-name="g" unicode="g" horiz-adv-x="561" 
d="M521 0h-380c-14 0 -27.167 2.66699 -39.5 8s-23.166 12.5 -32.499 21.5s-16.666 19.833 -21.999 32.5s-8 26 -8 40v386c0 14 2.66699 27.167 8 39.5s12.666 23 21.999 32s20.166 16.167 32.499 21.5s25.5 8 39.5 8h353l-27 -143h-261v-301h149v77h-81l27 145h219z" />
    <glyph glyph-name="h" unicode="h" horiz-adv-x="560" 
d="M523 590v-590h-166v223h-149v-223h-164l-1 590h165v-222h149v222h166z" />
    <glyph glyph-name="i" unicode="i" horiz-adv-x="247" 
d="M210 0h-165v590h165v-590z" />
    <glyph glyph-name="j" unicode="j" horiz-adv-x="481" 
d="M443 590l-0.00195312 -488c0 -14 -2.66699 -27.333 -8 -40s-12.666 -23.5 -21.999 -32.5s-20.166 -16.167 -32.499 -21.5s-25.5 -8 -39.5 -8h-324l25 145h234v445h167z" />
    <glyph glyph-name="k" unicode="k" horiz-adv-x="542" 
d="M531 0h-193l-117 223h-16v-223h-164l-1 590h165v-222h17l116 222h193l-172 -293z" />
    <glyph glyph-name="l" unicode="l" horiz-adv-x="517" 
d="M499 145l-26 -145h-428v590h165v-445h289z" />
    <glyph glyph-name="m" unicode="m" horiz-adv-x="669" 
d="M627 590v-590h-166v278l-120 -240h-2l-116 241v-279h-166v446h-42l27 145l181 -1l117 -213l120 213h167z" />
    <glyph glyph-name="n" unicode="n" horiz-adv-x="584" 
d="M538 590v-590h-165l-149 270v-270h-165v446h-42l26 145l181 -1l149 -259v259h165z" />
    <glyph glyph-name="o" unicode="o" horiz-adv-x="558" 
d="M419 589c14 0 27.167 -2.66699 39.5 -8s23.166 -12.5 32.499 -21.5s16.666 -19.667 21.999 -32s8 -25.5 8 -39.5v-386c0 -14 -2.66699 -27.333 -8 -40s-12.666 -23.5 -21.999 -32.5s-20.166 -16.167 -32.499 -21.5s-25.5 -8 -39.5 -8h-278c-14 0 -27.167 2.66699 -39.5 8
s-23 12.5 -32 21.5s-16.167 19.833 -21.5 32.5s-8 26 -8 40v386c0 14 2.66699 27.167 8 39.5s12.5 23 21.5 32s19.667 16.167 32 21.5s25.5 8 39.5 8h278zM355 444h-149v-301h149v301z" />
    <glyph glyph-name="p" unicode="p" horiz-adv-x="570" 
d="M438 590c14 0 27.167 -2.66895 39.5 -8.00195s23 -12.666 32 -21.999s16.167 -20.166 21.5 -32.499s8 -25.5 8 -39.5v-202c0 -14 -2.66699 -27.167 -8 -39.5s-12.5 -23 -21.5 -32s-19.667 -16.167 -32 -21.5s-25.5 -8 -39.5 -8h-212v-185h-165l-1 445h-43l27 145h394z
M374 444.998h-149v-117h149v117z" />
    <glyph glyph-name="q" unicode="q" horiz-adv-x="562" 
d="M420 590c14 0 27.167 -2.66699 39.5 -8s23.166 -12.666 32.499 -21.999s16.666 -20.166 21.999 -32.499s8 -25.5 8 -39.5v-387c0 -14 -2.66699 -27.167 -8 -39.5s-12.666 -23 -21.999 -32s-20.166 -16.167 -32.499 -21.5s-25.5 -8 -39.5 -8h-31l55 -105h-180l-55 105h-67
c-14 0 -27.167 2.66699 -39.5 8s-23 12.5 -32 21.5s-16.167 19.667 -21.5 32s-8 25.5 -8 39.5v387c0 14 2.66699 27.167 8 39.5s12.5 23.166 21.5 32.499s19.667 16.666 32 21.999s25.5 8 39.5 8h278zM207 143h149v302h-149v-302z" />
    <glyph glyph-name="r" unicode="r" horiz-adv-x="567" 
d="M247 184l-25 -0.00390625v-184h-165v445h-43l27 145h393c14 0 27.167 -2.66699 39.5 -8s23.166 -12.666 32.499 -21.999s16.666 -20.166 21.999 -32.499s8 -25.5 8 -39.5v-202c0 -14 -2.66699 -27.167 -8 -39.5s-12.666 -23.166 -21.999 -32.499
s-20.166 -16.666 -32.499 -21.999s-25.5 -8 -39.5 -8h-7l111 -184h-180zM371 327.996v117h-150v-117h150z" />
    <glyph glyph-name="s" unicode="s" horiz-adv-x="566" 
d="M46 487c0 14 2.66504 27.335 7.99805 40.002s12.5 23.5 21.5 32.5s19.667 16.167 32 21.5s25.5 8 39.5 8h350l-26 -145h-259v-64l215 -26c12 -1.33301 24 -4.33301 36 -9s22.667 -11.334 32 -20.001s17 -18.834 23 -30.501s9 -24.5 9 -38.5v-155
c0 -14 -2.66699 -27.167 -8 -39.5s-12.666 -23 -21.999 -32s-20.166 -16.167 -32.499 -21.5s-25.5 -8 -39.5 -8h-360l26 143h270v66l-218 26c-2.66699 0 -9.16699 1 -19.5 3s-21.333 6.33301 -33 13s-22 16.667 -31 30s-13.5 31.333 -13.5 54v152z" />
    <glyph glyph-name="t" unicode="t" horiz-adv-x="514" 
d="M480 445h-141v-445h-165v445h-158l26 145h464z" />
    <glyph glyph-name="u" unicode="u" horiz-adv-x="563" 
d="M527 590l-1.00195 -590h-378c-14 0 -27.167 2.66699 -39.5 8s-23.166 12.5 -32.499 21.5s-16.666 19.667 -21.999 32s-8 25.5 -8 39.5v489h166v-445h149v445h166z" />
    <glyph glyph-name="v" unicode="v" horiz-adv-x="562" 
d="M553 590l-176 -590h-190l-176 590h164l107 -358l107 358h164z" />
    <glyph glyph-name="w" unicode="w" horiz-adv-x="635" 
d="M626 590l-83 -590h-151l-68 174l-67 -174h-151l-83 590h165l42 -302l93 264h2l95 -263l41 301h165z" />
    <glyph glyph-name="x" unicode="x" horiz-adv-x="539" 
d="M366 295l161 -295h-192l-65 119l-65 -119h-190l159 295l-160 295h191l65 -119l65 119h192z" />
    <glyph glyph-name="y" unicode="y" horiz-adv-x="559" 
d="M364 190v-190h-165v191l-189 399h178l94 -212l94 212h177z" />
    <glyph glyph-name="z" unicode="z" horiz-adv-x="525" 
d="M496 439l-272 -293h272l-27 -146h-436l-1 146h3l279 299h-282v1l27 144h437v-151z" />
    <glyph glyph-name="braceleft" unicode="{" horiz-adv-x="420" 
d="M253 670l20 -179l-80 -158l80 -166l-20 -166h126v-99h-291l20 265l-80 160l80 166l-20 277h291v-100h-126z" />
    <glyph glyph-name="bar" unicode="|" horiz-adv-x="276" 
d="M223 -70h-164l-1 807h165v-807z" />
    <glyph glyph-name="braceright" unicode="}" horiz-adv-x="421" 
d="M166 1l-20 179l80 158l-80 167l20 165h-126v100h291l-20 -265l80 -161l-80 -166l20 -276h-290v99h125z" />
    <glyph glyph-name="asciitilde" unicode="~" horiz-adv-x="472" 
d="M445 318l-100.001 -101c-16 -16 -35.333 -24 -58 -24s-42 8 -58 24l-58 57l-63 -64l-83 82l101 100c8 8 16.833 14.167 26.5 18.5s19.834 6.5 30.501 6.5s21 -2 31 -6s19 -10 27 -18l58 -58l64 65z" />
    <glyph glyph-name="cent" unicode="&#xa2;" horiz-adv-x="564" 
d="M216 254l301 0.00195312l-26 -144h-124v-110h-166v110h-50c-14 0 -27.167 2.66699 -39.5 8s-23.166 12.5 -32.499 21.5s-16.666 19.833 -21.999 32.5s-8 26 -8 40v250c0 14 2.66699 27.167 8 39.5s12.666 23.166 21.999 32.499s20.166 16.666 32.499 21.999
s25.5 8 39.5 8h50v105h166v-105h152l-29 -145h-274v-165z" />
    <glyph glyph-name="sterling" unicode="&#xa3;" horiz-adv-x="603" 
d="M564 144l-27.001 -144h-479l67 242h-80l27 145h46l-51 152c-5.33301 12.667 -6.16602 26.667 -2.49902 42s10 29.5 19 42.5s20.167 23.833 33.5 32.5s27 13 41 13h321l-27 -145h-209l42 -137h140l-26 -145h-110l-30 -98h305z" />
    <glyph glyph-name="caron" unicode="&#x2c7;" horiz-adv-x="833" 
 />
    <glyph glyph-name="endash" unicode="&#x2013;" horiz-adv-x="713" 
d="M652 221h-284l27 145h284zM311 222h-284l27 145h284z" />
    <glyph glyph-name="emdash" unicode="&#x2014;" horiz-adv-x="704" 
d="M652 221h-284l27 145h284zM311 222h-284l27 145h284z" />
    <glyph glyph-name="quoteleft" unicode="&#x2018;" horiz-adv-x="285" 
d="M198 669l53 -206h-145l-73 206h165z" />
    <glyph glyph-name="quoteright" unicode="&#x2019;" horiz-adv-x="285" 
d="M100 669h165l-73 -206h-145z" />
    <glyph glyph-name="quotedblleft" unicode="&#x201c;" horiz-adv-x="518" 
d="M480 463h-145l-74 206h166zM36 669l73 -206h145l-53 206h-165z" />
    <glyph glyph-name="quotedblright" unicode="&#x201d;" horiz-adv-x="513" 
d="M99 669h165l-73 -206h-145zM325 669l-54 -206h146l73 206h-165z" />
    <glyph glyph-name="bullet" unicode="&#x2022;" horiz-adv-x="425" 
d="M294 159h-166c-20.667 0 -38.167 7.16699 -52.5 21.5s-21.5 31.5 -21.5 51.5v167c0 20 7.16699 37.167 21.5 51.5s31.833 21.5 52.5 21.5h166c20.667 0 38.167 -7.16699 52.5 -21.5s21.5 -31.5 21.5 -51.5v-167c0 -20 -7.16699 -37.167 -21.5 -51.5
s-31.833 -21.5 -52.5 -21.5z" />
    <glyph glyph-name="ellipsis" unicode="&#x2026;" horiz-adv-x="828" 
d="M228 44c0 -12.667 -4.33301 -23.334 -13 -32.001s-19.334 -13 -32.001 -13h-85c-12.667 0 -23.334 4.33301 -32.001 13s-13 19.334 -13 32.001v53c0 12.667 4.33301 23.334 13 32.001s19.334 13 32.001 13h85c12.667 0 23.334 -4.33301 32.001 -13s13 -19.334 13 -32.001
v-53zM504 44c0 -12.667 -4.33301 -23.334 -13 -32.001s-19.334 -13 -32.001 -13h-85c-12.667 0 -23.334 4.33301 -32.001 13s-13 19.334 -13 32.001v53c0 12.667 4.33301 23.334 13 32.001s19.334 13 32.001 13h85c12.667 0 23.334 -4.33301 32.001 -13
s13 -19.334 13 -32.001v-53zM780 44c0 -12.667 -4.33301 -23.334 -13 -32.001s-19.334 -13 -32.001 -13h-85c-12.667 0 -23.334 4.33301 -32.001 13s-13 19.334 -13 32.001v53c0 12.667 4.33301 23.334 13 32.001s19.334 13 32.001 13h85
c12.667 0 23.334 -4.33301 32.001 -13s13 -19.334 13 -32.001v-53z" />
    <glyph glyph-name="Euro" unicode="&#x20ac;" horiz-adv-x="581" 
d="M549 144l-26 -143.998h-320c-14 0 -27.167 2.66699 -39.5 8s-23.166 12.666 -32.499 21.999s-16.666 20.166 -21.999 32.499s-8 25.5 -8 39.5v103h-65l27 104h38v50h-65l27 105h38v103c0 14 2.66699 27.167 8 39.5s12.666 23 21.999 32s20.166 16.167 32.499 21.5
s25.5 8 39.5 8h345l-27 -145h-253v-59h152l-26 -105h-126v-50h152l-26 -104h-126v-61h281z" />
    <glyph glyph-name="trademark" unicode="&#x2122;" horiz-adv-x="558" 
d="M238 603h-62v-197h-62v197h-65l10 55h189zM502 658v-252h-62v113l-52 -99l-53 100v-114h-62v197h-16l10 55h68l53 -100l52 100h62z" />
    </font>
</defs>
</svg>
