<?xml version="1.0" standalone="no"?>
<!DOCTYPE svg PUBLIC "-//W3C//DTD SVG 1.1//EN" "http://www.w3.org/Graphics/SVG/1.1/DTD/svg11.dtd" >
<svg>
<metadata>
Created by FontForge 20090914 at Tue Jun 25 14:01:11 2013
 By www-data
Created by gluk with FontForge 1.0 (http://fontforge.sf.net)
This Font Software is licensed under the SIL Open Font License, V.1.1.
This license is available with a FAQ at: http://scripts.sil.org/OFL.
</metadata>
<defs>
<font id="Resagnicto" horiz-adv-x="1365" >
  <font-face 
    font-family="Resagnicto"
    font-weight="500"
    font-stretch="normal"
    units-per-em="2048"
    panose-1="2 0 5 3 0 0 0 0 0 0"
    ascent="1621"
    descent="-427"
    x-height="1195"
    cap-height="1621"
    bbox="-1133 -636 4053 2069"
    underline-thickness="85"
    underline-position="-426"
    unicode-range="U+0020-U+FB06"
  />
<missing-glyph horiz-adv-x="1109" 
d="M256 1109v-1024h597v1024h-597zM171 1195h768v-1195h-768v1195z" />
    <glyph glyph-name="uniFB00" unicode="ff" horiz-adv-x="1706" 
d="M256 0l-0.00195312 1088h-171v107h171v130c0 86 28.333 156.833 85 212.5s131.334 83.5 224.001 83.5c23.333 0 58.333 -4.33301 105 -13s91.334 -20.667 134.001 -36l92 -34l-28 -77l-104 34c-41.333 13.333 -74 20 -98 20c-82 0 -144.167 -14.833 -186.5 -44.5
s-63.5 -82.5 -63.5 -158.5c0 -10.667 3.66699 -49.667 11 -117h341v-107h-341v-1088h-171zM1109 0l-0.000976562 1088h-256v107h256v130c0 86 28.5 156.833 85.5 212.5s131.833 83.5 224.5 83.5c23.333 0 58.333 -4.33301 105 -13s91.334 -20.667 134.001 -36l91 -34
l-27 -77l-105 34c-41.333 13.333 -74 20 -98 20c-82 0 -144.167 -14.833 -186.5 -44.5s-63.5 -82.5 -63.5 -158.5c0 -10.667 3.66699 -49.667 11 -117h256v-107h-256v-1088h-171z" />
    <glyph glyph-name="uniFB01" unicode="fi" 
d="M811 1195l-0.00195312 -107h-384v-1088h-171v1088h-171v107h171v130c0 86 28.333 156.833 85 212.5s131.334 83.5 224.001 83.5c23.333 0 58.333 -4.33301 105 -13s91.334 -20.667 134.001 -36l92 -34l-28 -77l-104 34c-41.333 13.333 -74 20 -98 20
c-78.667 0 -140 -16.833 -184 -50.5s-66 -84.5 -66 -152.5c0 -10.667 3.66699 -49.667 11 -117h384zM1024 0v1195h171v-1195h-171zM1013 1621l192 0.000976562v-128c0 -28 -32 -42 -96 -42c-30 0 -53.5 4.16699 -70.5 12.5s-25.5 18.166 -25.5 29.499v128z" />
    <glyph glyph-name="uniFB02" unicode="fl" horiz-adv-x="1536" 
d="M256 0l-0.00195312 1088h-171v107h171v130c0 86 28.333 156.833 85 212.5s131.334 83.5 224.001 83.5c23.333 0 58.333 -4.33301 105 -13s91.334 -20.667 134.001 -36l92 -34l-28 -77l-104 34c-41.333 13.333 -74 20 -98 20c-78 0 -139.167 -17 -183.5 -51
s-66.5 -84.667 -66.5 -152c0 -8 3.66699 -47 11 -117h384v-107h-384v-1088h-171zM1024 1621l171 0.00195312v-917c0 -42.667 -3.66699 -117.334 -11 -224.001s-11 -164.334 -11 -173.001c0 -74 11.167 -129.5 33.5 -166.5s62.5 -55.5 120.5 -55.5
c18.667 0 48.667 6.66699 90 20l34 -82c-77.333 -28 -145 -42 -203 -42c-70.667 0 -125.667 27.5 -165 82.5s-59 126.167 -59 213.5v1344z" />
    <glyph glyph-name="uniFB03" unicode="ffi" horiz-adv-x="2261" 
d="M1909 1621l192 0.000976562v-128c0 -28 -32 -42 -96 -42c-30 0 -53.5 4.16699 -70.5 12.5s-25.5 18.166 -25.5 29.499v128zM1920 0.000976562v1195h171v-1195h-171zM868 1504l-104.002 33.999c-39.333 12.667 -72 19 -98 19c-78 0 -139.167 -16.833 -183.5 -50.5
s-66.5 -84.167 -66.5 -151.5c0 -39.333 3.66699 -92.666 11 -159.999h341v-107h-341v-1088h-171v1088h-171v107h171v172c0 86 28.333 157 85 213s131.334 84 224.001 84c23.333 0 58.333 -4.33301 105 -13s91.334 -20.667 134.001 -36l92 -34zM1749 1538l-27.001 -77
l-105 34c-41.333 13.333 -74 20 -98 20c-78 0 -139.167 -17 -183.5 -51s-66.5 -84.667 -66.5 -152c0 -10.667 3.66699 -49.667 11 -117h384v-107h-384v-1088h-171v1088h-256v107h256v130c0 86 28.5 156.833 85.5 212.5s131.833 83.5 224.5 83.5
c23.333 0 58.333 -4.33301 105 -13s91.334 -20.667 134.001 -36z" />
    <glyph glyph-name="uniFB04" unicode="ffl" horiz-adv-x="2389" 
d="M896 1538l-28.002 -77l-104 34c-41.333 13.333 -74 20 -98 20c-78 0 -139.167 -17 -183.5 -51s-66.5 -84.667 -66.5 -152c0 -10.667 3.66699 -49.667 11 -117h341v-107h-341v-1088h-171v1088h-171v107h171v130c0 86 28.333 156.833 85 212.5s131.334 83.5 224.001 83.5
c23.333 0 58.333 -4.33301 105 -13s91.334 -20.667 134.001 -36zM1749 1538l-27.001 -77l-105 34c-41.333 13.333 -74 20 -98 20c-78 0 -139.167 -17 -183.5 -51s-66.5 -84.667 -66.5 -152c0 -10.667 3.66699 -49.667 11 -117h384v-107h-384v-1088h-171v1088h-256v107h256
v130c0 86 28.5 156.833 85.5 212.5s131.833 83.5 224.5 83.5c23.333 0 58.333 -4.33301 105 -13s91.334 -20.667 134.001 -36zM2304 23c-77.333 -28 -145 -41.998 -203 -41.998c-70.667 0 -125.667 27.5 -165 82.5s-59 126.167 -59 213.5v1344h171v-917
c0 -42.667 -3.5 -117.334 -10.5 -224.001s-10.5 -164.334 -10.5 -173.001c0 -74 11 -129.5 33 -166.5s62 -55.5 120 -55.5c18.667 0 48.667 6.66699 90 20z" />
    <glyph glyph-name=".notdef" horiz-adv-x="1109" 
d="M256 1109v-1024h597v1024h-597zM171 1195h768v-1195h-768v1195z" />
    <glyph glyph-name="space" unicode=" " horiz-adv-x="938" 
 />
    <glyph glyph-name="exclam" unicode="!" horiz-adv-x="384" 
d="M256 128l-0.000976562 -84.998c0 -12 -0.833008 -20.333 -2.5 -25s-7.16699 -8.83398 -16.5 -12.501s-24.333 -5.5 -45 -5.5h-43c-28 0 -45.667 3 -53 9s-11 17.333 -11 34v85c0 7.33301 0.333008 12.666 1 15.999s2.83398 7.5 6.50098 12.5s10.167 8.66699 19.5 11
s21.666 3.5 36.999 3.5h43c20 0 34.833 -2 44.5 -6s15.334 -8.5 17.001 -13.5s2.5 -12.833 2.5 -23.5zM255.999 1621c-3.33301 -56 -9 -137.167 -17 -243.5s-14.333 -201.666 -19 -285.999s-7 -163.833 -7 -238.5c0 -120.667 7.33301 -234.334 22 -341.001h-128
c14 136 21 249.667 21 341c0 75.333 -2.33301 154.833 -7 238.5s-11 178.167 -19 283.5s-13.667 187.333 -17 246h171z" />
    <glyph glyph-name="quotedbl" unicode="&#x22;" horiz-adv-x="682" 
d="M512 1493c0 -10 -6.99902 -81.001 -20.999 -213.001h-86c6 42.667 9 78.334 9 107.001c0 36.667 -3.83301 66.167 -11.5 88.5s-16 36.666 -25 42.999s-17.333 13 -25 20s-11.5 14.833 -11.5 23.5c0 34.667 7.66699 60.334 23 77.001s35.666 25 60.999 25h87v-171z
M256.001 1493c0 -10 -6.99902 -81.001 -20.999 -213.001h-86c6 42.667 9 78.334 9 107.001c0 36.667 -3.83301 66.167 -11.5 88.5s-16 36.666 -25 42.999s-17.333 13 -25 20s-11.5 14.833 -11.5 23.5c0 34.667 7.66699 60.334 23 77.001s35.666 25 60.999 25h87v-171z" />
    <glyph glyph-name="numbersign" unicode="#" horiz-adv-x="1280" 
d="M943 1451l-30 -342h256l-8 -85h-256l-43 -512h256l-9 -85h-256l-30 -342h-85l30 342h-341l-30 -342h-86l30 342h-256l9 85h256l43 512h-256l8 85h256l30 342h85l-30 -342h342l30 342h85zM435 512h342l42 512h-341z" />
    <glyph glyph-name="dollar" unicode="$" 
d="M1054 384c0 27.333 -3.83398 52.3311 -11.501 74.998s-16.167 41.167 -25.5 55.5s-23.5 29 -42.5 44s-34.5 26 -46.5 33l-53 29.5l-192 104v-576c64.667 3.33301 121.834 13 171.501 29s88.5 35.833 116.5 59.5s48.833 47.834 62.5 72.501s20.5 49.334 20.5 74.001z
M682.999 -85.002l-86 -0.000976562v149c-173.333 1.33301 -346.666 34.666 -519.999 99.999l42 103c141.333 -49.333 236.333 -80 285 -92c63.333 -15.333 127.666 -24 192.999 -26v621l-234 128c-82.667 42 -146 93.167 -190 153.5s-66 121.5 -66 183.5
c0 85.333 40.333 156.833 121 214.5s196.667 86.5 348 86.5h21v85h86v-85c126 -3.33301 257.333 -29.666 394 -78.999l-42 -98l-75 25l-76 24.5c-14 4.33301 -34.333 10 -61 17s-50.667 12.167 -72 15.5s-44 6 -68 8v-525l307 -167c74.667 -40 131 -84 169 -132
s57 -106.333 57 -175c0 -42 -6 -81.333 -18 -118s-31.5 -71.5 -58.5 -104.5s-60.667 -61.167 -101 -84.5s-90.833 -42.166 -151.5 -56.499s-128.667 -21.833 -204 -22.5v-149zM596.999 970.997v480.001c-102.667 -2 -183 -20.667 -241 -56s-87 -78.666 -87 -129.999
c0 -38.667 16.833 -77.834 50.5 -117.501s83.5 -75.834 149.5 -108.501z" />
    <glyph glyph-name="percent" unicode="%" horiz-adv-x="2133" 
d="M512 896c39.333 0 74.5 7 105.5 21s55.5 31.333 73.5 52s33.167 44.667 45.5 72s20.666 52.833 24.999 76.5s6.5 46.5 6.5 68.5v60c0 22 -2.33301 45 -7 69s-13 49.5 -25 76.5s-27.167 50.833 -45.5 71.5s-43 38 -74 52s-65.833 21 -104.5 21
c-39.333 0 -74.5 -7 -105.5 -21s-55.5 -31.333 -73.5 -52s-33.167 -44.667 -45.5 -72s-20.666 -52.833 -24.999 -76.5s-6.5 -46.5 -6.5 -68.5v-60c0 -22 2.33301 -45 7 -69s13 -49.5 25 -76.5s27.167 -50.833 45.5 -71.5s43 -38 74 -52s65.833 -21 104.5 -21zM480 1621h64
c62.667 0 118.334 -9.5 167.001 -28.5s86.834 -42.667 114.501 -71s50.5 -61 68.5 -98s30 -71.167 36 -102.5s9 -62 9 -92v-26c0 -30 -3 -60.667 -9 -92s-18 -65.5 -36 -102.5s-40.833 -69.667 -68.5 -98s-65.834 -52 -114.501 -71s-104.334 -28.5 -167.001 -28.5h-64
c-62.667 0 -118.334 9.5 -167.001 28.5s-86.834 42.667 -114.501 71s-50.5 61 -68.5 98s-30 71.167 -36 102.5s-9 62 -9 92v26c0 30 3 60.667 9 92s18 65.5 36 102.5s40.833 69.667 68.5 98s65.834 52 114.501 71s104.334 28.5 167.001 28.5zM1579 64
c39.333 0 74.5 7 105.5 21s55.5 31.333 73.5 52s33.167 44.667 45.5 72s20.666 52.833 24.999 76.5s6.5 46.5 6.5 68.5v60c0 22 -2.33301 45 -7 69s-13 49.5 -25 76.5s-27.167 50.833 -45.5 71.5s-43 38 -74 52s-65.833 21 -104.5 21c-39.333 0 -74.5 -7 -105.5 -21
s-55.5 -31.333 -73.5 -52s-33.167 -44.667 -45.5 -72s-20.666 -52.833 -24.999 -76.5s-6.5 -46.5 -6.5 -68.5v-60c0 -22 2.33301 -45 7 -69s13 -49.5 25 -76.5s27.167 -50.833 45.5 -71.5s43 -38 74 -52s65.833 -21 104.5 -21zM1547 789h64
c62.667 0 118.334 -9.5 167.001 -28.5s86.834 -42.667 114.501 -71s50.334 -61 68.001 -98s29.5 -71.167 35.5 -102.5s9 -62 9 -92v-26c0 -30 -3 -60.667 -9 -92s-17.833 -65.5 -35.5 -102.5s-40.334 -69.667 -68.001 -98s-65.834 -52 -114.501 -71
s-104.334 -28.5 -167.001 -28.5h-64c-62.667 0 -118.334 9.5 -167.001 28.5s-86.834 42.667 -114.501 71s-50.5 61 -68.5 98s-30 71.167 -36 102.5s-9 62 -9 92v26c0 30 3 60.667 9 92s18 65.5 36 102.5s40.833 69.667 68.5 98s65.834 52 114.501 71
s104.334 28.5 167.001 28.5zM1391 1621l77 -38l-811 -1621l-77 38z" />
    <glyph glyph-name="ampersand" unicode="&#x26;" horiz-adv-x="1706" 
d="M1280 610c0 53.333 -6.33203 99.6641 -18.999 138.997l-62 192l98 42c17.333 -34 33 -89.833 47 -167.5s21 -146.167 21 -205.5c0 -105.333 -17.667 -199 -53 -281l147 -139c50.667 -47.333 85.167 -76.666 103.5 -87.999s40.833 -17 67.5 -17h34v-85h-162
c-17.333 0 -33.333 1.16699 -48 3.5s-26.334 4.66602 -35.001 6.99902s-18 6.83301 -28 13.5s-17.167 11.667 -21.5 15s-11.5 9.83301 -21.5 19.5l-21 20.5l-109 102c-61.333 -68.667 -137.333 -119.5 -228 -152.5s-187.334 -49.5 -290.001 -49.5
c-64.667 0 -127 5.5 -187 16.5s-116 27.833 -168 50.5s-97.333 50.334 -136 83.001s-69 72 -91 118s-33 96 -33 150c0 41.333 9 81.5 27 120.5s40 72.333 66 100s57.167 54.834 93.5 81.501s68.666 47.667 96.999 63l89 47.5c31 16.333 50.5 26.833 58.5 31.5l-15 12
c-79.333 68 -134.666 133.5 -165.999 196.5s-47 127.167 -47 192.5c0 90.667 28.833 162.334 86.5 215.001s142.5 79 254.5 79c60 0 130.5 -7.16699 211.5 -21.5s138.5 -29.833 172.5 -46.5l-42 -98l-192 61c-41.333 13.333 -80.666 20 -117.999 20
c-29.333 0 -56.833 -2.33301 -82.5 -7s-50.334 -12.334 -74.001 -23.001s-42.5 -26.667 -56.5 -48s-21 -46.666 -21 -75.999c0 -58 11.333 -106.333 34 -145s72.334 -94 149.001 -166l634 -593c24 64.667 36 137 36 217zM1154 240.998l-572 536.002
c-40.667 -20 -75.167 -38.5 -103.5 -55.5s-57.5 -37.167 -87.5 -60.5s-54.167 -47 -72.5 -71s-33.333 -52 -45 -84s-17.5 -66.333 -17.5 -103c0 -51.333 14.333 -99 43 -143s66 -79.833 112 -107.5s96.667 -49.334 152 -65.001s111 -23.5 167 -23.5
c81.333 0 159.333 14.667 234 44s138 73.666 190 132.999z" />
    <glyph glyph-name="quotesingle" unicode="'" horiz-adv-x="341" 
d="M256 1493c0 -10 -6.99902 -81.001 -20.999 -213.001h-86c6 42.667 9 78.334 9 107.001c0 36.667 -3.83301 66.167 -11.5 88.5s-16 36.666 -25 42.999s-17.333 13 -25 20s-11.5 14.833 -11.5 23.5c0 34.667 7.66699 60.334 23 77.001s35.666 25 60.999 25h87v-171z" />
    <glyph glyph-name="parenleft" unicode="(" horiz-adv-x="682" 
d="M256 604c0 -99.333 7.83398 -189.666 23.501 -270.999s38.5 -152 68.5 -212s61.167 -111 93.5 -153s70.166 -83.333 113.499 -124l64 -57l-60 -64l-124 115c-233.333 216 -350 505.333 -350 868s116.667 652 350 868l124 116l60 -64l-64 -58
c-44 -40.667 -82 -81.834 -114 -123.501s-63 -92.667 -93 -153s-52.833 -131 -68.5 -212s-23.5 -171.167 -23.5 -270.5v-205z" />
    <glyph glyph-name="parenright" unicode=")" horiz-adv-x="682" 
d="M427 604l0.000976562 205c0 99.333 -7.83301 189.5 -23.5 270.5s-38.5 151.667 -68.5 212s-61 111.333 -93 153s-70 82.834 -114 123.501l-64 58l60 64l123 -116c233.333 -216 350 -505.333 350 -868s-116.667 -652 -350 -868l-123 -115l-60 64l64 57
c43.333 40.667 81.166 82 113.499 124s63.5 93 93.5 153s52.833 130.667 68.5 212s23.5 171.666 23.5 270.999z" />
    <glyph glyph-name="asterisk" unicode="*" horiz-adv-x="819" 
d="M337 1557l28 17l6 154h77l6 -154l28 -17l143 43l24 -73l-141 -57l-9 -32l81 -120l-62 -42l-91 109h-34l-92 -109l-62 42l81 120l-9 32l-140 57l23 73z" />
    <glyph glyph-name="plus" unicode="+" horiz-adv-x="1280" 
d="M555 1365h85v-512h469v-85h-469v-512h-85v512h-470v85h470v512z" />
    <glyph glyph-name="comma" unicode="," horiz-adv-x="512" 
d="M341 128l0.000976562 -127.998c-2.66699 -50.667 -66 -133 -190 -247l-55 64c37.333 40 65.166 72 83.499 96s28.833 39.5 31.5 46.5s4 14.833 4 23.5c0 15.333 -7.33301 33.666 -22 54.999s-22 36.333 -22 45v45c0 7.33301 0.333008 12.666 1 15.999
s2.83398 7.5 6.50098 12.5s10.167 8.66699 19.5 11s21.666 3.5 36.999 3.5h42c29.333 0 47.333 -3 54 -9s10 -17.333 10 -34z" />
    <glyph glyph-name="hyphen" unicode="-" horiz-adv-x="896" 
d="M726 683v-85h-555v85h555z" />
    <glyph glyph-name="period" unicode="." horiz-adv-x="512" 
d="M341 128l-0.000976562 -84.998c0 -12 -0.833008 -20.333 -2.5 -25s-7.16699 -8.83398 -16.5 -12.501s-24.333 -5.5 -45 -5.5h-42c-28 0 -45.667 3 -53 9s-11 17.333 -11 34v85c0 7.33301 0.333008 12.666 1 15.999s2.83398 7.5 6.50098 12.5s10.167 8.66699 19.5 11
s21.666 3.5 36.999 3.5h42c20 0 34.833 -2 44.5 -6s15.334 -8.5 17.001 -13.5s2.5 -12.833 2.5 -23.5z" />
    <glyph glyph-name="slash" unicode="/" horiz-adv-x="1024" 
d="M879 1621l77 -38l-811 -1621l-77 38z" />
    <glyph glyph-name="zero" unicode="0" 
d="M683 64c47.333 0 90.667 6.83301 130 20.5s71.666 31.167 96.999 52.5s46.833 45.333 64.5 72s30.334 52.167 38.001 76.5s11.5 47.166 11.5 68.499v892c0 21.333 -3.83301 44.333 -11.5 69s-20.5 50.167 -38.5 76.5s-39.667 50.166 -65 71.499
s-57.666 38.833 -96.999 52.5s-82.333 20.5 -129 20.5c-47.333 0 -90.666 -6.83301 -129.999 -20.5s-71.833 -31.167 -97.5 -52.5s-47.334 -45.333 -65.001 -72s-30.334 -52.167 -38.001 -76.5s-11.5 -47.166 -11.5 -68.499v-892c0 -21.333 3.83301 -44.333 11.5 -69
s20.5 -50.167 38.5 -76.5s39.833 -50.166 65.5 -71.499s58.167 -38.833 97.5 -52.5s82.333 -20.5 129 -20.5zM683.001 1621c62.667 0 120 -6.5 172 -19.5s95.167 -29.833 129.5 -50.5s64.833 -45 91.5 -73s47.167 -55.5 61.5 -82.5s26.166 -55 35.499 -84
s15.333 -53.167 18 -72.5s4 -37 4 -53v-772c0 -16 -1.33301 -33.667 -4 -53s-8.66699 -43.5 -18 -72.5s-21.166 -57 -35.499 -84s-34.833 -54.5 -61.5 -82.5s-57.167 -52.333 -91.5 -73s-77.5 -37.5 -129.5 -50.5s-109.333 -19.5 -172 -19.5s-120 6.5 -172 19.5
s-95.167 29.833 -129.5 50.5s-64.833 45 -91.5 73s-47.167 55.5 -61.5 82.5s-26.166 55 -35.499 84s-15.333 53.167 -18 72.5s-4 37 -4 53v772c0 16 1.33301 33.667 4 53s8.66699 43.5 18 72.5s21.166 57 35.499 84s34.833 54.5 61.5 82.5s57.167 52.333 91.5 73
s77.5 37.5 129.5 50.5s109.333 19.5 172 19.5z" />
    <glyph glyph-name="one" unicode="1" horiz-adv-x="597" 
d="M85 1549l342 72v-1621h-171v1431c0 20.667 -3.66699 35.167 -11 43.5s-18.666 12.5 -33.999 12.5c-8.66699 0 -18.834 -1 -30.501 -3s-27.5 -5.33301 -47.5 -10l-48 -11v86z" />
    <glyph glyph-name="two" unicode="2" horiz-adv-x="1194" 
d="M85 0l0.000976562 132.001c265.333 278 431 454 497 528c117.333 133.333 194 239.666 230 318.999c27.333 61.333 41 128.333 41 201c0 50 -5.83301 95.5 -17.5 136.5s-29.834 78.333 -54.501 112s-58.667 60 -102 79s-94.666 28.5 -153.999 28.5
c-39.333 0 -78.666 -6.33301 -117.999 -19l-192 -62l-42 98c34 17.333 89.833 33 167.5 47s146.167 21 205.5 21h51c60.667 0 118.167 -11.5 172.5 -34.5s99.666 -52.833 135.999 -89.5s65.166 -78.5 86.499 -125.5s32 -94.5 32 -142.5c0 -41.333 -2.16699 -79 -6.5 -113
s-12.333 -67.833 -24 -101.5s-24.167 -64 -37.5 -91s-33 -58 -59 -93s-51 -66.333 -75 -94s-57.167 -63.5 -99.5 -107.5l-118.5 -120.5l-145.5 -146l-168.5 -172.5v-19h734v-171h-939z" />
    <glyph glyph-name="three" unicode="3" horiz-adv-x="1194" 
d="M757 939c91.333 0 165.832 -31.166 223.499 -93.499s86.5 -137.166 86.5 -224.499v-207c0 -31.333 -3.33301 -63.5 -10 -96.5s-21.167 -70.667 -43.5 -113s-51.5 -79.333 -87.5 -111s-87 -58.667 -153 -81s-142.333 -33.5 -229 -33.5h-41c-56 0 -130.333 11 -223 33
s-157.667 42.333 -195 61l43 98l192 -64c84.667 -28.667 148.667 -43 192 -43c118 0 211.5 26 280.5 78s103.5 115.667 103.5 191v284c0 66.667 -24.167 122.667 -72.5 168s-103.833 68 -166.5 68h-145v86h51c44 0 86 16 126 48s70.333 67.5 91 106.5s31 72.833 31 101.5v83
c0 34.667 -4.83301 66.667 -14.5 96s-25.167 56.5 -46.5 81.5s-51.333 44.667 -90 59s-84.334 21.5 -137.001 21.5c-39.333 0 -78.666 -6.33301 -117.999 -19l-192 -62l-42 98c34 17.333 89.833 33 167.5 47s146.167 21 205.5 21c50.667 0 96.5 -4.5 137.5 -13.5
s74.833 -20.5 101.5 -34.5s50 -31.5 70 -52.5s35.333 -41.667 46 -62s19.167 -43.333 25.5 -69s10.333 -47.834 12 -66.501s2.5 -39.334 2.5 -62.001v-45c0 -16 -2.83301 -34.667 -8.5 -56s-14.667 -45.5 -27 -72.5s-31.166 -53.833 -56.499 -80.5s-55.333 -48.667 -90 -66
v-2z" />
    <glyph glyph-name="four" unicode="4" horiz-adv-x="1194" 
d="M43 365l108.001 142.498c28.667 39 62.667 88.167 102 147.5s71.833 113.333 97.5 162s52.667 105.834 81 171.501s50.666 129.667 66.999 192s29.833 131.5 40.5 207.5s16 153.667 16 233h170c0 -72 -5.33301 -142.5 -16 -211.5s-24.167 -132.667 -40.5 -191
s-39.5 -120 -69.5 -185s-58.667 -122.167 -86 -171.5s-63.833 -107.166 -109.5 -173.499l-119.5 -169l-135 -178.5h704v512h171v-512h85v-85h-85v-256h-171v256h-810v109z" />
    <glyph glyph-name="five" unicode="5" horiz-adv-x="1237" 
d="M597 -21c-73.333 0 -144.67 6.33301 -214.003 19s-118.5 24 -147.5 34s-50.5 18.667 -64.5 26l42 98l150 -49c42 -14 77 -24.167 105 -30.5s49.333 -10 64 -11s36.334 -1.5 65.001 -1.5c47.333 0 90.666 6.83301 129.999 20.5s71.833 31.167 97.5 52.5
s47.334 45.333 65.001 72s30.334 52.167 38.001 76.5s11.5 47.166 11.5 68.499v433c0 74.667 -19.833 129.334 -59.5 164.001s-92.5 52 -158.5 52c-38 0 -77.667 -6.66699 -119 -20l-389 -130h-42v768h853v-170h-768v-512l305 121c41.333 16 88.333 28.167 141 36.5
s92.334 12.5 119.001 12.5c91.333 0 162.166 -27.5 212.499 -82.5s75.5 -126.167 75.5 -213.5v-399c0 -16 -1.33301 -33.667 -4 -53s-8.66699 -43.5 -18 -72.5s-21.166 -57 -35.499 -84s-34.833 -54.5 -61.5 -82.5s-57.167 -52.333 -91.5 -73s-77.5 -37.5 -129.5 -50.5
s-109.333 -19.5 -172 -19.5z" />
    <glyph glyph-name="six" unicode="6" horiz-adv-x="1322" 
d="M1195 813l-0.00292969 -398.999c0 -16 -1.33301 -33.667 -4 -53s-8.66699 -43.5 -18 -72.5s-21.166 -57 -35.499 -84s-34.833 -54.5 -61.5 -82.5s-57.167 -52.333 -91.5 -73s-77.5 -37.5 -129.5 -50.5s-109.333 -19.5 -172 -19.5s-120 6.5 -172 19.5
s-95.167 29.833 -129.5 50.5s-64.833 45 -91.5 73s-47.167 55.5 -61.5 82.5s-26.166 55 -35.499 84s-15.333 53.167 -18 72.5s-4 37 -4 53v770c0 24 0.833008 46.167 2.5 66.5s6 46.166 13 77.499s16.667 59.333 29 84s30.666 50.667 54.999 78s52.833 50 85.5 68
s74.334 33 125.001 45s107.334 18 170.001 18h40c56 0 130.333 -11 223 -33s157.667 -42.333 195 -61l-42 -98l-192 62c-80.667 27.333 -144.667 41 -192 41c-59.333 0 -111.666 -8.16699 -156.999 -24.5s-81 -38.5 -107 -66.5s-45.5 -58.5 -58.5 -91.5
s-19.5 -68.167 -19.5 -105.5v-303l305 119c41.333 16 88.5 28.167 141.5 36.5s92.833 12.5 119.5 12.5c91.333 0 162.166 -27.5 212.499 -82.5s75.5 -126.167 75.5 -213.5zM1024 787.001c0 74.667 -19.832 129.333 -59.499 164s-92.5 52 -158.5 52
c-38 0 -77.667 -6.66699 -119 -20l-346 -113v-516c0 -21.333 3.83301 -44.333 11.5 -69s20.5 -50.167 38.5 -76.5s39.833 -50.166 65.5 -71.499s58.167 -38.833 97.5 -52.5s82.333 -20.5 129 -20.5c47.333 0 90.666 6.83301 129.999 20.5s71.666 31.167 96.999 52.5
s46.833 45.333 64.5 72s30.334 52.167 38.001 76.5s11.5 47.166 11.5 68.499v433z" />
    <glyph glyph-name="seven" unicode="7" horiz-adv-x="1109" 
d="M1067 1621l0.000976562 -85c-370 -393.333 -555 -905.333 -555 -1536h-171c0 228 48.167 467.333 144.5 718s233.166 495 410.499 733h-811v170h982z" />
    <glyph glyph-name="eight" unicode="8" horiz-adv-x="1280" 
d="M578 836l-79 -45.5l-78 -49c-32.667 -21 -58.834 -39.5 -78.501 -55.5s-41.667 -36 -66 -60s-43.333 -47.167 -57 -69.5s-25.167 -47.333 -34.5 -75s-14 -55.834 -14 -84.501c0.666992 -32.667 5.5 -64.167 14.5 -94.5s24.667 -60.333 47 -90s50.333 -55.167 84 -76.5
s77.334 -38.666 131.001 -51.999s114.167 -20 181.5 -20h32c116 0 206.5 29 271.5 87s97.5 128.667 97.5 212c0 48 -13.667 96.833 -41 146.5s-67 92.5 -119 128.5zM499 890l-55.002 35.9961c-74 50.667 -129.5 107.834 -166.5 171.501s-55.5 127.5 -55.5 191.5
c0 92.667 36.167 171.167 108.5 235.5s168.5 96.5 288.5 96.5h42c112.667 0 204.834 -27 276.501 -81s107.5 -125 107.5 -213c0 -32.667 -3.5 -63.5 -10.5 -92.5s-19.667 -61.167 -38 -96.5s-46.666 -71.333 -84.999 -108s-85.5 -72.667 -141.5 -108l224 -152
c64 -43.333 113.5 -99.166 148.5 -167.499s52.5 -138.166 52.5 -209.499c0 -54.667 -9.66699 -106 -29 -154s-48.5 -91.833 -87.5 -131.5s-91.5 -71 -157.5 -94s-142 -34.5 -228 -34.5h-64c-95.333 0 -179 12 -251 36s-128.5 56.333 -169.5 97s-71.5 84.834 -91.5 132.501
s-30.667 98.5 -32 152.5c0 46 8.83301 90.5 26.5 133.5s39.167 80.5 64.5 112.5s58 64.333 98 97s76.5 59.667 109.5 81s71.5 44.333 115.5 69zM690.998 974.996c54.667 32.667 100.668 65.335 138.001 98.002s65 64 83 94s30.5 57 37.5 81s10.5 49 10.5 75
c0 65.333 -28 117.166 -84 155.499s-127.667 57.5 -215 57.5c-49.333 0 -97.333 -8.16699 -144 -24.5s-85.834 -40.5 -117.501 -72.5s-47.5 -68 -47.5 -108c0 -82.667 69 -171.334 207 -266.001z" />
    <glyph glyph-name="nine" unicode="9" horiz-adv-x="1322" 
d="M128 786.927l0.00292969 399c0 16 1.33301 33.667 4 53.001c2.66699 19.333 8.66699 43.5 18 72.501s21.166 57.002 35.499 84.0029s34.833 54.502 61.5 82.5039c26.667 28.001 57.167 52.3359 91.5 73.0049s77.5 37.5049 129.5 50.5078
c52 13.0039 109.333 19.5078 172 19.5107c62.667 0.00390625 120 -6.49219 172 -19.4893s95.167 -29.8281 129.5 -50.4932s64.833 -44.9961 91.5 -72.9941c26.667 -27.999 47.167 -55.498 61.5 -82.4971s26.166 -54.998 35.499 -83.9971s15.333 -53.165 18 -72.498
s4 -37 4 -53v-770c0 -24 -0.833008 -46.167 -2.5 -66.5s-6 -46.167 -13 -77.501c-7 -31.333 -16.667 -59.334 -29 -84.002c-12.333 -24.667 -30.666 -50.668 -54.999 -78.0029s-52.833 -50.0029 -85.5 -68.0049s-74.334 -33.0049 -125.001 -45.0078
s-107.334 -18.0068 -170.001 -18.0107l-40 -0.00195312c-56 -0.00292969 -130.333 10.9922 -223 32.9863s-157.667 42.3232 -195 60.9883l42 98.002l192 -61.9883c80.667 -27.3281 144.667 -40.9912 192 -40.9883c59.333 0.00390625 111.666 8.17383 156.999 24.5098
s81 38.5049 107 66.5068c26 28.001 45.5 58.502 58.5 91.5029s19.5 68.168 19.5 105.501v303l-305 -119.019c-41.333 -16.0029 -88.5 -28.1729 -141.5 -36.5098s-92.833 -12.5059 -119.5 -12.5078c-91.333 -0.00488281 -162.166 27.4912 -212.499 82.4883
s-75.5 126.162 -75.5 213.495zM299.003 812.938c0 -74.667 19.832 -129.333 59.499 -163.997c39.667 -34.665 92.5 -51.9951 158.5 -51.9902c38 0.00195312 77.667 6.6709 119 20.0068l346 113.021v516c0 21.333 -3.83301 44.333 -11.5 68.999s-20.5 50.165 -38.5 76.498
c-18 26.332 -39.833 50.1641 -65.5 71.4961c-25.667 21.3311 -58.167 38.8291 -97.5 52.4932c-39.333 13.665 -82.333 20.4961 -129 20.4932c-47.333 -0.00292969 -90.666 -6.83887 -129.999 -20.5078s-71.666 -31.1709 -96.999 -52.5059s-46.833 -45.3359 -64.5 -72.0039
c-17.667 -26.667 -30.334 -52.168 -38.001 -76.502s-11.5 -47.168 -11.5 -68.501v-433z" />
    <glyph glyph-name="colon" unicode=":" horiz-adv-x="512" 
d="M341 130l-0.000976562 -84.998c0 -12 -0.833008 -20.333 -2.5 -25s-7.16699 -8.83398 -16.5 -12.501s-24.333 -5.5 -45 -5.5h-42c-28 0 -45.667 3 -53 9s-11 17.333 -11 34v85c0 7.33301 0.333008 12.666 1 15.999s2.83398 7.5 6.50098 12.5s10.167 8.66699 19.5 11
s21.666 3.5 36.999 3.5h42c20 0 34.833 -2 44.5 -6s15.334 -8.5 17.001 -13.5s2.5 -12.833 2.5 -23.5zM340.999 1152l-0.000976562 -84.998c0 -12 -0.833008 -20.333 -2.5 -25s-7.16699 -8.83398 -16.5 -12.501s-24.333 -5.5 -45 -5.5h-42c-28 0 -45.667 3 -53 9
s-11 17.333 -11 34v85c0 7.33301 0.333008 12.666 1 15.999s2.83398 7.5 6.50098 12.5s10.167 8.66699 19.5 11s21.666 3.5 36.999 3.5h42c20 0 34.833 -2 44.5 -6s15.334 -8.5 17.001 -13.5s2.5 -12.833 2.5 -23.5z" />
    <glyph glyph-name="semicolon" unicode=";" horiz-adv-x="512" 
d="M341 1152l-0.000976562 -84.998c0 -12 -0.833008 -20.333 -2.5 -25s-7.16699 -8.83398 -16.5 -12.501s-24.333 -5.5 -45 -5.5h-42c-28 0 -45.667 3 -53 9s-11 17.333 -11 34v85c0 7.33301 0.333008 12.666 1 15.999s2.83398 7.5 6.50098 12.5s10.167 8.66699 19.5 11
s21.666 3.5 36.999 3.5h42c20 0 34.833 -2 44.5 -6s15.334 -8.5 17.001 -13.5s2.5 -12.833 2.5 -23.5zM340.999 128.002l0.000976562 -127.998c-2.66699 -50.667 -66 -133 -190 -247l-55 64c37.333 40 65.166 72 83.499 96s28.833 39.5 31.5 46.5s4 14.833 4 23.5
c0 15.333 -7.33301 33.666 -22 54.999s-22 36.333 -22 45v45c0 7.33301 0.333008 12.666 1 15.999s2.83398 7.5 6.50098 12.5s10.167 8.66699 19.5 11s21.666 3.5 36.999 3.5h42c29.333 0 47.333 -3 54 -9s10 -17.333 10 -34z" />
    <glyph glyph-name="less" unicode="&#x3c;" horiz-adv-x="853" 
d="M85 834l537.999 538.001l60 -62l-114.5 -112.5l-119.5 -118c-28.667 -29 -62.5 -66.333 -101.5 -112s-73.833 -90.834 -104.5 -135.501v-36c31.333 -42.667 66.833 -86.667 106.5 -132s73.334 -82 101.001 -110l119.5 -119.5l113 -112.5l-60 -60l-538 538v34z" />
    <glyph glyph-name="equal" unicode="=" 
d="M1195 683v-86h-1110v86h1110zM1195 1024v-85h-1110v85h1110z" />
    <glyph glyph-name="greater" unicode="&#x3e;" horiz-adv-x="853" 
d="M683 834l-0.000976562 -34.001l-538 -538l-60 60l113 112.5l119.5 119.5c27.667 28 61.334 64.667 101.001 110s75.167 89.333 106.5 132v36c-30.667 44.667 -65.5 89.834 -104.5 135.501s-72.833 83 -101.5 112l-119.5 118l-114.5 112.5l60 62z" />
    <glyph glyph-name="question" unicode="?" horiz-adv-x="1024" 
d="M427 695l-0.00195312 -182.995h-86c-28 91.333 -42 173.666 -42 246.999c0 45.333 8.66699 87 26 125s39.666 70 66.999 96s57.833 50.167 91.5 72.5s67.167 43.333 100.5 63s63.666 39.167 90.999 58.5s49.666 41.666 66.999 66.999s26 52.666 26 81.999
c0 56.667 -25.333 106.334 -76 149.001s-119.334 64 -206.001 64c-38 0 -72.5 -2.16699 -103.5 -6.5s-54.667 -8.83301 -71 -13.5s-44.666 -14 -84.999 -28s-73.166 -25 -98.499 -33l-43 98c122.667 45.333 258 68 406 68c80 0 149.833 -7.83301 209.5 -23.5
s106.334 -37.334 140.001 -65.001s58.5 -58 74.5 -91s24 -69.167 24 -108.5c0 -52 -9.33301 -99.333 -28 -142s-43.167 -78.334 -73.5 -107.001s-63.666 -55.334 -99.999 -80.001s-72.666 -47.834 -108.999 -69.501s-69.666 -43.5 -99.999 -65.5s-54.833 -47.667 -73.5 -77
s-28 -61.666 -28 -96.999zM468.998 128.005l-0.000976562 -84.998c0 -12 -0.833008 -20.333 -2.5 -25s-7.16699 -8.83398 -16.5 -12.501s-24.333 -5.5 -45 -5.5h-42c-28 0 -45.667 3 -53 9s-11 17.333 -11 34v85c0 7.33301 0.333008 12.666 1 15.999
s2.83398 7.5 6.50098 12.5s10.167 8.66699 19.5 11s21.666 3.5 36.999 3.5h42c20 0 34.833 -2 44.5 -6s15.334 -8.5 17.001 -13.5s2.5 -12.833 2.5 -23.5z" />
    <glyph glyph-name="at" unicode="@" horiz-adv-x="2133" 
d="M612 941c4.66699 83.333 43.166 153.5 115.499 210.5s156.166 85.5 251.499 85.5c46 0 110.667 -16.333 194 -49l175 -70l113 98h66l-12 -171c0 -0.666992 -11 -94.5 -33 -281.5s-33 -309.833 -33 -368.5c0 -68 14 -118.833 42 -152.5s79.333 -50.5 154 -50.5
c56.667 0 109.667 24.5 159 73.5s88.166 111.5 116.499 187.5s42.5 154 42.5 234c0 116.667 -21.833 227.334 -65.5 332.001s-103.167 194.834 -178.5 270.501s-165.5 135.667 -270.5 180s-216.5 66.5 -334.5 66.5c-126 0 -247.167 -25.333 -363.5 -76
s-216.833 -118.334 -301.5 -203.001s-152.167 -185.167 -202.5 -301.5s-75.5 -237.166 -75.5 -362.499c0 -115.333 21.833 -225.333 65.5 -330s102.834 -195 177.501 -271s164.834 -136.333 270.501 -181s217.5 -67 335.5 -67c132.667 0 260 27.667 382 83l32 -77
c-131.333 -60.667 -271 -91 -419 -91c-130.667 0 -253.834 24.667 -369.501 74s-214.334 115.833 -296.001 199.5s-146.167 182.5 -193.5 296.5s-71 234 -71 360c0 138 27.667 270.667 83 398s129.333 237.333 222 330s202.667 166.5 330 221.5s260 82.5 398 82.5
c128.667 0 250.667 -24.333 366 -73s214.166 -114.5 296.499 -197.5s147.5 -181.833 195.5 -296.5s72 -235.667 72 -363c0 -36 -3.16699 -74 -9.5 -114s-16.666 -83.333 -30.999 -130s-34.666 -90.834 -60.999 -132.501s-57.5 -79.834 -93.5 -114.501
s-81.167 -62.167 -135.5 -82.5s-114.166 -30.5 -179.499 -30.5c-42.667 0 -81.667 13.833 -117 41.5s-64.666 65.167 -87.999 112.5l-279 -107c-87.333 -32.667 -153.666 -49 -198.999 -49c-86.667 0 -153.834 25.5 -201.501 76.5s-71.5 117.5 -71.5 199.5
c0 34 10 227.333 30 580zM1342 1054l-213 57.001c-50.667 13.333 -82.667 20 -96 20c-63.333 0 -120.5 -22.833 -171.5 -68.5s-77.833 -101.834 -80.5 -168.501c-17.333 -340.667 -26 -517 -26 -529c0 -52 14.667 -93.833 44 -125.5s69.333 -47.5 120 -47.5
c26.667 0 59.667 6.33301 99 19l294 92c-4 19.333 -6 40.666 -6 63.999c0 12.667 0.166992 23 0.5 31s0.833008 17.167 1.5 27.5s1.83398 29.5 3.50098 57.5l6 103c2.33301 40.667 5.66602 102.334 9.99902 185.001z" />
    <glyph glyph-name="A" unicode="A" horiz-adv-x="1450" 
d="M604 1621h243l518 -1621h-179l-164 512h-683l-164 -512h-90zM638 1451l-271 -854h627l-273 854h-83z" />
    <glyph glyph-name="B" unicode="B" horiz-adv-x="1450" 
d="M341 853l0.000976562 -767.999h529c66.667 0 123.167 21.667 169.5 65s69.5 107 69.5 191v235c0 43.333 -10 83.166 -30 119.499s-45.333 65.5 -76 87.5s-63.334 39.167 -98.001 51.5s-67.667 18.5 -99 18.5h-465zM341.001 939.001l316.002 0.000976562
c31.333 0 63.166 5.66699 95.499 17s62.666 27.666 90.999 48.999s51.333 49.5 69 84.5s26.5 73.5 26.5 115.5v75c0 84 -23.167 147.667 -69.5 191s-102.833 65 -169.5 65h-359v-597zM924.003 934.002c54 -0.666992 108.667 -17.002 164 -49.002
s101.166 -74.167 137.499 -126.5s54.5 -106.166 54.5 -161.499v-277c0 -86 -32 -160.833 -96 -224.5s-142.333 -95.5 -235 -95.5h-778v1621h608c92.667 0 170.834 -31.833 234.501 -95.5s95.5 -138.5 95.5 -224.5v-128c0 -46.667 -19.5 -94.667 -58.5 -144
s-81.167 -78.666 -126.5 -87.999v-7z" />
    <glyph glyph-name="C" unicode="C" horiz-adv-x="1280" 
d="M171 407v786c0 70 15.667 133 47 189s73.5 101 126.5 135s111.833 59.833 176.5 77.5s132.667 26.5 204 26.5h9c56.667 0 131.334 -10.667 224.001 -32s157.334 -41 194.001 -59l-43 -99l-192 62c-84.667 28.667 -148.667 43 -192 43
c-49.333 0 -96.5 -6.33301 -141.5 -19s-85.833 -31.167 -122.5 -55.5s-65.834 -56 -87.501 -95s-32.5 -82.833 -32.5 -131.5v-870c0 -48.667 10.833 -92.5 32.5 -131.5s50.834 -70.667 87.501 -95s77.5 -42.833 122.5 -55.5s92.167 -19 141.5 -19
c43.333 0 107.333 14.333 192 43l192 62l43 -99c-36.667 -18 -101.334 -37.667 -194.001 -59s-167.334 -32 -224.001 -32h-9c-71.333 0 -139.333 8.83301 -204 26.5s-123.5 43.5 -176.5 77.5s-95.167 79 -126.5 135s-47 119 -47 189z" />
    <glyph glyph-name="D" unicode="D" horiz-adv-x="1450" 
d="M725 85c48.667 0 95.6689 6.50098 141.002 19.501s86.166 31.667 122.499 56s65.5 56.166 87.5 95.499s33 83.333 33 132v847c0 48.667 -10.833 92.5 -32.5 131.5s-50.834 70.667 -87.501 95s-77.5 42.833 -122.5 55.5s-92.167 19 -141.5 19h-384v-1451h384z
M725.002 0.000976562h-553.999v1621h554c71.333 0 139.333 -8.83301 204 -26.5s123.5 -43.5 176.5 -77.5s95.333 -79 127 -135s47.5 -119 47.5 -189v-762c0 -70.667 -15.833 -134 -47.5 -190s-73.834 -101.167 -126.501 -135.5s-111.667 -60.5 -177 -78.5
s-133.333 -27 -204 -27z" />
    <glyph glyph-name="E" unicode="E" horiz-adv-x="1280" 
d="M171 1621h938v-85h-768v-597h427v-86h-427v-768h768v-85h-938v1621z" />
    <glyph glyph-name="F" unicode="F" horiz-adv-x="1194" 
d="M171 1621h938v-85h-768v-683h512v-85h-512v-768h-170v1621z" />
    <glyph glyph-name="G" unicode="G" horiz-adv-x="1450" 
d="M693 -21c-50 0 -99.501 5.49902 -148.501 16.499s-96 28.167 -141 51.5s-84.667 51.5 -119 84.5s-61.833 73.5 -82.5 121.5s-31 100.333 -31 157v783c0 70 15.667 133 47 189s73.5 101 126.5 135s111.833 59.833 176.5 77.5s132.667 26.5 204 26.5h9
c60.667 0 146.167 -13.167 256.5 -39.5s192.5 -52.833 246.5 -79.5l-42 -98l-278 89c-5.33301 1.33301 -15.666 4.5 -30.999 9.5s-26.333 8.5 -33 10.5s-16.834 4.83301 -30.501 8.5s-25 6.33398 -34 8.00098s-19.333 3.16699 -31 4.5s-22.5 2 -32.5 2
c-49.333 0 -96.5 -6.33301 -141.5 -19s-85.833 -31.167 -122.5 -55.5s-65.834 -56 -87.501 -95s-32.5 -82.833 -32.5 -131.5v-868c0 -64.667 19 -120.5 57 -167.5s85.333 -81.333 142 -103s118.334 -32.5 185.001 -32.5c15.333 0 32 1.83301 50 5.5
s32.833 7.16699 44.5 10.5s25.834 8 42.501 14s26.667 9.66699 30 11l217 72v591h-386v85h557v-853h-107l-42 105l-199 -77c-42 -16 -85.833 -28.167 -131.5 -36.5s-81.5 -12.5 -107.5 -12.5z" />
    <glyph glyph-name="H" unicode="H" horiz-adv-x="1450" 
d="M171 1621h170v-682h768v682h171v-1621h-171v853h-768v-853h-170v1621z" />
    <glyph glyph-name="I" unicode="I" horiz-adv-x="512" 
d="M171 1621h170v-1621h-170v1621z" />
    <glyph glyph-name="J" unicode="J" horiz-adv-x="810" 
d="M469 1621l171.002 -0.00292969v-1344c0 -86 -28.333 -156.833 -85 -212.5s-131.334 -83.5 -224.001 -83.5c-24 0 -60.5 4.33301 -109.5 13s-94.5 20.667 -136.5 36l34 81c53.333 -17.333 97.666 -26 132.999 -26c80 0 139.833 19.333 179.5 58s59.5 93.334 59.5 164.001
c0 8.66699 -3.66699 66.334 -11 173.001s-11 181.334 -11 224.001v917z" />
    <glyph glyph-name="K" unicode="K" horiz-adv-x="1450" 
d="M171 1621h170.001v-810l866 834l99 -92c-10.667 -13.333 -38.834 -36.5 -84.501 -69.5l-162 -120c-62.333 -47 -114.833 -91.167 -157.5 -132.5l-288 -275l794 -941v-15h-211l-706 838l-150 -147v-691h-170v1621z" />
    <glyph glyph-name="L" unicode="L" horiz-adv-x="1280" 
d="M171 1621h170v-1536h854v-85h-1024v1621z" />
    <glyph glyph-name="M" unicode="M" horiz-adv-x="1877" 
d="M941 369l708 1252h47l43 -1621h-171l-34 1248h-4l-58 -113l-585 -1039h-4l-586 1033l-39 85h-2l-32 -1214h-85l42 1621h43l713 -1252h4z" />
    <glyph glyph-name="N" unicode="N" horiz-adv-x="1450" 
d="M171 1621h79l906 -1248l37 -59h2v1307h85v-1621h-64l-915 1261l-43 68h-2v-1329h-85v1621z" />
    <glyph glyph-name="O" unicode="O" horiz-adv-x="1450" 
d="M1109 367l0.00195312 868.001c0 48.667 -10.833 92.5 -32.5 131.5s-50.834 70.667 -87.501 95s-77.5 42.833 -122.5 55.5s-92.167 19 -141.5 19s-96.5 -6.33301 -141.5 -19s-85.833 -31.167 -122.5 -55.5s-65.834 -56 -87.501 -95s-32.5 -82.833 -32.5 -131.5v-868
c0 -64.667 19 -120.5 57 -167.5s85.333 -81.333 142 -103s118.334 -32.5 185.001 -32.5c48.667 0 95.667 6.5 141 19.5s86.166 31.667 122.499 56s65.5 56.166 87.5 95.499s33 83.333 33 132zM1280 1193l0.000976562 -783c0 -70.667 -15.833 -134 -47.5 -190
s-73.834 -101.167 -126.501 -135.5s-111.667 -60.5 -177 -78.5s-133.333 -27 -204 -27s-138.5 9 -203.5 27s-124 44.167 -177 78.5s-95.167 79.5 -126.5 135.5s-47 119.333 -47 190v783c0 70 15.667 133 47 189s73.5 101 126.5 135s111.833 59.833 176.5 77.5
s132.667 26.5 204 26.5s139.333 -8.83301 204 -26.5s123.5 -43.5 176.5 -77.5s95.333 -79 127 -135s47.5 -119 47.5 -189z" />
    <glyph glyph-name="P" unicode="P" horiz-adv-x="1450" 
d="M341 1536l-0.000976562 -1024h416c107.333 0 192.833 27.333 256.5 82s95.5 119.667 95.5 195v470c0 75.333 -34.667 140.333 -104 195s-162.666 82 -279.999 82h-384zM170.999 1621h586c62.667 0 120.167 -5.66699 172.5 -17s96.166 -26 131.499 -44
s66.5 -39.667 93.5 -65s48.167 -50.833 63.5 -76.5s28 -52.834 38 -81.501s16.5 -54.167 19.5 -76.5s4.5 -44.166 4.5 -65.499v-342c0 -21.333 -1.5 -43.166 -4.5 -65.499s-9.16699 -47.833 -18.5 -76.5s-21.333 -55.834 -36 -81.501s-34.5 -51.167 -59.5 -76.5
s-53.667 -47 -86 -65s-72.166 -32.667 -119.499 -44s-99.333 -17 -156 -17h-459v-427h-170v1621z" />
    <glyph glyph-name="Q" unicode="Q" horiz-adv-x="1450" 
d="M725 64c118 0 211.502 27.167 280.502 81.5s103.5 119.5 103.5 195.5v939c0 74 -34.333 135.167 -103 183.5s-162.334 72.5 -281.001 72.5c-120 0 -214 -24.167 -282 -72.5s-102 -109.5 -102 -183.5v-939c0 -75.333 34.667 -140.333 104 -195s162.666 -82 279.999 -82z
M171.002 1195c0 31.333 3.17285 63.168 9.50586 95.501s20.666 69.166 42.999 110.499s51.5 77.5 87.5 108.5s87 57.333 153 79s142.333 32.5 229 32.5h64c62.667 0 120.167 -5.66699 172.5 -17s96.166 -26 131.499 -44s66.5 -39.667 93.5 -65s48.167 -50.833 63.5 -76.5
s28 -52.834 38 -81.501s16.5 -54.167 19.5 -76.5s4.5 -44.166 4.5 -65.499v-781c0 -21.333 -1.5 -43 -4.5 -65s-9.16699 -47.167 -18.5 -75.5s-21.333 -55.333 -36 -81s-34.834 -51.5 -60.501 -77.5s-55 -48.333 -88 -67s-74 -34.334 -123 -47.001s-103.167 -20 -162.5 -22
c7.33301 -21.333 16.666 -41.166 27.999 -59.499s26.166 -36.333 44.499 -54s41.666 -31.667 69.999 -42s59.833 -15.5 94.5 -15.5h171v-85h-171c-116 0 -212.333 23.167 -289 69.5s-122 109.833 -136 190.5c-59.333 6 -112.833 18 -160.5 36s-86.5 39.833 -116.5 65.5
s-55.5 52.667 -76.5 81s-36.667 58.5 -47 90.5s-17.5 60.333 -21.5 85s-6 49 -6 73v781z" />
    <glyph glyph-name="R" unicode="R" horiz-adv-x="1450" 
d="M1178 0l-310.001 422.001c-61.333 84 -100.666 135.667 -117.999 155c-46.667 51.333 -99.334 83.333 -158.001 96c-29.333 6.66699 -63 10 -101 10h-150v-683h-170v1621h629c62.667 0 119.334 -5.5 170.001 -16.5s92.334 -25 125.001 -42s61.167 -38.167 85.5 -63.5
s42.666 -49.666 54.999 -72.999s22 -49.833 29 -79.5s11.333 -54.334 13 -74.001s2.5 -41.5 2.5 -65.5v-153c0 -28 -3.16699 -55.5 -9.5 -82.5s-19.5 -57 -39.5 -90s-45.833 -62.333 -77.5 -88s-75.5 -48.334 -131.5 -68.001s-120.667 -32.5 -194 -38.5v-2
c30.667 -11.333 65 -37 103 -77s71 -79 99 -117l335 -459v-32h-187zM340.999 1536v-768h416c106 0 191.167 27.5 255.5 82.5s96.5 117.167 96.5 186.5v230c0 33.333 -6.5 65.5 -19.5 96.5s-32.5 59.667 -58.5 86s-61.667 47.333 -107 63s-97.333 23.5 -156 23.5h-427z" />
    <glyph glyph-name="S" unicode="S" horiz-adv-x="1450" 
d="M1131 341c0 23.333 -1.67578 45.0068 -5.00879 65.0068s-7.5 38 -12.5 54s-13 31.667 -24 47s-21.167 28.666 -30.5 39.999s-23.333 23.5 -42 36.5l-48.5 33c-13.667 9 -33.667 20.333 -60 34l-67.5 34l-79 37.5c-34 16 -62.667 30 -86 42l-80 39l-79.5 38
c-19.667 9.33301 -44.167 21.666 -73.5 36.999s-52.833 28.333 -70.5 39s-38 24 -61 40s-41.5 30.833 -55.5 44.5s-28.667 29.667 -44 48s-27 36.5 -35 54.5s-14.667 38 -20 60s-8 45 -8 69c0 49.333 11.333 96.666 34 141.999s55.5 86.5 98.5 123.5s99.167 66.667 168.5 89
s147 33.5 233 33.5h74c142 0 284.333 -26.333 427 -79l-43 -98c-15.333 4.66699 -44.333 14 -87 28s-71.667 23.167 -87 27.5s-38.666 10.333 -69.999 18s-60.166 12.667 -86.499 15s-54.833 3.5 -85.5 3.5c-121.333 0 -219.166 -25.167 -293.499 -75.5
s-111.5 -111.166 -111.5 -182.499c0 -64.667 22 -117.334 66 -158.001c34.667 -32.667 105.334 -75.334 212.001 -128.001l73 -35l97 -48l91 -44l89.5 -43c22.333 -10.667 49.333 -24.334 81 -41.001s57.167 -31.667 76.5 -45s40.666 -29.333 63.999 -48
s41.833 -37.334 55.5 -56.001s26.834 -39.5 39.501 -62.5s21.834 -48.167 27.501 -75.5s8.5 -56.333 8.5 -87c0 -54 -10 -105.333 -30 -154s-50.667 -94 -92 -136s-98.166 -75.5 -170.499 -100.5s-156.166 -37.5 -251.499 -37.5h-64c-162 0 -350.333 39.667 -565 119l43 103
c8.66699 -3.33301 33.334 -12.333 74.001 -27l75 -27c9.33301 -3.33301 31 -10.666 65 -21.999s57.5 -18.5 70.5 -21.5s33.667 -8.16699 62 -15.5s51.666 -12 69.999 -14s39.833 -4.16699 64.5 -6.5s49 -3.5 73 -3.5c58 0 110.833 6.5 158.5 19.5s86.334 29.667 116.001 50
s54.834 43.166 75.501 68.499s35.167 49.666 43.5 72.999s12.5 45.333 12.5 66z" />
    <glyph glyph-name="T" unicode="T" 
d="M85 1621h1195v-85h-512v-1536h-171v1536h-512v85z" />
    <glyph glyph-name="U" unicode="U" horiz-adv-x="1450" 
d="M1280 1621l-0.00195312 -1211c0 -70.667 -15.833 -134 -47.5 -190s-73.834 -101.167 -126.501 -135.5s-111.667 -60.5 -177 -78.5s-133.333 -27 -204 -27s-138.5 9 -203.5 27s-124 44.167 -177 78.5s-95.167 79.5 -126.5 135.5s-47 119.333 -47 190v1211h170v-1254
c0 -48.667 11 -92.834 33 -132.501s51.333 -71.5 88 -95.5s77.5 -42.5 122.5 -55.5s91.833 -19.5 140.5 -19.5c40 0 80.333 3.33301 121 10s82.334 18.5 125.001 35.5s80.334 38 113.001 63s59.334 58 80.001 99s31 87.167 31 138.5v1211h85z" />
    <glyph glyph-name="V" unicode="V" horiz-adv-x="1493" 
d="M849 149l469 1472h90l-518 -1621h-286l-519 1621h180l470 -1472h114z" />
    <glyph glyph-name="W" unicode="W" horiz-adv-x="2261" 
d="M560 0l-475 1621h180l429 -1470h65l303 1042c7.33301 32 11 56 11 72c0 38 -12.5 95.5 -37.5 172.5s-37.5 138.167 -37.5 183.5h220v-72c0 -93.333 6.33301 -159.666 19 -198.999l352 -1199h66l431 1470h90l-480 -1621h-240l-304 1043l-19 83h-11l-17 -83l-305 -1043
h-240z" />
    <glyph glyph-name="X" unicode="X" 
d="M286 1621l409 -667h32l451 667h102l-521 -772l521 -849h-201l-407 666h-36l-448 -666h-103l521 772l-521 849h201z" />
    <glyph glyph-name="Y" unicode="Y" horiz-adv-x="1450" 
d="M1269 1621h96l-544 -1007v-614h-170v570l-566 1051h194l493 -917z" />
    <glyph glyph-name="Z" unicode="Z" horiz-adv-x="1280" 
d="M107 1621l1088 -0.000976562v-98l-809 -1271c-6.66699 -11.333 -19.667 -30.666 -39 -57.999l-50.5 -72.5c-14.333 -21 -21.5 -33.167 -21.5 -36.5h920v-85h-1110v98l809 1272c8 12.667 21.667 32.667 41 60l49.5 71c13.667 20 20.5 31.667 20.5 35h-898v85z" />
    <glyph glyph-name="bracketleft" unicode="[" horiz-adv-x="597" 
d="M171 1707h341v-86h-171v-1877h171v-85h-341v2048z" />
    <glyph glyph-name="backslash" unicode="\" horiz-adv-x="1024" 
d="M145 1621l811 -1621l-77 -38l-811 1621z" />
    <glyph glyph-name="bracketright" unicode="]" horiz-adv-x="597" 
d="M85 1707h342v-2048h-342v85h171v1877h-171v86z" />
    <glyph glyph-name="asciicircum" unicode="^" horiz-adv-x="896" 
d="M489 1677l246.999 -250l-60 -62l-47 49c-20 21.333 -44.167 43.5 -72.5 66.5s-52.5 41.167 -72.5 54.5s-32 20 -36 20c-6.66699 0 -33.167 -18 -79.5 -54s-80.166 -65 -101.499 -87l-47 -49l-60 62l247 250h82z" />
    <glyph glyph-name="underscore" unicode="_" 
d="M1195 -341v-86h-1110v86h1110z" />
    <glyph glyph-name="grave" unicode="`" 
d="M367 1598v23.001h124c14.667 0 27.667 -2.33301 39 -7s22 -13 32 -25s18.5 -23.5 25.5 -34.5s16.833 -27.833 29.5 -50.5c2.66699 -4.66699 4.66699 -8.33398 6 -11.001l79 -143l-60 -40z" />
    <glyph glyph-name="a" unicode="a" 
d="M1195 0l-107 0.00292969l-58 149l-311 -121c-85.333 -32.667 -150.666 -49 -195.999 -49c-95.333 0 -177.833 28.5 -247.5 85.5s-104.5 127.167 -104.5 210.5v100c0 97.333 32.833 173 98.5 227s160.834 81 285.501 81h469v200c0 77.333 -24 138 -72 182
s-129.333 66 -244 66c-14 0 -28.5 -1 -43.5 -3s-30.833 -5.16699 -47.5 -9.5l-39.5 -10.5c-9.66699 -2.66699 -22.834 -6.83398 -39.501 -12.501l-28 -9.5l-199 -68l-42 98c46 22.667 110 45 192 67s164.333 33 247 33c63.333 0 120.333 -3.83301 171 -11.5
s92.667 -17.667 126 -30s62.166 -28 86.499 -47s43 -37.5 56 -55.5s23.167 -38.833 30.5 -62.5s12 -44.334 14 -62.001s3 -37.834 3 -60.501v-887zM1024 597.003l-426.996 -0.000976562c-34 0 -64.5 -3 -91.5 -9s-49.333 -13.5 -67 -22.5s-32.834 -21 -45.501 -36
s-22.334 -29.333 -29.001 -43s-11.834 -30.834 -15.501 -51.501s-5.83398 -38.167 -6.50098 -52.5s-1 -32.166 -1 -53.499v-13c0 -75.333 17.5 -132.666 52.5 -171.999s83.167 -59 144.5 -59c16 0 39.333 2 70 6s54 8.66699 70 14l346 113v379z" />
    <glyph glyph-name="b" unicode="b" 
d="M329 151l-52 -150.998h-106v1621h170v-574l220 99c106 46.667 200 70 282 70c58 0 110 -11.167 156 -33.5s83 -52.333 111 -90s49.167 -80.334 63.5 -128.001s21.5 -98.167 21.5 -151.5v-431c0 -53.333 -7.16699 -103.833 -21.5 -151.5s-35.5 -90.334 -63.5 -128.001
s-65 -67.667 -111 -90s-98 -33.5 -156 -33.5c-82 0 -176 23.333 -282 70zM341 218.002l261 -92c75.333 -27.333 140 -41 194 -41c45.333 0 83.666 8.83301 114.999 26.5s54.833 42.667 70.5 75s26.667 66 33 101s9.5 74.833 9.5 119.5v380
c0 44.667 -3.16699 84.5 -9.5 119.5s-17.333 68.667 -33 101s-39.167 57.333 -70.5 75s-69.666 26.5 -114.999 26.5c-56 0 -120.667 -13.333 -194 -40l-261 -92v-759z" />
    <glyph glyph-name="c" unicode="c" horiz-adv-x="1194" 
d="M683 -21c-65.333 0 -127.999 8.16406 -187.999 24.4971s-114.5 40.333 -163.5 72s-88 73.334 -117 125.001s-43.5 109.834 -43.5 174.501v444c0 52 9.5 100 28.5 144s45 81.333 78 112s71.333 56.834 115 78.501s90 37.5 139 47.5s99.5 15 151.5 15
c66 0 138.167 -7 216.5 -21s134.166 -29.667 167.499 -47l-43 -98l-192 61c-45.333 13.333 -95 20 -149 20c-59.333 0 -114.333 -9.5 -165 -28.5s-92.834 -49 -126.501 -90s-50.5 -89.833 -50.5 -146.5v-537c0 -82.667 34 -147.5 102 -194.5s148 -70.5 240 -70.5
c56 0 105.667 6.33301 149 19l192 62l43 -98c-33.333 -17.333 -89.166 -33 -167.499 -47s-150.5 -21 -216.5 -21z" />
    <glyph glyph-name="d" unicode="d" 
d="M1037 151l-233 -102.002c-106 -46.667 -199.667 -70 -281 -70c-58 0 -110 11.167 -156 33.5s-83 52.333 -111 90s-49.167 80.334 -63.5 128.001s-21.5 98.167 -21.5 151.5v431c0 53.333 7.16699 103.833 21.5 151.5s35.5 90.334 63.5 128.001s65 67.667 111 90
s98 33.5 156 33.5c81.333 0 175 -23.333 281 -70l220 -99v574h171v-1621h-107zM1024 217.998v759.002l-260 92c-73.333 26.667 -138 40 -194 40c-36.667 0 -68.834 -6.16699 -96.501 -18.5s-49.834 -28.333 -66.501 -48s-30 -43.834 -40 -72.501s-16.833 -57.5 -20.5 -86.5
s-5.5 -61.167 -5.5 -96.5v-380c0 -35.333 1.83301 -67.5 5.5 -96.5s10.5 -57.833 20.5 -86.5s23.333 -52.834 40 -72.501s38.834 -35.667 66.501 -48s59.834 -18.5 96.501 -18.5c54 0 118.667 13.667 194 41z" />
    <glyph glyph-name="e" unicode="e" 
d="M171 375l0.000976562 443.998c0 52 9.5 100 28.5 144s45 81.333 78 112s71.333 56.834 115 78.501s90 37.5 139 47.5s99.5 15 151.5 15s102.5 -5 151.5 -15s95.333 -25.833 139 -47.5s82 -47.834 115 -78.501s59 -68 78 -112s28.5 -92 28.5 -144v-179h-854v-311
c0 -82.667 34 -147.5 102 -194.5s148 -70.5 240 -70.5c64 0 133.667 12.667 209 38l198 69l43 -98c-42.667 -21.333 -105.334 -42.333 -188.001 -63s-170 -31 -262 -31c-65.333 0 -128 8.16699 -188 24.5s-114.5 40.333 -163.5 72s-88 73.334 -117 125.001
s-43.5 109.834 -43.5 174.501zM1024 865.998c0 82.667 -33.832 147.5 -101.499 194.5s-147.5 70.5 -239.5 70.5c-59.333 0 -114.333 -9.5 -165 -28.5s-92.834 -49 -126.501 -90s-50.5 -89.833 -50.5 -146.5v-141h683v141z" />
    <glyph glyph-name="f" unicode="f" horiz-adv-x="853" 
d="M256 0l-0.00195312 1088h-171v107h171v130c0 86 28.333 156.833 85 212.5s131.334 83.5 224.001 83.5c23.333 0 58.333 -4.33301 105 -13s91.334 -20.667 134.001 -36l92 -34l-28 -77l-104 34c-41.333 13.333 -74 20 -98 20c-82 0 -144.167 -14.833 -186.5 -44.5
s-63.5 -82.5 -63.5 -158.5c0 -10.667 3.66699 -49.667 11 -117h256v-107h-256v-1088h-171z" />
    <glyph glyph-name="g" unicode="g" horiz-adv-x="1280" 
d="M171 -85c0 -71.333 25.3291 -131.832 75.9961 -181.499s125.334 -74.5 224.001 -74.5h338c98.667 0 173.334 24.833 224.001 74.5s76 110.167 76 181.5c0 46.667 -21.667 86.667 -65 120s-106.333 50 -189 50h-405c-66 0 -118 13.667 -156 41l-26 -30l-23 -27
l-18.5 -21.5c-8.33301 -9.66699 -13.833 -16.5 -16.5 -20.5l-12 -17.5c-5.33301 -7.66699 -8.66602 -13.667 -9.99902 -18s-3.66602 -9.83301 -6.99902 -16.5s-5.33301 -12.834 -6 -18.501s-1.5 -12 -2.5 -19s-1.5 -14.5 -1.5 -22.5zM298.996 755.001
c0 -84.667 27.5 -149.832 82.5 -195.499s126.833 -68.5 215.5 -68.5c89.333 0 161.5 22.667 216.5 68s82.5 110.666 82.5 195.999v111c0 84.667 -27.667 150 -83 196s-127.333 69 -216 69c-89.333 0 -161.333 -22.833 -216 -68.5s-82 -111.167 -82 -196.5v-111z
M938.996 1109c85.333 -73.333 128.003 -172.67 128.003 -298.003c0 -118.667 -40.333 -216 -121 -292s-197 -114 -349 -114c-94.667 0 -176.334 15.667 -245.001 47c-14 -32 -21 -61 -21 -87c0 -32.667 12.5 -59 37.5 -79s65.167 -30 120.5 -30h320
c64 0 121.167 -9.66699 171.5 -29s90.833 -45.166 121.5 -77.499s53.834 -68.5 69.501 -108.5s23.5 -82 23.5 -126s-7.83301 -86 -23.5 -126s-38.834 -76.333 -69.501 -109s-71.167 -58.667 -121.5 -78s-107.5 -29 -171.5 -29h-338c-64 0 -121.167 9.66699 -171.5 29
s-90.833 45.333 -121.5 78s-53.834 69 -69.501 109s-23.5 82 -23.5 126s9 80.333 27 109s61.667 81.667 131 159c-15.333 30.667 -23 64.334 -23 101.001c0 65.333 19.667 135 59 209c-100.667 72 -151 178 -151 318c0 118.667 40.167 215.834 120.5 291.501
s196.5 113.5 348.5 113.5c60.667 0 118.334 -7 173.001 -21h425v-107c-28.667 0 -71.334 3.5 -128.001 10.5s-99.334 10.5 -128.001 10.5z" />
    <glyph glyph-name="h" unicode="h" 
d="M341 977l0.000976562 -977h-170v1621h170v-576l305 122c81.333 32.667 161.666 49 240.999 49c92.667 0 167.167 -25.5 223.5 -76.5s84.5 -124.5 84.5 -220.5v-919h-171v894c0 78.667 -13.833 135.667 -41.5 171s-72.167 53 -133.5 53c-18.667 0 -45 -3 -79 -9
s-61.667 -12.333 -83 -19z" />
    <glyph glyph-name="i" unicode="i" horiz-adv-x="512" 
d="M160 1621l192 0.000976562v-128c0 -28 -32 -42 -96 -42c-30 0 -53.5 4.16699 -70.5 12.5s-25.5 18.166 -25.5 29.499v128zM171 0.000976562v1195h170v-1195h-170z" />
    <glyph glyph-name="j" unicode="j" horiz-adv-x="512" 
d="M160 1621l192 0.000976562v-128c0 -28 -32 -42 -96 -42c-30 0 -53.5 4.16699 -70.5 12.5s-25.5 18.166 -25.5 29.499v128zM171 1195l170.001 -0.00292969v-1325c0 -86 -28.333 -157 -85 -213s-131.334 -84 -224.001 -84c-22.667 0 -58.5 4.83301 -107.5 14.5
s-94.833 22.167 -137.5 37.5l34 81c58 -18.667 102 -28 132 -28c80 0 139.833 19.333 179.5 58s59.5 93.334 59.5 164.001c0 8.66699 -3.5 66.334 -10.5 173.001s-10.5 181.334 -10.5 224.001v898z" />
    <glyph glyph-name="k" unicode="k" horiz-adv-x="1280" 
d="M1237 0l-211 -0.000976562l-529 627l-156 -147v-480h-170v1621h170v-1024l672 651l96 -96c-11.333 -14 -39 -37 -83 -69l-158.5 -117.5c-61.667 -46.333 -114.167 -90.166 -157.5 -131.499l-91 -87l618 -732v-15z" />
    <glyph glyph-name="l" unicode="l" horiz-adv-x="682" 
d="M171 1621l169.999 0.00195312v-917c0 -42.667 -3.5 -117.334 -10.5 -224.001s-10.5 -164.334 -10.5 -173.001c0 -74 11.167 -129.5 33.5 -166.5s62.5 -55.5 120.5 -55.5c18 0 47.667 6.66699 89 20l34 -82c-77.333 -28 -144.666 -42 -201.999 -42
c-70.667 0 -125.667 27.5 -165 82.5s-59 126.167 -59 213.5v1344z" />
    <glyph glyph-name="m" unicode="m" horiz-adv-x="2048" 
d="M939 892c0 72.667 -20.667 126.999 -62 162.999s-98.333 54 -171 54c-39.333 0 -74 -6.33301 -104 -19l-261 -111v-979h-170v1195h104l58 -143l228 115c26 12 60.833 23.167 104.5 33.5s88.5 15.5 134.5 15.5c150 0 246 -57 288 -171l241 122
c67.333 32.667 145 49 233 49c41.333 0 79.833 -5 115.5 -15s69 -25.833 100 -47.5s55.333 -52.5 73 -92.5s26.5 -87.333 26.5 -142v-919h-170v892c0 72.667 -20.667 127 -62 163s-98.333 54 -171 54c-39.333 0 -74 -6.33301 -104 -19l-265 -113
c2.66699 -25.333 4 -44.666 4 -57.999v-919h-170v892z" />
    <glyph glyph-name="n" unicode="n" 
d="M1024 894c0 78.667 -13.832 135.667 -41.499 171s-72.167 53 -133.5 53c-18.667 0 -45 -3 -79 -9s-61.667 -12.333 -83 -19l-346 -113v-977h-170v1195h106l58 -150l311 122c81.333 32.667 161.666 49 240.999 49c92.667 0 167.167 -25.5 223.5 -76.5
s84.5 -124.5 84.5 -220.5v-919h-171v894z" />
    <glyph glyph-name="o" unicode="o" 
d="M341 329c0 -82.667 34.002 -147.5 102.002 -194.5s148 -70.5 240 -70.5c59.333 0 114.166 9.5 164.499 28.5s92.333 49 126 90s50.5 89.833 50.5 146.5v537c0 82.667 -33.833 147.5 -101.5 194.5s-147.5 70.5 -239.5 70.5c-59.333 0 -114.333 -9.5 -165 -28.5
s-92.834 -49 -126.501 -90s-50.5 -89.833 -50.5 -146.5v-537zM171.002 375v444c0 52 9.5 100 28.5 144s45 81.333 78 112s71.333 56.834 115 78.501s90 37.5 139 47.5s99.5 15 151.5 15s102.5 -5 151.5 -15s95.333 -25.833 139 -47.5s82 -47.834 115 -78.501s59 -68 78 -112
s28.5 -92 28.5 -144v-444c0 -64.667 -14.5 -122.834 -43.5 -174.501s-68 -93.334 -117 -125.001s-103.5 -55.667 -163.5 -72s-122.667 -24.5 -188 -24.5s-128 8.16699 -188 24.5s-114.5 40.333 -163.5 72s-88 73.334 -117 125.001s-43.5 109.834 -43.5 174.501z" />
    <glyph glyph-name="p" unicode="p" 
d="M1024 787c0 44.667 -3.16797 84.5029 -9.50098 119.503s-17.333 68.667 -33 101s-39.167 57.333 -70.5 75s-69.666 26.5 -114.999 26.5c-56 0 -120.667 -13.333 -194 -40l-261 -92v-860c39.333 -12.667 94.333 -24.667 165 -36s126 -17 166 -17
c54 0 103.667 8.16699 149 24.5s82.5 37.666 111.5 63.999s51.5 55.166 67.5 86.499s24 62.666 24 93.999v454zM1195 813.003v-441.999c0 -31.333 -3.33301 -62.166 -10 -92.499s-21.167 -64.333 -43.5 -102s-51.5 -70.334 -87.5 -98.001s-87 -51.167 -153 -70.5
s-142.333 -29 -229 -29c-40 0 -93.667 5 -161 15s-124 20.667 -170 32v-453h-170v1622h106l60 -148h4l220 99c106 46.667 200 70 282 70c58 0 110 -11.167 156 -33.5s83 -52.333 111 -90s49.167 -80.334 63.5 -128.001s21.5 -98.167 21.5 -151.5z" />
    <glyph glyph-name="q" unicode="q" 
d="M341 787l0.00195312 -454.002c0 -31.333 8 -62.666 24 -93.999s38.5 -60.166 67.5 -86.499s66.167 -47.666 111.5 -63.999s95 -24.5 149 -24.5c40 0 95.333 5.66699 166 17s125.667 23.333 165 36v860l-260 92c-73.333 26.667 -138 40 -194 40
c-36.667 0 -68.834 -6.16699 -96.501 -18.5s-49.834 -28.333 -66.501 -48s-30 -43.834 -40 -72.501s-16.833 -57.5 -20.5 -86.5s-5.5 -61.167 -5.5 -96.5zM171.002 812.998c0 53.333 7.16602 103.832 21.499 151.499s35.5 90.334 63.5 128.001s65 67.667 111 90
s98 33.5 156 33.5c81.333 0 175 -23.333 281 -70l226 -101l58 150h107v-1622h-171v453c-46 -11.333 -102.667 -22 -170 -32s-121 -15 -161 -15c-86.667 0 -163 9.66699 -229 29s-117 42.833 -153 70.5s-65.167 60.334 -87.5 98.001s-36.666 71.667 -42.999 102
s-9.5 61.166 -9.5 92.499v442z" />
    <glyph glyph-name="r" unicode="r" horiz-adv-x="853" 
d="M747 1024c-135.333 0 -233.667 -30.666 -295 -91.999l-111 -111v-821h-170v1195h106l64 -252l98 98c64 64 119.5 110.667 166.5 140s101.167 46.666 162.5 51.999z" />
    <glyph glyph-name="s" unicode="s" horiz-adv-x="1194" 
d="M128 926c0 80 38.3359 148.341 115.003 205.008s187.667 85 333 85c176 0 325.333 -22.667 448 -68l-43 -98c-7.33301 2.66699 -24 8 -50 16l-48.5 15l-41 12.5c-21 6.33301 -35.333 10.166 -43 11.499s-20.334 4.16602 -38.001 8.49902s-31.834 7 -42.501 8
s-24.167 2.5 -40.5 4.5s-32.333 3.33301 -48 4s-32.167 1 -49.5 1c-96 0 -166.833 -14.833 -212.5 -44.5s-68.5 -66.834 -68.5 -111.501c0 -16 1.33301 -30.667 4 -44s8 -26 16 -38s15.5 -22.5 22.5 -31.5s18.167 -18.5 33.5 -28.5l38.5 -24.5
c10.333 -6.33301 26.833 -14.5 49.5 -24.5l53.5 -23l63 -25.5c29 -11.667 51.167 -20.834 66.5 -27.501l63.5 -25.5l65.5 -26.5c16.667 -6.66699 37.5 -15.667 62.5 -27s45.667 -21.333 62 -30s35 -19.667 56 -33s38.167 -26.333 51.5 -39s27 -27.5 41 -44.5
s25 -34.333 33 -52s14.667 -37.5 20 -59.5s8 -45.333 8 -70c0 -88.667 -45.333 -164.5 -136 -227.5s-216 -94.5 -376 -94.5c-86.667 0 -177.334 9.66699 -272.001 29s-174.667 41 -240 65l43 98c7.33301 -2 33.166 -10.167 77.499 -24.5s72.666 -23.333 84.999 -27
s36.5 -10.5 72.5 -20.5s63.667 -16.5 83 -19.5s43.333 -6.33301 72 -10s55.667 -5.5 81 -5.5c103.333 0 185.833 19.667 247.5 59s92.5 86.666 92.5 141.999c0 20 -3 38.667 -9 56s-13 32.666 -21 45.999s-20.5 26.833 -37.5 40.5s-32 24.667 -45 33
s-32.5 18.666 -58.5 30.999s-46.833 21.666 -62.5 27.999l-72.5 29.5l-74 30l-64 26l-67 27.5l-63.5 27.5c-25.667 11.333 -46.667 22 -63 32s-34.666 22 -54.999 36s-36.666 28.333 -48.999 43s-24.333 31 -36 49s-20.167 37.5 -25.5 58.5s-8 43.5 -8 67.5z" />
    <glyph glyph-name="t" unicode="t" horiz-adv-x="853" 
d="M256 1088h-171v107h171v207l171 59v-266h341v-107h-341v-384c0 -42.667 -3.66699 -115.5 -11 -218.5s-11 -158.833 -11 -167.5c0 -85.333 21.833 -145.5 65.5 -180.5s108.834 -52.5 195.501 -52.5c20.667 0 57.667 8.66699 111 26l34 -81
c-42 -15.333 -87.5 -27.333 -136.5 -36s-85.5 -13 -109.5 -13c-92.667 0 -167.334 27.833 -224.001 83.5s-85 126.5 -85 212.5v811z" />
    <glyph glyph-name="u" unicode="u" 
d="M341 301c0 -78.667 13.833 -135.667 41.5 -171s72.167 -53 133.5 -53c18.667 0 45 3 79 9s61.667 12.333 83 19l346 113v977h171v-1195h-107l-58 149l-311 -121c-82 -32.667 -162.333 -49 -241 -49c-92.667 0 -167 25.333 -223 76s-84 124 -84 220v920h170v-894z" />
    <glyph glyph-name="v" unicode="v" horiz-adv-x="1280" 
d="M781 0h-282l-414 1195h182l359 -1039h118l361 1039h90z" />
    <glyph glyph-name="w" unicode="w" horiz-adv-x="1962" 
d="M1425 156l363 1039h89l-413 -1195h-218l-265 764l-264 -764h-218l-414 1195h180l361 -1039h52l229 653c8 22.667 12 48.667 12 78c0 42 -12.667 97.667 -38 167s-38 116.333 -38 141h213v-128l318 -911h51z" />
    <glyph glyph-name="x" unicode="x" horiz-adv-x="1280" 
d="M297 1195l360 -480h28l401 480h109l-474 -566l474 -629h-212l-360 480h-28l-403 -480h-107l474 565l-474 630h212z" />
    <glyph glyph-name="y" unicode="y" horiz-adv-x="1280" 
d="M128 -427v107.003c17.333 0 51.833 -3.5 103.5 -10.5s93.834 -10.5 126.501 -10.5h9c79.333 0 137.666 22 174.999 66c21.333 26 32 54.333 32 85c0 8.66699 -0.833008 18 -2.5 28s-3.33398 19 -5.00098 27s-4.5 18.167 -8.5 30.5s-7 21.333 -9 27l-10.5 30
c-5 14.333 -8.16699 23.166 -9.5 26.499l-444 1216h182l375 -1033c13.333 -33.333 25.333 -70.333 36 -111h7l418 1144h92l-506 -1374c-16 -43.333 -31.667 -78.333 -47 -105s-35 -51.834 -59 -75.501s-53.667 -40.834 -89 -51.501s-77.666 -16 -126.999 -16h-239z" />
    <glyph glyph-name="z" unicode="z" horiz-adv-x="1194" 
d="M85 0v98l683 845c10 14.667 34.333 43.334 73 86.001s60.667 68 66 76v4h-800v86h1002v-98l-682 -845l-45 -51l-60 -68c-18 -20.667 -29.333 -34.334 -34 -41.001v-7h821v-85h-1024z" />
    <glyph glyph-name="braceleft" unicode="{" horiz-adv-x="768" 
d="M128 693c9.33301 9.33301 27.8291 24.666 55.4961 45.999l73 58c21 17.333 40.333 39 58 65s26.5 51 26.5 75v486c0 31.333 7 63 21 95s34.167 62.333 60.5 91s62.166 52.167 107.499 70.5s96.333 27.5 153 27.5v-86c-47.333 0 -87.666 -20.833 -120.999 -62.5
s-50 -90.5 -50 -146.5v-369c0 -12 -1.66699 -24.833 -5 -38.5s-7.16602 -26.5 -11.499 -38.5s-10.833 -25.167 -19.5 -39.5l-23 -37c-6.66699 -10.333 -15.834 -22.833 -27.501 -37.5l-27.5 -34c-6.66699 -8 -16.5 -18.833 -29.5 -32.5l-26 -27l-24.5 -24.5l-19 -19v-64
l11 -11c24.667 -24 44.834 -44.667 60.501 -62s36.334 -41.833 62.001 -73.5s45.334 -63.167 59.001 -94.5s20.5 -60.666 20.5 -87.999v-369c0 -57.333 16 -106.5 48 -147.5s73 -61.5 123 -61.5v-85c-56.667 0 -107.667 9 -153 27s-81.166 41.333 -107.499 70
s-46.5 59 -60.5 91s-21 63.667 -21 95v487c0 31.333 -12.667 62 -38 92s-58.833 60.667 -100.5 92s-66.5 51 -74.5 59v21z" />
    <glyph glyph-name="bar" unicode="|" horiz-adv-x="426" 
d="M256 1536v-1792h-171v1792h171z" />
    <glyph glyph-name="braceright" unicode="}" horiz-adv-x="768" 
d="M640 693v-21.001c-8 -8 -32.833 -27.667 -74.5 -59s-75.167 -62 -100.5 -92s-38 -60.667 -38 -92v-487c0 -31.333 -7 -63 -21 -95s-34.167 -62.333 -60.5 -91s-62.166 -52 -107.499 -70s-96.333 -27 -153 -27v85c50 0 91 20.5 123 61.5s48 90.167 48 147.5v348
c0 29.333 8 62 24 98s37 71.167 63 105.5s48.667 62.5 68 84.5s38.666 42.667 57.999 62v64l-19 19l-24.5 24.5l-26 27c-13 13.667 -22.833 24.5 -29.5 32.5l-27.5 34c-11.667 14.667 -20.834 27.167 -27.501 37.5l-23 37c-8.66699 14.333 -15.167 27.5 -19.5 39.5
s-8.16602 24.833 -11.499 38.5s-5 26.5 -5 38.5v369c0 56 -16.667 104.833 -50 146.5s-73.666 62.5 -120.999 62.5v86c56.667 0 107.667 -9.16699 153 -27.5s81.166 -41.833 107.499 -70.5s46.5 -59 60.5 -91s21 -63.667 21 -95v-486c0 -24 8.83301 -49 26.5 -75
s37 -47.667 58 -65l73 -58c27.667 -21.333 46.167 -36.666 55.5 -45.999z" />
    <glyph glyph-name="asciitilde" unicode="~" horiz-adv-x="1258" 
d="M642 836l-72 60c-45.333 36.667 -83 55 -113 55c-32.667 0 -61.334 -8.33301 -86.001 -25s-60 -48.667 -106 -96l-94 79l138 98c17.333 11.333 31.333 20 42 26s25.167 11.667 43.5 17s38.166 8 59.499 8c11.333 0 21.833 -1 31.5 -3s17.667 -4 24 -6
s14.5 -6.5 24.5 -13.5l22.5 -16c5 -3.66699 14.5 -11.5 28.5 -23.5l32 -27l72 -60c46 -37.333 83.667 -56 113 -56c32.667 0 61.167 8.5 85.5 25.5s59.833 49.167 106.5 96.5l94 -79l-139 -98c-17.333 -11.333 -31.333 -20 -42 -26s-25.167 -11.667 -43.5 -17
s-38.166 -8 -59.499 -8c-10 0 -18.833 0.333008 -26.5 1s-15.5 2.66699 -23.5 6l-19 8c-4.66699 2 -11.5 6.5 -20.5 13.5l-20 15.5c-4.33301 3.33301 -12.666 10.333 -24.999 21z" />
    <glyph glyph-name="uni0089" horiz-adv-x="1066" 
 />
    <glyph glyph-name="exclamdown" unicode="&#xa1;" horiz-adv-x="512" 
d="M171 1066.98l0.000976562 85c0 12 0.833008 20.333 2.5 25s7.16699 8.83398 16.5 12.501s24.333 5.50098 45 5.50195l43 0.00292969c28 0.000976562 45.667 -2.99805 53 -8.99707s11 -17.332 11 -33.999v-85c0 -7.33301 -0.333008 -12.666 -1 -15.999
c-0.666992 -3.33398 -2.83398 -7.50098 -6.50098 -12.501s-10.167 -8.66699 -19.5 -11.001s-21.666 -3.50098 -36.999 -3.50195l-43 -0.00292969c-20 -0.000976562 -34.833 1.99805 -44.5 5.99707s-15.334 8.49902 -17.001 13.499s-2.5 12.833 -2.5 23.5zM171.001 -426.016
c3.33301 56 9 137.167 17 243.501s14.333 201.668 19 286.001c4.66699 84.334 7 163.834 7 238.501c0 120.667 -7.33301 234.333 -22 340.998l128 0.0078125c-14 -136.001 -21 -249.668 -21 -341.001c0 -75.333 2.33301 -154.833 7 -238.5
c4.66699 -83.666 11 -178.165 19 -283.498s13.667 -187.333 17 -245.999z" />
    <glyph glyph-name="cent" unicode="&#xa2;" horiz-adv-x="1194" 
d="M683 107l0.000976562 -192h-86v196c-50.667 4.66699 -97.167 13.834 -139.5 27.501s-77.833 29.667 -106.5 48s-54.167 39.333 -76.5 63s-39.833 47 -52.5 70s-23 47.333 -31 73s-13.333 48.667 -16 69s-4 40.166 -4 59.499v409c0 19.333 1.33301 39.166 4 59.499
s8 43.333 16 69s18.333 50 31 73s30.167 46.333 52.5 70s47.833 44.667 76.5 63s64.167 34.333 106.5 48s88.833 22.834 139.5 27.501v281h86v-277c66 0 138.167 -7 216.5 -21s134.166 -29.667 167.499 -47l-43 -98l-192 61c-41.333 13.333 -80.333 20 -117 20h-32v-1067h32
c38.667 0 77.667 6.33301 117 19l192 62l43 -98c-34 -16.667 -90 -32.167 -168 -46.5s-146.667 -21.5 -206 -21.5h-10zM597.001 205v1041c-80.667 -18 -143.5 -53.167 -188.5 -105.5s-67.5 -109.5 -67.5 -171.5v-487c0 -62 22.5 -119.167 67.5 -171.5
s107.833 -87.5 188.5 -105.5z" />
    <glyph glyph-name="sterling" unicode="&#xa3;" horiz-adv-x="1536" 
d="M555 939h425.997v-86h-426v-768h810v-85h-1237v85h43c33.333 0 62.666 4 87.999 12s45.5 20 60.5 36s27.167 32 36.5 48s15.833 35.833 19.5 59.5s6 43 7 58s1.5 33.5 1.5 55.5v499h-256v86h256v247c0 18 0.333008 34.667 1 50s2.83398 34.666 6.50098 57.999
s8.5 44.666 14.5 63.999s15 40.5 27 63.5s26 43.667 42 62s36.333 36.333 61 54s52.167 32.334 82.5 44.001s66.5 21.167 108.5 28.5s87.667 11 137 11h41c56.667 0 131.334 -10.667 224.001 -32s157.334 -41 194.001 -59l-43 -99l-192 62
c-84.667 28.667 -148.667 43 -192 43c-59.333 0 -111.666 -8.33301 -156.999 -25s-81 -39 -107 -67s-45.333 -58.667 -58 -92s-19 -68.666 -19 -105.999v-307z" />
    <glyph glyph-name="currency" unicode="&#xa4;" horiz-adv-x="768" 
d="M397 589c18.667 0 34.667 3.16602 48 9.49902s23.333 13.5 30 21.5s11.667 18.833 15 32.5s5.33301 24.834 6 33.501s1 19.667 1 33v8c0 12.667 -0.333008 23.334 -1 32.001s-2.66699 19.667 -6 33s-8.33301 24 -15 32s-16.667 15.167 -30 21.5s-29.333 9.5 -48 9.5h-22
c-18.667 0 -34.667 -3.16699 -48 -9.5s-23.333 -13.5 -30 -21.5s-11.667 -18.667 -15 -32s-5.33301 -24.333 -6 -33s-1 -19.334 -1 -32.001v-8c0 -86.667 33.333 -130 100 -130h22zM623 1026l60 -59.999l-124 -125c21.333 -23.333 32 -54 32 -92v-54
c0 -32.667 -10 -61 -30 -85l122 -126l-60 -59l-134 136c-22 -8.66699 -47.667 -13 -77 -13h-51c-32.667 0 -60 4.33301 -82 13l-134 -136l-60 59l128 130c-14 19.333 -21 46.333 -21 81v54c0 33.333 7.66699 61.666 23 84.999l-130 132l60 60l141 -143
c20 8.66699 45 13 75 13h51c22.667 0 46.667 -3.66699 72 -11z" />
    <glyph glyph-name="yen" unicode="&#xa5;" horiz-adv-x="1450" 
d="M640 427h-299v85h310v58l-566 1051h194l493 -917l497 917h96l-544 -1007v-102h288v-85h-288v-427h-170v427h-11z" />
    <glyph glyph-name="brokenbar" unicode="&#xa6;" horiz-adv-x="512" 
d="M341 480v-480h-170v480h170zM341 1621v-480h-170v480h170z" />
    <glyph glyph-name="section" unicode="&#xa7;" horiz-adv-x="1706" 
d="M1257 1538l-52 -94c-134.667 61.333 -249 92 -343 92c-43.333 0 -81.5 -6.16699 -114.5 -18.5s-58.333 -28.333 -76 -48s-30.834 -39.334 -39.501 -59.001s-13 -38.834 -13 -57.501c0 -49.333 21.333 -100.333 64 -153s100 -97 172 -133l455 -224
c72.667 -36.667 128.5 -82.167 167.5 -136.5s58.5 -111.5 58.5 -171.5c0 -41.333 -10.667 -80.666 -32 -117.999s-51.833 -71 -91.5 -101s-91 -54.333 -154 -73s-133.5 -28.667 -211.5 -30c57.333 -43.333 103.333 -93.666 138 -150.999s52 -113.666 52 -168.999
c0 -88 -36.333 -163.333 -109 -226s-172.667 -94 -300 -94c-112 0 -238 28 -378 84l51 93c133.333 -60.667 248 -91 344 -91c43.333 0 81.5 6.16699 114.5 18.5s58.333 28.333 76 48s30.834 39.334 39.501 59.001s13 38.834 13 57.501c0 49.333 -21.5 100.333 -64.5 153
s-100.5 97 -172.5 133l-454 224c-73.333 36.667 -129.333 82 -168 136s-58 111 -58 171c0 41.333 10.5 80.666 31.5 117.999s51.333 71 91 101s91 54.333 154 73s133.5 28.667 211.5 30c-57.333 43.333 -103.333 93.666 -138 150.999s-52 113.666 -52 168.999
c0 88 36.5 163.333 109.5 226s173.167 94 300.5 94c114 0 240 -27.667 378 -83zM1026 299c102 0 182 19.999 240 59.999s87 88 87 144c0 83.333 -47.667 149 -143 197l-320 158c-50.667 25.333 -120.334 38 -209.001 38c-102 0 -182 -20.167 -240 -60.5
s-87 -88.5 -87 -144.5c0 -83.333 47.667 -148.666 143 -195.999l320 -158c50.667 -25.333 120.334 -38 209.001 -38z" />
    <glyph glyph-name="dieresis" unicode="&#xa8;" 
d="M800 1621l192 0.000976562v-128c0 -28 -32 -42 -96 -42c-30 0 -53.5 4.16699 -70.5 12.5s-25.5 18.166 -25.5 29.499v128zM288 1621l192 0.000976562v-128c0 -28 -32 -42 -96 -42c-30 0 -53.5 4.16699 -70.5 12.5s-25.5 18.166 -25.5 29.499v128z" />
    <glyph glyph-name="copyright" unicode="&#xa9;" horiz-adv-x="2133" 
d="M1067 213c-52 0 -102.5 4.99609 -151.5 14.9961s-95.333 25.833 -139 47.5s-82 47.834 -115 78.501s-59 68 -78 112s-28.5 92 -28.5 144v444c0 52 9.5 100 28.5 144s45 81.333 78 112s71.333 56.834 115 78.501s90 37.5 139 47.5s99.5 15 151.5 15
c66 0 138.167 -7.16699 216.5 -21.5s134.166 -30.166 167.499 -47.499l-43 -98l-192 62c-43.333 12.667 -93 19 -149 19c-59.333 0 -114.333 -9.33301 -165 -28s-92.834 -48.5 -126.501 -89.5s-50.5 -89.833 -50.5 -146.5v-538c0 -56 16.833 -104.5 50.5 -145.5
s75.834 -71 126.501 -90s105.667 -28.5 165 -28.5c56 0 105.667 6.33301 149 19l192 62l43 -98c-33.333 -17.333 -89.166 -33.166 -167.499 -47.499s-150.5 -21.5 -216.5 -21.5zM2048 810.996c0 -133.333 -25.833 -260.5 -77.5 -381.5s-121.334 -225.333 -209.001 -313
s-192 -157.5 -313 -209.5s-248.167 -78 -381.5 -78s-260.5 26 -381.5 78s-225.333 121.833 -313 209.5s-157.5 192 -209.5 313s-78 248.167 -78 381.5s26 260.5 78 381.5s121.833 225.333 209.5 313s192 157.334 313 209.001s248.167 77.5 381.5 77.5
s260.5 -25.833 381.5 -77.5s225.333 -121.334 313 -209.001s157.334 -192 209.001 -313s77.5 -248.167 77.5 -381.5zM1067 1707c-121.333 0 -237.333 -23.667 -348 -71s-206 -111 -286 -191s-143.667 -175.333 -191 -286s-71 -226.667 -71 -348s23.667 -237.333 71 -348
s111 -206 191 -286s175.333 -143.667 286 -191s226.667 -71 348 -71s237.333 23.667 348 71s206 111 286 191s143.667 175.333 191 286s71 226.667 71 348s-23.667 237.333 -71 348s-111 206 -191 286s-175.333 143.667 -286 191s-226.667 71 -348 71z" />
    <glyph glyph-name="ordfeminine" unicode="&#xaa;" horiz-adv-x="1280" 
d="M911 659l-234.994 -76.999c-98 -32.667 -163.333 -49 -196 -49c-94.667 0 -177 28.667 -247 86s-105 127.666 -105 210.999v79c0 94.667 39.167 169.5 117.5 224.5s181.5 82.5 309.5 82.5h341v30c0 20.667 -0.333008 38 -1 52s-2.83398 32.167 -6.50098 54.5
s-8.83398 41 -15.501 56s-16.834 31.167 -30.501 48.5s-29.834 31.333 -48.501 42s-42.667 19.5 -72 26.5s-62.333 10.5 -99 10.5c-26 0 -58.667 -6.33301 -98 -19l-192 -62l-64 98c34 16.667 90.167 32.167 168.5 46.5s147.166 21.5 206.499 21.5
c70.667 0 132.667 -7.33301 186 -22s94.666 -33 123.999 -55s52.833 -48.5 70.5 -79.5s29.167 -59.667 34.5 -86s8 -54.833 8 -85.5v-738h-107zM898.006 730.001l-2.00098 27v374h-299c-58 0 -107.833 -8.5 -149.5 -25.5s-72.667 -39.333 -93 -67s-34.666 -55 -42.999 -82
s-12.5 -54.833 -12.5 -83.5c0 -66 18.333 -121.333 55 -166s83.667 -67 141 -67c14.667 0 37.667 2 69 6s55.333 8.33301 72 13z" />
    <glyph glyph-name="guillemotleft" unicode="&#xab;" horiz-adv-x="1024" 
d="M493 615l386 386l60 -62l-51.5 -51.5l-42.5 -43l-30.5 -32c-13.667 -14.333 -23.167 -25 -28.5 -32l-22.5 -28.5c-9.66699 -12 -18.667 -24.5 -27 -37.5l-27.5 -43l-37 -58.5v-36l53 -73c22.667 -32 37.334 -52.333 44.001 -61s19.167 -24 37.5 -46
s37.166 -43.167 56.499 -63.5l76 -78.5l-60 -60l-386 386v34zM85 615l385.999 386l60 -62l-51 -52l-43 -43l-30 -31c-14.667 -15.333 -24.167 -26.166 -28.5 -32.499s-11.666 -15.833 -21.999 -28.5s-19.5 -25.334 -27.5 -38.001l-27 -42l-37 -59v-36l53 -73l43.5 -60.5
c7.66699 -10.333 20.167 -26 37.5 -47s35.833 -41.833 55.5 -62.5l76.5 -79l-60 -60l-386 386v34z" />
    <glyph glyph-name="logicalnot" unicode="&#xac;" horiz-adv-x="1280" 
d="M1024 427h-853v85h938v-512h-85v427z" />
    <glyph glyph-name="uni00AD" unicode="&#xad;" horiz-adv-x="938" 
d="M726 683v-85h-555v85h555z" />
    <glyph glyph-name="registered" unicode="&#xae;" horiz-adv-x="2133" 
d="M1427 250l-232.001 317.001c-49.333 68 -82.666 110.667 -99.999 128c-38.667 38.667 -87 60.667 -145 66c-11.333 0.666992 -23.666 1 -36.999 1h-113v-512h-128v1216h471c46.667 0 89 -4.16699 127 -12.5s69.333 -18.833 94 -31.5s46 -28.5 64 -47.5
s31.833 -37.333 41.5 -55s17.167 -37.5 22.5 -59.5s8.66602 -40.5 9.99902 -55.5s2 -31.167 2 -48.5v-115c0 -20.667 -2.33301 -41.334 -7 -62.001s-14.5 -43.5 -29.5 -68.5s-34.333 -47.167 -58 -66.5s-56.667 -36.5 -99 -51.5s-90.833 -24.5 -145.5 -28.5v-2
c36.667 -13.333 87 -61 151 -143l252 -346v-23h-141zM799.999 1402v-576h311c80 0 144.167 20.667 192.5 62s72.5 88 72.5 140v171c0 54.667 -21.5 102.167 -64.5 142.5s-106.833 60.5 -191.5 60.5h-320zM2048 811.001c0 -133.333 -25.833 -260.5 -77.5 -381.5
s-121.334 -225.333 -209.001 -313s-192 -157.5 -313 -209.5s-248.167 -78 -381.5 -78s-260.5 26 -381.5 78s-225.333 121.833 -313 209.5s-157.5 192 -209.5 313s-78 248.167 -78 381.5s26 260.5 78 381.5s121.833 225.333 209.5 313s192 157.334 313 209.001
s248.167 77.5 381.5 77.5s260.5 -25.833 381.5 -77.5s225.333 -121.334 313 -209.001s157.334 -192 209.001 -313s77.5 -248.167 77.5 -381.5zM1067 1707c-121.333 0 -237.333 -23.667 -348 -71s-206 -111 -286 -191s-143.667 -175.333 -191 -286s-71 -226.667 -71 -348
s23.667 -237.333 71 -348s111 -206 191 -286s175.333 -143.667 286 -191s226.667 -71 348 -71s237.333 23.667 348 71s206 111 286 191s143.667 175.333 191 286s71 226.667 71 348s-23.667 237.333 -71 348s-111 206 -191 286s-175.333 143.667 -286 191
s-226.667 71 -348 71z" />
    <glyph glyph-name="macron" unicode="&#xaf;" horiz-adv-x="1194" 
d="M939 1621v-85h-683v85h683z" />
    <glyph glyph-name="degree" unicode="&#xb0;" horiz-adv-x="682" 
d="M284 1338h8c25.333 0 46 11.667 62 35s24 46.333 24 69v11c0 25.333 -7.5 49 -22.5 71s-36.167 33 -63.5 33h-8c-19.333 0 -39.5 -10.833 -60.5 -32.5s-31.5 -45.5 -31.5 -71.5v-11c0 -24 9 -47.333 27 -70s39.667 -34 65 -34zM107 1442l-0.00292969 11.001
c0 51.333 18.833 92.166 56.5 122.499s77.834 45.5 120.501 45.5h8c52.667 0 94.334 -16.5 125.001 -49.5s46 -72.5 46 -118.5v-11c0 -44.667 -16.5 -83.834 -49.5 -117.501s-73.5 -50.5 -121.5 -50.5h-8c-49.333 0 -91.166 16.333 -125.499 49s-51.5 72.334 -51.5 119.001z
" />
    <glyph glyph-name="plusminus" unicode="&#xb1;" horiz-adv-x="1280" 
d="M1109 85v-85h-1024v85h1024zM555 1451h85v-512h469v-86h-469v-512h-85v512h-470v86h470v512z" />
    <glyph glyph-name="uni00B2" unicode="&#xb2;" horiz-adv-x="768" 
d="M672 1024l-619 -0.00292969v81l127 132.5l104.5 109l78.5 83c29.333 31 50.333 54.667 63 71l41.5 55.5c15 20.667 25 38.334 30 53.001s9.33301 30.5 13 47.5s5.5 35.167 5.5 54.5c0 129.333 -66 194 -198 194c-21.333 0 -45 -3.66699 -71 -11l-115 -36l-25 83
c22 11.333 56.167 22.333 102.5 33s86.833 16 121.5 16h81c72 0 132.667 -26.167 182 -78.5s74 -109.166 74 -170.499c0 -37.333 -3.83301 -71 -11.5 -101s-17.5 -56.333 -29.5 -79s-32.5 -49.667 -61.5 -81s-56.833 -59.666 -83.5 -84.999l-121 -115l-152 -149v-5h463v-102
z" />
    <glyph glyph-name="uni00B3" unicode="&#xb3;" horiz-adv-x="768" 
d="M461 1568c57.333 0 106.833 -17.1709 148.5 -51.5039s62.5 -76.166 62.5 -125.499v-102c0 -18 -2.83301 -37.833 -8.5 -59.5s-16.5 -45.667 -32.5 -72s-36 -50.166 -60 -71.499s-56.667 -39.166 -98 -53.499s-88 -21.5 -140 -21.5h-24
c-32.667 0 -75.834 8.66699 -129.501 26s-94.167 33 -121.5 47l32 77l108 -47c48 -17.333 86.667 -26 116 -26c34.667 0 65.834 5.66699 93.501 17s49.167 25.833 64.5 43.5s26.833 35.667 34.5 54s11.5 35.5 11.5 51.5v107c0 41.333 -10.5 74.833 -31.5 100.5
s-49.5 38.5 -85.5 38.5h-87v68h29c34.667 0 64 18.167 88 54.5s36 69.5 36 99.5v44c0 16.667 -0.333008 29.667 -1 39s-3.5 22 -8.5 38s-12.333 28.333 -22 37s-24.334 16.5 -44.001 23.5s-43.5 10.5 -71.5 10.5c-21.333 0 -44.666 -3.66699 -69.999 -11l-109 -47l-32 77
c24 12.667 59 25.334 105 38.001s85.667 19 119 19c36 0 68.167 -3 96.5 -9s51.5 -13.5 69.5 -22.5s33.333 -20.833 46 -35.5s22.167 -28 28.5 -40s11.333 -27 15 -45s5.66699 -32 6 -42s0.5 -22.667 0.5 -38v-24c0 -30 -12 -62.167 -36 -96.5s-56.667 -56.833 -98 -67.5v-2
z" />
    <glyph glyph-name="acute" unicode="&#xb4;" 
d="M768 1598l-275.001 -287.999l-60 40l79 143c30 53.333 51.333 86.666 64 99.999c18.667 18.667 41.334 28 68.001 28h124v-23z" />
    <glyph glyph-name="uni00B5" unicode="&#xb5;" 
d="M1024 218l0.000976562 977.001h171v-1195h-107l-58 149l-311 -121c-41.333 -16 -88.333 -28.167 -141 -36.5s-92.334 -12.5 -119.001 -12.5c-74.667 0 -136.667 19 -186 57l47 -313c1.33301 -8.66699 2 -21 2 -37c0 -35.333 -8 -63 -24 -83s-38.667 -30 -68 -30h-59v1622
h170v-894c0 -66.667 20.667 -119.334 62 -158.001s93.333 -58 156 -58c38 0 77.667 6.66699 119 20z" />
    <glyph glyph-name="paragraph" unicode="&#xb6;" horiz-adv-x="1280" 
d="M427 1024l0.000976562 512.001c-37.333 0 -75 -9.16699 -113 -27.5s-71.333 -47.833 -100 -88.5s-43 -87.334 -43 -140.001c0 -42 8.66699 -80.167 26 -114.5s39.5 -61.333 66.5 -81s54.667 -34.667 83 -45s55.166 -15.5 80.499 -15.5zM1109 1621l0.00195312 -1962h-170
v1877h-342v-1877h-170v1280c-36.667 0 -74.334 7.16699 -113.001 21.5s-75.5 35 -110.5 62s-63.5 63 -85.5 108s-33 94.833 -33 149.5c0 54 11.167 103.333 33.5 148s50.666 80.667 84.999 108s71 48.333 110 63s76.833 22 113.5 22h682z" />
    <glyph glyph-name="periodcentered" unicode="&#xb7;" horiz-adv-x="512" 
d="M341 896l-0.000976562 -84.998c0 -12 -0.833008 -20.333 -2.5 -25s-7.16699 -8.83398 -16.5 -12.501s-24.333 -5.5 -45 -5.5h-42c-28 0 -45.667 3 -53 9s-11 17.333 -11 34v85c0 7.33301 0.333008 12.666 1 15.999s2.83398 7.5 6.50098 12.5s10.167 8.66699 19.5 11
s21.666 3.5 36.999 3.5h42c20 0 34.833 -2 44.5 -6s15.334 -8.5 17.001 -13.5s2.5 -12.833 2.5 -23.5z" />
    <glyph glyph-name="cedilla" unicode="&#xb8;" horiz-adv-x="1237" 
d="M578 -128c31.333 10 55.666 15.001 72.999 15.001c35.333 0 64 -11.333 86 -34s33 -50.334 33 -83.001v-45c0 -16.667 -2.66699 -33.167 -8 -49.5s-14 -32.5 -26 -48.5s-30 -29 -54 -39s-52.333 -15 -85 -15h-32c-32.667 0 -70.334 10.667 -113.001 32l19 62
c6.66699 -4.66699 20.834 -11.5 42.501 -20.5s38.834 -13.5 51.501 -13.5h32c28.667 0 50.5 9.5 65.5 28.5s22.5 40.167 22.5 63.5v64c0 12 -3.5 21.333 -10.5 28s-14.833 10 -23.5 10c-16.667 0 -31.667 -2.66699 -45 -8l-53 -26h-52l45 207h62z" />
    <glyph glyph-name="uni00B9" unicode="&#xb9;" horiz-adv-x="512" 
d="M85 1946l256 51.001v-973h-153v791c0 17.333 -4.16699 30.666 -12.5 39.999s-18.5 14 -30.5 14c-7.33301 0 -27.333 -3 -60 -9v86z" />
    <glyph glyph-name="ordmasculine" unicode="&#xba;" horiz-adv-x="1280" 
d="M597 619c47.333 0 89.3301 7 125.997 21s65.5 31.333 86.5 52s38.333 44.667 52 72s22.834 52.666 27.501 75.999s7 46.333 7 69v337c0 22.667 -2.33301 45.667 -7 69s-14 48.666 -28 75.999s-31.5 51.333 -52.5 72s-49.833 38 -86.5 52s-78.334 21 -125.001 21
c-47.333 0 -89.166 -7 -125.499 -21s-65.166 -31.333 -86.499 -52s-38.666 -44.667 -51.999 -72s-22.333 -52.666 -27 -75.999s-7 -46.333 -7 -69v-337c0 -22.667 2.33301 -45.667 7 -69s13.834 -48.666 27.501 -75.999s31.167 -51.333 52.5 -72s50.166 -38 86.499 -52
s77.833 -21 124.5 -21zM596.997 1621c313.333 0 470 -159.333 470 -478v-132c0 -318.667 -156.667 -478 -470 -478c-312.667 0 -469 159.333 -469 478v132c0 318.667 156.333 478 469 478z" />
    <glyph glyph-name="guillemotright" unicode="&#xbb;" horiz-adv-x="1024" 
d="M531 615v-34l-386 -386l-60 60l76 78.5c19.333 20.333 38.166 41.5 56.499 63.5s30.833 37.333 37.5 46s21.334 29 44.001 61l53 73v36l-37 58.5l-27.5 43c-8.33301 13 -17.333 25.5 -27 37.5l-22.5 28.5c-5.33301 7 -14.833 17.667 -28.5 32l-30.5 32l-42.5 43
l-51.5 51.5l60 62zM939 615l-0.000976562 -34l-386 -386l-60 60l76.5 79c19.667 20.667 38.167 41.5 55.5 62.5s29.833 36.667 37.5 47l43.5 60.5l53 73v36l-37 59l-27 42c-8 12.667 -17.167 25.334 -27.5 38.001s-17.666 22.167 -21.999 28.5s-13.833 17.166 -28.5 32.499
l-30 31l-43 43l-51 52l60 62z" />
    <glyph glyph-name="onequarter" unicode="&#xbc;" horiz-adv-x="1706" 
d="M1378 1647l68 -51l-1195 -1622l-68 52zM170 1605l256 51.001v-973h-153v791c0 17.333 -4.16699 30.666 -12.5 39.999s-18.5 14 -30.5 14c-7.33301 0 -27.333 -3 -60 -9v86zM939 205.001c43.333 56 79.002 106.332 107.002 150.999s55.833 97 83.5 157
s48.334 125.167 62.001 195.5s20.5 146.5 20.5 228.5h154c0 -50.667 -3.33301 -98.5 -10 -143.5s-17.834 -89.167 -33.501 -132.5s-31.334 -82.166 -47.001 -116.499s-38.334 -73.833 -68.001 -118.5s-55.5 -82.167 -77.5 -112.5l-93 -123.5h380v307h153v-307h52v-85h-52
v-122h-153v122h-478v100z" />
    <glyph glyph-name="onehalf" unicode="&#xbd;" horiz-adv-x="1706" 
d="M1621 -17l-619 -0.00292969v81l127 132.5l104.5 109l78.5 83c29.333 31 50.333 54.667 63 71l41.5 55.5c15 20.667 25 38.334 30 53.001s9.33301 30.5 13 47.5s5.5 35.167 5.5 54.5c0 129.333 -66 194 -198 194c-21.333 0 -45 -3.66699 -71 -11l-115 -36l-25 83
c22 11.333 56.167 22.333 102.5 33s86.833 16 121.5 16h81c72 0 132.667 -26.167 182 -78.5s74 -109.166 74 -170.499c0 -37.333 -3.83301 -71 -11.5 -101s-17.5 -56.333 -29.5 -79s-32.5 -49.667 -61.5 -81s-56.833 -59.666 -83.5 -84.999l-121 -115l-152 -149v-5h463v-102
zM1378 1647l68 -51l-1195 -1622l-68 52zM170 1605l256 51.001v-973h-153v791c0 17.333 -4.16699 30.666 -12.5 39.999s-18.5 14 -30.5 14c-7.33301 0 -27.333 -3 -60 -9v86z" />
    <glyph glyph-name="threequarters" unicode="&#xbe;" horiz-adv-x="1877" 
d="M1549 1647l68 -51l-1195 -1622l-68 52zM1109 205c43.333 56 79.002 106.332 107.002 150.999s55.833 97 83.5 157s48.334 125.167 62.001 195.5s20.5 146.5 20.5 228.5h154c0 -50.667 -3.33301 -98.5 -10 -143.5s-17.834 -89.167 -33.501 -132.5
s-31.334 -82.166 -47.001 -116.499s-38.334 -73.833 -68.001 -118.5s-55.5 -82.167 -77.5 -112.5l-93 -123.5h380v307h153v-307h52v-85h-52v-122h-153v122h-478v100zM461.002 1227c57.333 0 106.833 -17.1709 148.5 -51.5039s62.5 -76.166 62.5 -125.499v-102
c0 -18 -2.83301 -37.833 -8.5 -59.5s-16.5 -45.667 -32.5 -72s-36 -50.166 -60 -71.499s-56.667 -39.166 -98 -53.499s-88 -21.5 -140 -21.5h-24c-32.667 0 -75.834 8.66699 -129.501 26s-94.167 33 -121.5 47l32 77l108 -47c48 -17.333 86.667 -26 116 -26
c34.667 0 65.834 5.66699 93.501 17s49.167 25.833 64.5 43.5s26.833 35.667 34.5 54s11.5 35.5 11.5 51.5v107c0 41.333 -10.5 74.833 -31.5 100.5s-49.5 38.5 -85.5 38.5h-87v68h29c34.667 0 64 18.167 88 54.5s36 69.5 36 99.5v44c0 16.667 -0.333008 29.667 -1 39
s-3.5 22 -8.5 38s-12.333 28.333 -22 37s-24.334 16.5 -44.001 23.5s-43.5 10.5 -71.5 10.5c-21.333 0 -44.666 -3.66699 -69.999 -11l-109 -47l-32 77c24 12.667 59 25.334 105 38.001s85.667 19 119 19c36 0 68.167 -3 96.5 -9s51.5 -13.5 69.5 -22.5
s33.333 -20.833 46 -35.5s22.167 -28 28.5 -40s11.333 -27 15 -45s5.66699 -32 6 -42s0.5 -22.667 0.5 -38v-24c0 -30 -12 -62.167 -36 -96.5s-56.667 -56.833 -98 -67.5v-2z" />
    <glyph glyph-name="questiondown" unicode="&#xbf;" horiz-adv-x="1066" 
d="M597 499.974l0.00195312 182.999l86 0.00585938c28 -91.332 42 -173.665 42 -246.998c0 -45.333 -8.66699 -87 -26 -125.001s-39.666 -70.002 -66.999 -96.0029c-27.333 -26.002 -57.833 -50.1709 -91.5 -72.5059s-67.167 -43.3369 -100.5 -63.0059
s-63.666 -39.1709 -90.999 -58.5059s-49.666 -41.6699 -66.999 -67.0039c-17.333 -25.335 -26 -52.6689 -26 -82.002c0 -56.667 25.333 -106.332 76 -148.995s119.334 -63.9922 206.001 -63.9873c38 0.00195312 72.5 2.1709 103.5 6.50586s54.667 8.83594 71 13.5029
c16.333 4.66797 44.666 14.0029 84.999 28.0059s73.166 25.0049 98.499 33.0059l43 -97.9971c-122.667 -45.3408 -258 -68.0156 -406 -68.0244c-80 -0.00488281 -149.833 7.82422 -209.5 23.4873s-106.334 37.3271 -140.001 64.9922
c-33.667 27.6641 -58.5 57.9961 -74.5 90.9951s-24 69.165 -24 108.498c0 52 9.33301 99.334 28 142.002s43.167 78.3359 73.5 107.005c30.333 28.668 63.666 55.3369 99.999 80.0059s72.666 47.8379 108.999 69.5068s69.666 43.5039 99.999 65.5059
s54.833 47.6699 73.5 77.0049c18.667 29.334 28 61.668 28 97.001zM555.002 1066.97l0.000976562 85c0 12 0.833008 20.333 2.5 25s7.16699 8.83398 16.5 12.501s24.333 5.50098 45 5.50195l42 0.00195312c28 0.00195312 45.667 -2.99707 53 -8.99609
c7.33301 -6 11 -17.333 11 -34v-85c0 -7.33301 -0.333008 -12.666 -1 -15.999s-2.83398 -7.5 -6.50098 -12.5c-3.66699 -5.00098 -10.167 -8.66797 -19.5 -11.001c-9.33301 -2.33398 -21.666 -3.50195 -36.999 -3.50293l-42 -0.00195312
c-20 -0.000976562 -34.833 1.99805 -44.5 5.99707s-15.334 8.49902 -17.001 13.499s-2.5 12.833 -2.5 23.5z" />
    <glyph glyph-name="Agrave" unicode="&#xc0;" horiz-adv-x="1450" 
d="M450 2005v23.001h124c14.667 0 27.667 -2.33301 39 -7s22 -13 32 -25s18.5 -23.5 25.5 -34.5s16.833 -27.833 29.5 -50.5c2.66699 -4.66699 4.66699 -8.33398 6 -11.001l79 -143l-60 -40zM604 1621h243l518 -1621h-179l-164 512h-683l-164 -512h-90zM638 1451l-271 -854
h627l-273 854h-83z" />
    <glyph glyph-name="Aacute" unicode="&#xc1;" horiz-adv-x="1450" 
d="M1001 2005l-275.001 -287.999l-60 40l79 143c30 53.333 51.333 86.666 64 99.999c18.667 18.667 41.334 28 68.001 28h124v-23zM603.999 1621h243l518 -1621h-179l-164 512h-683l-164 -512h-90zM637.999 1451l-271 -854h627l-273 854h-83z" />
    <glyph glyph-name="Acircumflex" unicode="&#xc2;" horiz-adv-x="1450" 
d="M766 2029l246.999 -250l-60 -62l-47 49c-20 21.333 -44.167 43.5 -72.5 66.5s-52.5 41.167 -72.5 54.5s-32 20 -36 20c-6.66699 0 -33.167 -18 -79.5 -54s-80.166 -65 -101.499 -87l-47 -49l-60 62l247 250h82zM603.999 1621h243l518 -1621h-179l-164 512h-683l-164 -512
h-90zM637.999 1451l-271 -854h627l-273 854h-83z" />
    <glyph glyph-name="Atilde" unicode="&#xc3;" horiz-adv-x="1450" 
d="M755 1798l-86.999 51.0039c-42.667 24 -77 36 -103 36c-8.66699 0 -17.334 -0.833008 -26.001 -2.5s-16.334 -3.33398 -23.001 -5.00098s-13.667 -4.83398 -21 -9.50098s-13.333 -8.33398 -18 -11.001s-10.167 -7.33398 -16.5 -14.001l-14 -14.5
c-3 -3 -7.33301 -8.33301 -13 -16l-11 -15c-1.66699 -2.33301 -5.16699 -7.5 -10.5 -15.5s-8.33301 -12.667 -9 -14l-98 62l87 85c16 15.333 29.833 27.5 41.5 36.5s28.834 18 51.501 27s46.667 13.5 72 13.5c9.33301 0 18.166 -0.833008 26.499 -2.5
s17.5 -4.83398 27.5 -9.50098s18.333 -8.83398 25 -12.501s17 -9.83398 31 -18.501l35 -21l87 -49c44 -25.333 79 -38 105 -38c12.667 0 24.5 1.33301 35.5 4s21.333 7 31 13s17.834 11.333 24.501 16s14 11.834 22 21.501l17.5 21.5
c3.66699 4.66699 9.16699 12.5 16.5 23.5l13 19.5l96 -64l-86 -85c-16 -14.667 -30 -26.667 -42 -36s-29.333 -18.5 -52 -27.5s-46.667 -13.5 -72 -13.5c-8 0 -15.667 0.833008 -23 2.5s-13.833 3.33398 -19.5 5.00098s-13 4.83398 -22 9.50098s-16 8.5 -21 11.5l-27 16.5z
M604.001 1621h243l518 -1621h-179l-164 512h-683l-164 -512h-90zM638.001 1451l-271 -854h627l-273 854h-83z" />
    <glyph glyph-name="Adieresis" unicode="&#xc4;" horiz-adv-x="1450" 
d="M885 1952l192 0.000976562v-128c0 -28 -32 -42 -96 -42c-30 0 -53.5 4.16699 -70.5 12.5s-25.5 18.166 -25.5 29.499v128zM373 1952l192 0.000976562v-128c0 -28 -32 -42 -96 -42c-30 0 -53.5 4.16699 -70.5 12.5s-25.5 18.166 -25.5 29.499v128zM604 1621h243l518 -1621
h-179l-164 512h-683l-164 -512h-90zM638 1451l-271 -854h627l-273 854h-83z" />
    <glyph glyph-name="Aring" unicode="&#xc5;" horiz-adv-x="1450" 
d="M742 1976c50 0 90.333 -15.667 121 -47s46 -70.666 46 -117.999v-12c0 -47.333 -15.333 -86.666 -46 -117.999s-71 -47 -121 -47h-30c-50 0 -90.167 15.667 -120.5 47s-45.5 70.666 -45.5 117.999v12c0 47.333 15.167 86.666 45.5 117.999s70.5 47 120.5 47h30zM727 1677
c78.667 0 117.999 42.667 117.999 128c0 12.667 -1.16699 25 -3.5 37s-7 25.5 -14 40.5s-19.167 27.167 -36.5 36.5s-38.666 14 -63.999 14s-46.5 -4.66699 -63.5 -14s-29 -21.666 -36 -36.999s-11.667 -28.833 -14 -40.5s-3.5 -23.834 -3.5 -36.501
c0 -85.333 39 -128 117 -128zM603.999 1621h243l518 -1621h-179l-164 512h-683l-164 -512h-90zM637.999 1451l-271 -854h627l-273 854h-83z" />
    <glyph glyph-name="AE" unicode="&#xc6;" horiz-adv-x="2048" 
d="M1877 1621v-85h-768v-683h442v-85h-442v-683h768v-85h-938v512h-600l-164 -512h-90l519 1621h1273zM939 597v939h-273l-301 -939h574z" />
    <glyph glyph-name="Ccedilla" unicode="&#xc7;" horiz-adv-x="1280" 
d="M704 -128c31.333 10 55.6631 15 72.9961 15c35.333 0 64 -11.333 86 -34s33 -50.334 33 -83.001v-45c0 -16.667 -2.5 -33.167 -7.5 -49.5s-13.333 -32.5 -25 -48.5s-29.5 -29 -53.5 -39s-52.333 -15 -85 -15h-34c-31.333 0 -68.333 10.667 -111 32l17 62
c6.66699 -4.66699 20.834 -11.5 42.501 -20.5s38.834 -13.5 51.501 -13.5h34c28.667 0 50.167 9.33301 64.5 28s21.5 40 21.5 64v64c0 12 -3.5 21.333 -10.5 28s-14.833 10 -23.5 10c-15.333 0 -29.666 -2.66699 -42.999 -8l-56 -26h-51l41 186
c-60 1.33301 -114.833 8.33301 -164.5 21s-91.167 28.334 -124.5 47.001s-63 41 -89 67s-46.333 51.833 -61 77.5s-26.5 52.834 -35.5 81.501s-15 54 -18 76s-4.5 43.667 -4.5 65v772c0 32 3.16699 64.333 9.5 97s20.666 70.167 42.999 112.5s51.5 79.333 87.5 111
s87 58.667 153 81s142.333 33.5 229 33.5h41c56.667 0 131.334 -10.667 224.001 -32s157.334 -41 194.001 -59l-43 -99l-192 62c-84.667 28.667 -148.667 43 -192 43c-117.333 0 -210.666 -29.167 -279.999 -87.5s-104 -125.833 -104 -202.5v-892
c0 -36 8.66699 -71.167 26 -105.5s41.833 -65.333 73.5 -93s72.167 -49.834 121.5 -66.501s103.666 -25 162.999 -25c43.333 0 107.333 14.333 192 43l192 64l43 -98c-37.333 -18.667 -102.333 -39 -195 -61s-167 -33 -223 -33h-4z" />
    <glyph glyph-name="Egrave" unicode="&#xc8;" horiz-adv-x="1280" 
d="M450 2005v23.001h124c14.667 0 27.667 -2.33301 39 -7s22 -13 32 -25s18.5 -23.5 25.5 -34.5s16.833 -27.833 29.5 -50.5c2.66699 -4.66699 4.66699 -8.33398 6 -11.001l79 -143l-60 -40zM171 1621h938v-85h-768v-597h427v-86h-427v-768h768v-85h-938v1621z" />
    <glyph glyph-name="Eacute" unicode="&#xc9;" horiz-adv-x="1280" 
d="M894 2005l-275.001 -287.999l-60 40l79 143c30 53.333 51.333 86.666 64 99.999c18.667 18.667 41.334 28 68.001 28h124v-23zM170.999 1621h938v-85h-768v-597h427v-86h-427v-768h768v-85h-938v1621z" />
    <glyph glyph-name="Ecircumflex" unicode="&#xca;" horiz-adv-x="1280" 
d="M681 2029l246.999 -250l-60 -62l-47 49c-20 21.333 -44.167 43.5 -72.5 66.5s-52.5 41.167 -72.5 54.5s-32 20 -36 20c-6.66699 0 -33.167 -18 -79.5 -54s-80.166 -65 -101.499 -87l-47 -49l-60 62l247 250h82zM170.999 1621h938v-85h-768v-597h427v-86h-427v-768h768
v-85h-938v1621z" />
    <glyph glyph-name="Edieresis" unicode="&#xcb;" horiz-adv-x="1280" 
d="M800 1958l192 0.000976562v-128c0 -28 -32 -42 -96 -42c-30 0 -53.5 4.16699 -70.5 12.5s-25.5 18.166 -25.5 29.499v128zM288 1958l192 0.000976562v-128c0 -28 -32 -42 -96 -42c-30 0 -53.5 4.16699 -70.5 12.5s-25.5 18.166 -25.5 29.499v128zM171 1621h938v-85h-768
v-597h427v-86h-427v-768h768v-85h-938v1621z" />
    <glyph glyph-name="Igrave" unicode="&#xcc;" horiz-adv-x="512" 
d="M0 2005v23.001h124c14.667 0 27.667 -2.33301 39 -7s22 -13 32 -25s18.5 -23.5 25.5 -34.5s16.833 -27.833 29.5 -50.5c2.66699 -4.66699 4.66699 -8.33398 6 -11.001l79 -143l-60 -40zM171 1621h170v-1621h-170v1621z" />
    <glyph glyph-name="Iacute" unicode="&#xcd;" horiz-adv-x="512" 
d="M512 2005l-275.001 -287.999l-60 40l79 143c30 53.333 51.333 86.666 64 99.999c18.667 18.667 41.334 28 68.001 28h124v-23zM170.999 1621h170v-1621h-170v1621z" />
    <glyph glyph-name="Icircumflex" unicode="&#xce;" horiz-adv-x="512" 
d="M297 2029l246.999 -250l-60 -62l-47 49c-20 21.333 -44.167 43.5 -72.5 66.5s-52.5 41.167 -72.5 54.5s-32 20 -36 20c-6.66699 0 -33.167 -18 -79.5 -54s-80.166 -65 -101.499 -87l-47 -49l-60 62l247 250h82zM170.999 1621h170v-1621h-170v1621z" />
    <glyph glyph-name="Idieresis" unicode="&#xcf;" horiz-adv-x="512" 
d="M171 1621h170v-1621h-170v1621zM341 1958l192 0.000976562v-128c0 -28 -32 -42 -96 -42c-30 0 -53.5 4.16699 -70.5 12.5s-25.5 18.166 -25.5 29.499v128zM-21 1958l192 0.000976562v-128c0 -28 -32 -42 -96 -42c-30 0 -53.5 4.16699 -70.5 12.5
s-25.5 18.166 -25.5 29.499v128z" />
    <glyph glyph-name="Eth" unicode="&#xd0;" horiz-adv-x="1450" 
d="M171 1621h586c86.667 0 163 -11.167 229 -33.5s117 -49.333 153 -81s65.167 -68.667 87.5 -111s36.833 -80 43.5 -113s10 -65.167 10 -96.5v-751c0 -31.333 -3.33301 -63.5 -10 -96.5s-21.167 -70.667 -43.5 -113s-51.5 -79.333 -87.5 -111s-87 -58.667 -153 -81
s-142.333 -33.5 -229 -33.5h-586v768h-171v85h171v768zM725 1536h-383.999v-683h342v-85h-342v-683h384c118 0 211.5 27.333 280.5 82s103.5 120 103.5 196v917c0 74 -34.333 135.167 -103 183.5s-162.334 72.5 -281.001 72.5z" />
    <glyph glyph-name="Ntilde" unicode="&#xd1;" horiz-adv-x="1450" 
d="M747 1798l-86.999 51.0039c-42.667 24 -77 36 -103 36c-8.66699 0 -17.334 -0.833008 -26.001 -2.5s-16.334 -3.33398 -23.001 -5.00098s-13.667 -4.83398 -21 -9.50098s-13.333 -8.33398 -18 -11.001s-10.167 -7.33398 -16.5 -14.001l-14 -14.5
c-3 -3 -7.33301 -8.33301 -13 -16l-11 -15c-1.66699 -2.33301 -5.16699 -7.5 -10.5 -15.5s-8.33301 -12.667 -9 -14l-98 62l87 85c16 15.333 29.833 27.5 41.5 36.5s28.834 18 51.501 27s46.667 13.5 72 13.5c9.33301 0 18.166 -0.833008 26.499 -2.5
s17.5 -4.83398 27.5 -9.50098s18.333 -8.83398 25 -12.501s17 -9.83398 31 -18.501l35 -21l87 -49c44 -25.333 79 -38 105 -38c12.667 0 24.5 1.33301 35.5 4s21.333 7 31 13s17.834 11.333 24.501 16s14 11.834 22 21.501l17.5 21.5
c3.66699 4.66699 9.16699 12.5 16.5 23.5l13 19.5l96 -64l-86 -85c-16 -14.667 -30 -26.667 -42 -36s-29.333 -18.5 -52 -27.5s-46.667 -13.5 -72 -13.5c-8 0 -15.667 0.833008 -23 2.5s-13.833 3.33398 -19.5 5.00098s-13 4.83398 -22 9.50098s-16 8.5 -21 11.5l-27 16.5z
M171.001 1621h79l906 -1248l37 -59h2v1307h85v-1621h-64l-915 1261l-43 68h-2v-1329h-85v1621z" />
    <glyph glyph-name="Ograve" unicode="&#xd2;" horiz-adv-x="1450" 
d="M482 2005v23.001h124c14.667 0 27.667 -2.33301 39 -7s22 -13 32 -25s18.5 -23.5 25.5 -34.5s16.833 -27.833 29.5 -50.5c2.66699 -4.66699 4.66699 -8.33398 6 -11.001l79 -143l-60 -40zM1109 367.001l0.00195312 868.001c0 48.667 -10.833 92.5 -32.5 131.5
s-50.834 70.667 -87.501 95s-77.5 42.833 -122.5 55.5s-92.167 19 -141.5 19s-96.5 -6.33301 -141.5 -19s-85.833 -31.167 -122.5 -55.5s-65.834 -56 -87.501 -95s-32.5 -82.833 -32.5 -131.5v-868c0 -64.667 19 -120.5 57 -167.5s85.333 -81.333 142 -103
s118.334 -32.5 185.001 -32.5c48.667 0 95.667 6.5 141 19.5s86.166 31.667 122.499 56s65.5 56.166 87.5 95.499s33 83.333 33 132zM1280 1193l0.000976562 -783c0 -70.667 -15.833 -134 -47.5 -190s-73.834 -101.167 -126.501 -135.5s-111.667 -60.5 -177 -78.5
s-133.333 -27 -204 -27s-138.5 9 -203.5 27s-124 44.167 -177 78.5s-95.167 79.5 -126.5 135.5s-47 119.333 -47 190v783c0 70 15.667 133 47 189s73.5 101 126.5 135s111.833 59.833 176.5 77.5s132.667 26.5 204 26.5s139.333 -8.83301 204 -26.5s123.5 -43.5 176.5 -77.5
s95.333 -79 127 -135s47.5 -119 47.5 -189z" />
    <glyph glyph-name="Oacute" unicode="&#xd3;" horiz-adv-x="1450" 
d="M969 2005l-275.001 -287.999l-60 40l79 143c30 53.333 51.333 86.666 64 99.999c18.667 18.667 41.334 28 68.001 28h124v-23zM1109 367.001l0.00195312 868.001c0 48.667 -10.833 92.5 -32.5 131.5s-50.834 70.667 -87.501 95s-77.5 42.833 -122.5 55.5
s-92.167 19 -141.5 19s-96.5 -6.33301 -141.5 -19s-85.833 -31.167 -122.5 -55.5s-65.834 -56 -87.501 -95s-32.5 -82.833 -32.5 -131.5v-868c0 -64.667 19 -120.5 57 -167.5s85.333 -81.333 142 -103s118.334 -32.5 185.001 -32.5c48.667 0 95.667 6.5 141 19.5
s86.166 31.667 122.499 56s65.5 56.166 87.5 95.499s33 83.333 33 132zM1280 1193l0.000976562 -783c0 -70.667 -15.833 -134 -47.5 -190s-73.834 -101.167 -126.501 -135.5s-111.667 -60.5 -177 -78.5s-133.333 -27 -204 -27s-138.5 9 -203.5 27s-124 44.167 -177 78.5
s-95.167 79.5 -126.5 135.5s-47 119.333 -47 190v783c0 70 15.667 133 47 189s73.5 101 126.5 135s111.833 59.833 176.5 77.5s132.667 26.5 204 26.5s139.333 -8.83301 204 -26.5s123.5 -43.5 176.5 -77.5s95.333 -79 127 -135s47.5 -119 47.5 -189z" />
    <glyph glyph-name="Ocircumflex" unicode="&#xd4;" horiz-adv-x="1450" 
d="M766 2029l246.999 -250l-60 -62l-47 49c-20 21.333 -44.167 43.5 -72.5 66.5s-52.5 41.167 -72.5 54.5s-32 20 -36 20c-6.66699 0 -33.167 -18 -79.5 -54s-80.166 -65 -101.499 -87l-47 -49l-60 62l247 250h82zM1109 367l0.00195312 868.001
c0 48.667 -10.833 92.5 -32.5 131.5s-50.834 70.667 -87.501 95s-77.5 42.833 -122.5 55.5s-92.167 19 -141.5 19s-96.5 -6.33301 -141.5 -19s-85.833 -31.167 -122.5 -55.5s-65.834 -56 -87.501 -95s-32.5 -82.833 -32.5 -131.5v-868c0 -64.667 19 -120.5 57 -167.5
s85.333 -81.333 142 -103s118.334 -32.5 185.001 -32.5c48.667 0 95.667 6.5 141 19.5s86.166 31.667 122.499 56s65.5 56.166 87.5 95.499s33 83.333 33 132zM1280 1193l0.000976562 -783c0 -70.667 -15.833 -134 -47.5 -190s-73.834 -101.167 -126.501 -135.5
s-111.667 -60.5 -177 -78.5s-133.333 -27 -204 -27s-138.5 9 -203.5 27s-124 44.167 -177 78.5s-95.167 79.5 -126.5 135.5s-47 119.333 -47 190v783c0 70 15.667 133 47 189s73.5 101 126.5 135s111.833 59.833 176.5 77.5s132.667 26.5 204 26.5
s139.333 -8.83301 204 -26.5s123.5 -43.5 176.5 -77.5s95.333 -79 127 -135s47.5 -119 47.5 -189z" />
    <glyph glyph-name="Otilde" unicode="&#xd5;" horiz-adv-x="1450" 
d="M738 1807l-72 60c-45.333 36.667 -83 55 -113 55c-32.667 0 -61.334 -8.33301 -86.001 -25s-60 -48.667 -106 -96l-94 79l138 98c17.333 11.333 31.333 20 42 26s25.167 11.667 43.5 17s38.166 8 59.499 8c11.333 0 21.833 -1 31.5 -3s17.667 -4 24 -6
s14.5 -6.5 24.5 -13.5l22.5 -16c5 -3.66699 14.5 -11.5 28.5 -23.5l32 -27l72 -60c46 -37.333 83.667 -56 113 -56c32.667 0 61.167 8.5 85.5 25.5s59.833 49.167 106.5 96.5l94 -79l-139 -98c-17.333 -11.333 -31.333 -20 -42 -26s-25.167 -11.667 -43.5 -17
s-38.166 -8 -59.499 -8c-10 0 -18.833 0.333008 -26.5 1s-15.5 2.66699 -23.5 6l-19 8c-4.66699 2 -11.5 6.5 -20.5 13.5l-20 15.5c-4.33301 3.33301 -12.666 10.333 -24.999 21zM1109 367l0.00195312 868.001c0 48.667 -10.833 92.5 -32.5 131.5s-50.834 70.667 -87.501 95
s-77.5 42.833 -122.5 55.5s-92.167 19 -141.5 19s-96.5 -6.33301 -141.5 -19s-85.833 -31.167 -122.5 -55.5s-65.834 -56 -87.501 -95s-32.5 -82.833 -32.5 -131.5v-868c0 -64.667 19 -120.5 57 -167.5s85.333 -81.333 142 -103s118.334 -32.5 185.001 -32.5
c48.667 0 95.667 6.5 141 19.5s86.166 31.667 122.499 56s65.5 56.166 87.5 95.499s33 83.333 33 132zM1280 1193l0.000976562 -783c0 -70.667 -15.833 -134 -47.5 -190s-73.834 -101.167 -126.501 -135.5s-111.667 -60.5 -177 -78.5s-133.333 -27 -204 -27
s-138.5 9 -203.5 27s-124 44.167 -177 78.5s-95.167 79.5 -126.5 135.5s-47 119.333 -47 190v783c0 70 15.667 133 47 189s73.5 101 126.5 135s111.833 59.833 176.5 77.5s132.667 26.5 204 26.5s139.333 -8.83301 204 -26.5s123.5 -43.5 176.5 -77.5s95.333 -79 127 -135
s47.5 -119 47.5 -189z" />
    <glyph glyph-name="Odieresis" unicode="&#xd6;" horiz-adv-x="1450" 
d="M885 1952l192 0.000976562v-128c0 -28 -32 -42 -96 -42c-30 0 -53.5 4.16699 -70.5 12.5s-25.5 18.166 -25.5 29.499v128zM373 1952l192 0.000976562v-128c0 -28 -32 -42 -96 -42c-30 0 -53.5 4.16699 -70.5 12.5s-25.5 18.166 -25.5 29.499v128zM1109 367.002
l0.00195312 868.001c0 48.667 -10.833 92.5 -32.5 131.5s-50.834 70.667 -87.501 95s-77.5 42.833 -122.5 55.5s-92.167 19 -141.5 19s-96.5 -6.33301 -141.5 -19s-85.833 -31.167 -122.5 -55.5s-65.834 -56 -87.501 -95s-32.5 -82.833 -32.5 -131.5v-868
c0 -64.667 19 -120.5 57 -167.5s85.333 -81.333 142 -103s118.334 -32.5 185.001 -32.5c48.667 0 95.667 6.5 141 19.5s86.166 31.667 122.499 56s65.5 56.166 87.5 95.499s33 83.333 33 132zM1280 1193l0.000976562 -783c0 -70.667 -15.833 -134 -47.5 -190
s-73.834 -101.167 -126.501 -135.5s-111.667 -60.5 -177 -78.5s-133.333 -27 -204 -27s-138.5 9 -203.5 27s-124 44.167 -177 78.5s-95.167 79.5 -126.5 135.5s-47 119.333 -47 190v783c0 70 15.667 133 47 189s73.5 101 126.5 135s111.833 59.833 176.5 77.5
s132.667 26.5 204 26.5s139.333 -8.83301 204 -26.5s123.5 -43.5 176.5 -77.5s95.333 -79 127 -135s47.5 -119 47.5 -189z" />
    <glyph glyph-name="multiply" unicode="&#xd7;" horiz-adv-x="1194" 
d="M960 1233l60 -60l-363 -362l363 -363l-60 -60l-363 363l-362 -363l-60 60l363 363l-363 362l60 60l362 -363z" />
    <glyph glyph-name="Oslash" unicode="&#xd8;" horiz-adv-x="1450" 
d="M1280 1193l0.00195312 -783c0 -70.667 -15.833 -134 -47.5 -190s-73.834 -101.167 -126.501 -135.5s-111.667 -60.5 -177 -78.5s-133.333 -27 -204 -27c-127.333 0 -237.333 24.667 -330 74l-58 -113l-77 39l62 121c-100.667 76.667 -151 180 -151 310v783
c0 70 15.667 133 47 189s73.5 101 126.5 135s111.833 59.833 176.5 77.5s132.667 26.5 204 26.5c127.333 0 239.666 -26.333 336.999 -79l62 122l77 -38l-66 -131c96.667 -78 145 -178.667 145 -302zM1109 367l0.000976562 868.002c0 53.333 -12 99.666 -36 138.999
l-627 -1223c73.333 -58 166.333 -87 279 -87c48.667 0 95.667 6.5 141 19.5s86.166 31.667 122.499 56s65.5 56.166 87.5 95.499s33 83.333 33 132zM384.003 220.002l627.001 1224c-74 61.333 -169.333 92 -286 92c-49.333 0 -96.5 -6.33301 -141.5 -19
s-85.833 -31.167 -122.5 -55.5s-65.834 -56 -87.501 -95s-32.5 -82.833 -32.5 -131.5v-868c0 -52.667 14.333 -101.667 43 -147z" />
    <glyph glyph-name="Ugrave" unicode="&#xd9;" horiz-adv-x="1450" 
d="M482 2005v23.001h124c14.667 0 27.667 -2.33301 39 -7s22 -13 32 -25s18.5 -23.5 25.5 -34.5s16.833 -27.833 29.5 -50.5c2.66699 -4.66699 4.66699 -8.33398 6 -11.001l79 -143l-60 -40zM1280 1621l-0.00195312 -1211c0 -70.667 -15.833 -134 -47.5 -190
s-73.834 -101.167 -126.501 -135.5s-111.667 -60.5 -177 -78.5s-133.333 -27 -204 -27s-138.5 9 -203.5 27s-124 44.167 -177 78.5s-95.167 79.5 -126.5 135.5s-47 119.333 -47 190v1211h170v-1254c0 -48.667 11 -92.834 33 -132.501s51.333 -71.5 88 -95.5
s77.5 -42.5 122.5 -55.5s91.833 -19.5 140.5 -19.5c40 0 80.333 3.33301 121 10s82.334 18.5 125.001 35.5s80.334 38 113.001 63s59.334 58 80.001 99s31 87.167 31 138.5v1211h85z" />
    <glyph glyph-name="Uacute" unicode="&#xda;" horiz-adv-x="1450" 
d="M1001 2005l-275.001 -287.999l-60 40l79 143c30 53.333 51.333 86.666 64 99.999c18.667 18.667 41.334 28 68.001 28h124v-23zM1280 1621l-0.00195312 -1211c0 -70.667 -15.833 -134 -47.5 -190s-73.834 -101.167 -126.501 -135.5s-111.667 -60.5 -177 -78.5
s-133.333 -27 -204 -27s-138.5 9 -203.5 27s-124 44.167 -177 78.5s-95.167 79.5 -126.5 135.5s-47 119.333 -47 190v1211h170v-1254c0 -48.667 11 -92.834 33 -132.501s51.333 -71.5 88 -95.5s77.5 -42.5 122.5 -55.5s91.833 -19.5 140.5 -19.5c40 0 80.333 3.33301 121 10
s82.334 18.5 125.001 35.5s80.334 38 113.001 63s59.334 58 80.001 99s31 87.167 31 138.5v1211h85z" />
    <glyph glyph-name="Ucircumflex" unicode="&#xdb;" horiz-adv-x="1450" 
d="M766 2029l246.999 -250l-60 -62l-47 49c-20 21.333 -44.167 43.5 -72.5 66.5s-52.5 41.167 -72.5 54.5s-32 20 -36 20c-6.66699 0 -33.167 -18 -79.5 -54s-80.166 -65 -101.499 -87l-47 -49l-60 62l247 250h82zM1280 1621l-0.00195312 -1211
c0 -70.667 -15.833 -134 -47.5 -190s-73.834 -101.167 -126.501 -135.5s-111.667 -60.5 -177 -78.5s-133.333 -27 -204 -27s-138.5 9 -203.5 27s-124 44.167 -177 78.5s-95.167 79.5 -126.5 135.5s-47 119.333 -47 190v1211h170v-1254c0 -48.667 11 -92.834 33 -132.501
s51.333 -71.5 88 -95.5s77.5 -42.5 122.5 -55.5s91.833 -19.5 140.5 -19.5c40 0 80.333 3.33301 121 10s82.334 18.5 125.001 35.5s80.334 38 113.001 63s59.334 58 80.001 99s31 87.167 31 138.5v1211h85z" />
    <glyph glyph-name="Udieresis" unicode="&#xdc;" horiz-adv-x="1450" 
d="M885 1958l192 0.000976562v-128c0 -28 -32 -42 -96 -42c-30 0 -53.5 4.16699 -70.5 12.5s-25.5 18.166 -25.5 29.499v128zM373 1958l192 0.000976562v-128c0 -28 -32 -42 -96 -42c-30 0 -53.5 4.16699 -70.5 12.5s-25.5 18.166 -25.5 29.499v128zM1280 1621
l-0.00195312 -1211c0 -70.667 -15.833 -134 -47.5 -190s-73.834 -101.167 -126.501 -135.5s-111.667 -60.5 -177 -78.5s-133.333 -27 -204 -27s-138.5 9 -203.5 27s-124 44.167 -177 78.5s-95.167 79.5 -126.5 135.5s-47 119.333 -47 190v1211h170v-1254
c0 -48.667 11 -92.834 33 -132.501s51.333 -71.5 88 -95.5s77.5 -42.5 122.5 -55.5s91.833 -19.5 140.5 -19.5c40 0 80.333 3.33301 121 10s82.334 18.5 125.001 35.5s80.334 38 113.001 63s59.334 58 80.001 99s31 87.167 31 138.5v1211h85z" />
    <glyph glyph-name="Yacute" unicode="&#xdd;" horiz-adv-x="1450" 
d="M986 2005l-275.001 -287.999l-60 40l79 143c30 53.333 51.333 86.666 64 99.999c18.667 18.667 41.334 28 68.001 28h124v-23zM1269 1621h96l-544 -1007v-614h-170v570l-566 1051h194l493 -917z" />
    <glyph glyph-name="Thorn" unicode="&#xde;" 
d="M171 1621l170 -0.00195312v-170h331c62.667 0 120.167 -5.66699 172.5 -17s96.166 -26.166 131.499 -44.499s66.5 -40.166 93.5 -65.499s48.167 -50.833 63.5 -76.5s28 -52.834 38 -81.501s16.5 -54.167 19.5 -76.5s4.5 -44.166 4.5 -65.499v-171
c0 -21.333 -1.5 -43.166 -4.5 -65.499s-9.16699 -47.833 -18.5 -76.5s-21.333 -55.834 -36 -81.501s-34.5 -51.167 -59.5 -76.5s-53.667 -47 -86 -65s-72.166 -32.667 -119.499 -44s-99.333 -17 -156 -17h-374v-427h-170v1621zM341 511.998h330.999
c107.333 0 192.833 27.333 256.5 82s95.5 119.667 95.5 195v299c0 75.333 -34.667 140.333 -104 195s-162.666 82 -279.999 82h-299v-853z" />
    <glyph glyph-name="germandbls" unicode="&#xdf;" 
d="M85 1024h85.998v301c0 86 28.333 156.833 85 212.5s131.334 83.5 224.001 83.5c277.333 0 416 -100 416 -300c0 -31.333 -7.16699 -63.333 -21.5 -96s-31.666 -62.834 -51.999 -90.501l-61.5 -81c-20.667 -26.333 -38.167 -53.833 -52.5 -82.5s-21.5 -55.667 -21.5 -81
c0 -22 3.83301 -41.833 11.5 -59.5s18.834 -33.334 33.501 -47.001s33.667 -27 57 -40s49.5 -25.833 78.5 -38.5l101.5 -43l23 -9c96 -39.333 168 -91.5 216 -156.5s72 -134.5 72 -208.5c0 -41.333 -9.33301 -80.166 -28 -116.499s-46.5 -69.166 -83.5 -98.499
s-86.167 -52.333 -147.5 -69s-131.333 -25 -210 -25c-36.667 0 -68.667 1 -96 3s-53.333 6 -78 12s-42.834 10.833 -54.501 14.5s-31.334 11 -59.001 22s-47.167 18.5 -58.5 22.5l43 98c30 -11.333 59.833 -23.833 89.5 -37.5s51.167 -23.167 64.5 -28.5
s32.5 -10.166 57.5 -14.499s56.167 -6.5 93.5 -6.5c98.667 0 172.667 17.833 222 53.5s74 80.5 74 134.5c0 48 -18.333 95.5 -55 142.5s-84.334 82.5 -143.001 106.5c-10.667 4.66699 -26 11 -46 19l-67.5 28l-57.5 25c-24 10.667 -41.5 19.167 -52.5 25.5
s-25 14.833 -42 25.5s-29.167 20.167 -36.5 28.5l-26.5 30.5c-10.333 12 -17.5 24 -21.5 36s-7.5 25.667 -10.5 41s-4.5 31.666 -4.5 48.999c0 41.333 9.16699 82.666 27.5 123.999s40.333 78.5 66 111.5l77.5 95.5c26 30.667 48.167 61.5 66.5 92.5s27.5 59.5 27.5 85.5
c0 25.333 -3.83301 48.333 -11.5 69s-17.167 37.834 -28.5 51.501s-25.333 25.334 -42 35.001s-32.667 17.167 -48 22.5s-32 9.5 -50 12.5s-32.667 4.83301 -44 5.5s-22.666 1 -33.999 1c-21.333 0 -40.333 -0.833008 -57 -2.5s-36 -6.16699 -58 -13.5
s-40.167 -17.5 -54.5 -30.5s-26.666 -32 -36.999 -57s-15.5 -54.5 -15.5 -88.5c0 -18.667 3.33301 -61.334 10 -128.001v-1195h-170v917h-86v107z" />
    <glyph glyph-name="agrave" unicode="&#xe0;" 
d="M476 1598v23.001h124c14.667 0 27.667 -2.33301 39 -7s22 -13 32 -25s18.5 -23.5 25.5 -34.5s16.833 -27.833 29.5 -50.5c2.66699 -4.66699 4.66699 -8.33398 6 -11.001l79 -143l-60 -40zM1195 0.000976562l-107 0.00292969l-58 149l-311 -121
c-85.333 -32.667 -150.666 -49 -195.999 -49c-95.333 0 -177.833 28.5 -247.5 85.5s-104.5 127.167 -104.5 210.5v100c0 97.333 32.833 173 98.5 227s160.834 81 285.501 81h469v200c0 77.333 -24 138 -72 182s-129.333 66 -244 66c-14 0 -28.5 -1 -43.5 -3
s-30.833 -5.16699 -47.5 -9.5l-39.5 -10.5c-9.66699 -2.66699 -22.834 -6.83398 -39.501 -12.501l-28 -9.5l-199 -68l-42 98c46 22.667 110 45 192 67s164.333 33 247 33c63.333 0 120.333 -3.83301 171 -11.5s92.667 -17.667 126 -30s62.166 -28 86.499 -47
s43 -37.5 56 -55.5s23.167 -38.833 30.5 -62.5s12 -44.334 14 -62.001s3 -37.834 3 -60.501v-887zM1024 597.004l-426.996 -0.000976562c-34 0 -64.5 -3 -91.5 -9s-49.333 -13.5 -67 -22.5s-32.834 -21 -45.501 -36s-22.334 -29.333 -29.001 -43
s-11.834 -30.834 -15.501 -51.501s-5.83398 -38.167 -6.50098 -52.5s-1 -32.166 -1 -53.499v-13c0 -75.333 17.5 -132.666 52.5 -171.999s83.167 -59 144.5 -59c16 0 39.333 2 70 6s54 8.66699 70 14l346 113v379z" />
    <glyph glyph-name="aacute" unicode="&#xe1;" 
d="M962 1598l-275.001 -287.999l-60 40l79 143c30 53.333 51.333 86.666 64 99.999c18.667 18.667 41.334 28 68.001 28h124v-23zM1195 0.000976562l-107 0.00292969l-58 149l-311 -121c-85.333 -32.667 -150.666 -49 -195.999 -49c-95.333 0 -177.833 28.5 -247.5 85.5
s-104.5 127.167 -104.5 210.5v100c0 97.333 32.833 173 98.5 227s160.834 81 285.501 81h469v200c0 77.333 -24 138 -72 182s-129.333 66 -244 66c-14 0 -28.5 -1 -43.5 -3s-30.833 -5.16699 -47.5 -9.5l-39.5 -10.5c-9.66699 -2.66699 -22.834 -6.83398 -39.501 -12.501
l-28 -9.5l-199 -68l-42 98c46 22.667 110 45 192 67s164.333 33 247 33c63.333 0 120.333 -3.83301 171 -11.5s92.667 -17.667 126 -30s62.166 -28 86.499 -47s43 -37.5 56 -55.5s23.167 -38.833 30.5 -62.5s12 -44.334 14 -62.001s3 -37.834 3 -60.501v-887zM1024 597.004
l-426.996 -0.000976562c-34 0 -64.5 -3 -91.5 -9s-49.333 -13.5 -67 -22.5s-32.834 -21 -45.501 -36s-22.334 -29.333 -29.001 -43s-11.834 -30.834 -15.501 -51.501s-5.83398 -38.167 -6.50098 -52.5s-1 -32.166 -1 -53.499v-13c0 -75.333 17.5 -132.666 52.5 -171.999
s83.167 -59 144.5 -59c16 0 39.333 2 70 6s54 8.66699 70 14l346 113v379z" />
    <glyph glyph-name="acircumflex" unicode="&#xe2;" 
d="M771 1622l246.999 -250l-60 -62l-47 49c-20 21.333 -44.167 43.5 -72.5 66.5s-52.5 41.167 -72.5 54.5s-32 20 -36 20c-6.66699 0 -33.167 -18 -79.5 -54s-80.166 -65 -101.499 -87l-47 -49l-60 62l247 250h82zM1195 0l-107 0.00292969l-58 149l-311 -121
c-85.333 -32.667 -150.666 -49 -195.999 -49c-95.333 0 -177.833 28.5 -247.5 85.5s-104.5 127.167 -104.5 210.5v100c0 97.333 32.833 173 98.5 227s160.834 81 285.501 81h469v200c0 77.333 -24 138 -72 182s-129.333 66 -244 66c-14 0 -28.5 -1 -43.5 -3
s-30.833 -5.16699 -47.5 -9.5l-39.5 -10.5c-9.66699 -2.66699 -22.834 -6.83398 -39.501 -12.501l-28 -9.5l-199 -68l-42 98c46 22.667 110 45 192 67s164.333 33 247 33c63.333 0 120.333 -3.83301 171 -11.5s92.667 -17.667 126 -30s62.166 -28 86.499 -47
s43 -37.5 56 -55.5s23.167 -38.833 30.5 -62.5s12 -44.334 14 -62.001s3 -37.834 3 -60.501v-887zM1024 597.003l-426.996 -0.000976562c-34 0 -64.5 -3 -91.5 -9s-49.333 -13.5 -67 -22.5s-32.834 -21 -45.501 -36s-22.334 -29.333 -29.001 -43
s-11.834 -30.834 -15.501 -51.501s-5.83398 -38.167 -6.50098 -52.5s-1 -32.166 -1 -53.499v-13c0 -75.333 17.5 -132.666 52.5 -171.999s83.167 -59 144.5 -59c16 0 39.333 2 70 6s54 8.66699 70 14l346 113v379z" />
    <glyph glyph-name="atilde" unicode="&#xe3;" 
d="M764 1391l-86.999 51.0039c-42.667 24 -77 36 -103 36c-8.66699 0 -17.334 -0.833008 -26.001 -2.5s-16.334 -3.33398 -23.001 -5.00098s-13.667 -4.83398 -21 -9.50098s-13.333 -8.33398 -18 -11.001s-10.167 -7.33398 -16.5 -14.001l-14 -14.5
c-3 -3 -7.33301 -8.33301 -13 -16l-11 -15c-1.66699 -2.33301 -5.16699 -7.5 -10.5 -15.5s-8.33301 -12.667 -9 -14l-98 62l87 85c16 15.333 29.833 27.5 41.5 36.5s28.834 18 51.501 27s46.667 13.5 72 13.5c9.33301 0 18.166 -0.833008 26.499 -2.5
s17.5 -4.83398 27.5 -9.50098s18.333 -8.83398 25 -12.501s17 -9.83398 31 -18.501l35 -21l87 -49c44 -25.333 79 -38 105 -38c12.667 0 24.5 1.33301 35.5 4s21.333 7 31 13s17.834 11.333 24.501 16s14 11.834 22 21.501l17.5 21.5
c3.66699 4.66699 9.16699 12.5 16.5 23.5l13 19.5l96 -64l-86 -85c-16 -14.667 -30 -26.667 -42 -36s-29.333 -18.5 -52 -27.5s-46.667 -13.5 -72 -13.5c-8 0 -15.667 0.833008 -23 2.5s-13.833 3.33398 -19.5 5.00098s-13 4.83398 -22 9.50098s-16 8.5 -21 11.5l-27 16.5z
M1195 0.00390625l-107 0.00292969l-58 149l-311 -121c-85.333 -32.667 -150.666 -49 -195.999 -49c-95.333 0 -177.833 28.5 -247.5 85.5s-104.5 127.167 -104.5 210.5v100c0 97.333 32.833 173 98.5 227s160.834 81 285.501 81h469v200c0 77.333 -24 138 -72 182
s-129.333 66 -244 66c-14 0 -28.5 -1 -43.5 -3s-30.833 -5.16699 -47.5 -9.5l-39.5 -10.5c-9.66699 -2.66699 -22.834 -6.83398 -39.501 -12.501l-28 -9.5l-199 -68l-42 98c46 22.667 110 45 192 67s164.333 33 247 33c63.333 0 120.333 -3.83301 171 -11.5
s92.667 -17.667 126 -30s62.166 -28 86.499 -47s43 -37.5 56 -55.5s23.167 -38.833 30.5 -62.5s12 -44.334 14 -62.001s3 -37.834 3 -60.501v-887zM1024 597.007l-426.996 -0.000976562c-34 0 -64.5 -3 -91.5 -9s-49.333 -13.5 -67 -22.5s-32.834 -21 -45.501 -36
s-22.334 -29.333 -29.001 -43s-11.834 -30.834 -15.501 -51.501s-5.83398 -38.167 -6.50098 -52.5s-1 -32.166 -1 -53.499v-13c0 -75.333 17.5 -132.666 52.5 -171.999s83.167 -59 144.5 -59c16 0 39.333 2 70 6s54 8.66699 70 14l346 113v379z" />
    <glyph glyph-name="adieresis" unicode="&#xe4;" 
d="M868 1621l192 0.000976562v-128c0 -28 -32 -42 -96 -42c-30 0 -53.5 4.16699 -70.5 12.5s-25.5 18.166 -25.5 29.499v128zM356 1621l192 0.000976562v-128c0 -28 -32 -42 -96 -42c-30 0 -53.5 4.16699 -70.5 12.5s-25.5 18.166 -25.5 29.499v128zM1195 0.00195312
l-107 0.00292969l-58 149l-311 -121c-85.333 -32.667 -150.666 -49 -195.999 -49c-95.333 0 -177.833 28.5 -247.5 85.5s-104.5 127.167 -104.5 210.5v100c0 97.333 32.833 173 98.5 227s160.834 81 285.501 81h469v200c0 77.333 -24 138 -72 182s-129.333 66 -244 66
c-14 0 -28.5 -1 -43.5 -3s-30.833 -5.16699 -47.5 -9.5l-39.5 -10.5c-9.66699 -2.66699 -22.834 -6.83398 -39.501 -12.501l-28 -9.5l-199 -68l-42 98c46 22.667 110 45 192 67s164.333 33 247 33c63.333 0 120.333 -3.83301 171 -11.5s92.667 -17.667 126 -30
s62.166 -28 86.499 -47s43 -37.5 56 -55.5s23.167 -38.833 30.5 -62.5s12 -44.334 14 -62.001s3 -37.834 3 -60.501v-887zM1024 597.005l-426.996 -0.000976562c-34 0 -64.5 -3 -91.5 -9s-49.333 -13.5 -67 -22.5s-32.834 -21 -45.501 -36s-22.334 -29.333 -29.001 -43
s-11.834 -30.834 -15.501 -51.501s-5.83398 -38.167 -6.50098 -52.5s-1 -32.166 -1 -53.499v-13c0 -75.333 17.5 -132.666 52.5 -171.999s83.167 -59 144.5 -59c16 0 39.333 2 70 6s54 8.66699 70 14l346 113v379z" />
    <glyph glyph-name="aring" unicode="&#xe5;" 
d="M725 1622c50 0 90.333 -15.667 121 -47s46 -70.666 46 -117.999v-12c0 -47.333 -15.333 -86.666 -46 -117.999s-71 -47 -121 -47h-30c-50 0 -90.167 15.667 -120.5 47s-45.5 70.666 -45.5 117.999v12c0 47.333 15.167 86.666 45.5 117.999s70.5 47 120.5 47h30zM710 1323
c78.667 0 117.999 42.667 117.999 128c0 12.667 -1.16699 25 -3.5 37s-7 25.5 -14 40.5s-19.167 27.167 -36.5 36.5s-38.666 14 -63.999 14s-46.5 -4.66699 -63.5 -14s-29 -21.666 -36 -36.999s-11.667 -28.833 -14 -40.5s-3.5 -23.834 -3.5 -36.501
c0 -85.333 39 -128 117 -128zM1195 0l-107 0.00292969l-58 149l-311 -121c-85.333 -32.667 -150.666 -49 -195.999 -49c-95.333 0 -177.833 28.5 -247.5 85.5s-104.5 127.167 -104.5 210.5v100c0 97.333 32.833 173 98.5 227s160.834 81 285.501 81h469v200
c0 77.333 -24 138 -72 182s-129.333 66 -244 66c-14 0 -28.5 -1 -43.5 -3s-30.833 -5.16699 -47.5 -9.5l-39.5 -10.5c-9.66699 -2.66699 -22.834 -6.83398 -39.501 -12.501l-28 -9.5l-199 -68l-42 98c46 22.667 110 45 192 67s164.333 33 247 33
c63.333 0 120.333 -3.83301 171 -11.5s92.667 -17.667 126 -30s62.166 -28 86.499 -47s43 -37.5 56 -55.5s23.167 -38.833 30.5 -62.5s12 -44.334 14 -62.001s3 -37.834 3 -60.501v-887zM1024 597.003l-426.996 -0.000976562c-34 0 -64.5 -3 -91.5 -9
s-49.333 -13.5 -67 -22.5s-32.834 -21 -45.501 -36s-22.334 -29.333 -29.001 -43s-11.834 -30.834 -15.501 -51.501s-5.83398 -38.167 -6.50098 -52.5s-1 -32.166 -1 -53.499v-13c0 -75.333 17.5 -132.666 52.5 -171.999s83.167 -59 144.5 -59c16 0 39.333 2 70 6
s54 8.66699 70 14l346 113v379z" />
    <glyph glyph-name="ae" unicode="&#xe6;" horiz-adv-x="2218" 
d="M1547 -21c-228.667 0 -383.667 63.333 -465 190l-363 -141c-85.333 -32.667 -150.666 -49 -195.999 -49c-95.333 0 -177.833 28.5 -247.5 85.5s-104.5 127.167 -104.5 210.5v100c0 97.333 32.833 173 98.5 227s160.834 81 285.501 81h469v140v60
c0 32.667 -5.16699 63 -15.5 91s-27 54.167 -50 78.5s-55.833 43.5 -98.5 57.5s-93.334 21 -152.001 21c-14 0 -28.5 -1 -43.5 -3s-30.833 -5.16699 -47.5 -9.5l-39.5 -10.5c-9.66699 -2.66699 -22.834 -6.83398 -39.501 -12.501l-28 -9.5l-199 -68l-42 98
c46 22.667 110 45 192 67s164.333 33 247 33c208.667 0 349.667 -41.333 423 -124c88.667 82.667 223.667 124 405 124c64.667 0 123.5 -5.5 176.5 -16.5s96.833 -25 131.5 -42s65 -37.667 91 -62s46 -48 60 -71s25.167 -47.667 33.5 -74s13.666 -48.333 15.999 -66
s3.5 -35.167 3.5 -52.5v-235h-853v-243c0 -31.333 8.16699 -63.666 24.5 -96.999s39.5 -64.5 69.5 -93.5s69.333 -52.833 118 -71.5s102.334 -28 161.001 -28c48 0 107 12.667 177 38l198 69l43 -98c-43.333 -22 -106.5 -43.167 -189.5 -63.5s-166.167 -30.5 -249.5 -30.5z
M1195 853l-0.000976562 -170.001h682v170c0 76.667 -30.5 142.167 -91.5 196.5s-144.167 81.5 -249.5 81.5c-47.333 0 -90.666 -5.83301 -129.999 -17.5s-71.666 -26.834 -96.999 -45.501s-46.833 -40.167 -64.5 -64.5s-30.334 -49.166 -38.001 -74.499
s-11.5 -50.666 -11.5 -75.999zM1024 596.999h-426.998c-34 0 -64.667 -3.33301 -92 -10s-49.666 -15 -66.999 -25s-32.333 -23.167 -45 -39.5s-22.334 -31.666 -29.001 -45.999s-11.834 -31.5 -15.501 -51.5s-5.83398 -36.5 -6.50098 -49.5s-1 -28.5 -1 -46.5v-13
c0 -66.667 18.167 -121.834 54.5 -165.501s83.833 -65.5 142.5 -65.5c16 0 39.333 2 70 6s54 8.66699 70 14l346 113v153v226z" />
    <glyph glyph-name="ccedilla" unicode="&#xe7;" horiz-adv-x="1194" 
d="M341 841l-0.000976562 -486.994c0 -85.333 32.667 -155 98 -209s157.333 -81 276 -81c38.667 0 77.667 6.33301 117 19l192 62l43 -98c-34 -17.333 -89.667 -33 -167 -47s-145.666 -21 -204.999 -21l-23 -105c31.333 10 55.666 15 72.999 15c35.333 0 64 -11.333 86 -34
s33 -50.334 33 -83.001v-45c0 -16.667 -2.66699 -33.167 -8 -49.5s-14 -32.5 -26 -48.5s-30 -29 -54 -39s-52.333 -15 -85 -15h-32c-32.667 0 -70.334 10.667 -113.001 32l19 62c6.66699 -4.66699 20.834 -11.5 42.501 -20.5s38.834 -13.5 51.501 -13.5h32
c28.667 0 50.5 9.5 65.5 28.5s22.5 40.167 22.5 63.5v64c0 12 -3.5 21.333 -10.5 28s-14.833 10 -23.5 10c-16.667 0 -31.667 -2.66699 -45 -8l-54 -26h-51l41 186c-76.667 4.66699 -144.167 18.167 -202.5 40.5s-103.666 48.166 -135.999 77.499
s-58.5 63.166 -78.5 101.499s-33 72.666 -39 102.999s-9 60.166 -9 89.499v409c0 21.333 1.5 42.833 4.5 64.5s9.33301 46.667 19 75s22.167 54.833 37.5 79.5s36.666 49.167 63.999 73.5s58.5 45.166 93.5 62.499s78.667 31.5 131 42.5s109.833 16.5 172.5 16.5
c59.333 0 128 -7 206 -21s134 -29.667 168 -47l-43 -98l-192 61c-41.333 13.333 -80.333 20 -117 20c-118.667 0 -210.667 -27 -276 -81s-98 -123.667 -98 -209z" />
    <glyph glyph-name="egrave" unicode="&#xe8;" 
d="M450 1598v23.001h124c14.667 0 27.667 -2.33301 39 -7s22 -13 32 -25s18.5 -23.5 25.5 -34.5s16.833 -27.833 29.5 -50.5c2.66699 -4.66699 4.66699 -8.33398 6 -11.001l79 -143l-60 -40zM171 375.001l0.000976562 443.998c0 52 9.5 100 28.5 144s45 81.333 78 112
s71.333 56.834 115 78.501s90 37.5 139 47.5s99.5 15 151.5 15s102.5 -5 151.5 -15s95.333 -25.833 139 -47.5s82 -47.834 115 -78.501s59 -68 78 -112s28.5 -92 28.5 -144v-179h-854v-311c0 -82.667 34 -147.5 102 -194.5s148 -70.5 240 -70.5c64 0 133.667 12.667 209 38
l198 69l43 -98c-42.667 -21.333 -105.334 -42.333 -188.001 -63s-170 -31 -262 -31c-65.333 0 -128 8.16699 -188 24.5s-114.5 40.333 -163.5 72s-88 73.334 -117 125.001s-43.5 109.834 -43.5 174.501zM1024 865.999c0 82.667 -33.832 147.5 -101.499 194.5
s-147.5 70.5 -239.5 70.5c-59.333 0 -114.333 -9.5 -165 -28.5s-92.834 -49 -126.501 -90s-50.5 -89.833 -50.5 -146.5v-141h683v141z" />
    <glyph glyph-name="eacute" unicode="&#xe9;" 
d="M915 1598l-275.001 -287.999l-60 40l79 143c30 53.333 51.333 86.666 64 99.999c18.667 18.667 41.334 28 68.001 28h124v-23zM170.999 375.001l0.000976562 443.998c0 52 9.5 100 28.5 144s45 81.333 78 112s71.333 56.834 115 78.501s90 37.5 139 47.5
s99.5 15 151.5 15s102.5 -5 151.5 -15s95.333 -25.833 139 -47.5s82 -47.834 115 -78.501s59 -68 78 -112s28.5 -92 28.5 -144v-179h-854v-311c0 -82.667 34 -147.5 102 -194.5s148 -70.5 240 -70.5c64 0 133.667 12.667 209 38l198 69l43 -98
c-42.667 -21.333 -105.334 -42.333 -188.001 -63s-170 -31 -262 -31c-65.333 0 -128 8.16699 -188 24.5s-114.5 40.333 -163.5 72s-88 73.334 -117 125.001s-43.5 109.834 -43.5 174.501zM1024 865.999c0 82.667 -33.832 147.5 -101.499 194.5s-147.5 70.5 -239.5 70.5
c-59.333 0 -114.333 -9.5 -165 -28.5s-92.834 -49 -126.501 -90s-50.5 -89.833 -50.5 -146.5v-141h683v141z" />
    <glyph glyph-name="ecircumflex" unicode="&#xea;" 
d="M724 1622l246.999 -250l-60 -62l-47 49c-20 21.333 -44.167 43.5 -72.5 66.5s-52.5 41.167 -72.5 54.5s-32 20 -36 20c-6.66699 0 -33.167 -18 -79.5 -54s-80.166 -65 -101.499 -87l-47 -49l-60 62l247 250h82zM170.999 375l0.000976562 443.998c0 52 9.5 100 28.5 144
s45 81.333 78 112s71.333 56.834 115 78.501s90 37.5 139 47.5s99.5 15 151.5 15s102.5 -5 151.5 -15s95.333 -25.833 139 -47.5s82 -47.834 115 -78.501s59 -68 78 -112s28.5 -92 28.5 -144v-179h-854v-311c0 -82.667 34 -147.5 102 -194.5s148 -70.5 240 -70.5
c64 0 133.667 12.667 209 38l198 69l43 -98c-42.667 -21.333 -105.334 -42.333 -188.001 -63s-170 -31 -262 -31c-65.333 0 -128 8.16699 -188 24.5s-114.5 40.333 -163.5 72s-88 73.334 -117 125.001s-43.5 109.834 -43.5 174.501zM1024 865.998
c0 82.667 -33.832 147.5 -101.499 194.5s-147.5 70.5 -239.5 70.5c-59.333 0 -114.333 -9.5 -165 -28.5s-92.834 -49 -126.501 -90s-50.5 -89.833 -50.5 -146.5v-141h683v141z" />
    <glyph glyph-name="edieresis" unicode="&#xeb;" 
d="M843 1621l192 0.000976562v-128c0 -28 -32 -42 -96 -42c-30 0 -53.5 4.16699 -70.5 12.5s-25.5 18.166 -25.5 29.499v128zM331 1621l192 0.000976562v-128c0 -28 -32 -42 -96 -42c-30 0 -53.5 4.16699 -70.5 12.5s-25.5 18.166 -25.5 29.499v128zM171 375.002
l0.000976562 443.998c0 52 9.5 100 28.5 144s45 81.333 78 112s71.333 56.834 115 78.501s90 37.5 139 47.5s99.5 15 151.5 15s102.5 -5 151.5 -15s95.333 -25.833 139 -47.5s82 -47.834 115 -78.501s59 -68 78 -112s28.5 -92 28.5 -144v-179h-854v-311
c0 -82.667 34 -147.5 102 -194.5s148 -70.5 240 -70.5c64 0 133.667 12.667 209 38l198 69l43 -98c-42.667 -21.333 -105.334 -42.333 -188.001 -63s-170 -31 -262 -31c-65.333 0 -128 8.16699 -188 24.5s-114.5 40.333 -163.5 72s-88 73.334 -117 125.001
s-43.5 109.834 -43.5 174.501zM1024 866c0 82.667 -33.832 147.5 -101.499 194.5s-147.5 70.5 -239.5 70.5c-59.333 0 -114.333 -9.5 -165 -28.5s-92.834 -49 -126.501 -90s-50.5 -89.833 -50.5 -146.5v-141h683v141z" />
    <glyph glyph-name="igrave" unicode="&#xec;" horiz-adv-x="512" 
d="M0 1598v23.001h124c14.667 0 27.667 -2.33301 39 -7s22 -13 32 -25s18.5 -23.5 25.5 -34.5s16.833 -27.833 29.5 -50.5c2.66699 -4.66699 4.66699 -8.33398 6 -11.001l79 -143l-60 -40zM171 0.000976562v1195h170v-1195h-170z" />
    <glyph glyph-name="iacute" unicode="&#xed;" horiz-adv-x="512" 
d="M512 1598l-275.001 -287.999l-60 40l79 143c30 53.333 51.333 86.666 64 99.999c18.667 18.667 41.334 28 68.001 28h124v-23zM170.999 0.000976562v1195h170v-1195h-170z" />
    <glyph glyph-name="icircumflex" unicode="&#xee;" horiz-adv-x="512" 
d="M297 1622l246.999 -250l-60 -62l-47 49c-20 21.333 -44.167 43.5 -72.5 66.5s-52.5 41.167 -72.5 54.5s-32 20 -36 20c-6.66699 0 -33.167 -18 -79.5 -54s-80.166 -65 -101.499 -87l-47 -49l-60 62l247 250h82zM170.999 0v1195h170v-1195h-170z" />
    <glyph glyph-name="idieresis" unicode="&#xef;" horiz-adv-x="512" 
d="M171 0v1195h170v-1195h-170zM341 1553h192v-128c0 -28.667 -32 -43 -96 -43c-30 0 -53.5 4.33301 -70.5 13s-25.5 18.667 -25.5 30v128zM-21 1553h192v-128c0 -28.667 -32 -43 -96 -43c-30 0 -53.5 4.33301 -70.5 13s-25.5 18.667 -25.5 30v128z" />
    <glyph glyph-name="eth" unicode="&#xf0;" 
d="M1024 870c0 48.667 -0.665039 84.333 -1.99805 107l-344 113c-39.333 12.667 -79 19 -119 19c-66 0 -118.833 -17.167 -158.5 -51.5s-59.5 -88.833 -59.5 -163.5v-570c0 -32 6.5 -62.833 19.5 -92.5s32.667 -57.334 59 -83.001s62.166 -46.167 107.499 -61.5
s97.333 -23 156 -23c59.333 0 111.666 7.66699 156.999 23s81 35.833 107 61.5s45.333 53.334 58 83.001s19 60.5 19 92.5v546zM704.002 1301l-51.0029 68.999l124 93c-37.333 14 -83.666 26.333 -138.999 37l-199 36l11 107c42.667 -2 109.5 -15.5 200.5 -40.5
s160.833 -50.833 209.5 -77.5l155 118l52 -69l-128 -96c170.667 -120.667 256 -346.667 256 -678v-429c0 -30.667 -3.16699 -61.334 -9.5 -92.001s-20 -64.834 -41 -102.501s-48.167 -70.5 -81.5 -98.5s-80 -51.5 -140 -70.5s-129.333 -28.5 -208 -28.5h-64
c-78.667 0 -148 9.5 -208 28.5s-106.667 42.5 -140 70.5s-60.5 60.833 -81.5 98.5s-34.667 71.834 -41 102.501s-9.5 61.334 -9.5 92.001v548c0 84.667 25.333 155.334 76 212.001s121.334 85 212.001 85c26.667 0 66.334 -4.16699 119.001 -12.5s99.667 -20.5 141 -36.5
l296 -115c-8.66699 94 -25.5 170.667 -50.5 230s-59.833 105 -104.5 137z" />
    <glyph glyph-name="ntilde" unicode="&#xf1;" 
d="M710 1391l-86.999 51.0039c-42.667 24 -77 36 -103 36c-8.66699 0 -17.334 -0.833008 -26.001 -2.5s-16.334 -3.33398 -23.001 -5.00098s-13.667 -4.83398 -21 -9.50098s-13.333 -8.33398 -18 -11.001s-10.167 -7.33398 -16.5 -14.001l-14 -14.5
c-3 -3 -7.33301 -8.33301 -13 -16l-11 -15c-1.66699 -2.33301 -5.16699 -7.5 -10.5 -15.5s-8.33301 -12.667 -9 -14l-98 62l87 85c16 15.333 29.833 27.5 41.5 36.5s28.834 18 51.501 27s46.667 13.5 72 13.5c9.33301 0 18.166 -0.833008 26.499 -2.5
s17.5 -4.83398 27.5 -9.50098s18.333 -8.83398 25 -12.501s17 -9.83398 31 -18.501l35 -21l87 -49c44 -25.333 79 -38 105 -38c12.667 0 24.5 1.33301 35.5 4s21.333 7 31 13s17.834 11.333 24.501 16s14 11.834 22 21.501l17.5 21.5
c3.66699 4.66699 9.16699 12.5 16.5 23.5l13 19.5l96 -64l-86 -85c-16 -14.667 -30 -26.667 -42 -36s-29.333 -18.5 -52 -27.5s-46.667 -13.5 -72 -13.5c-8 0 -15.667 0.833008 -23 2.5s-13.833 3.33398 -19.5 5.00098s-13 4.83398 -22 9.50098s-16 8.5 -21 11.5l-27 16.5z
M1024 894.004c0 78.667 -13.832 135.667 -41.499 171s-72.167 53 -133.5 53c-18.667 0 -45 -3 -79 -9s-61.667 -12.333 -83 -19l-346 -113v-977h-170v1195h106l58 -150l311 122c81.333 32.667 161.666 49 240.999 49c92.667 0 167.167 -25.5 223.5 -76.5
s84.5 -124.5 84.5 -220.5v-919h-171v894z" />
    <glyph glyph-name="ograve" unicode="&#xf2;" 
d="M450 1598v23.001h124c14.667 0 27.667 -2.33301 39 -7s22 -13 32 -25s18.5 -23.5 25.5 -34.5s16.833 -27.833 29.5 -50.5c2.66699 -4.66699 4.66699 -8.33398 6 -11.001l79 -143l-60 -40zM341 329.001c0 -82.667 34.002 -147.5 102.002 -194.5s148 -70.5 240 -70.5
c59.333 0 114.166 9.5 164.499 28.5s92.333 49 126 90s50.5 89.833 50.5 146.5v537c0 82.667 -33.833 147.5 -101.5 194.5s-147.5 70.5 -239.5 70.5c-59.333 0 -114.333 -9.5 -165 -28.5s-92.834 -49 -126.501 -90s-50.5 -89.833 -50.5 -146.5v-537zM171.002 375.001v444
c0 52 9.5 100 28.5 144s45 81.333 78 112s71.333 56.834 115 78.501s90 37.5 139 47.5s99.5 15 151.5 15s102.5 -5 151.5 -15s95.333 -25.833 139 -47.5s82 -47.834 115 -78.501s59 -68 78 -112s28.5 -92 28.5 -144v-444c0 -64.667 -14.5 -122.834 -43.5 -174.501
s-68 -93.334 -117 -125.001s-103.5 -55.667 -163.5 -72s-122.667 -24.5 -188 -24.5s-128 8.16699 -188 24.5s-114.5 40.333 -163.5 72s-88 73.334 -117 125.001s-43.5 109.834 -43.5 174.501z" />
    <glyph glyph-name="oacute" unicode="&#xf3;" 
d="M915 1598l-275.001 -287.999l-60 40l79 143c30 53.333 51.333 86.666 64 99.999c18.667 18.667 41.334 28 68.001 28h124v-23zM340.999 329.001c0 -82.667 34.002 -147.5 102.002 -194.5s148 -70.5 240 -70.5c59.333 0 114.166 9.5 164.499 28.5s92.333 49 126 90
s50.5 89.833 50.5 146.5v537c0 82.667 -33.833 147.5 -101.5 194.5s-147.5 70.5 -239.5 70.5c-59.333 0 -114.333 -9.5 -165 -28.5s-92.834 -49 -126.501 -90s-50.5 -89.833 -50.5 -146.5v-537zM171.001 375.001v444c0 52 9.5 100 28.5 144s45 81.333 78 112
s71.333 56.834 115 78.501s90 37.5 139 47.5s99.5 15 151.5 15s102.5 -5 151.5 -15s95.333 -25.833 139 -47.5s82 -47.834 115 -78.501s59 -68 78 -112s28.5 -92 28.5 -144v-444c0 -64.667 -14.5 -122.834 -43.5 -174.501s-68 -93.334 -117 -125.001
s-103.5 -55.667 -163.5 -72s-122.667 -24.5 -188 -24.5s-128 8.16699 -188 24.5s-114.5 40.333 -163.5 72s-88 73.334 -117 125.001s-43.5 109.834 -43.5 174.501z" />
    <glyph glyph-name="ocircumflex" unicode="&#xf4;" 
d="M724 1622l246.999 -250l-60 -62l-47 49c-20 21.333 -44.167 43.5 -72.5 66.5s-52.5 41.167 -72.5 54.5s-32 20 -36 20c-6.66699 0 -33.167 -18 -79.5 -54s-80.166 -65 -101.499 -87l-47 -49l-60 62l247 250h82zM340.999 329c0 -82.667 34.002 -147.5 102.002 -194.5
s148 -70.5 240 -70.5c59.333 0 114.166 9.5 164.499 28.5s92.333 49 126 90s50.5 89.833 50.5 146.5v537c0 82.667 -33.833 147.5 -101.5 194.5s-147.5 70.5 -239.5 70.5c-59.333 0 -114.333 -9.5 -165 -28.5s-92.834 -49 -126.501 -90s-50.5 -89.833 -50.5 -146.5v-537z
M171.001 375v444c0 52 9.5 100 28.5 144s45 81.333 78 112s71.333 56.834 115 78.501s90 37.5 139 47.5s99.5 15 151.5 15s102.5 -5 151.5 -15s95.333 -25.833 139 -47.5s82 -47.834 115 -78.501s59 -68 78 -112s28.5 -92 28.5 -144v-444
c0 -64.667 -14.5 -122.834 -43.5 -174.501s-68 -93.334 -117 -125.001s-103.5 -55.667 -163.5 -72s-122.667 -24.5 -188 -24.5s-128 8.16699 -188 24.5s-114.5 40.333 -163.5 72s-88 73.334 -117 125.001s-43.5 109.834 -43.5 174.501z" />
    <glyph glyph-name="otilde" unicode="&#xf5;" 
d="M710 1391l-86.999 51.0039c-42.667 24 -77 36 -103 36c-8.66699 0 -17.334 -0.833008 -26.001 -2.5s-16.334 -3.33398 -23.001 -5.00098s-13.667 -4.83398 -21 -9.50098s-13.333 -8.33398 -18 -11.001s-10.167 -7.33398 -16.5 -14.001l-14 -14.5
c-3 -3 -7.33301 -8.33301 -13 -16l-11 -15c-1.66699 -2.33301 -5.16699 -7.5 -10.5 -15.5s-8.33301 -12.667 -9 -14l-98 62l87 85c16 15.333 29.833 27.5 41.5 36.5s28.834 18 51.501 27s46.667 13.5 72 13.5c9.33301 0 18.166 -0.833008 26.499 -2.5
s17.5 -4.83398 27.5 -9.50098s18.333 -8.83398 25 -12.501s17 -9.83398 31 -18.501l35 -21l87 -49c44 -25.333 79 -38 105 -38c12.667 0 24.5 1.33301 35.5 4s21.333 7 31 13s17.834 11.333 24.501 16s14 11.834 22 21.501l17.5 21.5
c3.66699 4.66699 9.16699 12.5 16.5 23.5l13 19.5l96 -64l-86 -85c-16 -14.667 -30 -26.667 -42 -36s-29.333 -18.5 -52 -27.5s-46.667 -13.5 -72 -13.5c-8 0 -15.667 0.833008 -23 2.5s-13.833 3.33398 -19.5 5.00098s-13 4.83398 -22 9.50098s-16 8.5 -21 11.5l-27 16.5z
M341.001 329.004c0 -82.667 34.002 -147.5 102.002 -194.5s148 -70.5 240 -70.5c59.333 0 114.166 9.5 164.499 28.5s92.333 49 126 90s50.5 89.833 50.5 146.5v537c0 82.667 -33.833 147.5 -101.5 194.5s-147.5 70.5 -239.5 70.5c-59.333 0 -114.333 -9.5 -165 -28.5
s-92.834 -49 -126.501 -90s-50.5 -89.833 -50.5 -146.5v-537zM171.003 375.004v444c0 52 9.5 100 28.5 144s45 81.333 78 112s71.333 56.834 115 78.501s90 37.5 139 47.5s99.5 15 151.5 15s102.5 -5 151.5 -15s95.333 -25.833 139 -47.5s82 -47.834 115 -78.501
s59 -68 78 -112s28.5 -92 28.5 -144v-444c0 -64.667 -14.5 -122.834 -43.5 -174.501s-68 -93.334 -117 -125.001s-103.5 -55.667 -163.5 -72s-122.667 -24.5 -188 -24.5s-128 8.16699 -188 24.5s-114.5 40.333 -163.5 72s-88 73.334 -117 125.001
s-43.5 109.834 -43.5 174.501z" />
    <glyph glyph-name="odieresis" unicode="&#xf6;" 
d="M843 1621l192 0.000976562v-128c0 -28 -32 -42 -96 -42c-30 0 -53.5 4.16699 -70.5 12.5s-25.5 18.166 -25.5 29.499v128zM331 1621l192 0.000976562v-128c0 -28 -32 -42 -96 -42c-30 0 -53.5 4.16699 -70.5 12.5s-25.5 18.166 -25.5 29.499v128zM341 329.002
c0 -82.667 34.002 -147.5 102.002 -194.5s148 -70.5 240 -70.5c59.333 0 114.166 9.5 164.499 28.5s92.333 49 126 90s50.5 89.833 50.5 146.5v537c0 82.667 -33.833 147.5 -101.5 194.5s-147.5 70.5 -239.5 70.5c-59.333 0 -114.333 -9.5 -165 -28.5
s-92.834 -49 -126.501 -90s-50.5 -89.833 -50.5 -146.5v-537zM171.002 375.002v444c0 52 9.5 100 28.5 144s45 81.333 78 112s71.333 56.834 115 78.501s90 37.5 139 47.5s99.5 15 151.5 15s102.5 -5 151.5 -15s95.333 -25.833 139 -47.5s82 -47.834 115 -78.501
s59 -68 78 -112s28.5 -92 28.5 -144v-444c0 -64.667 -14.5 -122.834 -43.5 -174.501s-68 -93.334 -117 -125.001s-103.5 -55.667 -163.5 -72s-122.667 -24.5 -188 -24.5s-128 8.16699 -188 24.5s-114.5 40.333 -163.5 72s-88 73.334 -117 125.001
s-43.5 109.834 -43.5 174.501z" />
    <glyph glyph-name="divide" unicode="&#xf7;" horiz-adv-x="1194" 
d="M661 1301l-0.000976562 -84.998c0 -12 -0.833008 -20.333 -2.5 -25s-7.16699 -8.83398 -16.5 -12.501s-24.333 -5.5 -45 -5.5h-42c-28 0 -45.667 3 -53 9s-11 17.333 -11 34v85c0 7.33301 0.333008 12.666 1 15.999s2.83398 7.5 6.50098 12.5s10.167 8.66699 19.5 11
s21.666 3.5 36.999 3.5h42c20 0 34.833 -2 44.5 -6s15.334 -8.5 17.001 -13.5s2.5 -12.833 2.5 -23.5zM660.999 365.002v-86.001c0 -12 -0.833008 -20.333 -2.5 -25s-7.16699 -8.66699 -16.5 -12s-24.333 -5 -45 -5h-42c-28 0 -45.667 2.83301 -53 8.5
s-11 16.834 -11 33.501v86c0 7.33301 0.333008 12.666 1 15.999s2.83398 7.5 6.50098 12.5s10.167 8.5 19.5 10.5s21.666 3 36.999 3h42c29.333 0 47.333 -3.16699 54 -9.5s10 -17.166 10 -32.499zM1024 853.001v-85h-853v85h853z" />
    <glyph glyph-name="oslash" unicode="&#xf8;" 
d="M1118 1216l77 -41l-92 -115c61.333 -65.333 92 -145.666 92 -240.999v-444c0 -64.667 -14.5 -122.834 -43.5 -174.501s-68 -93.334 -117 -125.001s-103.5 -55.667 -163.5 -72s-122.667 -24.5 -188 -24.5c-139.333 0 -257.333 33.333 -354 100l-79 -100l-79 38l91 117
c-60.667 64.667 -91 145 -91 241v444c0 52 9.5 100 28.5 144s45 81.333 78 112s71.333 56.834 115 78.501s90 37.5 139 47.5s99.5 15 151.5 15c143.333 0 262 -33.333 356 -100zM964 1022c-31.333 35.333 -71.8311 62.333 -121.498 81s-102.834 28 -159.501 28
c-59.333 0 -114.333 -9.5 -165 -28.5s-92.834 -49 -126.501 -90s-50.5 -89.833 -50.5 -146.5v-537c0 -30.667 4.33301 -57 13 -79zM1011 943l-609.998 -772c31.333 -34 72.166 -60.333 122.499 -79s103.5 -28 159.5 -28c59.333 0 114.166 9.5 164.499 28.5s92.333 49 126 90
s50.5 89.833 50.5 146.5v537c0 29.333 -4.33301 55 -13 77z" />
    <glyph glyph-name="ugrave" unicode="&#xf9;" 
d="M450 1598v23.001h124c14.667 0 27.667 -2.33301 39 -7s22 -13 32 -25s18.5 -23.5 25.5 -34.5s16.833 -27.833 29.5 -50.5c2.66699 -4.66699 4.66699 -8.33398 6 -11.001l79 -143l-60 -40zM341 301.001c0 -78.667 13.833 -135.667 41.5 -171s72.167 -53 133.5 -53
c18.667 0 45 3 79 9s61.667 12.333 83 19l346 113v977h171v-1195h-107l-58 149l-311 -121c-82 -32.667 -162.333 -49 -241 -49c-92.667 0 -167 25.333 -223 76s-84 124 -84 220v920h170v-894z" />
    <glyph glyph-name="uacute" unicode="&#xfa;" 
d="M915 1598l-275.001 -287.999l-60 40l79 143c30 53.333 51.333 86.666 64 99.999c18.667 18.667 41.334 28 68.001 28h124v-23zM340.999 301.001c0 -78.667 13.833 -135.667 41.5 -171s72.167 -53 133.5 -53c18.667 0 45 3 79 9s61.667 12.333 83 19l346 113v977h171
v-1195h-107l-58 149l-311 -121c-82 -32.667 -162.333 -49 -241 -49c-92.667 0 -167 25.333 -223 76s-84 124 -84 220v920h170v-894z" />
    <glyph glyph-name="ucircumflex" unicode="&#xfb;" 
d="M724 1622l246.999 -250l-60 -62l-47 49c-20 21.333 -44.167 43.5 -72.5 66.5s-52.5 41.167 -72.5 54.5s-32 20 -36 20c-6.66699 0 -33.167 -18 -79.5 -54s-80.166 -65 -101.499 -87l-47 -49l-60 62l247 250h82zM340.999 301c0 -78.667 13.833 -135.667 41.5 -171
s72.167 -53 133.5 -53c18.667 0 45 3 79 9s61.667 12.333 83 19l346 113v977h171v-1195h-107l-58 149l-311 -121c-82 -32.667 -162.333 -49 -241 -49c-92.667 0 -167 25.333 -223 76s-84 124 -84 220v920h170v-894z" />
    <glyph glyph-name="udieresis" unicode="&#xfc;" 
d="M843 1621l192 0.000976562v-128c0 -28 -32 -42 -96 -42c-30 0 -53.5 4.16699 -70.5 12.5s-25.5 18.166 -25.5 29.499v128zM331 1621l192 0.000976562v-128c0 -28 -32 -42 -96 -42c-30 0 -53.5 4.16699 -70.5 12.5s-25.5 18.166 -25.5 29.499v128zM341 301.002
c0 -78.667 13.833 -135.667 41.5 -171s72.167 -53 133.5 -53c18.667 0 45 3 79 9s61.667 12.333 83 19l346 113v977h171v-1195h-107l-58 149l-311 -121c-82 -32.667 -162.333 -49 -241 -49c-92.667 0 -167 25.333 -223 76s-84 124 -84 220v920h170v-894z" />
    <glyph glyph-name="yacute" unicode="&#xfd;" horiz-adv-x="1280" 
d="M894 1598l-275.001 -287.999l-60 40l79 143c30 53.333 51.333 86.666 64 99.999c18.667 18.667 41.334 28 68.001 28h124v-23zM127.999 -426.999v107.003c17.333 0 51.833 -3.5 103.5 -10.5s93.834 -10.5 126.501 -10.5h9c79.333 0 137.666 22 174.999 66
c21.333 26 32 54.333 32 85c0 8.66699 -0.833008 18 -2.5 28s-3.33398 19 -5.00098 27s-4.5 18.167 -8.5 30.5s-7 21.333 -9 27l-10.5 30c-5 14.333 -8.16699 23.166 -9.5 26.499l-444 1216h182l375 -1033c13.333 -33.333 25.333 -70.333 36 -111h7l418 1144h92l-506 -1374
c-16 -43.333 -31.667 -78.333 -47 -105s-35 -51.834 -59 -75.501s-53.667 -40.834 -89 -51.501s-77.666 -16 -126.999 -16h-239z" />
    <glyph glyph-name="thorn" unicode="&#xfe;" 
d="M341 117c39.333 -12.667 94.333 -24.6641 165 -35.9971s126 -17 166 -17c54 0 103.667 8.16699 149 24.5s82.5 37.666 111.5 63.999s51.5 55.166 67.5 86.499s24 62.666 24 93.999v561c0 74.667 -19.833 129.167 -59.5 163.5s-92.5 51.5 -158.5 51.5
c-40 0 -79.667 -6.33301 -119 -19l-346 -113v-860zM171 1621l170.001 -0.000976562v-574l305 120c41.333 16 88.5 28.167 141.5 36.5s92.833 12.5 119.5 12.5c91.333 0 162.166 -27.667 212.499 -83s75.5 -126.666 75.5 -213.999v-548
c0 -31.333 -3.33301 -62.166 -10 -92.499s-21.167 -64.333 -43.5 -102s-51.5 -70.334 -87.5 -98.001s-87 -51.167 -153 -70.5s-142.333 -29 -229 -29c-40 0 -93.667 5 -161 15s-124 20.667 -170 32v-453h-170v2048z" />
    <glyph glyph-name="ydieresis" unicode="&#xff;" horiz-adv-x="1280" 
d="M779 1621l192 0.000976562v-128c0 -28 -32 -42 -96 -42c-30 0 -53.5 4.16699 -70.5 12.5s-25.5 18.166 -25.5 29.499v128zM267 1621l192 0.000976562v-128c0 -28 -32 -42 -96 -42c-30 0 -53.5 4.16699 -70.5 12.5s-25.5 18.166 -25.5 29.499v128zM128 -426.998v107.003
c17.333 0 51.833 -3.5 103.5 -10.5s93.834 -10.5 126.501 -10.5h9c79.333 0 137.666 22 174.999 66c21.333 26 32 54.333 32 85c0 8.66699 -0.833008 18 -2.5 28s-3.33398 19 -5.00098 27s-4.5 18.167 -8.5 30.5s-7 21.333 -9 27l-10.5 30
c-5 14.333 -8.16699 23.166 -9.5 26.499l-444 1216h182l375 -1033c13.333 -33.333 25.333 -70.333 36 -111h7l418 1144h92l-506 -1374c-16 -43.333 -31.667 -78.333 -47 -105s-35 -51.834 -59 -75.501s-53.667 -40.834 -89 -51.501s-77.666 -16 -126.999 -16h-239z" />
    <glyph glyph-name="Amacron" unicode="&#x100;" horiz-adv-x="1450" 
d="M1067 1915v-85h-683v85h683zM604 1621h243l518 -1621h-179l-164 512h-683l-164 -512h-90zM638 1451l-271 -854h627l-273 854h-83z" />
    <glyph glyph-name="amacron" unicode="&#x101;" 
d="M1071 1510v-85h-683v85h683zM1195 0l-107 0.00292969l-58 149l-311 -121c-85.333 -32.667 -150.666 -49 -195.999 -49c-95.333 0 -177.833 28.5 -247.5 85.5s-104.5 127.167 -104.5 210.5v100c0 97.333 32.833 173 98.5 227s160.834 81 285.501 81h469v200
c0 77.333 -24 138 -72 182s-129.333 66 -244 66c-14 0 -28.5 -1 -43.5 -3s-30.833 -5.16699 -47.5 -9.5l-39.5 -10.5c-9.66699 -2.66699 -22.834 -6.83398 -39.501 -12.501l-28 -9.5l-199 -68l-42 98c46 22.667 110 45 192 67s164.333 33 247 33
c63.333 0 120.333 -3.83301 171 -11.5s92.667 -17.667 126 -30s62.166 -28 86.499 -47s43 -37.5 56 -55.5s23.167 -38.833 30.5 -62.5s12 -44.334 14 -62.001s3 -37.834 3 -60.501v-887zM1024 597.003l-426.996 -0.000976562c-34 0 -64.5 -3 -91.5 -9
s-49.333 -13.5 -67 -22.5s-32.834 -21 -45.501 -36s-22.334 -29.333 -29.001 -43s-11.834 -30.834 -15.501 -51.501s-5.83398 -38.167 -6.50098 -52.5s-1 -32.166 -1 -53.499v-13c0 -75.333 17.5 -132.666 52.5 -171.999s83.167 -59 144.5 -59c16 0 39.333 2 70 6
s54 8.66699 70 14l346 113v379z" />
    <glyph glyph-name="Abreve" unicode="&#x102;" horiz-adv-x="1450" 
d="M725 1717c-153.333 0 -274.331 91 -362.998 273l77 39c11.333 -22.667 22.166 -43 32.499 -61s24.333 -38 42 -60s36 -40.167 55 -54.5s42.167 -26.5 69.5 -36.5s56.333 -15 87 -15s59.667 5 87 15s50.5 22.167 69.5 36.5s37.333 32.5 55 54.5s31.667 42 42 60
s21.166 38.333 32.499 61l77 -39c-88.667 -182 -209.667 -273 -363 -273zM604.002 1621h243l518 -1621h-179l-164 512h-683l-164 -512h-90zM638.002 1451l-271 -854h627l-273 854h-83z" />
    <glyph glyph-name="abreve" unicode="&#x103;" 
d="M708 1310c-153.333 0 -274.331 91 -362.998 273l77 39c11.333 -22.667 22.166 -43 32.499 -61s24.333 -38 42 -60s36 -40.167 55 -54.5s42.167 -26.5 69.5 -36.5s56.333 -15 87 -15s59.667 5 87 15s50.5 22.167 69.5 36.5s37.333 32.5 55 54.5s31.667 42 42 60
s21.166 38.333 32.499 61l77 -39c-88.667 -182 -209.667 -273 -363 -273zM1195 0l-107 0.00292969l-58 149l-311 -121c-85.333 -32.667 -150.666 -49 -195.999 -49c-95.333 0 -177.833 28.5 -247.5 85.5s-104.5 127.167 -104.5 210.5v100c0 97.333 32.833 173 98.5 227
s160.834 81 285.501 81h469v200c0 77.333 -24 138 -72 182s-129.333 66 -244 66c-14 0 -28.5 -1 -43.5 -3s-30.833 -5.16699 -47.5 -9.5l-39.5 -10.5c-9.66699 -2.66699 -22.834 -6.83398 -39.501 -12.501l-28 -9.5l-199 -68l-42 98c46 22.667 110 45 192 67
s164.333 33 247 33c63.333 0 120.333 -3.83301 171 -11.5s92.667 -17.667 126 -30s62.166 -28 86.499 -47s43 -37.5 56 -55.5s23.167 -38.833 30.5 -62.5s12 -44.334 14 -62.001s3 -37.834 3 -60.501v-887zM1024 597.003l-426.996 -0.000976562c-34 0 -64.5 -3 -91.5 -9
s-49.333 -13.5 -67 -22.5s-32.834 -21 -45.501 -36s-22.334 -29.333 -29.001 -43s-11.834 -30.834 -15.501 -51.501s-5.83398 -38.167 -6.50098 -52.5s-1 -32.166 -1 -53.499v-13c0 -75.333 17.5 -132.666 52.5 -171.999s83.167 -59 144.5 -59c16 0 39.333 2 70 6
s54 8.66699 70 14l346 113v379z" />
    <glyph glyph-name="Aogonek" unicode="&#x104;" horiz-adv-x="1450" 
d="M638 1451l-271 -854h627l-273 854h-83zM604 1621l243.002 0.00195312l518 -1621h-30c-40.667 0 -81.334 -18.833 -122.001 -56.5s-61 -75.834 -61 -114.501c0 -56.667 49.667 -85 149 -85v-43c0 -9.33301 -0.5 -16.333 -1.5 -21s-4.83301 -9.33398 -11.5 -14.001
s-16.334 -7 -29.001 -7h-94c-30 0 -53.833 13.667 -71.5 41s-26.5 58.333 -26.5 93c0 81.333 39.667 150.333 119 207l-164 512h-683l-164 -512h-90z" />
    <glyph glyph-name="aogonek" unicode="&#x105;" 
d="M708 1216c63.333 0 120.335 -3.8291 171.002 -11.4961s92.667 -17.667 126 -30s62.166 -28 86.499 -47s43 -37.5 56 -55.5s23.167 -38.833 30.5 -62.5s12 -44.334 14 -62.001s3 -37.834 3 -60.501v-887c-16.667 -8.66699 -32.5 -18.334 -47.5 -29.001
s-30.833 -23.334 -47.5 -38.001s-30 -31.167 -40 -49.5s-15 -36.5 -15 -54.5c0 -56.667 50 -85 150 -85v-43c0 -6.66699 -0.333008 -12 -1 -16s-2.33398 -8.16699 -5.00098 -12.5s-7 -7.66602 -13 -9.99902s-14 -3.5 -24 -3.5h-94c-30 0 -53.833 14 -71.5 42
s-26.5 58.667 -26.5 92c0 29.333 7.5 58 22.5 86s29.667 49.333 44 64s34.833 33.667 61.5 57l-58 149l-311 -121c-85.333 -32.667 -150.666 -49 -195.999 -49c-95.333 0 -177.833 28.5 -247.5 85.5s-104.5 127.167 -104.5 210.5v32v68c0 97.333 32.833 173 98.5 227
s160.834 81 285.501 81h469v200c0 32.667 -5.16699 63 -15.5 91s-27 54.167 -50 78.5s-55.833 43.5 -98.5 57.5s-93.334 21 -152.001 21c-14 0 -28.5 -1 -43.5 -3s-30.833 -5.16699 -47.5 -9.5l-39.5 -10.5c-9.66699 -2.66699 -22.834 -6.83398 -39.501 -12.501l-28 -9.5
l-199 -68l-42 98c46 22.667 110 45 192 67s164.333 33 247 33zM1024 597.004l-426.998 -0.00195312c-34 0 -64.667 -3.33301 -92 -10s-49.666 -15 -66.999 -25s-32.333 -23.167 -45 -39.5s-22.334 -31.666 -29.001 -45.999s-11.834 -31.5 -15.501 -51.5
s-5.83398 -36.5 -6.50098 -49.5s-1 -28.5 -1 -46.5v-13c0 -75.333 17.5 -132.666 52.5 -171.999s83.167 -59 144.5 -59c16 0 39.333 2 70 6s54 8.66699 70 14l346 113v379z" />
    <glyph glyph-name="Cacute" unicode="&#x106;" horiz-adv-x="1280" 
d="M924 2005l-275.001 -287.999l-60 40l79 143c30 53.333 51.333 86.666 64 99.999c18.667 18.667 41.334 28 68.001 28h124v-23zM170.999 407.001v786c0 70 15.667 133 47 189s73.5 101 126.5 135s111.833 59.833 176.5 77.5s132.667 26.5 204 26.5h9
c56.667 0 131.334 -10.667 224.001 -32s157.334 -41 194.001 -59l-43 -99l-192 62c-84.667 28.667 -148.667 43 -192 43c-49.333 0 -96.5 -6.33301 -141.5 -19s-85.833 -31.167 -122.5 -55.5s-65.834 -56 -87.501 -95s-32.5 -82.833 -32.5 -131.5v-870
c0 -48.667 10.833 -92.5 32.5 -131.5s50.834 -70.667 87.501 -95s77.5 -42.833 122.5 -55.5s92.167 -19 141.5 -19c43.333 0 107.333 14.333 192 43l192 62l43 -99c-36.667 -18 -101.334 -37.667 -194.001 -59s-167.334 -32 -224.001 -32h-9
c-71.333 0 -139.333 8.83301 -204 26.5s-123.5 43.5 -176.5 77.5s-95.167 79 -126.5 135s-47 119 -47 189z" />
    <glyph glyph-name="cacute" unicode="&#x107;" horiz-adv-x="1194" 
d="M905 1598l-275.001 -287.999l-60 40l79 143c30 53.333 51.333 86.666 64 99.999c18.667 18.667 41.334 28 68.001 28h124v-23zM682.999 -20.999c-65.333 0 -127.999 8.16406 -187.999 24.4971s-114.5 40.333 -163.5 72s-88 73.334 -117 125.001
s-43.5 109.834 -43.5 174.501v444c0 52 9.5 100 28.5 144s45 81.333 78 112s71.333 56.834 115 78.501s90 37.5 139 47.5s99.5 15 151.5 15c66 0 138.167 -7 216.5 -21s134.166 -29.667 167.499 -47l-43 -98l-192 61c-45.333 13.333 -95 20 -149 20
c-59.333 0 -114.333 -9.5 -165 -28.5s-92.834 -49 -126.501 -90s-50.5 -89.833 -50.5 -146.5v-537c0 -82.667 34 -147.5 102 -194.5s148 -70.5 240 -70.5c56 0 105.667 6.33301 149 19l192 62l43 -98c-33.333 -17.333 -89.166 -33 -167.499 -47s-150.5 -21 -216.5 -21z" />
    <glyph glyph-name="Ccircumflex" unicode="&#x108;" horiz-adv-x="1280" 
d="M754 2029l246.999 -250l-60 -62l-47 49c-20 21.333 -44.167 43.5 -72.5 66.5s-52.5 41.167 -72.5 54.5s-32 20 -36 20c-6.66699 0 -33.167 -18 -79.5 -54s-80.166 -65 -101.499 -87l-47 -49l-60 62l247 250h82zM170.999 407v786c0 70 15.667 133 47 189
s73.5 101 126.5 135s111.833 59.833 176.5 77.5s132.667 26.5 204 26.5h9c56.667 0 131.334 -10.667 224.001 -32s157.334 -41 194.001 -59l-43 -99l-192 62c-84.667 28.667 -148.667 43 -192 43c-49.333 0 -96.5 -6.33301 -141.5 -19s-85.833 -31.167 -122.5 -55.5
s-65.834 -56 -87.501 -95s-32.5 -82.833 -32.5 -131.5v-870c0 -48.667 10.833 -92.5 32.5 -131.5s50.834 -70.667 87.501 -95s77.5 -42.833 122.5 -55.5s92.167 -19 141.5 -19c43.333 0 107.333 14.333 192 43l192 62l43 -99c-36.667 -18 -101.334 -37.667 -194.001 -59
s-167.334 -32 -224.001 -32h-9c-71.333 0 -139.333 8.83301 -204 26.5s-123.5 43.5 -176.5 77.5s-95.167 79 -126.5 135s-47 119 -47 189z" />
    <glyph glyph-name="ccircumflex" unicode="&#x109;" horiz-adv-x="1194" 
d="M734 1622l246.999 -250l-60 -62l-47 49c-20 21.333 -44.167 43.5 -72.5 66.5s-52.5 41.167 -72.5 54.5s-32 20 -36 20c-6.66699 0 -33.167 -18 -79.5 -54s-80.166 -65 -101.499 -87l-47 -49l-60 62l247 250h82zM682.999 -21c-65.333 0 -127.999 8.16406 -187.999 24.4971
s-114.5 40.333 -163.5 72s-88 73.334 -117 125.001s-43.5 109.834 -43.5 174.501v444c0 52 9.5 100 28.5 144s45 81.333 78 112s71.333 56.834 115 78.501s90 37.5 139 47.5s99.5 15 151.5 15c66 0 138.167 -7 216.5 -21s134.166 -29.667 167.499 -47l-43 -98l-192 61
c-45.333 13.333 -95 20 -149 20c-59.333 0 -114.333 -9.5 -165 -28.5s-92.834 -49 -126.501 -90s-50.5 -89.833 -50.5 -146.5v-537c0 -82.667 34 -147.5 102 -194.5s148 -70.5 240 -70.5c56 0 105.667 6.33301 149 19l192 62l43 -98
c-33.333 -17.333 -89.166 -33 -167.499 -47s-150.5 -21 -216.5 -21z" />
    <glyph glyph-name="Cdotaccent" unicode="&#x10a;" horiz-adv-x="1280" 
d="M640 1958l192 0.000976562v-128c0 -28 -32 -42 -96 -42c-30 0 -53.5 4.16699 -70.5 12.5s-25.5 18.166 -25.5 29.499v128zM171 407.001v786c0 70 15.667 133 47 189s73.5 101 126.5 135s111.833 59.833 176.5 77.5s132.667 26.5 204 26.5h9
c56.667 0 131.334 -10.667 224.001 -32s157.334 -41 194.001 -59l-43 -99l-192 62c-84.667 28.667 -148.667 43 -192 43c-49.333 0 -96.5 -6.33301 -141.5 -19s-85.833 -31.167 -122.5 -55.5s-65.834 -56 -87.501 -95s-32.5 -82.833 -32.5 -131.5v-870
c0 -48.667 10.833 -92.5 32.5 -131.5s50.834 -70.667 87.501 -95s77.5 -42.833 122.5 -55.5s92.167 -19 141.5 -19c43.333 0 107.333 14.333 192 43l192 62l43 -99c-36.667 -18 -101.334 -37.667 -194.001 -59s-167.334 -32 -224.001 -32h-9
c-71.333 0 -139.333 8.83301 -204 26.5s-123.5 43.5 -176.5 77.5s-95.167 79 -126.5 135s-47 119 -47 189z" />
    <glyph glyph-name="cdotaccent" unicode="&#x10b;" horiz-adv-x="1194" 
d="M598 1553l192 0.000976562v-128c0 -28 -32 -42 -96 -42c-30 0 -53.5 4.16699 -70.5 12.5s-25.5 18.166 -25.5 29.499v128zM683 -20.999c-65.333 0 -127.999 8.16406 -187.999 24.4971s-114.5 40.333 -163.5 72s-88 73.334 -117 125.001s-43.5 109.834 -43.5 174.501v444
c0 52 9.5 100 28.5 144s45 81.333 78 112s71.333 56.834 115 78.501s90 37.5 139 47.5s99.5 15 151.5 15c66 0 138.167 -7 216.5 -21s134.166 -29.667 167.499 -47l-43 -98l-192 61c-45.333 13.333 -95 20 -149 20c-59.333 0 -114.333 -9.5 -165 -28.5
s-92.834 -49 -126.501 -90s-50.5 -89.833 -50.5 -146.5v-537c0 -82.667 34 -147.5 102 -194.5s148 -70.5 240 -70.5c56 0 105.667 6.33301 149 19l192 62l43 -98c-33.333 -17.333 -89.166 -33 -167.499 -47s-150.5 -21 -216.5 -21z" />
    <glyph glyph-name="Ccaron" unicode="&#x10c;" horiz-adv-x="1280" 
d="M754 1717h-81.999l-247 250l60 62l47 -49c21.333 -22 55.166 -51 101.499 -87s72.833 -54 79.5 -54c4 0 16 6.66699 36 20s44.167 31.5 72.5 54.5s52.5 45.167 72.5 66.5l47 49l60 -62zM171.001 407v786c0 70 15.667 133 47 189s73.5 101 126.5 135
s111.833 59.833 176.5 77.5s132.667 26.5 204 26.5h9c56.667 0 131.334 -10.667 224.001 -32s157.334 -41 194.001 -59l-43 -99l-192 62c-84.667 28.667 -148.667 43 -192 43c-49.333 0 -96.5 -6.33301 -141.5 -19s-85.833 -31.167 -122.5 -55.5s-65.834 -56 -87.501 -95
s-32.5 -82.833 -32.5 -131.5v-870c0 -48.667 10.833 -92.5 32.5 -131.5s50.834 -70.667 87.501 -95s77.5 -42.833 122.5 -55.5s92.167 -19 141.5 -19c43.333 0 107.333 14.333 192 43l192 62l43 -99c-36.667 -18 -101.334 -37.667 -194.001 -59s-167.334 -32 -224.001 -32
h-9c-71.333 0 -139.333 8.83301 -204 26.5s-123.5 43.5 -176.5 77.5s-95.167 79 -126.5 135s-47 119 -47 189z" />
    <glyph glyph-name="ccaron" unicode="&#x10d;" horiz-adv-x="1194" 
d="M713 1309h-81.999l-247 250l60 62l47 -49c21.333 -22 55.166 -51 101.499 -87s72.833 -54 79.5 -54c4 0 16 6.66699 36 20s44.167 31.5 72.5 54.5s52.5 45.167 72.5 66.5l47 49l60 -62zM683.001 -21c-65.333 0 -127.999 8.16406 -187.999 24.4971
s-114.5 40.333 -163.5 72s-88 73.334 -117 125.001s-43.5 109.834 -43.5 174.501v444c0 52 9.5 100 28.5 144s45 81.333 78 112s71.333 56.834 115 78.501s90 37.5 139 47.5s99.5 15 151.5 15c66 0 138.167 -7 216.5 -21s134.166 -29.667 167.499 -47l-43 -98l-192 61
c-45.333 13.333 -95 20 -149 20c-59.333 0 -114.333 -9.5 -165 -28.5s-92.834 -49 -126.501 -90s-50.5 -89.833 -50.5 -146.5v-537c0 -82.667 34 -147.5 102 -194.5s148 -70.5 240 -70.5c56 0 105.667 6.33301 149 19l192 62l43 -98
c-33.333 -17.333 -89.166 -33 -167.499 -47s-150.5 -21 -216.5 -21z" />
    <glyph glyph-name="Dcaron" unicode="&#x10e;" horiz-adv-x="1450" 
d="M724 1717h-81.999l-247 250l60 62l47 -49c21.333 -22 55.166 -51 101.499 -87s72.833 -54 79.5 -54c4 0 16 6.66699 36 20s44.167 31.5 72.5 54.5s52.5 45.167 72.5 66.5l47 49l60 -62zM725.001 85c48.667 0 95.6689 6.50098 141.002 19.501s86.166 31.667 122.499 56
s65.5 56.166 87.5 95.499s33 83.333 33 132v847c0 48.667 -10.833 92.5 -32.5 131.5s-50.834 70.667 -87.501 95s-77.5 42.833 -122.5 55.5s-92.167 19 -141.5 19h-384v-1451h384zM725.003 0.000976562h-553.999v1621h554c71.333 0 139.333 -8.83301 204 -26.5
s123.5 -43.5 176.5 -77.5s95.333 -79 127 -135s47.5 -119 47.5 -189v-762c0 -70.667 -15.833 -134 -47.5 -190s-73.834 -101.167 -126.501 -135.5s-111.667 -60.5 -177 -78.5s-133.333 -27 -204 -27z" />
    <glyph glyph-name="dcaron" unicode="&#x10f;" horiz-adv-x="1621" 
d="M1536 1579l0.000976562 -127.998c-2.66699 -50.667 -66 -133 -190 -247l-55 64c37.333 40 65.166 72 83.499 96s28.833 39.5 31.5 46.5s4 14.833 4 23.5c0 15.333 -7.33301 33.666 -22 54.999s-22 36.333 -22 45v45c0 7.33301 0.333008 12.666 1 15.999
s2.83398 7.5 6.50098 12.5s10.167 8.66699 19.5 11s21.666 3.5 36.999 3.5h42c29.333 0 47.333 -3 54 -9s10 -17.333 10 -34zM1037 151.002l-233 -102.002c-106 -46.667 -199.667 -70 -281 -70c-58 0 -110 11.167 -156 33.5s-83 52.333 -111 90
s-49.167 80.334 -63.5 128.001s-21.5 98.167 -21.5 151.5v431c0 53.333 7.16699 103.833 21.5 151.5s35.5 90.334 63.5 128.001s65 67.667 111 90s98 33.5 156 33.5c81.333 0 175 -23.333 281 -70l220 -99v574h171v-1621h-107zM1024 218v759.002l-260 92
c-73.333 26.667 -138 40 -194 40c-36.667 0 -68.834 -6.16699 -96.501 -18.5s-49.834 -28.333 -66.501 -48s-30 -43.834 -40 -72.501s-16.833 -57.5 -20.5 -86.5s-5.5 -61.167 -5.5 -96.5v-380c0 -35.333 1.83301 -67.5 5.5 -96.5s10.5 -57.833 20.5 -86.5
s23.333 -52.834 40 -72.501s38.834 -35.667 66.501 -48s59.834 -18.5 96.501 -18.5c54 0 118.667 13.667 194 41z" />
    <glyph glyph-name="Dcroat" unicode="&#x110;" horiz-adv-x="1450" 
d="M171 1621h586c86.667 0 163 -11.167 229 -33.5s117 -49.333 153 -81s65.167 -68.667 87.5 -111s36.833 -80 43.5 -113s10 -65.167 10 -96.5v-751c0 -31.333 -3.33301 -63.5 -10 -96.5s-21.167 -70.667 -43.5 -113s-51.5 -79.333 -87.5 -111s-87 -58.667 -153 -81
s-142.333 -33.5 -229 -33.5h-586v768h-171v85h171v768zM725 1536h-383.999v-683h342v-85h-342v-683h384c118 0 211.5 27.333 280.5 82s103.5 120 103.5 196v917c0 74 -34.333 135.167 -103 183.5s-162.334 72.5 -281.001 72.5z" />
    <glyph glyph-name="dcroat" unicode="&#x111;" 
d="M1024 218v759.002l-260 92c-73.333 26.667 -138 40 -194 40c-36.667 0 -68.834 -6.16699 -96.501 -18.5s-49.834 -28.333 -66.501 -48s-30 -43.834 -40 -72.501s-16.833 -57.5 -20.5 -86.5s-5.5 -61.167 -5.5 -96.5v-380c0 -35.333 1.83301 -67.5 5.5 -96.5
s10.5 -57.833 20.5 -86.5s23.333 -52.834 40 -72.501s38.834 -35.667 66.501 -48s59.834 -18.5 96.501 -18.5c54 0 118.667 13.667 194 41zM1037 151.002l-233 -102.002c-106 -46.667 -199.667 -70 -281 -70c-58 0 -110 11.167 -156 33.5s-83 52.333 -111 90
s-49.167 80.334 -63.5 128.001s-21.5 98.167 -21.5 151.5v431c0 53.333 7.16699 103.833 21.5 151.5s35.5 90.334 63.5 128.001s65 67.667 111 90s98 33.5 156 33.5c81.333 0 175 -23.333 281 -70l220 -99v318h-427v86h427v170h171v-170h85v-86h-85v-1365h-107z" />
    <glyph glyph-name="Emacron" unicode="&#x112;" horiz-adv-x="1280" 
d="M982 1915v-85h-683v85h683zM171 1621h938v-85h-768v-597h427v-86h-427v-768h768v-85h-938v1621z" />
    <glyph glyph-name="emacron" unicode="&#x113;" 
d="M1024 1510v-85h-683v85h683zM171 375l0.000976562 443.998c0 52 9.5 100 28.5 144s45 81.333 78 112s71.333 56.834 115 78.501s90 37.5 139 47.5s99.5 15 151.5 15s102.5 -5 151.5 -15s95.333 -25.833 139 -47.5s82 -47.834 115 -78.501s59 -68 78 -112
s28.5 -92 28.5 -144v-179h-854v-311c0 -82.667 34 -147.5 102 -194.5s148 -70.5 240 -70.5c64 0 133.667 12.667 209 38l198 69l43 -98c-42.667 -21.333 -105.334 -42.333 -188.001 -63s-170 -31 -262 -31c-65.333 0 -128 8.16699 -188 24.5s-114.5 40.333 -163.5 72
s-88 73.334 -117 125.001s-43.5 109.834 -43.5 174.501zM1024 865.998c0 82.667 -33.832 147.5 -101.499 194.5s-147.5 70.5 -239.5 70.5c-59.333 0 -114.333 -9.5 -165 -28.5s-92.834 -49 -126.501 -90s-50.5 -89.833 -50.5 -146.5v-141h683v141z" />
    <glyph glyph-name="Ebreve" unicode="&#x114;" horiz-adv-x="1280" 
d="M640 1717c-153.333 0 -274.331 91 -362.998 273l77 39c11.333 -22.667 22.166 -43 32.499 -61s24.333 -38 42 -60s36 -40.167 55 -54.5s42.167 -26.5 69.5 -36.5s56.333 -15 87 -15s59.667 5 87 15s50.5 22.167 69.5 36.5s37.333 32.5 55 54.5s31.667 42 42 60
s21.166 38.333 32.499 61l77 -39c-88.667 -182 -209.667 -273 -363 -273zM171.002 1621h938v-85h-768v-597h427v-86h-427v-768h768v-85h-938v1621z" />
    <glyph glyph-name="ebreve" unicode="&#x115;" 
d="M683 1310c-153.333 0 -274.331 91 -362.998 273l77 39c11.333 -22.667 22.166 -43 32.499 -61s24.333 -38 42 -60s36 -40.167 55 -54.5s42.167 -26.5 69.5 -36.5s56.333 -15 87 -15s59.667 5 87 15s50.5 22.167 69.5 36.5s37.333 32.5 55 54.5s31.667 42 42 60
s21.166 38.333 32.499 61l77 -39c-88.667 -182 -209.667 -273 -363 -273zM171.002 375l0.000976562 443.998c0 52 9.5 100 28.5 144s45 81.333 78 112s71.333 56.834 115 78.501s90 37.5 139 47.5s99.5 15 151.5 15s102.5 -5 151.5 -15s95.333 -25.833 139 -47.5
s82 -47.834 115 -78.501s59 -68 78 -112s28.5 -92 28.5 -144v-179h-854v-311c0 -82.667 34 -147.5 102 -194.5s148 -70.5 240 -70.5c64 0 133.667 12.667 209 38l198 69l43 -98c-42.667 -21.333 -105.334 -42.333 -188.001 -63s-170 -31 -262 -31
c-65.333 0 -128 8.16699 -188 24.5s-114.5 40.333 -163.5 72s-88 73.334 -117 125.001s-43.5 109.834 -43.5 174.501zM1024 865.998c0 82.667 -33.832 147.5 -101.499 194.5s-147.5 70.5 -239.5 70.5c-59.333 0 -114.333 -9.5 -165 -28.5s-92.834 -49 -126.501 -90
s-50.5 -89.833 -50.5 -146.5v-141h683v141z" />
    <glyph glyph-name="Edotaccent" unicode="&#x116;" horiz-adv-x="1280" 
d="M555 1958l192 0.000976562v-128c0 -28 -32 -42 -96 -42c-30 0 -53.5 4.16699 -70.5 12.5s-25.5 18.166 -25.5 29.499v128zM171 1621h938v-85h-768v-597h427v-86h-427v-768h768v-85h-938v1621z" />
    <glyph glyph-name="edotaccent" unicode="&#x117;" 
d="M587 1621l192 0.000976562v-128c0 -28 -32 -42 -96 -42c-30 0 -53.5 4.16699 -70.5 12.5s-25.5 18.166 -25.5 29.499v128zM171 375.001l0.000976562 443.998c0 52 9.5 100 28.5 144s45 81.333 78 112s71.333 56.834 115 78.501s90 37.5 139 47.5s99.5 15 151.5 15
s102.5 -5 151.5 -15s95.333 -25.833 139 -47.5s82 -47.834 115 -78.501s59 -68 78 -112s28.5 -92 28.5 -144v-179h-854v-311c0 -82.667 34 -147.5 102 -194.5s148 -70.5 240 -70.5c64 0 133.667 12.667 209 38l198 69l43 -98c-42.667 -21.333 -105.334 -42.333 -188.001 -63
s-170 -31 -262 -31c-65.333 0 -128 8.16699 -188 24.5s-114.5 40.333 -163.5 72s-88 73.334 -117 125.001s-43.5 109.834 -43.5 174.501zM1024 865.999c0 82.667 -33.832 147.5 -101.499 194.5s-147.5 70.5 -239.5 70.5c-59.333 0 -114.333 -9.5 -165 -28.5
s-92.834 -49 -126.501 -90s-50.5 -89.833 -50.5 -146.5v-141h683v141z" />
    <glyph glyph-name="Eogonek" unicode="&#x118;" horiz-adv-x="1280" 
d="M917 0l-745.999 0.000976562v1621h938v-85h-768v-597h427v-86h-427v-768h768v-85c-30.667 0 -60 -6.5 -88 -19.5s-50.833 -28.833 -68.5 -47.5s-31.5 -37.5 -41.5 -56.5s-15 -34.833 -15 -47.5c0 -56.667 49.667 -85 149 -85v-43c0 -9.33301 -0.5 -16.333 -1.5 -21
s-4.83301 -9.33398 -11.5 -14.001s-16.334 -7 -29.001 -7h-94c-30 0 -53.833 14 -71.5 42s-26.5 58.667 -26.5 92c0 86 35.333 154.333 106 205v2z" />
    <glyph glyph-name="eogonek" unicode="&#x119;" 
d="M890 -2c-71.333 -12.667 -136.998 -19.0029 -196.998 -19.0029c-86.667 0 -163 9.66699 -229 29s-117 42.833 -153 70.5s-65.167 60.334 -87.5 98.001s-36.666 71.667 -42.999 102s-9.5 61.166 -9.5 92.499v452c0 21.333 1.33301 42.5 4 63.5s8.5 45 17.5 72
s20.833 52 35.5 75s35.167 46 61.5 69s56.833 42.667 91.5 59s78 29.5 130 39.5s109.333 15 172 15c64.667 0 123.5 -5.5 176.5 -16.5s96.833 -25 131.5 -42s65 -37.667 91 -62s46 -48 60 -71s25.167 -47.667 33.5 -74s13.666 -48.333 15.999 -66s3.5 -35.167 3.5 -52.5
v-192h-854v-286c0 -31.333 8.16699 -63.666 24.5 -96.999s39.5 -64.5 69.5 -93.5s69.5 -52.833 118.5 -71.5s102.833 -28 161.5 -28c48 0 107 12.667 177 38l198 69l43 -98c-16 -8.66699 -39.667 -18.667 -71 -30c-42 -20 -87 -52.167 -135 -96.5s-72 -83.5 -72 -117.5
c0 -28.667 11.167 -50 33.5 -64s61.166 -21 116.499 -21v-43c0 -6.66699 -0.333008 -12 -1 -16s-2.33398 -8.16699 -5.00098 -12.5s-7 -7.66602 -13 -9.99902s-14 -3.5 -24 -3.5h-94c-30 0 -53.833 14 -71.5 42s-26.5 58.667 -26.5 92c0 72.667 40 140.334 120 203.001v2z
M341.002 724.997h683v128c0 76.667 -30.5 142.167 -91.5 196.5s-144.167 81.5 -249.5 81.5c-58.667 0 -111 -8.66699 -157 -26s-81.833 -40 -107.5 -68s-45 -57.667 -58 -89s-19.5 -63 -19.5 -95v-128z" />
    <glyph glyph-name="Ecaron" unicode="&#x11a;" horiz-adv-x="1280" 
d="M681 1717h-81.999l-247 250l60 62l47 -49c21.333 -22 55.166 -51 101.499 -87s72.833 -54 79.5 -54c4 0 16 6.66699 36 20s44.167 31.5 72.5 54.5s52.5 45.167 72.5 66.5l47 49l60 -62zM171.001 1621h938v-85h-768v-597h427v-86h-427v-768h768v-85h-938v1621z" />
    <glyph glyph-name="ecaron" unicode="&#x11b;" 
d="M724 1309h-81.999l-247 250l60 62l47 -49c21.333 -22 55.166 -51 101.499 -87s72.833 -54 79.5 -54c4 0 16 6.66699 36 20s44.167 31.5 72.5 54.5s52.5 45.167 72.5 66.5l47 49l60 -62zM171.001 375l0.000976562 443.998c0 52 9.5 100 28.5 144s45 81.333 78 112
s71.333 56.834 115 78.501s90 37.5 139 47.5s99.5 15 151.5 15s102.5 -5 151.5 -15s95.333 -25.833 139 -47.5s82 -47.834 115 -78.501s59 -68 78 -112s28.5 -92 28.5 -144v-179h-854v-311c0 -82.667 34 -147.5 102 -194.5s148 -70.5 240 -70.5c64 0 133.667 12.667 209 38
l198 69l43 -98c-42.667 -21.333 -105.334 -42.333 -188.001 -63s-170 -31 -262 -31c-65.333 0 -128 8.16699 -188 24.5s-114.5 40.333 -163.5 72s-88 73.334 -117 125.001s-43.5 109.834 -43.5 174.501zM1024 865.998c0 82.667 -33.832 147.5 -101.499 194.5
s-147.5 70.5 -239.5 70.5c-59.333 0 -114.333 -9.5 -165 -28.5s-92.834 -49 -126.501 -90s-50.5 -89.833 -50.5 -146.5v-141h683v141z" />
    <glyph glyph-name="Gcircumflex" unicode="&#x11c;" horiz-adv-x="1450" 
d="M798 2029l246.999 -250l-60 -62l-47 49c-20 21.333 -44.167 43.5 -72.5 66.5s-52.5 41.167 -72.5 54.5s-32 20 -36 20c-6.66699 0 -33.167 -18 -79.5 -54s-80.166 -65 -101.499 -87l-47 -49l-60 62l247 250h82zM692.999 -21c-50 0 -99.501 5.49902 -148.501 16.499
s-96 28.167 -141 51.5s-84.667 51.5 -119 84.5s-61.833 73.5 -82.5 121.5s-31 100.333 -31 157v783c0 70 15.667 133 47 189s73.5 101 126.5 135s111.833 59.833 176.5 77.5s132.667 26.5 204 26.5h9c60.667 0 146.167 -13.167 256.5 -39.5s192.5 -52.833 246.5 -79.5
l-42 -98l-278 89c-5.33301 1.33301 -15.666 4.5 -30.999 9.5s-26.333 8.5 -33 10.5s-16.834 4.83301 -30.501 8.5s-25 6.33398 -34 8.00098s-19.333 3.16699 -31 4.5s-22.5 2 -32.5 2c-49.333 0 -96.5 -6.33301 -141.5 -19s-85.833 -31.167 -122.5 -55.5
s-65.834 -56 -87.501 -95s-32.5 -82.833 -32.5 -131.5v-868c0 -64.667 19 -120.5 57 -167.5s85.333 -81.333 142 -103s118.334 -32.5 185.001 -32.5c15.333 0 32 1.83301 50 5.5s32.833 7.16699 44.5 10.5s25.834 8 42.501 14s26.667 9.66699 30 11l217 72v591h-386v85h557
v-853h-107l-42 105l-199 -77c-42 -16 -85.833 -28.167 -131.5 -36.5s-81.5 -12.5 -107.5 -12.5z" />
    <glyph glyph-name="gcircumflex" unicode="&#x11d;" horiz-adv-x="1280" 
d="M694 1622l246.999 -250l-60 -62l-47 49c-20 21.333 -44.167 43.5 -72.5 66.5s-52.5 41.167 -72.5 54.5s-32 20 -36 20c-6.66699 0 -33.167 -18 -79.5 -54s-80.166 -65 -101.499 -87l-47 -49l-60 62l247 250h82zM170.999 -85c0 -71.333 25.3291 -131.832 75.9961 -181.499
s125.334 -74.5 224.001 -74.5h338c98.667 0 173.334 24.833 224.001 74.5s76 110.167 76 181.5c0 46.667 -21.667 86.667 -65 120s-106.333 50 -189 50h-405c-66 0 -118 13.667 -156 41l-26 -30l-23 -27l-18.5 -21.5c-8.33301 -9.66699 -13.833 -16.5 -16.5 -20.5l-12 -17.5
c-5.33301 -7.66699 -8.66602 -13.667 -9.99902 -18s-3.66602 -9.83301 -6.99902 -16.5s-5.33301 -12.834 -6 -18.501s-1.5 -12 -2.5 -19s-1.5 -14.5 -1.5 -22.5zM298.995 755.001c0 -84.667 27.5 -149.832 82.5 -195.499s126.833 -68.5 215.5 -68.5
c89.333 0 161.5 22.667 216.5 68s82.5 110.666 82.5 195.999v111c0 84.667 -27.667 150 -83 196s-127.333 69 -216 69c-89.333 0 -161.333 -22.833 -216 -68.5s-82 -111.167 -82 -196.5v-111zM938.995 1109c85.333 -73.333 128.003 -172.67 128.003 -298.003
c0 -118.667 -40.333 -216 -121 -292s-197 -114 -349 -114c-94.667 0 -176.334 15.667 -245.001 47c-14 -32 -21 -61 -21 -87c0 -32.667 12.5 -59 37.5 -79s65.167 -30 120.5 -30h320c64 0 121.167 -9.66699 171.5 -29s90.833 -45.166 121.5 -77.499
s53.834 -68.5 69.501 -108.5s23.5 -82 23.5 -126s-7.83301 -86 -23.5 -126s-38.834 -76.333 -69.501 -109s-71.167 -58.667 -121.5 -78s-107.5 -29 -171.5 -29h-338c-64 0 -121.167 9.66699 -171.5 29s-90.833 45.333 -121.5 78s-53.834 69 -69.501 109s-23.5 82 -23.5 126
s9 80.333 27 109s61.667 81.667 131 159c-15.333 30.667 -23 64.334 -23 101.001c0 65.333 19.667 135 59 209c-100.667 72 -151 178 -151 318c0 118.667 40.167 215.834 120.5 291.501s196.5 113.5 348.5 113.5c60.667 0 118.334 -7 173.001 -21h425v-107
c-28.667 0 -71.334 3.5 -128.001 10.5s-99.334 10.5 -128.001 10.5z" />
    <glyph glyph-name="Gbreve" unicode="&#x11e;" horiz-adv-x="1450" 
d="M734 1717c-153.333 0 -274.331 91 -362.998 273l77 39c11.333 -22.667 22.166 -43 32.499 -61s24.333 -38 42 -60s36 -40.167 55 -54.5s42.167 -26.5 69.5 -36.5s56.333 -15 87 -15s59.667 5 87 15s50.5 22.167 69.5 36.5s37.333 32.5 55 54.5s31.667 42 42 60
s21.166 38.333 32.499 61l77 -39c-88.667 -182 -209.667 -273 -363 -273zM693.002 -21c-50 0 -99.501 5.49902 -148.501 16.499s-96 28.167 -141 51.5s-84.667 51.5 -119 84.5s-61.833 73.5 -82.5 121.5s-31 100.333 -31 157v783c0 70 15.667 133 47 189s73.5 101 126.5 135
s111.833 59.833 176.5 77.5s132.667 26.5 204 26.5h9c60.667 0 146.167 -13.167 256.5 -39.5s192.5 -52.833 246.5 -79.5l-42 -98l-278 89c-5.33301 1.33301 -15.666 4.5 -30.999 9.5s-26.333 8.5 -33 10.5s-16.834 4.83301 -30.501 8.5s-25 6.33398 -34 8.00098
s-19.333 3.16699 -31 4.5s-22.5 2 -32.5 2c-49.333 0 -96.5 -6.33301 -141.5 -19s-85.833 -31.167 -122.5 -55.5s-65.834 -56 -87.501 -95s-32.5 -82.833 -32.5 -131.5v-868c0 -64.667 19 -120.5 57 -167.5s85.333 -81.333 142 -103s118.334 -32.5 185.001 -32.5
c15.333 0 32 1.83301 50 5.5s32.833 7.16699 44.5 10.5s25.834 8 42.501 14s26.667 9.66699 30 11l217 72v591h-386v85h557v-853h-107l-42 105l-199 -77c-42 -16 -85.833 -28.167 -131.5 -36.5s-81.5 -12.5 -107.5 -12.5z" />
    <glyph glyph-name="gbreve" unicode="&#x11f;" horiz-adv-x="1280" 
d="M627 1310c-153.333 0 -274.331 91 -362.998 273l77 39c11.333 -22.667 22.166 -43 32.499 -61s24.333 -38 42 -60s36 -40.167 55 -54.5s42.167 -26.5 69.5 -36.5s56.333 -15 87 -15s59.667 5 87 15s50.5 22.167 69.5 36.5s37.333 32.5 55 54.5s31.667 42 42 60
s21.166 38.333 32.499 61l77 -39c-88.667 -182 -209.667 -273 -363 -273zM171.002 -85c0 -71.333 25.3291 -131.832 75.9961 -181.499s125.334 -74.5 224.001 -74.5h338c98.667 0 173.334 24.833 224.001 74.5s76 110.167 76 181.5c0 46.667 -21.667 86.667 -65 120
s-106.333 50 -189 50h-405c-66 0 -118 13.667 -156 41l-26 -30l-23 -27l-18.5 -21.5c-8.33301 -9.66699 -13.833 -16.5 -16.5 -20.5l-12 -17.5c-5.33301 -7.66699 -8.66602 -13.667 -9.99902 -18s-3.66602 -9.83301 -6.99902 -16.5s-5.33301 -12.834 -6 -18.501
s-1.5 -12 -2.5 -19s-1.5 -14.5 -1.5 -22.5zM298.998 755.001c0 -84.667 27.5 -149.832 82.5 -195.499s126.833 -68.5 215.5 -68.5c89.333 0 161.5 22.667 216.5 68s82.5 110.666 82.5 195.999v111c0 84.667 -27.667 150 -83 196s-127.333 69 -216 69
c-89.333 0 -161.333 -22.833 -216 -68.5s-82 -111.167 -82 -196.5v-111zM938.998 1109c85.333 -73.333 128.003 -172.67 128.003 -298.003c0 -118.667 -40.333 -216 -121 -292s-197 -114 -349 -114c-94.667 0 -176.334 15.667 -245.001 47c-14 -32 -21 -61 -21 -87
c0 -32.667 12.5 -59 37.5 -79s65.167 -30 120.5 -30h320c64 0 121.167 -9.66699 171.5 -29s90.833 -45.166 121.5 -77.499s53.834 -68.5 69.501 -108.5s23.5 -82 23.5 -126s-7.83301 -86 -23.5 -126s-38.834 -76.333 -69.501 -109s-71.167 -58.667 -121.5 -78
s-107.5 -29 -171.5 -29h-338c-64 0 -121.167 9.66699 -171.5 29s-90.833 45.333 -121.5 78s-53.834 69 -69.501 109s-23.5 82 -23.5 126s9 80.333 27 109s61.667 81.667 131 159c-15.333 30.667 -23 64.334 -23 101.001c0 65.333 19.667 135 59 209
c-100.667 72 -151 178 -151 318c0 118.667 40.167 215.834 120.5 291.501s196.5 113.5 348.5 113.5c60.667 0 118.334 -7 173.001 -21h425v-107c-28.667 0 -71.334 3.5 -128.001 10.5s-99.334 10.5 -128.001 10.5z" />
    <glyph glyph-name="Gdotaccent" unicode="&#x120;" horiz-adv-x="1450" 
d="M617 1958l192 0.000976562v-128c0 -28 -32 -42 -96 -42c-30 0 -53.5 4.16699 -70.5 12.5s-25.5 18.166 -25.5 29.499v128zM693 -20.999c-50 0 -99.501 5.49902 -148.501 16.499s-96 28.167 -141 51.5s-84.667 51.5 -119 84.5s-61.833 73.5 -82.5 121.5
s-31 100.333 -31 157v783c0 70 15.667 133 47 189s73.5 101 126.5 135s111.833 59.833 176.5 77.5s132.667 26.5 204 26.5h9c60.667 0 146.167 -13.167 256.5 -39.5s192.5 -52.833 246.5 -79.5l-42 -98l-278 89c-5.33301 1.33301 -15.666 4.5 -30.999 9.5
s-26.333 8.5 -33 10.5s-16.834 4.83301 -30.501 8.5s-25 6.33398 -34 8.00098s-19.333 3.16699 -31 4.5s-22.5 2 -32.5 2c-49.333 0 -96.5 -6.33301 -141.5 -19s-85.833 -31.167 -122.5 -55.5s-65.834 -56 -87.501 -95s-32.5 -82.833 -32.5 -131.5v-868
c0 -64.667 19 -120.5 57 -167.5s85.333 -81.333 142 -103s118.334 -32.5 185.001 -32.5c15.333 0 32 1.83301 50 5.5s32.833 7.16699 44.5 10.5s25.834 8 42.501 14s26.667 9.66699 30 11l217 72v591h-386v85h557v-853h-107l-42 105l-199 -77
c-42 -16 -85.833 -28.167 -131.5 -36.5s-81.5 -12.5 -107.5 -12.5z" />
    <glyph glyph-name="gdotaccent" unicode="&#x121;" horiz-adv-x="1280" 
d="M512 1621l192 0.000976562v-128c0 -28 -32 -42 -96 -42c-30 0 -53.5 4.16699 -70.5 12.5s-25.5 18.166 -25.5 29.499v128zM171 -84.999c0 -71.333 25.3291 -131.832 75.9961 -181.499s125.334 -74.5 224.001 -74.5h338c98.667 0 173.334 24.833 224.001 74.5
s76 110.167 76 181.5c0 46.667 -21.667 86.667 -65 120s-106.333 50 -189 50h-405c-66 0 -118 13.667 -156 41l-26 -30l-23 -27l-18.5 -21.5c-8.33301 -9.66699 -13.833 -16.5 -16.5 -20.5l-12 -17.5c-5.33301 -7.66699 -8.66602 -13.667 -9.99902 -18
s-3.66602 -9.83301 -6.99902 -16.5s-5.33301 -12.834 -6 -18.501s-1.5 -12 -2.5 -19s-1.5 -14.5 -1.5 -22.5zM298.996 755.002c0 -84.667 27.5 -149.832 82.5 -195.499s126.833 -68.5 215.5 -68.5c89.333 0 161.5 22.667 216.5 68s82.5 110.666 82.5 195.999v111
c0 84.667 -27.667 150 -83 196s-127.333 69 -216 69c-89.333 0 -161.333 -22.833 -216 -68.5s-82 -111.167 -82 -196.5v-111zM938.996 1109c85.333 -73.333 128.003 -172.67 128.003 -298.003c0 -118.667 -40.333 -216 -121 -292s-197 -114 -349 -114
c-94.667 0 -176.334 15.667 -245.001 47c-14 -32 -21 -61 -21 -87c0 -32.667 12.5 -59 37.5 -79s65.167 -30 120.5 -30h320c64 0 121.167 -9.66699 171.5 -29s90.833 -45.166 121.5 -77.499s53.834 -68.5 69.501 -108.5s23.5 -82 23.5 -126s-7.83301 -86 -23.5 -126
s-38.834 -76.333 -69.501 -109s-71.167 -58.667 -121.5 -78s-107.5 -29 -171.5 -29h-338c-64 0 -121.167 9.66699 -171.5 29s-90.833 45.333 -121.5 78s-53.834 69 -69.501 109s-23.5 82 -23.5 126s9 80.333 27 109s61.667 81.667 131 159
c-15.333 30.667 -23 64.334 -23 101.001c0 65.333 19.667 135 59 209c-100.667 72 -151 178 -151 318c0 118.667 40.167 215.834 120.5 291.501s196.5 113.5 348.5 113.5c60.667 0 118.334 -7 173.001 -21h425v-107c-28.667 0 -71.334 3.5 -128.001 10.5
s-99.334 10.5 -128.001 10.5z" />
    <glyph glyph-name="Gcommaaccent" unicode="&#x122;" horiz-adv-x="1450" 
d="M815 -166l0.000976562 -127.998c-2.66699 -50.667 -66 -133 -190 -247l-55 64c37.333 40 65.166 72 83.499 96s28.833 39.5 31.5 46.5s4 14.833 4 23.5c0 15.333 -7.33301 33.666 -22 54.999s-22 36.333 -22 45v45c0 7.33301 0.333008 12.666 1 15.999
s2.83398 7.5 6.50098 12.5s10.167 8.66699 19.5 11s21.666 3.5 36.999 3.5h42c29.333 0 47.333 -3 54 -9s10 -17.333 10 -34zM693.001 -20.998c-50 0 -99.501 5.49902 -148.501 16.499s-96 28.167 -141 51.5s-84.667 51.5 -119 84.5s-61.833 73.5 -82.5 121.5
s-31 100.333 -31 157v783c0 70 15.667 133 47 189s73.5 101 126.5 135s111.833 59.833 176.5 77.5s132.667 26.5 204 26.5h9c60.667 0 146.167 -13.167 256.5 -39.5s192.5 -52.833 246.5 -79.5l-42 -98l-278 89c-5.33301 1.33301 -15.666 4.5 -30.999 9.5
s-26.333 8.5 -33 10.5s-16.834 4.83301 -30.501 8.5s-25 6.33398 -34 8.00098s-19.333 3.16699 -31 4.5s-22.5 2 -32.5 2c-49.333 0 -96.5 -6.33301 -141.5 -19s-85.833 -31.167 -122.5 -55.5s-65.834 -56 -87.501 -95s-32.5 -82.833 -32.5 -131.5v-868
c0 -64.667 19 -120.5 57 -167.5s85.333 -81.333 142 -103s118.334 -32.5 185.001 -32.5c15.333 0 32 1.83301 50 5.5s32.833 7.16699 44.5 10.5s25.834 8 42.501 14s26.667 9.66699 30 11l217 72v591h-386v85h557v-853h-107l-42 105l-199 -77
c-42 -16 -85.833 -28.167 -131.5 -36.5s-81.5 -12.5 -107.5 -12.5z" />
    <glyph glyph-name="gcommaaccent" unicode="&#x123;" horiz-adv-x="1280" 
d="M555 1417l-0.000976562 127.998c2.66699 50.667 66 133 190 247l55 -64c-37.333 -40 -65.166 -72 -83.499 -96s-28.833 -39.5 -31.5 -46.5s-4 -14.833 -4 -23.5c0 -15.333 7.33301 -33.666 22 -54.999s22 -36.333 22 -45v-45c0 -7.33301 -0.333008 -12.666 -1 -15.999
s-2.83398 -7.5 -6.50098 -12.5s-10.167 -8.66699 -19.5 -11s-21.666 -3.5 -36.999 -3.5h-42c-29.333 0 -47.333 3 -54 9s-10 17.333 -10 34zM170.999 -85.002c0 -71.333 25.3291 -131.832 75.9961 -181.499s125.334 -74.5 224.001 -74.5h338
c98.667 0 173.334 24.833 224.001 74.5s76 110.167 76 181.5c0 46.667 -21.667 86.667 -65 120s-106.333 50 -189 50h-405c-66 0 -118 13.667 -156 41l-26 -30l-23 -27l-18.5 -21.5c-8.33301 -9.66699 -13.833 -16.5 -16.5 -20.5l-12 -17.5
c-5.33301 -7.66699 -8.66602 -13.667 -9.99902 -18s-3.66602 -9.83301 -6.99902 -16.5s-5.33301 -12.834 -6 -18.501s-1.5 -12 -2.5 -19s-1.5 -14.5 -1.5 -22.5zM298.995 754.999c0 -84.667 27.5 -149.832 82.5 -195.499s126.833 -68.5 215.5 -68.5
c89.333 0 161.5 22.667 216.5 68s82.5 110.666 82.5 195.999v111c0 84.667 -27.667 150 -83 196s-127.333 69 -216 69c-89.333 0 -161.333 -22.833 -216 -68.5s-82 -111.167 -82 -196.5v-111zM938.995 1109c85.333 -73.333 128.003 -172.67 128.003 -298.003
c0 -118.667 -40.333 -216 -121 -292s-197 -114 -349 -114c-94.667 0 -176.334 15.667 -245.001 47c-14 -32 -21 -61 -21 -87c0 -32.667 12.5 -59 37.5 -79s65.167 -30 120.5 -30h320c64 0 121.167 -9.66699 171.5 -29s90.833 -45.166 121.5 -77.499
s53.834 -68.5 69.501 -108.5s23.5 -82 23.5 -126s-7.83301 -86 -23.5 -126s-38.834 -76.333 -69.501 -109s-71.167 -58.667 -121.5 -78s-107.5 -29 -171.5 -29h-338c-64 0 -121.167 9.66699 -171.5 29s-90.833 45.333 -121.5 78s-53.834 69 -69.501 109s-23.5 82 -23.5 126
s9 80.333 27 109s61.667 81.667 131 159c-15.333 30.667 -23 64.334 -23 101.001c0 65.333 19.667 135 59 209c-100.667 72 -151 178 -151 318c0 118.667 40.167 215.834 120.5 291.501s196.5 113.5 348.5 113.5c60.667 0 118.334 -7 173.001 -21h425v-107
c-28.667 0 -71.334 3.5 -128.001 10.5s-99.334 10.5 -128.001 10.5z" />
    <glyph glyph-name="Hcircumflex" unicode="&#x124;" horiz-adv-x="1450" 
d="M766 2029l246.999 -250l-60 -62l-47 49c-20 21.333 -44.167 43.5 -72.5 66.5s-52.5 41.167 -72.5 54.5s-32 20 -36 20c-6.66699 0 -33.167 -18 -79.5 -54s-80.166 -65 -101.499 -87l-47 -49l-60 62l247 250h82zM170.999 1621h170v-682h768v682h171v-1621h-171v853h-768
v-853h-170v1621z" />
    <glyph glyph-name="hcircumflex" unicode="&#x125;" 
d="M724 2029l246.999 -250l-60 -62l-47 49c-20 21.333 -44.167 43.5 -72.5 66.5s-52.5 41.167 -72.5 54.5s-32 20 -36 20c-6.66699 0 -33.167 -18 -79.5 -54s-80.166 -65 -101.499 -87l-47 -49l-60 62l247 250h82zM340.999 977l0.000976562 -977h-170v1621h170v-576l305 122
c81.333 32.667 161.666 49 240.999 49c92.667 0 167.167 -25.5 223.5 -76.5s84.5 -124.5 84.5 -220.5v-919h-171v894c0 78.667 -13.833 135.667 -41.5 171s-72.167 53 -133.5 53c-18.667 0 -45 -3 -79 -9s-61.667 -12.333 -83 -19z" />
    <glyph glyph-name="Hbar" unicode="&#x126;" horiz-adv-x="1450" 
d="M1365 1280v-85h-85v-1195h-171v853h-768v-853h-170v1195h-86v85h86v341h170v-341h768v341h171v-341h85zM1109 1195h-768v-256h768v256z" />
    <glyph glyph-name="hbar" unicode="&#x127;" 
d="M341 977l0.000976562 -977.001h-170v1365h-86v86h86v170h170v-170h512v-86h-512v-320l305 122c41.333 16 88.5 28.167 141.5 36.5s92.833 12.5 119.5 12.5c91.333 0 162.166 -27.667 212.499 -83s75.5 -126.666 75.5 -213.999v-919h-171v894
c0 66.667 -20.5 119.167 -61.5 157.5s-93.167 57.5 -156.5 57.5c-40 0 -79.667 -6.33301 -119 -19z" />
    <glyph glyph-name="Itilde" unicode="&#x128;" horiz-adv-x="512" 
d="M171 1621h170v-1621h-170v1621zM143 1975c37.333 0 73.6689 -14.665 109.002 -43.998l57 -45c4 -2.66699 8.5 -5.83398 13.5 -9.50098s8.83301 -6.33398 11.5 -8.00098s6 -3.5 10 -5.5s7.66699 -3.33301 11 -4s7.33301 -1 12 -1c30.667 0 52 17.667 64 53l81 -29
c-9.33301 -26 -27 -50.667 -53 -74s-56.667 -35 -92 -35c-34 0 -70.333 15 -109 45l-57 44c-23.333 18.667 -42.666 28 -57.999 28c-26.667 0 -47.334 -17.667 -62.001 -53l-81 30c15.333 36 35.666 63 60.999 81s52.666 27 81.999 27z" />
    <glyph glyph-name="itilde" unicode="&#x129;" horiz-adv-x="512" 
d="M171 0v1195h170v-1195h-170zM143 1570c36.667 0 72.9961 -14.998 108.996 -44.998l57 -44c4 -2.66699 8.5 -5.83398 13.5 -9.50098s8.83301 -6.33398 11.5 -8.00098s6 -3.5 10 -5.5s7.66699 -3.33301 11 -4s7.33301 -1 12 -1c28 0 48 17.667 60 53l85 -43
c-9.33301 -26 -25.666 -48.5 -48.999 -67.5s-55.333 -28.5 -96 -28.5c-20.667 0 -38.167 3 -52.5 9s-33.166 18 -56.499 36l-57 45c-23.333 18.667 -42.666 28 -57.999 28c-2.66699 0 -6.16699 -0.5 -10.5 -1.5s-11.666 -6 -21.999 -15s-18.833 -21.5 -25.5 -37.5l-85 43
c27.333 64 75 96 143 96z" />
    <glyph glyph-name="Imacron" unicode="&#x12a;" horiz-adv-x="512" 
d="M171 1621h170v-1621h-170v1621zM512 1916v-86h-512v86h512z" />
    <glyph glyph-name="imacron" unicode="&#x12b;" horiz-adv-x="512" 
d="M171 0v1195h170v-1195h-170zM512 1510v-85h-512v85h512z" />
    <glyph glyph-name="Ibreve" unicode="&#x12c;" horiz-adv-x="512" 
d="M171 1621h170v-1621h-170v1621zM256 1803c18 0 35.3311 2.83301 51.998 8.5s31 11.667 43 18s24.833 17.166 38.5 32.499l31.5 36c7.33301 8.66699 16.833 23.5 28.5 44.5l23 42l22.5 44.5l77 -39c-1.33301 -3.33301 -3.66602 -8 -6.99902 -14
c-13.333 -27.333 -24.5 -49.166 -33.5 -65.499s-23.5 -38.333 -43.5 -66s-39.833 -49.5 -59.5 -65.5s-44.667 -30.333 -75 -43s-62.833 -19 -97.5 -19c-24.667 0 -48.5 3.33301 -71.5 10s-43 14.5 -60 23.5s-34 21.833 -51 38.5s-30.667 31.167 -41 43.5
s-22 29.166 -35 50.499s-22.167 37 -27.5 47s-13 25.333 -23 46c-3.33301 6 -5.66602 10.667 -6.99902 14l77 39l22.5 -44.5l23 -42c11.667 -21 21.167 -35.833 28.5 -44.5l31.5 -36c13.667 -15.333 26.5 -26.166 38.5 -32.499s26.333 -12.333 43 -18s34 -8.5 52 -8.5z" />
    <glyph glyph-name="ibreve" unicode="&#x12d;" horiz-adv-x="512" 
d="M171 0v1195h170v-1195h-170zM256 1397c24.667 0 48.165 5.16602 70.498 15.499s41 22 56 35s30.333 31.333 46 55s27.5 43 35.5 58s18.333 35.833 31 62.5l77 -38c-1.33301 -3.33301 -3.66602 -8 -6.99902 -14c-13.333 -27.333 -24.5 -49.166 -33.5 -65.499
s-23.5 -38.333 -43.5 -66s-39.833 -49.5 -59.5 -65.5s-44.667 -30.333 -75 -43s-62.833 -19 -97.5 -19c-24.667 0 -48.5 3.33301 -71.5 10s-43 14.5 -60 23.5s-34 21.833 -51 38.5s-30.667 31.167 -41 43.5s-22 29.166 -35 50.499s-22.167 37 -27.5 47s-13 25.333 -23 46
c-3.33301 6 -5.66602 10.667 -6.99902 14l77 38l22.5 -44.5l23 -42c11.667 -21 21.167 -35.833 28.5 -44.5l31.5 -36c13.667 -15.333 26.5 -26.166 38.5 -32.499s26.333 -12.333 43 -18s34 -8.5 52 -8.5z" />
    <glyph glyph-name="Iogonek" unicode="&#x12e;" horiz-adv-x="512" 
d="M171 1621h170.001v-1621v-13c-85.333 -52.667 -128 -105.334 -128 -158.001c0 -56.667 50 -85 150 -85v-43c0 -6.66699 -0.333008 -12 -1 -16s-2.33398 -8.16699 -5.00098 -12.5s-7 -7.66602 -13 -9.99902s-14 -3.5 -24 -3.5h-94c-30 0 -53.833 14 -71.5 42
s-26.5 58.667 -26.5 92c0 29.333 7.5 58 22.5 86s29.667 49.333 44 64s34.833 33.667 61.5 57h-85v1621z" />
    <glyph glyph-name="iogonek" unicode="&#x12f;" horiz-adv-x="512" 
d="M171 1195h170.001v-1195v-13c-85.333 -52.667 -128 -105.334 -128 -158.001c0 -56.667 50 -85 150 -85v-43c0 -6.66699 -0.333008 -12 -1 -16s-2.33398 -8.16699 -5.00098 -12.5s-7 -7.66602 -13 -9.99902s-14 -3.5 -24 -3.5h-94c-30 0 -53.833 14 -71.5 42
s-26.5 58.667 -26.5 92c0 29.333 7.5 58 22.5 86s29.667 49.333 44 64s34.833 33.667 61.5 57h-85v1195zM160.001 1621l192 0.000976562v-128c0 -28 -32 -42 -96 -42c-30 0 -53.5 4.16699 -70.5 12.5s-25.5 18.166 -25.5 29.499v128z" />
    <glyph glyph-name="Idotaccent" unicode="&#x130;" horiz-adv-x="512" 
d="M160 1958l192 0.000976562v-128c0 -28 -32 -42 -96 -42c-30 0 -53.5 4.16699 -70.5 12.5s-25.5 18.166 -25.5 29.499v128zM171 1621h170v-1621h-170v1621z" />
    <glyph glyph-name="dotlessi" unicode="&#x131;" horiz-adv-x="512" 
d="M171 0v1195h170v-1195h-170z" />
    <glyph glyph-name="IJ" unicode="&#x132;" horiz-adv-x="1322" 
d="M981 1621l171.002 -0.00292969v-1344c0 -86 -28.333 -156.833 -85 -212.5s-131.334 -83.5 -224.001 -83.5c-24 0 -60.5 4.33301 -109.5 13s-94.5 20.667 -136.5 36l34 81c53.333 -17.333 97.666 -26 132.999 -26c80 0 139.833 19.333 179.5 58s59.5 93.334 59.5 164.001
c0 8.66699 -3.66699 66.334 -11 173.001s-11 181.334 -11 224.001v917zM171.002 1621h170v-1621h-170v1621z" />
    <glyph glyph-name="ij" unicode="&#x133;" horiz-adv-x="1024" 
d="M672 1621l192 0.000976562v-128c0 -28 -32 -42 -96 -42c-30 0 -53.5 4.16699 -70.5 12.5s-25.5 18.166 -25.5 29.499v128zM683 1195l170.001 -0.00292969v-1325c0 -86 -28.333 -157 -85 -213s-131.334 -84 -224.001 -84c-22.667 0 -58.5 4.83301 -107.5 14.5
s-94.833 22.167 -137.5 37.5l34 81c58 -18.667 102 -28 132 -28c80 0 139.833 19.333 179.5 58s59.5 93.334 59.5 164.001c0 8.66699 -3.5 66.334 -10.5 173.001s-10.5 181.334 -10.5 224.001v898zM160.001 1621l192 0.000976562v-128c0 -28 -32 -42 -96 -42
c-30 0 -53.5 4.16699 -70.5 12.5s-25.5 18.166 -25.5 29.499v128zM171.001 -0.000976562v1195h170v-1195h-170z" />
    <glyph glyph-name="Jcircumflex" unicode="&#x134;" horiz-adv-x="810" 
d="M564 2029l246.999 -250l-60 -62l-47 49c-20 21.333 -44.167 43.5 -72.5 66.5s-52.5 41.167 -72.5 54.5s-32 20 -36 20c-6.66699 0 -33.167 -18 -79.5 -54s-80.166 -65 -101.499 -87l-47 -49l-60 62l247 250h82zM468.999 1621l171.002 -0.00292969v-1344
c0 -86 -28.333 -156.833 -85 -212.5s-131.334 -83.5 -224.001 -83.5c-24 0 -60.5 4.33301 -109.5 13s-94.5 20.667 -136.5 36l34 81c53.333 -17.333 97.666 -26 132.999 -26c80 0 139.833 19.333 179.5 58s59.5 93.334 59.5 164.001c0 8.66699 -3.66699 66.334 -11 173.001
s-11 181.334 -11 224.001v917z" />
    <glyph glyph-name="jcircumflex" unicode="&#x135;" horiz-adv-x="512" 
d="M265 1622l246.999 -250l-60 -62l-47 49c-20 21.333 -44.167 43.5 -72.5 66.5s-52.5 41.167 -72.5 54.5s-32 20 -36 20c-6.66699 0 -33.167 -18 -79.5 -54s-80.166 -65 -101.499 -87l-47 -49l-60 62l247 250h82zM-213.001 -375l34.001 80.9971c58 -18.667 102 -28 132 -28
c80 0 139.833 19.333 179.5 58s59.5 93.334 59.5 164.001c0 8.66699 -3.5 66.334 -10.5 173.001s-10.5 181.334 -10.5 224.001v898h170v-1325c0 -86 -28.333 -157 -85 -213s-131.334 -84 -224.001 -84c-22.667 0 -58.5 4.83301 -107.5 14.5s-94.833 22.167 -137.5 37.5z" />
    <glyph glyph-name="Kcommaaccent" unicode="&#x136;" horiz-adv-x="1450" 
d="M870 -145l0.000976562 -127.998c-2.66699 -50.667 -66 -133 -190 -247l-55 64c37.333 40 65.166 72 83.499 96s28.833 39.5 31.5 46.5s4 14.833 4 23.5c0 15.333 -7.33301 33.666 -22 54.999s-22 36.333 -22 45v45c0 7.33301 0.333008 12.666 1 15.999
s2.83398 7.5 6.50098 12.5s10.167 8.66699 19.5 11s21.666 3.5 36.999 3.5h42c29.333 0 47.333 -3 54 -9s10 -17.333 10 -34zM171.001 1621h170.001v-810l866 834l99 -92c-10.667 -13.333 -38.834 -36.5 -84.501 -69.5l-162 -120
c-62.333 -47 -114.833 -91.167 -157.5 -132.5l-288 -275l794 -941v-15h-211l-706 838l-150 -147v-691h-170v1621z" />
    <glyph glyph-name="kcommaaccent" unicode="&#x137;" horiz-adv-x="1280" 
d="M785 -145l0.000976562 -127.998c-2.66699 -50.667 -66 -133 -190 -247l-55 64c37.333 40 65.166 72 83.499 96s28.833 39.5 31.5 46.5s4 14.833 4 23.5c0 15.333 -7.33301 33.666 -22 54.999s-22 36.333 -22 45v45c0 7.33301 0.333008 12.666 1 15.999
s2.83398 7.5 6.50098 12.5s10.167 8.66699 19.5 11s21.666 3.5 36.999 3.5h42c29.333 0 47.333 -3 54 -9s10 -17.333 10 -34zM1237 0.00195312l-211 -0.000976562l-529 627l-156 -147v-480h-170v1621h170v-1024l672 651l96 -96c-11.333 -14 -39 -37 -83 -69l-158.5 -117.5
c-61.667 -46.333 -114.167 -90.166 -157.5 -131.499l-91 -87l618 -732v-15z" />
    <glyph glyph-name="kgreenlandic" unicode="&#x138;" horiz-adv-x="1280" 
d="M341 0l-170 0.000976562l-2 1195h170l2 -512h90l371 358c41.333 40 73.5 70 96.5 90s49.333 39.167 79 57.5s55.167 27.5 76.5 27.5c24.667 0 46.5 -10.667 65.5 -32s28.5 -52 28.5 -92c0 -8 -3 -15 -9 -21s-13.667 -9 -23 -9c-4.66699 0 -15.5 7.16699 -32.5 21.5
s-32.5 21.5 -46.5 21.5c-16 0 -35.167 -7.33301 -57.5 -22s-40.333 -28.334 -54 -41.001l-57.5 -56l-254 -244l581 -687v-55h-175l-506 597h-173v-597z" />
    <glyph glyph-name="Lacute" unicode="&#x139;" horiz-adv-x="1280" 
d="M531 2005l-275.001 -287.999l-60 40l79 143c30 53.333 51.333 86.666 64 99.999c18.667 18.667 41.334 28 68.001 28h124v-23zM170.999 1621h170v-1536h854v-85h-1024v1621z" />
    <glyph glyph-name="lacute" unicode="&#x13a;" horiz-adv-x="682" 
d="M531 2005l-275.001 -287.999l-60 40l79 143c30 53.333 51.333 86.666 64 99.999c18.667 18.667 41.334 28 68.001 28h124v-23zM170.999 1621l169.999 0.00195312v-917c0 -42.667 -3.5 -117.334 -10.5 -224.001s-10.5 -164.334 -10.5 -173.001
c0 -74 11.167 -129.5 33.5 -166.5s62.5 -55.5 120.5 -55.5c18 0 47.667 6.66699 89 20l34 -82c-77.333 -28 -144.666 -42 -201.999 -42c-70.667 0 -125.667 27.5 -165 82.5s-59 126.167 -59 213.5v1344z" />
    <glyph glyph-name="Lcommaaccent" unicode="&#x13b;" horiz-adv-x="1280" 
d="M763 -145l0.000976562 -127.998c-2.66699 -50.667 -66 -133 -190 -247l-55 64c37.333 40 65.166 72 83.499 96s28.833 39.5 31.5 46.5s4 14.833 4 23.5c0 15.333 -7.33301 33.666 -22 54.999s-22 36.333 -22 45v45c0 7.33301 0.333008 12.666 1 15.999
s2.83398 7.5 6.50098 12.5s10.167 8.66699 19.5 11s21.666 3.5 36.999 3.5h42c29.333 0 47.333 -3 54 -9s10 -17.333 10 -34zM171.001 1621h170v-1536h854v-85h-1024v1621z" />
    <glyph glyph-name="lcommaaccent" unicode="&#x13c;" horiz-adv-x="682" 
d="M512 -164l0.000976562 -127.998c-2.66699 -50.667 -66 -133 -190 -247l-55 64c37.333 40 65.166 72 83.499 96s28.833 39.5 31.5 46.5s4 14.833 4 23.5c0 15.333 -7.33301 33.666 -22 54.999s-22 36.333 -22 45v45c0 7.33301 0.333008 12.666 1 15.999
s2.83398 7.5 6.50098 12.5s10.167 8.66699 19.5 11s21.666 3.5 36.999 3.5h42c29.333 0 47.333 -3 54 -9s10 -17.333 10 -34zM171.001 1621l169.999 0.00195312v-917c0 -42.667 -3.5 -117.334 -10.5 -224.001s-10.5 -164.334 -10.5 -173.001
c0 -74 11.167 -129.5 33.5 -166.5s62.5 -55.5 120.5 -55.5c18 0 47.667 6.66699 89 20l34 -82c-77.333 -28 -144.666 -42 -201.999 -42c-70.667 0 -125.667 27.5 -165 82.5s-59 126.167 -59 213.5v1344z" />
    <glyph glyph-name="Lcaron" unicode="&#x13d;" horiz-adv-x="1280" 
d="M1109 1579l0.000976562 -127.998c-2.66699 -50.667 -66 -133 -190 -247l-55 64c37.333 40 65.166 72 83.499 96s28.833 39.5 31.5 46.5s4 14.833 4 23.5c0 15.333 -7.33301 33.666 -22 54.999s-22 36.333 -22 45v45c0 7.33301 0.333008 12.666 1 15.999
s2.83398 7.5 6.50098 12.5s10.167 8.66699 19.5 11s21.666 3.5 36.999 3.5h42c29.333 0 47.333 -3 54 -9s10 -17.333 10 -34zM171.001 1621h170v-1536h854v-85h-1024v1621z" />
    <glyph glyph-name="lcaron" unicode="&#x13e;" horiz-adv-x="768" 
d="M725 1579l0.000976562 -127.998c-2.66699 -50.667 -66 -133 -190 -247l-55 64c37.333 40 65.166 72 83.499 96s28.833 39.5 31.5 46.5s4 14.833 4 23.5c0 15.333 -7.33301 33.666 -22 54.999s-22 36.333 -22 45v45c0 7.33301 0.333008 12.666 1 15.999
s2.83398 7.5 6.50098 12.5s10.167 8.66699 19.5 11s21.666 3.5 36.999 3.5h42c29.333 0 47.333 -3 54 -9s10 -17.333 10 -34zM171.001 1621l169.999 0.00195312v-917c0 -42.667 -3.5 -117.334 -10.5 -224.001s-10.5 -164.334 -10.5 -173.001
c0 -74 11.167 -129.5 33.5 -166.5s62.5 -55.5 120.5 -55.5c18 0 47.667 6.66699 89 20l34 -82c-77.333 -28 -144.666 -42 -201.999 -42c-70.667 0 -125.667 27.5 -165 82.5s-59 126.167 -59 213.5v1344z" />
    <glyph glyph-name="Ldot" unicode="&#x13f;" horiz-adv-x="1280" 
d="M810 853l-0.000976562 -84.998c0 -12 -0.833008 -20.333 -2.5 -25s-7.16699 -8.83398 -16.5 -12.501s-24.333 -5.5 -45 -5.5h-42c-28 0 -45.667 3 -53 9s-11 17.333 -11 34v85c0 7.33301 0.333008 12.666 1 15.999s2.83398 7.5 6.50098 12.5s10.167 8.66699 19.5 11
s21.666 3.5 36.999 3.5h42c20 0 34.833 -2 44.5 -6s15.334 -8.5 17.001 -13.5s2.5 -12.833 2.5 -23.5zM170.999 1621h170v-1536h854v-85h-1024v1621z" />
    <glyph glyph-name="ldot" unicode="&#x140;" horiz-adv-x="768" 
d="M682 896l-0.000976562 -84.998c0 -12 -0.833008 -20.333 -2.5 -25s-7.16699 -8.83398 -16.5 -12.501s-24.333 -5.5 -45 -5.5h-42c-28 0 -45.667 3 -53 9s-11 17.333 -11 34v85c0 7.33301 0.333008 12.666 1 15.999s2.83398 7.5 6.50098 12.5s10.167 8.66699 19.5 11
s21.666 3.5 36.999 3.5h42c20 0 34.833 -2 44.5 -6s15.334 -8.5 17.001 -13.5s2.5 -12.833 2.5 -23.5zM170.999 1621l169.999 0.00195312v-917c0 -42.667 -3.5 -117.334 -10.5 -224.001s-10.5 -164.334 -10.5 -173.001c0 -74 11.167 -129.5 33.5 -166.5
s62.5 -55.5 120.5 -55.5c18 0 47.667 6.66699 89 20l34 -82c-77.333 -28 -144.666 -42 -201.999 -42c-70.667 0 -125.667 27.5 -165 82.5s-59 126.167 -59 213.5v1344z" />
    <glyph glyph-name="Lslash" unicode="&#x141;" horiz-adv-x="1280" 
d="M171 1621h170v-821l555 416v-107l-555 -416v-608h854v-85h-1024v565l-171 -128v107l171 128v949z" />
    <glyph glyph-name="lslash" unicode="&#x142;" horiz-adv-x="768" 
d="M683 23c-77.333 -28 -145 -41.998 -203 -41.998c-70.667 0 -125.667 27.5 -165 82.5s-59 126.167 -59 213.5v544l-171 -128v107l171 128v693h171v-565l213 160v-107l-213 -160v-245c0 -42.667 -3.66699 -117.334 -11 -224.001s-11 -164.334 -11 -173.001
c0 -74 11.167 -129.5 33.5 -166.5s62.5 -55.5 120.5 -55.5c18.667 0 48.667 6.66699 90 20z" />
    <glyph glyph-name="Nacute" unicode="&#x143;" horiz-adv-x="1450" 
d="M909 2005l-275.001 -287.999l-60 40l79 143c30 53.333 51.333 86.666 64 99.999c18.667 18.667 41.334 28 68.001 28h124v-23zM170.999 1621h79l906 -1248l37 -59h2v1307h85v-1621h-64l-915 1261l-43 68h-2v-1329h-85v1621z" />
    <glyph glyph-name="nacute" unicode="&#x144;" 
d="M915 1598l-275.001 -287.999l-60 40l79 143c30 53.333 51.333 86.666 64 99.999c18.667 18.667 41.334 28 68.001 28h124v-23zM1024 894.001c0 78.667 -13.832 135.667 -41.499 171s-72.167 53 -133.5 53c-18.667 0 -45 -3 -79 -9s-61.667 -12.333 -83 -19l-346 -113
v-977h-170v1195h106l58 -150l311 122c81.333 32.667 161.666 49 240.999 49c92.667 0 167.167 -25.5 223.5 -76.5s84.5 -124.5 84.5 -220.5v-919h-171v894z" />
    <glyph glyph-name="Ncommaaccent" unicode="&#x145;" horiz-adv-x="1450" 
d="M842 -145l0.000976562 -127.998c-2.66699 -50.667 -66 -133 -190 -247l-55 64c37.333 40 65.166 72 83.499 96s28.833 39.5 31.5 46.5s4 14.833 4 23.5c0 15.333 -7.33301 33.666 -22 54.999s-22 36.333 -22 45v45c0 7.33301 0.333008 12.666 1 15.999
s2.83398 7.5 6.50098 12.5s10.167 8.66699 19.5 11s21.666 3.5 36.999 3.5h42c29.333 0 47.333 -3 54 -9s10 -17.333 10 -34zM171.001 1621h79l906 -1248l37 -59h2v1307h85v-1621h-64l-915 1261l-43 68h-2v-1329h-85v1621z" />
    <glyph glyph-name="ncommaaccent" unicode="&#x146;" 
d="M806 -145l0.000976562 -127.998c-2.66699 -50.667 -66 -133 -190 -247l-55 64c37.333 40 65.166 72 83.499 96s28.833 39.5 31.5 46.5s4 14.833 4 23.5c0 15.333 -7.33301 33.666 -22 54.999s-22 36.333 -22 45v45c0 7.33301 0.333008 12.666 1 15.999
s2.83398 7.5 6.50098 12.5s10.167 8.66699 19.5 11s21.666 3.5 36.999 3.5h42c29.333 0 47.333 -3 54 -9s10 -17.333 10 -34zM1024 894.002c0 78.667 -13.832 135.667 -41.499 171s-72.167 53 -133.5 53c-18.667 0 -45 -3 -79 -9s-61.667 -12.333 -83 -19l-346 -113v-977
h-170v1195h106l58 -150l311 122c81.333 32.667 161.666 49 240.999 49c92.667 0 167.167 -25.5 223.5 -76.5s84.5 -124.5 84.5 -220.5v-919h-171v894z" />
    <glyph glyph-name="Ncaron" unicode="&#x147;" horiz-adv-x="1450" 
d="M762 1717h-81.999l-247 250l60 62l47 -49c21.333 -22 55.166 -51 101.499 -87s72.833 -54 79.5 -54c4 0 16 6.66699 36 20s44.167 31.5 72.5 54.5s52.5 45.167 72.5 66.5l47 49l60 -62zM171.001 1621h79l906 -1248l37 -59h2v1307h85v-1621h-64l-915 1261l-43 68h-2v-1329
h-85v1621z" />
    <glyph glyph-name="ncaron" unicode="&#x148;" 
d="M702 1309h-81.999l-247 250l60 62l47 -49c21.333 -22 55.166 -51 101.499 -87s72.833 -54 79.5 -54c4 0 16 6.66699 36 20s44.167 31.5 72.5 54.5s52.5 45.167 72.5 66.5l47 49l60 -62zM1024 894c0 78.667 -13.832 135.667 -41.499 171s-72.167 53 -133.5 53
c-18.667 0 -45 -3 -79 -9s-61.667 -12.333 -83 -19l-346 -113v-977h-170v1195h106l58 -150l311 122c81.333 32.667 161.666 49 240.999 49c92.667 0 167.167 -25.5 223.5 -76.5s84.5 -124.5 84.5 -220.5v-919h-171v894z" />
    <glyph glyph-name="napostrophe" unicode="&#x149;" horiz-adv-x="1536" 
d="M1195 894c0 78.667 -13.832 135.667 -41.499 171s-72.167 53 -133.5 53c-18.667 0 -45 -3 -79 -9s-61.667 -12.333 -83 -19l-346 -113v-977h-170v1195h106l58 -150l311 122c81.333 32.667 161.666 49 240.999 49c92.667 0 167.167 -25.5 223.5 -76.5
s84.5 -124.5 84.5 -220.5v-919h-171v894zM298.001 1717l0.000976562 -127.998c-2.66699 -50.667 -66 -133 -190 -247l-55 64c37.333 40 65.166 72 83.499 96s28.833 39.5 31.5 46.5s4 14.833 4 23.5c0 15.333 -7.33301 33.666 -22 54.999s-22 36.333 -22 45v45
c0 7.33301 0.333008 12.666 1 15.999s2.83398 7.5 6.50098 12.5s10.167 8.66699 19.5 11s21.666 3.5 36.999 3.5h42c29.333 0 47.333 -3 54 -9s10 -17.333 10 -34z" />
    <glyph glyph-name="Eng" unicode="&#x14a;" horiz-adv-x="1450" 
d="M341 1393l0.00195312 -1393h-170v1621h106l58 -160l397 133c42 14.667 89.833 26.5 143.5 35.5s92.5 13.5 116.5 13.5c91.333 0 162.166 -27.667 212.499 -83s75.5 -126.666 75.5 -213.999v-1090v-130c0 -86 -28.333 -157 -85 -213s-131.334 -84 -224.001 -84
c-22.667 0 -58.667 4.83301 -108 14.5s-95.333 22.167 -138 37.5l34 81c58 -18.667 102.333 -28 133 -28c78.667 0 138.167 20.167 178.5 60.5s60.5 94.166 60.5 161.499c0 54.667 -3.66699 124.667 -11 210s-11 147.666 -11 186.999v768
c0 74.667 -19.667 129.167 -59 163.5s-92 51.5 -158 51.5c-40.667 0 -80.667 -6.33301 -120 -19z" />
    <glyph glyph-name="eng" unicode="&#x14b;" 
d="M341 977l0.000976562 -976.998h-170v1195h106l58 -150l311 122c41.333 16 88.5 28.167 141.5 36.5s92.833 12.5 119.5 12.5c91.333 0 162.166 -27.667 212.499 -83s75.5 -126.666 75.5 -213.999v-834v-130c0 -86 -28.5 -156.833 -85.5 -212.5
s-131.833 -83.5 -224.5 -83.5c-22.667 0 -58.5 4.66699 -107.5 14s-94.833 21.666 -137.5 36.999l34 81c58 -18.667 102 -28 132 -28c78.667 0 138.167 20.167 178.5 60.5s60.5 94.166 60.5 161.499c0 54.667 -3.5 124.667 -10.5 210s-10.5 147.666 -10.5 186.999v512
c0 74.667 -19.833 129.167 -59.5 163.5s-92.5 51.5 -158.5 51.5c-40 0 -79.667 -6.33301 -119 -19z" />
    <glyph glyph-name="Omacron" unicode="&#x14c;" horiz-adv-x="1450" 
d="M1067 1915v-85h-683v85h683zM1109 367l0.00195312 868.001c0 48.667 -10.833 92.5 -32.5 131.5s-50.834 70.667 -87.501 95s-77.5 42.833 -122.5 55.5s-92.167 19 -141.5 19s-96.5 -6.33301 -141.5 -19s-85.833 -31.167 -122.5 -55.5s-65.834 -56 -87.501 -95
s-32.5 -82.833 -32.5 -131.5v-868c0 -64.667 19 -120.5 57 -167.5s85.333 -81.333 142 -103s118.334 -32.5 185.001 -32.5c48.667 0 95.667 6.5 141 19.5s86.166 31.667 122.499 56s65.5 56.166 87.5 95.499s33 83.333 33 132zM1280 1193l0.000976562 -783
c0 -70.667 -15.833 -134 -47.5 -190s-73.834 -101.167 -126.501 -135.5s-111.667 -60.5 -177 -78.5s-133.333 -27 -204 -27s-138.5 9 -203.5 27s-124 44.167 -177 78.5s-95.167 79.5 -126.5 135.5s-47 119.333 -47 190v783c0 70 15.667 133 47 189s73.5 101 126.5 135
s111.833 59.833 176.5 77.5s132.667 26.5 204 26.5s139.333 -8.83301 204 -26.5s123.5 -43.5 176.5 -77.5s95.333 -79 127 -135s47.5 -119 47.5 -189z" />
    <glyph glyph-name="omacron" unicode="&#x14d;" 
d="M1024 1510v-85h-683v85h683zM341 329c0 -82.667 34.002 -147.5 102.002 -194.5s148 -70.5 240 -70.5c59.333 0 114.166 9.5 164.499 28.5s92.333 49 126 90s50.5 89.833 50.5 146.5v537c0 82.667 -33.833 147.5 -101.5 194.5s-147.5 70.5 -239.5 70.5
c-59.333 0 -114.333 -9.5 -165 -28.5s-92.834 -49 -126.501 -90s-50.5 -89.833 -50.5 -146.5v-537zM171.002 375v444c0 52 9.5 100 28.5 144s45 81.333 78 112s71.333 56.834 115 78.501s90 37.5 139 47.5s99.5 15 151.5 15s102.5 -5 151.5 -15s95.333 -25.833 139 -47.5
s82 -47.834 115 -78.501s59 -68 78 -112s28.5 -92 28.5 -144v-444c0 -64.667 -14.5 -122.834 -43.5 -174.501s-68 -93.334 -117 -125.001s-103.5 -55.667 -163.5 -72s-122.667 -24.5 -188 -24.5s-128 8.16699 -188 24.5s-114.5 40.333 -163.5 72s-88 73.334 -117 125.001
s-43.5 109.834 -43.5 174.501z" />
    <glyph glyph-name="Obreve" unicode="&#x14e;" horiz-adv-x="1450" 
d="M725 1717c-153.333 0 -274.331 91 -362.998 273l77 39c11.333 -22.667 22.166 -43 32.499 -61s24.333 -38 42 -60s36 -40.167 55 -54.5s42.167 -26.5 69.5 -36.5s56.333 -15 87 -15s59.667 5 87 15s50.5 22.167 69.5 36.5s37.333 32.5 55 54.5s31.667 42 42 60
s21.166 38.333 32.499 61l77 -39c-88.667 -182 -209.667 -273 -363 -273zM1109 367l0.00195312 868.001c0 48.667 -10.833 92.5 -32.5 131.5s-50.834 70.667 -87.501 95s-77.5 42.833 -122.5 55.5s-92.167 19 -141.5 19s-96.5 -6.33301 -141.5 -19
s-85.833 -31.167 -122.5 -55.5s-65.834 -56 -87.501 -95s-32.5 -82.833 -32.5 -131.5v-868c0 -64.667 19 -120.5 57 -167.5s85.333 -81.333 142 -103s118.334 -32.5 185.001 -32.5c48.667 0 95.667 6.5 141 19.5s86.166 31.667 122.499 56s65.5 56.166 87.5 95.499
s33 83.333 33 132zM1280 1193l0.000976562 -783c0 -70.667 -15.833 -134 -47.5 -190s-73.834 -101.167 -126.501 -135.5s-111.667 -60.5 -177 -78.5s-133.333 -27 -204 -27s-138.5 9 -203.5 27s-124 44.167 -177 78.5s-95.167 79.5 -126.5 135.5s-47 119.333 -47 190v783
c0 70 15.667 133 47 189s73.5 101 126.5 135s111.833 59.833 176.5 77.5s132.667 26.5 204 26.5s139.333 -8.83301 204 -26.5s123.5 -43.5 176.5 -77.5s95.333 -79 127 -135s47.5 -119 47.5 -189z" />
    <glyph glyph-name="obreve" unicode="&#x14f;" 
d="M683 1310c-153.333 0 -274.331 91 -362.998 273l77 39c11.333 -22.667 22.166 -43 32.499 -61s24.333 -38 42 -60s36 -40.167 55 -54.5s42.167 -26.5 69.5 -36.5s56.333 -15 87 -15s59.667 5 87 15s50.5 22.167 69.5 36.5s37.333 32.5 55 54.5s31.667 42 42 60
s21.166 38.333 32.499 61l77 -39c-88.667 -182 -209.667 -273 -363 -273zM341.002 329c0 -82.667 34.002 -147.5 102.002 -194.5s148 -70.5 240 -70.5c59.333 0 114.166 9.5 164.499 28.5s92.333 49 126 90s50.5 89.833 50.5 146.5v537c0 82.667 -33.833 147.5 -101.5 194.5
s-147.5 70.5 -239.5 70.5c-59.333 0 -114.333 -9.5 -165 -28.5s-92.834 -49 -126.501 -90s-50.5 -89.833 -50.5 -146.5v-537zM171.004 375v444c0 52 9.5 100 28.5 144s45 81.333 78 112s71.333 56.834 115 78.501s90 37.5 139 47.5s99.5 15 151.5 15s102.5 -5 151.5 -15
s95.333 -25.833 139 -47.5s82 -47.834 115 -78.501s59 -68 78 -112s28.5 -92 28.5 -144v-444c0 -64.667 -14.5 -122.834 -43.5 -174.501s-68 -93.334 -117 -125.001s-103.5 -55.667 -163.5 -72s-122.667 -24.5 -188 -24.5s-128 8.16699 -188 24.5s-114.5 40.333 -163.5 72
s-88 73.334 -117 125.001s-43.5 109.834 -43.5 174.501z" />
    <glyph glyph-name="Ohungarumlaut" unicode="&#x150;" horiz-adv-x="1450" 
d="M768 2005l-318 -288l-57 55l113 152c23.333 38.667 46.333 65.667 69 81s50 23 82 23h111v-23zM1280 2005l-318 -288l-57 55l113 152c23.333 38.667 46.333 65.667 69 81s50 23 82 23h111v-23zM1109 367l0.00195312 868.001c0 48.667 -10.833 92.5 -32.5 131.5
s-50.834 70.667 -87.501 95s-77.5 42.833 -122.5 55.5s-92.167 19 -141.5 19s-96.5 -6.33301 -141.5 -19s-85.833 -31.167 -122.5 -55.5s-65.834 -56 -87.501 -95s-32.5 -82.833 -32.5 -131.5v-868c0 -64.667 19 -120.5 57 -167.5s85.333 -81.333 142 -103
s118.334 -32.5 185.001 -32.5c48.667 0 95.667 6.5 141 19.5s86.166 31.667 122.499 56s65.5 56.166 87.5 95.499s33 83.333 33 132zM1280 1193l0.000976562 -783c0 -70.667 -15.833 -134 -47.5 -190s-73.834 -101.167 -126.501 -135.5s-111.667 -60.5 -177 -78.5
s-133.333 -27 -204 -27s-138.5 9 -203.5 27s-124 44.167 -177 78.5s-95.167 79.5 -126.5 135.5s-47 119.333 -47 190v783c0 70 15.667 133 47 189s73.5 101 126.5 135s111.833 59.833 176.5 77.5s132.667 26.5 204 26.5s139.333 -8.83301 204 -26.5s123.5 -43.5 176.5 -77.5
s95.333 -79 127 -135s47.5 -119 47.5 -189z" />
    <glyph glyph-name="ohungarumlaut" unicode="&#x151;" 
d="M682 1598l-318 -288l-57 55l113 152c23.333 38.667 46.333 65.667 69 81s50 23 82 23h111v-23zM1194 1598l-318 -288l-57 55l113 152c23.333 38.667 46.333 65.667 69 81s50 23 82 23h111v-23zM341 329c0 -82.667 34.002 -147.5 102.002 -194.5s148 -70.5 240 -70.5
c59.333 0 114.166 9.5 164.499 28.5s92.333 49 126 90s50.5 89.833 50.5 146.5v537c0 82.667 -33.833 147.5 -101.5 194.5s-147.5 70.5 -239.5 70.5c-59.333 0 -114.333 -9.5 -165 -28.5s-92.834 -49 -126.501 -90s-50.5 -89.833 -50.5 -146.5v-537zM171.002 375v444
c0 52 9.5 100 28.5 144s45 81.333 78 112s71.333 56.834 115 78.501s90 37.5 139 47.5s99.5 15 151.5 15s102.5 -5 151.5 -15s95.333 -25.833 139 -47.5s82 -47.834 115 -78.501s59 -68 78 -112s28.5 -92 28.5 -144v-444c0 -64.667 -14.5 -122.834 -43.5 -174.501
s-68 -93.334 -117 -125.001s-103.5 -55.667 -163.5 -72s-122.667 -24.5 -188 -24.5s-128 8.16699 -188 24.5s-114.5 40.333 -163.5 72s-88 73.334 -117 125.001s-43.5 109.834 -43.5 174.501z" />
    <glyph glyph-name="OE" unicode="&#x152;" horiz-adv-x="2048" 
d="M725 1536c-120 0 -213.999 -24.167 -281.999 -72.5s-102 -109.5 -102 -183.5v-917c0 -76 34.667 -141.333 104 -196s162.666 -82 279.999 -82h256v1451h-256zM693.001 0c-62.667 0 -120.167 5.83398 -172.5 17.501s-96 26.834 -131 45.501s-66.167 41 -93.5 67
s-48.666 52 -63.999 78s-27.833 53.667 -37.5 83s-16 55.333 -19 78s-4.5 44.667 -4.5 66v760c0 31.333 3.16699 63.166 9.5 95.499s20.666 69.166 42.999 110.499s51.5 77.5 87.5 108.5s87 57.333 153 79s142.333 32.5 229 32.5h1184v-85h-725v-597h427v-86h-427v-768h725
v-85h-1184z" />
    <glyph glyph-name="oe" unicode="&#x153;" horiz-adv-x="2218" 
d="M1547 -21c-203.333 0 -348.664 49.6621 -435.997 148.995c-81.333 -99.333 -213.333 -149 -396 -149h-64c-78.667 0 -148 9.5 -208 28.5s-106.667 42.5 -140 70.5s-60.5 60.833 -81.5 98.5s-34.667 71.834 -41 102.501s-9.5 61.334 -9.5 92.001v452
c0 30.667 3.16699 61.334 9.5 92.001s20 64.834 41 102.501s48.167 70.5 81.5 98.5s80 51.667 140 71s129.333 29 208 29h64c181.333 0 312.666 -48.333 393.999 -145c83.333 96.667 225.666 145 426.999 145c64.667 0 123.5 -5.5 176.5 -16.5s96.833 -25 131.5 -42
s65 -37.667 91 -62s46 -48 60 -71s25.167 -47.667 33.5 -74s13.666 -48.333 15.999 -66s3.5 -35.167 3.5 -52.5v-192h-853v-286c0 -31.333 8.33301 -63.666 25 -96.999s40 -64.5 70 -93.5s69.333 -52.833 118 -71.5s102 -28 160 -28c48 0 107 12.667 177 38l198 69l43 -98
c-43.333 -22 -106.5 -43.167 -189.5 -63.5s-166.167 -30.5 -249.5 -30.5zM341.002 323.995c0 -32 6.50098 -62.835 19.501 -92.502s32.667 -57.334 59 -83.001s62.166 -46.167 107.499 -61.5s97.333 -23 156 -23c59.333 0 111.666 7.66699 156.999 23s81 35.833 107 61.5
s45.333 53.334 58 83.001s19 60.5 19 92.5v546c0 32 -6.5 62.833 -19.5 92.5s-32.5 57.334 -58.5 83.001s-61.667 46.334 -107 62.001s-97.333 23.5 -156 23.5c-59.333 0 -111.666 -7.66699 -156.999 -23s-81 -36 -107 -62s-45.5 -53.833 -58.5 -83.5
s-19.5 -60.5 -19.5 -92.5v-546zM1195 724.993l681.999 -0.000976562v128c0 76.667 -30.5 142.167 -91.5 196.5s-144.167 81.5 -249.5 81.5c-47.333 0 -90.666 -5.83301 -129.999 -17.5s-71.666 -26.834 -96.999 -45.501s-46.833 -40.167 -64.5 -64.5
s-30.334 -49.166 -38.001 -74.499s-11.5 -50.666 -11.5 -75.999v-128z" />
    <glyph glyph-name="Racute" unicode="&#x154;" horiz-adv-x="1450" 
d="M887 2005l-275.001 -287.999l-60 40l79 143c30 53.333 51.333 86.666 64 99.999c18.667 18.667 41.334 28 68.001 28h124v-23zM1178 0.000976562l-310.001 422.001c-61.333 84 -100.666 135.667 -117.999 155c-46.667 51.333 -99.334 83.333 -158.001 96
c-29.333 6.66699 -63 10 -101 10h-150v-683h-170v1621h629c62.667 0 119.334 -5.5 170.001 -16.5s92.334 -25 125.001 -42s61.167 -38.167 85.5 -63.5s42.666 -49.666 54.999 -72.999s22 -49.833 29 -79.5s11.333 -54.334 13 -74.001s2.5 -41.5 2.5 -65.5v-153
c0 -28 -3.16699 -55.5 -9.5 -82.5s-19.5 -57 -39.5 -90s-45.833 -62.333 -77.5 -88s-75.5 -48.334 -131.5 -68.001s-120.667 -32.5 -194 -38.5v-2c30.667 -11.333 65 -37 103 -77s71 -79 99 -117l335 -459v-32h-187zM340.998 1536v-768h416c106 0 191.167 27.5 255.5 82.5
s96.5 117.167 96.5 186.5v230c0 33.333 -6.5 65.5 -19.5 96.5s-32.5 59.667 -58.5 86s-61.667 47.333 -107 63s-97.333 23.5 -156 23.5h-427z" />
    <glyph glyph-name="racute" unicode="&#x155;" horiz-adv-x="853" 
d="M659 1598l-275.001 -287.999l-60 40l79 143c30 53.333 51.333 86.666 64 99.999c18.667 18.667 41.334 28 68.001 28h124v-23zM746.999 1024c-135.333 0 -233.667 -30.666 -295 -91.999l-111 -111v-821h-170v1195h106l64 -252l98 98c64 64 119.5 110.667 166.5 140
s101.167 46.666 162.5 51.999z" />
    <glyph glyph-name="Rcommaaccent" unicode="&#x156;" horiz-adv-x="1450" 
d="M977 -145l0.000976562 -127.998c-2.66699 -50.667 -66 -133 -190 -247l-55 64c37.333 40 65.166 72 83.499 96s28.833 39.5 31.5 46.5s4 14.833 4 23.5c0 15.333 -7.33301 33.666 -22 54.999s-22 36.333 -22 45v45c0 7.33301 0.333008 12.666 1 15.999
s2.83398 7.5 6.50098 12.5s10.167 8.66699 19.5 11s21.666 3.5 36.999 3.5h42c29.333 0 47.333 -3 54 -9s10 -17.333 10 -34zM1178 0.00195312l-310.001 422.001c-61.333 84 -100.666 135.667 -117.999 155c-46.667 51.333 -99.334 83.333 -158.001 96
c-29.333 6.66699 -63 10 -101 10h-150v-683h-170v1621h629c62.667 0 119.334 -5.5 170.001 -16.5s92.334 -25 125.001 -42s61.167 -38.167 85.5 -63.5s42.666 -49.666 54.999 -72.999s22 -49.833 29 -79.5s11.333 -54.334 13 -74.001s2.5 -41.5 2.5 -65.5v-153
c0 -28 -3.16699 -55.5 -9.5 -82.5s-19.5 -57 -39.5 -90s-45.833 -62.333 -77.5 -88s-75.5 -48.334 -131.5 -68.001s-120.667 -32.5 -194 -38.5v-2c30.667 -11.333 65 -37 103 -77s71 -79 99 -117l335 -459v-32h-187zM341 1536v-768h416c106 0 191.167 27.5 255.5 82.5
s96.5 117.167 96.5 186.5v230c0 33.333 -6.5 65.5 -19.5 96.5s-32.5 59.667 -58.5 86s-61.667 47.333 -107 63s-97.333 23.5 -156 23.5h-427z" />
    <glyph glyph-name="rcommaaccent" unicode="&#x157;" horiz-adv-x="853" 
d="M593 -145l0.000976562 -127.998c-2.66699 -50.667 -66 -133 -190 -247l-55 64c37.333 40 65.166 72 83.499 96s28.833 39.5 31.5 46.5s4 14.833 4 23.5c0 15.333 -7.33301 33.666 -22 54.999s-22 36.333 -22 45v45c0 7.33301 0.333008 12.666 1 15.999
s2.83398 7.5 6.50098 12.5s10.167 8.66699 19.5 11s21.666 3.5 36.999 3.5h42c29.333 0 47.333 -3 54 -9s10 -17.333 10 -34zM747.001 1024c-135.333 0 -233.667 -30.666 -295 -91.999l-111 -111v-821h-170v1195h106l64 -252l98 98c64 64 119.5 110.667 166.5 140
s101.167 46.666 162.5 51.999z" />
    <glyph glyph-name="Rcaron" unicode="&#x158;" horiz-adv-x="1450" 
d="M741 1717h-81.999l-247 250l60 62l47 -49c21.333 -22 55.166 -51 101.499 -87s72.833 -54 79.5 -54c4 0 16 6.66699 36 20s44.167 31.5 72.5 54.5s52.5 45.167 72.5 66.5l47 49l60 -62zM1178 0l-310.001 422.001c-61.333 84 -100.666 135.667 -117.999 155
c-46.667 51.333 -99.334 83.333 -158.001 96c-29.333 6.66699 -63 10 -101 10h-150v-683h-170v1621h629c62.667 0 119.334 -5.5 170.001 -16.5s92.334 -25 125.001 -42s61.167 -38.167 85.5 -63.5s42.666 -49.666 54.999 -72.999s22 -49.833 29 -79.5
s11.333 -54.334 13 -74.001s2.5 -41.5 2.5 -65.5v-153c0 -28 -3.16699 -55.5 -9.5 -82.5s-19.5 -57 -39.5 -90s-45.833 -62.333 -77.5 -88s-75.5 -48.334 -131.5 -68.001s-120.667 -32.5 -194 -38.5v-2c30.667 -11.333 65 -37 103 -77s71 -79 99 -117l335 -459v-32h-187z
M341 1536v-768h416c106 0 191.167 27.5 255.5 82.5s96.5 117.167 96.5 186.5v230c0 33.333 -6.5 65.5 -19.5 96.5s-32.5 59.667 -58.5 86s-61.667 47.333 -107 63s-97.333 23.5 -156 23.5h-427z" />
    <glyph glyph-name="rcaron" unicode="&#x159;" horiz-adv-x="853" 
d="M510 1309h-81.999l-247 250l60 62l47 -49c21.333 -22 55.166 -51 101.499 -87s72.833 -54 79.5 -54c4 0 16 6.66699 36 20s44.167 31.5 72.5 54.5s52.5 45.167 72.5 66.5l47 49l60 -62zM747.001 1024c-135.333 0 -233.667 -30.666 -295 -91.999l-111 -111v-821h-170v1195
h106l64 -252l98 98c64 64 119.5 110.667 166.5 140s101.167 46.666 162.5 51.999z" />
    <glyph glyph-name="Sacute" unicode="&#x15a;" horiz-adv-x="1450" 
d="M930 2005l-275.001 -287.999l-60 40l79 143c30 53.333 51.333 86.666 64 99.999c18.667 18.667 41.334 28 68.001 28h124v-23zM1131 341.001c0 23.333 -1.67578 45.0068 -5.00879 65.0068s-7.5 38 -12.5 54s-13 31.667 -24 47s-21.167 28.666 -30.5 39.999
s-23.333 23.5 -42 36.5l-48.5 33c-13.667 9 -33.667 20.333 -60 34l-67.5 34l-79 37.5c-34 16 -62.667 30 -86 42l-80 39l-79.5 38c-19.667 9.33301 -44.167 21.666 -73.5 36.999s-52.833 28.333 -70.5 39s-38 24 -61 40s-41.5 30.833 -55.5 44.5s-28.667 29.667 -44 48
s-27 36.5 -35 54.5s-14.667 38 -20 60s-8 45 -8 69c0 49.333 11.333 96.666 34 141.999s55.5 86.5 98.5 123.5s99.167 66.667 168.5 89s147 33.5 233 33.5h74c142 0 284.333 -26.333 427 -79l-43 -98c-15.333 4.66699 -44.333 14 -87 28s-71.667 23.167 -87 27.5
s-38.666 10.333 -69.999 18s-60.166 12.667 -86.499 15s-54.833 3.5 -85.5 3.5c-121.333 0 -219.166 -25.167 -293.499 -75.5s-111.5 -111.166 -111.5 -182.499c0 -64.667 22 -117.334 66 -158.001c34.667 -32.667 105.334 -75.334 212.001 -128.001l73 -35l97 -48l91 -44
l89.5 -43c22.333 -10.667 49.333 -24.334 81 -41.001s57.167 -31.667 76.5 -45s40.666 -29.333 63.999 -48s41.833 -37.334 55.5 -56.001s26.834 -39.5 39.501 -62.5s21.834 -48.167 27.501 -75.5s8.5 -56.333 8.5 -87c0 -54 -10 -105.333 -30 -154s-50.667 -94 -92 -136
s-98.166 -75.5 -170.499 -100.5s-156.166 -37.5 -251.499 -37.5h-64c-162 0 -350.333 39.667 -565 119l43 103c8.66699 -3.33301 33.334 -12.333 74.001 -27l75 -27c9.33301 -3.33301 31 -10.666 65 -21.999s57.5 -18.5 70.5 -21.5s33.667 -8.16699 62 -15.5
s51.666 -12 69.999 -14s39.833 -4.16699 64.5 -6.5s49 -3.5 73 -3.5c58 0 110.833 6.5 158.5 19.5s86.334 29.667 116.001 50s54.834 43.166 75.501 68.499s35.167 49.666 43.5 72.999s12.5 45.333 12.5 66z" />
    <glyph glyph-name="sacute" unicode="&#x15b;" horiz-adv-x="1194" 
d="M809 1598l-275.001 -287.999l-60 40l79 143c30 53.333 51.333 86.666 64 99.999c18.667 18.667 41.334 28 68.001 28h124v-23zM127.999 926.001c0 80 38.3359 148.341 115.003 205.008s187.667 85 333 85c176 0 325.333 -22.667 448 -68l-43 -98
c-7.33301 2.66699 -24 8 -50 16l-48.5 15l-41 12.5c-21 6.33301 -35.333 10.166 -43 11.499s-20.334 4.16602 -38.001 8.49902s-31.834 7 -42.501 8s-24.167 2.5 -40.5 4.5s-32.333 3.33301 -48 4s-32.167 1 -49.5 1c-96 0 -166.833 -14.833 -212.5 -44.5
s-68.5 -66.834 -68.5 -111.501c0 -16 1.33301 -30.667 4 -44s8 -26 16 -38s15.5 -22.5 22.5 -31.5s18.167 -18.5 33.5 -28.5l38.5 -24.5c10.333 -6.33301 26.833 -14.5 49.5 -24.5l53.5 -23l63 -25.5c29 -11.667 51.167 -20.834 66.5 -27.501l63.5 -25.5l65.5 -26.5
c16.667 -6.66699 37.5 -15.667 62.5 -27s45.667 -21.333 62 -30s35 -19.667 56 -33s38.167 -26.333 51.5 -39s27 -27.5 41 -44.5s25 -34.333 33 -52s14.667 -37.5 20 -59.5s8 -45.333 8 -70c0 -88.667 -45.333 -164.5 -136 -227.5s-216 -94.5 -376 -94.5
c-86.667 0 -177.334 9.66699 -272.001 29s-174.667 41 -240 65l43 98c7.33301 -2 33.166 -10.167 77.499 -24.5s72.666 -23.333 84.999 -27s36.5 -10.5 72.5 -20.5s63.667 -16.5 83 -19.5s43.333 -6.33301 72 -10s55.667 -5.5 81 -5.5c103.333 0 185.833 19.667 247.5 59
s92.5 86.666 92.5 141.999c0 20 -3 38.667 -9 56s-13 32.666 -21 45.999s-20.5 26.833 -37.5 40.5s-32 24.667 -45 33s-32.5 18.666 -58.5 30.999s-46.833 21.666 -62.5 27.999l-72.5 29.5l-74 30l-64 26l-67 27.5l-63.5 27.5c-25.667 11.333 -46.667 22 -63 32
s-34.666 22 -54.999 36s-36.666 28.333 -48.999 43s-24.333 31 -36 49s-20.167 37.5 -25.5 58.5s-8 43.5 -8 67.5z" />
    </font>
</defs>
</svg>
