<?xml version="1.0" standalone="no"?>
<!DOCTYPE svg PUBLIC "-//W3C//DTD SVG 1.1//EN" "http://www.w3.org/Graphics/SVG/1.1/DTD/svg11.dtd" >
<svg>
<metadata>
Created by FontForge 20090914 at Tue Jun 25 13:54:55 2013
 By www-data
Copyright (c) ShyFonts Type Foundry, 2000. All rights reserved.
</metadata>
<defs>
<font id="SFWonderComic" horiz-adv-x="1174" >
  <font-face 
    font-family="SF Wonder Comic"
    font-weight="400"
    font-stretch="normal"
    units-per-em="2048"
    panose-1="2 0 5 6 0 0 0 2 0 4"
    ascent="1638"
    descent="-410"
    x-height="1360"
    cap-height="1370"
    bbox="12.0029 -393 2140 1988"
    underline-thickness="20"
    underline-position="-123"
    unicode-range="U+0020-U+2122"
  />
<missing-glyph horiz-adv-x="1024" 
 />
    <glyph glyph-name=".notdef" horiz-adv-x="1024" 
 />
    <glyph glyph-name="space" unicode=" " horiz-adv-x="602" 
 />
    <glyph glyph-name="exclam" unicode="!" horiz-adv-x="567" 
d="M502 1227c0 -24.667 -10.998 -78.6709 -32.998 -162.004c-11.333 -51.333 -29.333 -127.666 -54 -228.999c-10.667 -39.333 -40.334 -137.666 -89.001 -294.999c-6.66699 -27.333 -19.667 -67 -39 -119c-18.667 -38.667 -43.334 -58 -74.001 -58
c-22.667 0 -42.167 7.83301 -58.5 23.5s-24.5 34.834 -24.5 57.501c0 54.667 9.66699 135 29 241c14.667 82 30 163.333 46 244c11.333 70.667 23.333 141.334 36 212.001c19.333 92 47 154.333 83 187c22.667 20.667 46 31 70 31c72 0 108 -44.333 108 -133z
M292.002 136.996c0 -1.33301 -2.99902 -14.998 -8.99902 -40.998c-0.666992 -6 -2.33398 -14.667 -5.00098 -26c-11.333 -40 -40.333 -60 -87 -60c-32 0 -58.667 11.167 -80 33.5s-32 49.5 -32 81.5c0 27.333 11.833 52.666 35.5 75.999s49.167 35 76.5 35
s51 -9.83301 71 -29.5s30 -42.834 30 -69.501z" />
    <glyph glyph-name="quotedbl" unicode="&#x22;" horiz-adv-x="792" 
d="M587 1300c0 -23.333 -2 -58.667 -6 -106s-6 -83 -6 -107c0 -46.667 -25 -70 -75 -70c-46.667 0 -70 23.333 -70 70v84c0 137.333 28.333 206 85 206c48 0 72 -25.667 72 -77zM338 1294c0 -74 -5 -147.667 -15 -221c-6 -39.333 -25.333 -59 -58 -59
c-40 0 -60 28.333 -60 85v62c0 72.667 6.33301 127.667 19 165c8.66699 28.667 25 43 49 43c43.333 0 65 -25 65 -75z" />
    <glyph glyph-name="numbersign" unicode="#" horiz-adv-x="1065" 
d="M952 1120c0 -28.667 -15.6641 -47.999 -46.9971 -57.999c-16 -4.66699 -66.333 -11.667 -151 -21c1.33301 -30.667 2.66602 -70.334 3.99902 -119.001c24 0.666992 47.333 1 70 1c77.333 0 116 -26.667 116 -80c0 -32.667 -17.667 -53.667 -53 -63
c-10 -2 -54.333 -7.66699 -133 -17c-3.33301 -64.667 -5.66602 -100.667 -6.99902 -108c-9.33301 -44 -31 -66 -65 -66c-40.667 0 -61 17.667 -61 53c0 13.333 0.833008 32.333 2.5 57s2.5 42 2.5 52c-64 -6.66699 -129 -14.667 -195 -24c-16 -98.667 -38.667 -148 -68 -148
c-37.333 0 -56 18 -56 54c0 -1.33301 3.33301 24.334 10 77.001c-90 -16 -132.667 -24 -128 -24c-22.667 0 -41.667 8.5 -57 25.5s-23 36.833 -23 59.5c0 35.333 18.667 59.333 56 72c17.333 6 72.666 17 165.999 33c0.666992 32.667 1.66699 78.667 3 138
c-122.667 -6 -183 -9 -181 -9c-32.667 0 -49 16.667 -49 50c0 22.667 12.333 38.667 37 48c21.333 7.33301 85.666 18 192.999 32c0 10 -0.666992 24.667 -2 44v45c0 44 1.66699 73.333 5 88c8 35.333 27 53 57 53c28 0 45.667 -14 53 -42
c3.33301 -12.667 5 -38.334 5 -77.001v-96c35.333 3.33301 88.666 8 159.999 14c0 5.33301 -0.666992 14 -2 26v25c0 92 25 138 75 138c32 0 51.667 -18 59 -54v-91c0 -3.33301 0.333008 -14 1 -32c93.333 8 142.333 12 147 12c37.333 0 56 -22.667 56 -68zM628.003 913.001
l-7 116c-36 -2 -90 -5.33301 -162 -10c0 -24 -1.66699 -65 -5 -123c38.667 6 96.667 11.667 174 17z" />
    <glyph glyph-name="dollar" unicode="$" horiz-adv-x="1062" 
d="M1009 1010c0 -28 -10.333 -51.168 -31 -69.501s-45 -27.5 -73 -27.5c-27.333 0 -70 31.333 -128 94c-65.333 68 -115.666 107.667 -150.999 119c-11.333 -111.333 -26 -263 -44 -455c72.667 -38.667 133 -87 181 -145c56.667 -68.667 85 -139.334 85 -212.001
c0 -83.333 -37.333 -154.333 -112 -213c-66 -54 -143 -84.667 -231 -92c-2 -42.667 -11.667 -102 -29 -178c-11.333 -27.333 -27.333 -41 -48 -41c-16.667 0 -31.5 5.66699 -44.5 17s-19.5 25.666 -19.5 42.999c0 22.667 3.33301 50.334 10 83.001
c11.333 54 17 81.333 17 82c-64.667 11.333 -123.334 40 -176.001 86c-58 50 -87 106.333 -87 169c0 20 7.66699 37.167 23 51.5s33.333 21.5 54 21.5c24 0 43 -12.5 57 -37.5l42 -75.5c24 -29.333 58.667 -49 104 -59c13.333 135.333 23.666 253.666 30.999 354.999
c-114 46.667 -195 93.334 -243 140.001c-66 64.667 -99 149.334 -99 254.001c0 119.333 39.833 222.5 119.5 309.5s179.167 133.5 298.5 139.5c4.66699 36 15.667 90 33 162c12.667 32 30.334 48 53.001 48c19.333 0 35.833 -7.16699 49.5 -21.5s20.5 -31.166 20.5 -50.499
c0 -18 -5.66699 -68 -17 -150c93.333 -19.333 173.333 -58 240 -116c76.667 -66 115 -143 115 -231zM483 1128c-106.667 -22.667 -160 -95.333 -160 -218c0 -75.333 42 -133.333 126 -174c8 124 19.333 254.667 34 392zM681 311c0 50.667 -39.999 101.668 -119.999 153.001
c-6.66699 -64.667 -17.334 -162.334 -32.001 -293.001c36.667 8 69.667 23.667 99 47c35.333 28.667 53 59.667 53 93z" />
    <glyph glyph-name="percent" unicode="%" horiz-adv-x="1608" 
d="M1215 1306c0 -115.333 -90.333 -335.001 -271 -659.001c-170.667 -305.333 -308 -510.333 -412 -615c-11.333 -11.333 -22 -17 -32 -17c-13.333 0 -25.5 6 -36.5 18s-16.5 25 -16.5 39c0 6.66699 5.33301 17.334 16 32.001c158 223.333 300.667 485 428 785
c32.667 72.667 78.667 183 138 331c22 58 34.667 90.667 38 98c20 42 43.667 63 71 63c51.333 0 77 -25 77 -75zM802 1055c0 -91.333 -30.165 -167.333 -90.498 -228s-135.5 -91 -225.5 -91c-96.667 0 -182.334 30 -257.001 90c-80.667 64 -121 143 -121 237
c0 140 83.333 234 250 282c40 11.333 72 17 96 17c93.333 0 173.666 -27.333 240.999 -82c71.333 -59.333 107 -134.333 107 -225zM1461 318.999c0 -84 -29.001 -159.665 -87.001 -226.998c-61.333 -69.333 -133.666 -104 -216.999 -104c-74 0 -141 24 -201 72
c-65.333 51.333 -98 113.333 -98 186c0 74 30.333 148.333 91 223c54.667 67.333 119 118.666 193 153.999c14.667 6.66699 26.667 10 36 10c11.333 0 29 -5 53 -15c153.333 -64.667 230 -164.334 230 -299.001zM630.001 1046c0 59.333 -30.334 99.332 -91.001 119.999
l-162 34c-74 -26 -111 -68.333 -111 -127c0 -45.333 26.333 -85 79 -119c46.667 -30.667 94.334 -46 143.001 -46c38.667 0 72 13.333 100 40s42 59.334 42 98.001zM1290 307c0 64.667 -37.333 121.001 -112 169.001c-107.333 -74.667 -161 -145.667 -161 -213
c0 -30.667 13.667 -56.5 41 -77.5s57 -31.5 89 -31.5c37.333 0 70.5 16.167 99.5 48.5s43.5 67.166 43.5 104.499z" />
    <glyph glyph-name="ampersand" unicode="&#x26;" horiz-adv-x="1208" 
d="M1068 1043c0 -42 -10.668 -80.666 -32.001 -115.999c-25.333 -41.333 -57.666 -62 -96.999 -62c-41.333 0 -69.333 14.333 -84 43c-9.33301 17.333 -14.833 45.833 -16.5 85.5s-5.83398 64.167 -12.501 73.5c-36.667 47.333 -106.667 71 -210 71
c-48 0 -95.333 -6.66699 -142 -20c-86 -25.333 -129 -55 -129 -89c0 -50 37.333 -106.333 112 -169l174 -133c27.333 -25.333 41 -52 41 -80c0 -34 -20.333 -60.667 -61 -80c-69.333 -33.333 -112 -56.666 -128 -69.999c-37.333 -30.667 -56 -74 -56 -130
c0 -60.667 23.333 -114 70 -160s100 -69 160 -69c38.667 0 91.334 16 158.001 48s101.667 48 105 48c32 0 48 -19 48 -57c0 -10 -4 -20.667 -12 -32c-30 -42 -76.5 -77.167 -139.5 -105.5s-121.833 -42.5 -176.5 -42.5c-98.667 0 -184 36.833 -256 110.5
s-108 160.167 -108 259.5c0 108 45.667 201.333 137 280c-196 117.333 -294 242.333 -294 375c0 115.333 58.333 204.666 175 267.999c96.667 53.333 207 80 331 80c101.333 0 188.333 -18 261 -54c52 -26 95.333 -63.833 130 -113.5s52 -102.834 52 -159.501z" />
    <glyph glyph-name="quotesingle" unicode="'" horiz-adv-x="507" 
d="M312 1294c0 -80 -4.33203 -153.667 -12.999 -221c-6 -39.333 -26 -59 -60 -59c-40 0 -60 28.333 -60 85v62c0 72.667 6.33301 127.667 19 165c9.33301 28.667 25.666 43 48.999 43c43.333 0 65 -25 65 -75z" />
    <glyph glyph-name="parenleft" unicode="(" horiz-adv-x="620" 
d="M509 1268c0 -28.667 -9.66797 -60.666 -29.001 -95.999l-53 -85c-91.333 -156.667 -137 -365.334 -137 -626.001c0 -104.667 11.333 -209 34 -313c14.667 -63.333 43.667 -164 87 -302c3.33301 -10 5 -19.667 5 -29c0 -18 -6.5 -34.333 -19.5 -49s-28.5 -22 -46.5 -22
c-33.333 0 -66.333 39.667 -99 119c-86.667 208 -130 450 -130 726c0 139.333 19.333 287 58 443c54.667 215.333 129.334 323 224.001 323c28 0 52.667 -8 74 -24s32 -37.667 32 -65z" />
    <glyph glyph-name="parenright" unicode=")" horiz-adv-x="671" 
d="M565 553c0 -149.333 -21 -294.33 -63 -434.997c-51.333 -170 -124.333 -294 -219 -372c-16 -14 -31.333 -21 -46 -21c-19.333 0 -36.666 7.5 -51.999 22.5s-23 32.167 -23 51.5c0 14.667 11.333 36 34 64c16 20.667 32.667 40.667 50 60
c88.667 115.333 133 274.666 133 477.999c0 183.333 -29 358 -87 524c0 1.33301 -24.667 58.666 -74 171.999c-34.667 85.333 -52 140 -52 164c0 27.333 10.667 50.666 32 69.999s45.666 29 72.999 29c22 0 45 -10.333 69 -31c66.667 -56.667 123 -177.667 169 -363
c37.333 -156 56 -293.667 56 -413z" />
    <glyph glyph-name="asterisk" unicode="*" horiz-adv-x="901" 
d="M812 647c0 -18 -6.83203 -34.167 -20.499 -48.5s-29.5 -21.5 -47.5 -21.5c-13.333 0 -29.333 6.66699 -48 20c-35.333 34.667 -89.333 85 -162 151v-110c0 -96.667 -25.667 -145 -77 -145c-38.667 0 -62.334 22.667 -71.001 68
c-2.66699 15.333 -5.66699 75.666 -9 180.999l-162 -145c-17.333 -13.333 -32 -20 -44 -20c-19.333 0 -36.5 7.33301 -51.5 22s-22.5 31.667 -22.5 51c0 24 36 68.333 108 133l143 122c-50 29.333 -122.333 76.333 -217 141c-21.333 17.333 -32 36.333 -32 57
c0 18 6.83301 34 20.5 48s29.5 21 47.5 21c26.667 0 95 -35 205 -105c0 16.667 -1.66699 54 -5 112c-2 46.667 -3 84.334 -3 113.001c0 51.333 23 77 69 77s74 -25.667 84 -77c3.33301 -19.333 8 -100 14 -242c92 70 146 105 162 105c18 0 33.5 -7.33301 46.5 -22
s19.5 -31 19.5 -49c0 -24 -57.333 -82.667 -172 -176c150 -128.667 225 -215.667 225 -261z" />
    <glyph glyph-name="plus" unicode="+" horiz-adv-x="753" 
d="M719 594c0 -50 -41.666 -75 -124.999 -75c-48 0 -101 0.666992 -159 2c-1.33301 -41.333 -4.66602 -101.666 -9.99902 -180.999c-6 -43.333 -27.667 -65 -65 -65c-45.333 0 -68 21.667 -68 65v186c-38.667 0.666992 -95.667 5.66699 -171 15
c-45.333 9.33301 -68 36 -68 80c0 43.333 21 65 63 65c21.333 0 51 -1 89 -3c42 -3.33301 71 -5 87 -5v191c0 19.333 7.66699 35 23 47s32.666 18 51.999 18c29.333 0 48.666 -16 57.999 -48c11.333 -40 16.333 -110.667 15 -212
c46.667 1.33301 116.667 -1.33398 210 -8.00098c46 -7.33301 69 -31.333 69 -72z" />
    <glyph glyph-name="comma" unicode="," horiz-adv-x="485" 
d="M372 75c0 -16 -5 -34.334 -15 -55.001c-10.667 -15.333 -20 -31.666 -28 -48.999s-19.333 -43.666 -34 -78.999c-19.333 -42.667 -47 -64 -83 -64c-24 0 -44.833 8.5 -62.5 25.5s-26.5 37.5 -26.5 61.5c0 3.33301 13.667 44.666 41 123.999l17.5 60.5
c6.33301 21 16.5 37.167 30.5 48.5c20 17.333 42.667 26 68 26c26 0 47.833 -10 65.5 -30s26.5 -43 26.5 -69z" />
    <glyph glyph-name="hyphen" unicode="-" horiz-adv-x="1022" 
d="M829 582c0 -51.333 -36.334 -76.999 -109.001 -76.999h-114c-151.333 0 -264.666 5.33301 -339.999 16c-50 6.66699 -75 31 -75 73c0 38.667 21 63.667 63 75c18.667 4.66699 55.667 7 111 7h103c148.667 0 251.667 -9.66699 309 -29
c34.667 -12.667 52 -34.334 52 -65.001z" />
    <glyph glyph-name="period" unicode="." horiz-adv-x="497" 
d="M336 104c0 -24.667 -8.83203 -47.667 -26.499 -69s-38.834 -32 -63.501 -32c-54.667 0 -82 33 -82 99c0 22 8 41 24 57s34.667 24 56 24c24 0 45.333 -7.5 64 -22.5s28 -33.833 28 -56.5z" />
    <glyph glyph-name="slash" unicode="/" horiz-adv-x="532" 
d="M486 1292c0 -60.667 -19.333 -188.667 -58 -384l-76 -394c-26.667 -112.667 -62.667 -283 -108 -511c-5.33301 -40.667 -10.333 -81.334 -15 -122.001c-7.33301 -49.333 -17 -89.333 -29 -120c-14 -35.333 -33.333 -53 -58 -53c-54 0 -81 30.333 -81 91
c0 153.333 27 346.666 81 579.999c74 320.667 115.333 512.334 124 575.001c6 62.667 12.333 125.334 19 188.001c8 85.333 20 143.333 36 174c19.333 38.667 46 58 80 58c24 0 44.167 -7.66699 60.5 -23s24.5 -35 24.5 -59z" />
    <glyph glyph-name="zero" unicode="0" horiz-adv-x="1297" 
d="M1145 754c0 -206.667 -55 -384 -165 -532c-117.333 -157.333 -253 -236 -407 -236c-71.333 0 -139 22.333 -203 67c-144 100 -216 266 -216 498c0 138 25 274.667 75 410c58 154.667 136.333 265.667 235 333c67.333 45.333 125 64 173 56c27.333 8 55 12 83 12
c100 0 190 -46.667 270 -140c70.667 -80.667 116.667 -174.667 138 -282c11.333 -56.667 17 -118.667 17 -186zM915 734c0 206.667 -54.666 333.002 -163.999 379.002c-27.333 11.333 -76.333 22.666 -147 33.999c-82.667 -52.667 -146.334 -142.667 -191.001 -270
c-36.667 -104.667 -55 -216 -55 -334c0 -94.667 15 -174 45 -238c40 -85.333 102 -128 186 -128c37.333 0 77 12 119 36c72 41.333 126 118.666 162 231.999c30 90 45 186.333 45 289z" />
    <glyph glyph-name="one" unicode="1" horiz-adv-x="678" 
d="M512 1108c0 -148 -22.333 -393.336 -67 -736.003c-6.66699 -50 -14.334 -125.667 -23.001 -227c0 -21.333 -2 -53.666 -6 -96.999c-8 -44.667 -29.333 -67 -64 -67c-54.667 0 -82 57.667 -82 173c0 82.667 3.66699 207.334 11 374.001s11 291.667 11 375
c0 37.333 -1.66699 84.333 -5 141c-61.333 -53.333 -108.666 -80 -141.999 -80c-30.667 0 -57.667 11.167 -81 33.5s-35 48.833 -35 79.5c0 24.667 10.667 52 32 82c30 38.667 79 82.334 147 131.001c76.667 53.333 134.667 80 174 80c58 0 95.667 -27.667 113 -83
c11.333 -37.333 17 -97 17 -179z" />
    <glyph glyph-name="two" unicode="2" horiz-adv-x="1196" 
d="M1056 939c0 -106 -26.6631 -204.67 -79.9961 -296.003c-40.667 -69.333 -104.334 -145 -191.001 -227l-229 -208c26.667 1.33301 53.667 2 81 2c132.667 0 222.334 -25.667 269.001 -77c16 -16.667 24 -32.667 24 -48c0 -19.333 -8.16699 -36 -24.5 -50
s-34.833 -21 -55.5 -21c-10 0 -20.333 2 -31 6c-80.667 4.66699 -124 7 -130 7c-32.667 0 -82.334 -1.66699 -149.001 -5s-116.334 -5 -149.001 -5c-88.667 0 -133 32.333 -133 97c0 12.667 4.33301 28 13 46c26.667 52.667 99 137 217 253
c101.333 98.667 173.666 176.667 216.999 234c79.333 104.667 119 198.334 119 281.001c0 62.667 -21.333 111.667 -64 147s-96.334 53 -161.001 53c-85.333 0 -150.333 -28 -195 -84c-13.333 -16.667 -26.333 -44.667 -39 -84s-24 -67 -34 -83c-24 -35.333 -54 -53 -90 -53
c-76.667 0 -115 49.667 -115 149c0 78.667 33.667 154.334 101 227.001c61.333 66.667 132.333 113.334 213 140.001c49.333 16 102.333 24 159 24c128.667 0 237 -39.333 325 -118s132 -181 132 -307z" />
    <glyph glyph-name="three" unicode="3" horiz-adv-x="1273" 
d="M1068 947c0 -137.333 -52.335 -256 -157.002 -356c59.333 -52.667 89 -126.667 89 -222c0 -99.333 -39.833 -184.5 -119.5 -255.5s-169.5 -106.5 -269.5 -106.5c-42 0 -85.333 8 -130 24c-48.667 16.667 -85.667 38.667 -111 66c-16.667 19.333 -25 37.666 -25 54.999
c0 22.667 8.83301 42.834 26.5 60.501s37.834 26.5 60.501 26.5c24 0 57.5 -8.33301 100.5 -25s76.5 -25 100.5 -25c48 0 90.667 17.5 128 52.5s56 75.833 56 122.5c0 46 -42 69 -126 69c-14.667 0 -36.5 -2.5 -65.5 -7.5s-50.833 -7.5 -65.5 -7.5
c-33.333 0 -61.333 12.5 -84 37.5s-34 54.5 -34 88.5c0 46.667 28 81.667 84 105c116 47.333 188.667 82 218 104c66 50 99 120.333 99 211c0 56 -16.5 103.667 -49.5 143s-76.833 59 -131.5 59c-61.333 0 -116 -20 -164 -60c-30.667 -26 -69.334 -71.667 -116.001 -137
c-24 -32.667 -49.667 -49 -77 -49c-26.667 0 -51.667 9.16699 -75 27.5s-35 40.833 -35 67.5c0 9.33301 2 19.666 6 30.999c36.667 96 101.334 176.333 194.001 241s190.334 97 293.001 97c111.333 0 204 -45.333 278 -136c68 -85.333 102 -185.666 102 -300.999z" />
    <glyph glyph-name="four" unicode="4" horiz-adv-x="1176" 
d="M1089 672c0 -14.667 -8.33203 -27.665 -24.999 -38.998s-87 -29.333 -211 -54c-8.66699 -125.333 -16.667 -213 -24 -263c-14.667 -108 -34.334 -193 -59.001 -255c-14.667 -34.667 -36.334 -52 -65.001 -52c-52.667 0 -79 31 -79 93c0 41.333 4 103 12 185
s12 143.333 12 184v56l-247 -66c-96.667 -22.667 -181.667 -34 -255 -34c-28 0 -52 11.667 -72 35s-30 49 -30 77c0 6 1 14.667 3 26c26.667 128.667 42.667 235 48 319c7.33301 101.333 11.333 152.666 12 153.999c14 62.667 46.667 94 98 94c68 0 102 -61.667 102 -185
c0 -126 -5 -222.667 -15 -290c100.667 10 218.334 27 353.001 51c-1.33301 69.333 -2 140.666 -2 213.999c0 213.333 17.667 347 53 401c20.667 31.333 48 47 82 47c72.667 0 109 -58.333 109 -175c0 19.333 -5 -50.667 -15 -210c-2.66699 -54.667 -6 -136 -10 -244
c16.667 0.666992 41.667 1 75 1c100 0 150 -23.333 150 -70z" />
    <glyph glyph-name="five" unicode="5" horiz-adv-x="1309" 
d="M1114 565c0 -134 -61.001 -260.503 -183.001 -379.503s-250.333 -178.5 -385 -178.5c-71.333 0 -139.166 20.167 -203.499 60.5s-111.833 92.833 -142.5 157.5c-8 17.333 -12 31.666 -12 42.999c0 24 9.66699 45 29 63s41 27 65 27c23.333 0 46.666 -14.667 69.999 -44
c37.333 -48 60.666 -76 69.999 -84c34 -29.333 76 -44 126 -44c80.667 0 161.167 39.833 241.5 119.5s120.5 159.834 120.5 240.501c0 64.667 -46.667 105.667 -140 123c-30 6 -101.333 9 -214 9c-121.333 0 -207 14 -257 42c-69.333 38.667 -104 114.334 -104 227.001
c0 96.667 21 182 63 256c48.667 85.333 117.334 135.333 206.001 150c22.667 4 49 6 79 6c20 0 51.167 -1.5 93.5 -4.5s73.5 -4.5 93.5 -4.5c16 0 40.5 2.33301 73.5 7s57.5 7 73.5 7c33.333 0 63.833 -11.167 91.5 -33.5s41.5 -49.833 41.5 -82.5
c0 -23.333 -11.333 -45.666 -34 -66.999c-46.667 -43.333 -124.667 -65 -234 -65c-21.333 0 -54.166 1.16699 -98.499 3.5s-77.5 3.5 -99.5 3.5c-27.333 0 -46.333 -3.66699 -57 -11s-21 -24.666 -31 -51.999c-16 -41.333 -24 -83 -24 -125c0 -18 8 -27 24 -27
s39 0.5 69 1.5s53 1.5 69 1.5c140 0 255 -22.667 345 -68c116.667 -59.333 175 -152 175 -278z" />
    <glyph glyph-name="six" unicode="6" horiz-adv-x="1142" 
d="M1038 440c0 -111.333 -50.668 -212.169 -152.001 -302.502s-208.333 -135.5 -321 -135.5c-106 0 -200.5 35.833 -283.5 107.5s-133.5 159.834 -151.5 264.501c-6 32.667 -9 68.334 -9 107.001c0 248 119 496.667 357 746c92 96.667 156.333 145 193 145
c26 0 48.333 -11 67 -33s28 -46.333 28 -73c0 -19.333 -9.33301 -39.5 -28 -60.5s-48 -51.5 -88 -91.5c-68 -70 -129.333 -154 -184 -252c28.667 4.66699 56.667 7 84 7c124.667 0 235.334 -39.333 332.001 -118c104 -84 156 -187.667 156 -311zM883.999 489.997
c0 61.333 -37.999 113.668 -113.999 157.001c-66 36 -132 54 -198 54c-80 0 -148.333 -31.667 -205 -95c-8 -38.667 -12 -76.334 -12 -113.001c0 -169.333 77.333 -254 232 -254c77.333 0 146.166 27.833 206.499 83.5s90.5 111.5 90.5 167.5z" />
    <glyph glyph-name="seven" unicode="7" horiz-adv-x="1149" 
d="M1111 1220c0 -30.667 -40.334 -110.333 -121.001 -239l-244 -385c-98 -154 -175.333 -286 -232 -396c-14.667 -34.667 -39.667 -84.334 -75 -149.001c-22 -32.667 -46 -49 -72 -49c-27.333 0 -51.166 10.5 -71.499 31.5s-30.5 45.167 -30.5 72.5
c0 37.333 51.667 146.333 155 327l396 680l-202 8c-122.667 3.33301 -186.667 5.66602 -192 6.99902c-88 6 -149 17 -183 33c-48 22.667 -72 57.334 -72 104.001c0 64.667 58 97 174 97c86.667 0 267.667 -6.33301 543 -19c25.333 0 63 -2.66699 113 -8
c76 -15.333 114 -53.666 114 -114.999z" />
    <glyph glyph-name="eight" unicode="8" horiz-adv-x="1256" 
d="M1080 1065c0 -122.667 -51.668 -232.003 -155.001 -328.003c95.333 -68 143 -163.333 143 -286c0 -97.333 -27.5 -185.166 -82.5 -263.499s-128.5 -132.166 -220.5 -161.499c-52.667 -17.333 -113 -26 -181 -26c-127.333 0 -233.666 29.667 -318.999 89
c-97.333 68 -146 163 -146 285c0 142 70.667 257.333 212 346c-50 50 -75 112 -75 186c0 46.667 12 81.334 36 104.001c20.667 93.333 81.5 177 182.5 251s199.833 111 296.5 111c90 0 164 -28.667 222 -86s87 -131 87 -221zM854.999 1062c0 28 -9.16602 51.667 -27.499 71
s-41.5 29 -69.5 29c-48 0 -103.333 -22 -166 -66c-53.333 -38 -97.666 -80.333 -132.999 -127c1.33301 -6.66699 2 -17.334 2 -32.001c0 -35.333 16 -62.666 48 -81.999c27.333 -17.333 59.666 -26 96.999 -26c29.333 0 57.666 6.33301 84.999 19
c38 17.333 74.833 47.833 110.5 91.5s53.5 84.5 53.5 122.5zM905 419.997c0 111.333 -62 167.002 -186 167.002c-56 0 -98.667 -2.33301 -128 -7c-56 -8.66699 -108 -31.334 -156 -68.001c-54.667 -42 -82 -88.667 -82 -140c0 -8 1.33301 -15.333 4 -22
c34 -106 123.333 -159 268 -159c71.333 0 134.333 20 189 60c60.667 43.333 91 99.666 91 168.999z" />
    <glyph glyph-name="nine" unicode="9" horiz-adv-x="1143" 
d="M1009 891c0 -103.333 -25.6699 -215.999 -77.0029 -337.999c-20.667 -50 -73 -154.667 -157 -314c-16 -28.667 -37.667 -72.334 -65 -131.001c-3.33301 -12.667 -10.666 -30.334 -21.999 -53.001c-19.333 -30 -42.666 -45 -69.999 -45c-44.667 0 -67 19 -67 57
c0 5.33301 44.333 121.333 133 348c-47.333 -11.333 -95.666 -17 -144.999 -17c-132.667 0 -241.5 44.333 -326.5 133s-127.5 200 -127.5 334c0 138 46.5 255.667 139.5 353s208.167 146 345.5 146c133.333 0 241 -46.333 323 -139
c77.333 -87.333 116 -198.666 116 -333.999zM782.997 852.001c0 70 -16.333 132 -49 186c-38.667 63.333 -91 95 -157 95c-69.333 0 -130 -27.5 -182 -82.5s-78 -117.833 -78 -188.5c0 -61.333 21.167 -114.833 63.5 -160.5s93.5 -68.5 153.5 -68.5
c33.333 0 73.333 9 120 27l114 45c10 54.667 15 103.667 15 147z" />
    <glyph glyph-name="colon" unicode=":" horiz-adv-x="512" 
d="M341 577c0 -30 -12.501 -54.334 -37.501 -73.001s-52.833 -28 -83.5 -28c-24 0 -45 8.83301 -63 26.5s-27 37.834 -27 60.501c0 28.667 11.333 53.167 34 73.5s48.334 30.5 77.001 30.5c27.333 0 50.833 -8.5 70.5 -25.5s29.5 -38.5 29.5 -64.5zM330.999 103.999
c0 -24.667 -8.83203 -47.667 -26.499 -69s-38.834 -32 -63.501 -32c-54.667 0 -82 33 -82 99c0 22 8 41 24 57s34.667 24 56 24c24 0 45.333 -7.5 64 -22.5s28 -33.833 28 -56.5z" />
    <glyph glyph-name="semicolon" unicode=";" horiz-adv-x="480" 
d="M358 573c0 -24.667 -8.83301 -45.5 -26.5 -62.5s-39.5 -25.5 -65.5 -25.5c-58 0 -87 31.333 -87 94c0 20 7.66699 37.667 23 53s33.333 23 54 23c26 0 49.5 -7.33301 70.5 -22s31.5 -34.667 31.5 -60zM348 75c0 -16 -4.99902 -34.333 -14.999 -55
c-10.667 -15.333 -19.834 -31.666 -27.501 -48.999l-34.5 -79c-19.333 -42.667 -47 -64 -83 -64c-24 0 -44.833 8.5 -62.5 25.5s-26.5 37.5 -26.5 61.5c0 3.33301 13.667 44.666 41 123.999l17.5 60.5c6.33301 21 16.5 37.167 30.5 48.5c20 17.333 42.667 26 68 26
c26 0 47.833 -10 65.5 -30s26.5 -43 26.5 -69z" />
    <glyph glyph-name="less" unicode="&#x3c;" horiz-adv-x="911" 
d="M713 775c0 -18 -12.998 -35.667 -38.998 -53c-48 -30.667 -112.667 -61 -194 -91c-124 -45.333 -191.333 -70.333 -202 -75l237 -107c114 -60.667 171 -113 171 -157c0 -22 -8.16699 -41.167 -24.5 -57.5s-35.5 -24.5 -57.5 -24.5c-24.667 0 -113.334 42 -266.001 126
c-148 82 -235.333 135.5 -262 160.5s-40 48.5 -40 70.5c0 21.333 13 41 39 59c41.333 30 96.666 57.333 165.999 82l174 60c150 56 224 84 222 84c20 0 37.667 -7.66699 53 -23s23 -33.333 23 -54z" />
    <glyph glyph-name="equal" unicode="=" horiz-adv-x="1143" 
d="M903 748c0 -51.333 -42.666 -77.001 -127.999 -77.001c-101.333 0 -221.333 4 -360 12c-28.667 0.666992 -71.334 3.33398 -128.001 8.00098c-49.333 8 -74 32.667 -74 74c0 52 39.333 78 118 78h227c120.667 0 211.667 -6.33301 273 -19c48 -10 72 -35.333 72 -76z
M923.001 410.999c0 -29.333 -18.667 -48.999 -56 -58.999c-68 -18.667 -171.667 -28 -311 -28h-206c-72.667 0 -109 28 -109 84c0 45.333 26.667 72.666 80 81.999c76 12.667 189.667 19 341 19h91c113.333 0 170 -32.667 170 -98z" />
    <glyph glyph-name="greater" unicode="&#x3e;" horiz-adv-x="910" 
d="M870 570c0 -22.667 -12.665 -46.167 -37.998 -70.5s-112.666 -77.5 -261.999 -159.5c-152.667 -83.333 -241.334 -125 -266.001 -125c-22 0 -41.5 8 -58.5 24s-25.5 34.667 -25.5 56c0 44.667 57 97.667 171 159l237 107c-9.33301 4 -77 28.667 -203 74
c-82 29.333 -146.333 60 -193 92c-24 16 -36 33.667 -36 53c0 20.667 7.66699 38.667 23 54s32.666 23 51.999 23c9.33301 0 44.666 -12.667 105.999 -38l116 -48l176 -59c75.333 -26.667 130 -53 164 -79c24.667 -19.333 37 -40.333 37 -63z" />
    <glyph glyph-name="question" unicode="?" horiz-adv-x="990" 
d="M932 848c0 -93.333 -33.834 -175.499 -101.501 -246.499s-147.5 -106.5 -239.5 -106.5c-27.333 0 -61 5.66699 -101 17c-53.333 16 -85.666 25 -96.999 27v-12c0 -8.66699 1 -21.834 3 -39.501s3 -31.167 3 -40.5c0 -21.333 -8.5 -40 -25.5 -56s-36.167 -24 -57.5 -24
c-54.667 0 -82 57.333 -82 172c0 114 64.333 171 193 171c19.333 0 48.333 -1.16699 87 -3.5s67.667 -3.5 87 -3.5c32 0 57.667 13.667 77 41c15.333 24 23 53 23 87c0 66 -30.667 129.667 -92 191s-125 92 -191 92c-24 0 -52.667 -21.5 -86 -64.5s-70 -64.5 -110 -64.5
c-70.667 0 -106 37 -106 111c0 72.667 34.667 134.667 104 186c64 46.667 134 70 210 70c122 0 236.167 -53.5 342.5 -160.5s159.5 -221.5 159.5 -343.5zM479.999 116.001c0 -27.333 -10.332 -51.165 -30.999 -71.498s-44.667 -30.5 -72 -30.5
c-28 0 -50.667 10.167 -68 30.5s-26 45.166 -26 74.499c0 25.333 9.16699 47.166 27.5 65.499s39.833 27.5 64.5 27.5c27.333 0 51.666 -9.5 72.999 -28.5s32 -41.5 32 -67.5z" />
    <glyph glyph-name="at" unicode="@" horiz-adv-x="1592" 
d="M1451 645c0 -240 -70.666 -388.996 -211.999 -446.996c-32.667 -14 -66.334 -21 -101.001 -21c-62.667 0 -115.334 19.667 -158.001 59s-70 90.333 -82 153c-58 -48 -119.667 -72 -185 -72c-74 0 -133.667 31.333 -179 94c-40 57.333 -60 124.666 -60 201.999
c0 122.667 49.667 227.667 149 315c77.333 68.667 157 103 239 103c74 0 132 -26.333 174 -79c12.667 -16 19 -30.667 19 -44c0 -17.333 -6.83301 -32.5 -20.5 -45.5s-29.167 -19.5 -46.5 -19.5c-12.667 0 -29.667 6.83301 -51 20.5s-41.333 20.5 -60 20.5
c-56.667 0 -110 -29.833 -160 -89.5s-75 -118.5 -75 -176.5c0 -30 6.66699 -58.667 20 -86c17.333 -31.333 39.666 -47 66.999 -47c32 0 70.667 25.333 116 76c40 46 65.667 87 77 123c6.66699 26.667 14.834 54.5 24.501 83.5s28.167 43.5 55.5 43.5c44 0 66 -24 66 -72
c0 -56.667 -13 -114.667 -39 -174v-15c0 -140 29.667 -210 89 -210c48 0 83.333 33 106 99c16 46.667 24 100.667 24 162c0 202.667 -58.667 354 -176 454c-60.667 51.333 -125.667 77 -195 77c-128.667 0 -248 -66 -358 -198c-106 -128 -159 -257.333 -159 -388
c0 -78.667 23.333 -147 70 -205c17.333 -21.333 61 -61 131 -119c46.667 -38.667 70 -73.334 70 -104.001c0 -24 -7.66699 -45.167 -23 -63.5s-34.666 -27.5 -57.999 -27.5c-9.33301 0 -19 1.66699 -29 5c-120 38.667 -211.833 104.167 -275.5 196.5
s-95.5 202.166 -95.5 329.499c0 138 35.667 266.167 107 384.5s157.333 213.833 258 286.5c116 84 236.667 126 362 126c120.667 0 230.667 -41.333 330 -124c92 -78 159 -176.667 201 -296c28.667 -80.667 43 -177.334 43 -290.001z" />
    <glyph glyph-name="A" unicode="A" horiz-adv-x="1096" 
d="M1039 94c0 -19.333 -7.67383 -35.833 -23.0068 -49.5s-33 -20.5 -53 -20.5c-30 0 -54.667 17.667 -74 53l-61 162c-59.333 -6 -122.666 -9 -189.999 -9c-50 0 -115.333 2 -196 6c-104.667 3.33301 -170 5.33301 -196 6c-10.667 -42 -30.667 -102.333 -60 -181
c-17.333 -30.667 -37.666 -46 -60.999 -46c-17.333 0 -33.166 6 -47.499 18s-21.5 26.667 -21.5 44c0 6.66699 0.666992 13.334 2 20.001c27.333 173.333 71 384 131 632c76.667 316 139.334 508.333 188.001 577c25.333 34 57.333 51 96 51c35.333 0 66.333 -10.5 93 -31.5
s54.334 -68.5 83.001 -142.5l58 -164c56.667 -133.333 137.334 -336 242.001 -608c20.667 -22.667 29.334 -50.334 26.001 -83.001c42.667 -127.333 64 -205.333 64 -234zM731.993 449l-251 532c-29.333 -70 -60 -158.667 -92 -266l-78 -271c156.667 5.33301 259 8 307 8
c35.333 0 73.333 -1 114 -3z" />
    <glyph glyph-name="B" unicode="B" horiz-adv-x="1140" 
d="M1101 1075c0 -160 -117.669 -284 -353.002 -372c60 -21.333 108.833 -56.166 146.5 -104.499s56.5 -103.833 56.5 -166.5c0 -128.667 -73 -235.667 -219 -321c-125.333 -74 -257.333 -111 -396 -111c-47.333 0 -77 13.667 -89 41c-39.333 -2 -63.666 32.667 -72.999 104
c-2 17.333 -3 67.333 -3 150c0 88 -7.16699 218.167 -21.5 390.5s-22.166 300.5 -23.499 384.5c-48.667 17.333 -73 53.666 -73 108.999c0 80.667 80.333 137 241 169c92.667 19.333 205 29 337 29c197.333 0 332.333 -43 405 -129c43.333 -51.333 65 -109 65 -173z
M885.998 1050c0 36 -30.6689 63.335 -92.002 82.002c-43.333 12 -90.666 18 -141.999 18c-67.333 0 -165.666 -14.667 -294.999 -44c2 -17.333 3 -34.333 3 -51c0 -26.667 -1.16699 -65.834 -3.5 -117.501s-3.5 -90.5 -3.5 -116.5v-44l304 104
c152.667 61.333 229 117.666 229 168.999zM764.996 428.002c0 86.667 -138.333 135.001 -415 145.001l-14 -428c99.333 27.333 185.333 60.333 258 99c114 59.333 171 120.666 171 183.999z" />
    <glyph glyph-name="C" unicode="C" horiz-adv-x="1082" 
d="M1034 1019c0 -56 -11.335 -107.665 -34.002 -154.998c-27.333 -59.333 -66 -89 -116 -89c-29.333 0 -54.833 11.667 -76.5 35s-32.5 49.666 -32.5 78.999c0 16 4 39.667 12 71s12 55 12 71c0 67.333 -40.333 101 -121 101c-118.667 0 -219 -59.333 -301 -178
c-74 -106.667 -111 -221.667 -111 -345c0 -102 32 -196.333 96 -283c69.333 -95.333 153.333 -143 252 -143c28.667 0 66.334 11.333 113.001 34s79 34 97 34c22 0 41 -8.83301 57 -26.5s24 -37.167 24 -58.5c0 -43.333 -41.667 -82.333 -125 -117
c-69.333 -26.667 -130.333 -40 -183 -40c-155.333 0 -287.666 68 -396.999 204c-104 127.333 -156 270.666 -156 429.999c0 180 58 343 174 489c124 155.333 273.667 233 449 233c108 0 195.667 -30 263 -90c69.333 -64 104 -149.333 104 -256z" />
    <glyph glyph-name="D" unicode="D" horiz-adv-x="1232" 
d="M1198 812c0 -204.667 -105.333 -384.332 -316 -538.999c-153.333 -112.667 -352.333 -205.334 -597 -278.001c-8 -2.66699 -14.667 -4 -20 -4c-20.667 0 -38.667 8.33301 -54 25s-23 35.667 -23 57c0 42.667 21.667 67.667 65 75c-12.667 164 -24.667 328 -36 492
c-16 193.333 -33.667 357.333 -53 492c-28.667 0.666992 -54 10.5 -76 29.5s-33 42.5 -33 70.5c0 91.333 68.667 137 206 137c230 0 429.667 -37 599 -111c225.333 -98 338 -246.667 338 -446zM980 775.002c0 117.333 -70.666 207 -211.999 269
c-98.667 43.333 -220.334 69.666 -365.001 78.999c8 -114 12 -218.667 12 -314c0 -69.333 -2.33301 -172.333 -7 -309c-6 -143.333 -9 -245.666 -9 -306.999c214 70.667 370 168 468 292c75.333 95.333 113 192 113 290z" />
    <glyph glyph-name="E" unicode="E" horiz-adv-x="949" 
d="M884 1260c0 -54.667 -33.668 -89.6621 -101.001 -104.995c-35.333 -8 -86 -12.333 -152 -13c-71.333 -2.66699 -121.666 -6 -150.999 -10c-22 -4 -66 -13.667 -132 -29c6.66699 -42.667 10 -85.334 10 -128.001c0 -60.667 -5 -131.334 -15 -212.001
c56.667 13.333 127.667 20 213 20c86.667 0 148.667 -6.66699 186 -20c46.667 -17.333 70 -47 70 -89c0 -26 -8.5 -49.833 -25.5 -71.5s-37.833 -32.5 -62.5 -32.5c-17.333 0 -42.5 1.16699 -75.5 3.5s-58.167 3.5 -75.5 3.5c-69.333 0 -155 -4 -257 -12
c-11.333 -78.667 -25 -197 -41 -355c209.333 13.333 372 20 488 20c46.667 0 70 -24.333 70 -73c0 -32.667 -17.667 -57.667 -53 -75c-26 -12.667 -113.667 -25.334 -263 -38.001c-80.667 -6.66699 -187 -21.334 -319 -44.001c-14 -2 -23 -3 -27 -3
c-70.667 0 -106 63 -106 189c0 83.333 9.33301 208 28 374s28 290.667 28 374c0 26 -2.5 64.833 -7.5 116.5s-7.5 90.5 -7.5 116.5c0 33.333 11 62.166 33 86.499s49.667 34.833 83 31.5c106.667 51.333 276.667 77 510 77c101.333 0 152 -34 152 -102z" />
    <glyph glyph-name="F" unicode="F" horiz-adv-x="954" 
d="M947 1224c0 -80.667 -80.668 -120.998 -242.001 -120.998c-67.333 0 -201.666 5 -402.999 15c-3.33301 -76 -7.33301 -190.333 -12 -343c64 13.333 156.333 20 277 20c52 0 89 -4.33301 111 -13c34.667 -15.333 52 -45.666 52 -90.999
c0 -53.333 -33.333 -88.666 -100 -105.999c-74 -18 -189 -26 -345 -24c-6 -166 -9 -250.667 -9 -254c-6.66699 -113.333 -20.667 -193 -42 -239c-16 -34 -38.667 -51 -68 -51c-49.333 0 -74 22.667 -74 68c0 38 2.66699 94.833 8 170.5s8 132.167 8 169.5
c0 227.333 -8 419.666 -24 576.999c-10.667 101.333 -16 158 -16 170c0 6 0.666992 14.167 2 24.5s2 18.166 2 23.499c0 3.33301 -0.666992 8.16602 -2 14.499s-2 11.166 -2 14.499c0 34 10.833 61.333 32.5 82s49.5 31 83.5 31c41.333 0 103 -2.83301 185 -8.5
s143.333 -8.5 184 -8.5c16 0 39.667 0.5 71 1.5s55 1.5 71 1.5c168 0 252 -41.333 252 -124z" />
    <glyph glyph-name="G" unicode="G" 
d="M1118 973c0 -162 -48.9971 -242.997 -146.997 -242.997c-67.333 0 -101 43.333 -101 130c0 14.667 1 37.5 3 68.5s3 53.833 3 68.5c0 43.333 -6 74.666 -18 93.999c-15.333 24.667 -44.333 37 -87 37c-166 0 -314.333 -128.667 -445 -386
c-59.333 -116 -89 -217.667 -89 -305c0 -93.333 40.333 -164.333 121 -213c67.333 -41.333 150.666 -62 249.999 -62c60 0 120.667 7 182 21c-3.33301 29.333 -5 59.333 -5 90c0 19.333 1 38.666 3 57.999c-52 -2 -87.667 -3 -107 -3c-22.667 0 -41.667 8.16699 -57 24.5
s-23 35.833 -23 58.5c0 65.333 74 98 222 98c112.667 0 184.667 -6.33301 216 -19c41.333 -16 62 -42.333 62 -79c0 -28 -9.16699 -50.833 -27.5 -68.5s-41.5 -24.167 -69.5 -19.5c-10.667 -65.333 -16 -116.666 -16 -153.999c0 -12.667 1.16699 -31.5 3.5 -56.5
s3.5 -43.833 3.5 -56.5c0 -26 -8.33301 -48.667 -25 -68s-38 -29 -64 -29c-51.333 0 -81 23.333 -89 70c-88.667 -25.333 -178.334 -38 -269.001 -38c-148 0 -268 39.333 -360 118c-96.667 83.333 -145 197.666 -145 342.999c0 193.333 70 389 210 587
c151.333 215.333 319.666 323 504.999 323c118 0 208.333 -36 271 -108c59.333 -66.667 89 -160.334 89 -281.001z" />
    <glyph glyph-name="H" unicode="H" horiz-adv-x="1161" 
d="M1097 1249c0 -8 -1.6709 -20.3281 -5.00391 -36.9951c-37.333 -193.333 -56 -333.333 -56 -420c0 -70.667 3.33301 -176 10 -316s10 -245.333 10 -316c0 -108.667 -27.667 -163 -83 -163c-35.333 0 -57.666 23.667 -66.999 71c-2 9.33301 -4.33301 48.666 -7 117.999
c-0.666992 42 -9.66699 120 -27 234c-172 -27.333 -304.667 -41 -398 -41c-71.333 0 -136.666 5.66699 -195.999 17c0 -200 -8.33301 -320 -25 -360c-11.333 -27.333 -28.666 -41 -51.999 -41c-31.333 0 -53.333 19.333 -66 58c-11.333 34 -17 117 -17 249
c0 91.333 -8.5 227.666 -25.5 408.999s-25.5 317.666 -25.5 408.999c0 78 5.66699 135.333 17 172c16.667 54.667 49 82 97 82c32.667 0 62.5 -11.333 89.5 -34s40.5 -50.667 40.5 -84c0 -48.667 -6.33301 -122.834 -19 -222.501s-19 -174.5 -19 -224.5
c0 -8 1.66699 -79.667 5 -215c41.333 -8 87 -12 137 -12c40.667 0 112.334 5 215.001 15c92 8 164.333 11 217 9c-18.667 132 -28 243.333 -28 334c0 158.667 15 269.667 45 333c26 56 63.333 84 112 84c30.667 0 58.5 -10.333 83.5 -31s37.5 -46.334 37.5 -77.001z" />
    <glyph glyph-name="I" unicode="I" horiz-adv-x="700" 
d="M652 1277c0 -62.667 -64.333 -96.3311 -193 -100.998c0 -19.333 -0.833008 -50.333 -2.5 -93s-2.5 -75 -2.5 -97v-206c0 -52.667 -2.5 -130.334 -7.5 -233.001s-7.5 -180.334 -7.5 -233.001c0 -32 2 -80.333 6 -145c104 -3.33301 156 -32.333 156 -87
c0 -48.667 -37 -73 -111 -73h-306c-18 0 -32.667 7.66699 -44 23s-17 32 -17 50c0 51.333 57 79.333 171 84l-69 820c-6.66699 91.333 -9.33398 153 -8.00098 185c-17.333 -1.33301 -32.666 -2 -45.999 -2c-88 0 -132 30.333 -132 91c0 44 29.667 73.333 89 88
s139 22 239 22h123c108 0 162 -31 162 -93z" />
    <glyph glyph-name="J" unicode="J" horiz-adv-x="1034" 
d="M981 707c0 -256 -68 -446 -204 -570c-112 -101.333 -251 -152 -417 -152c-77.333 0 -145 16.333 -203 49c-69.333 40 -104 95.667 -104 167c0 48 22 113.667 66 197c48 89.333 93 134 135 134c20.667 0 38.667 -8.16699 54 -24.5s23 -34.833 23 -55.5
c0 -21.333 -20.667 -55.333 -62 -102s-62 -86.667 -62 -120c0 -46.667 42 -70 126 -70c159.333 0 271.333 43.333 336 130c54.667 72.667 82 190.334 82 353.001c0 143.333 -14.333 280.666 -43 411.999c-19.333 88.667 -29 146.667 -29 174c0 35.333 11.167 67.5 33.5 96.5
s50.5 43.5 84.5 43.5c25.333 0 49.333 -11 72 -33c28 -27.333 49 -76 63 -146c2 -12 8.33301 -68 19 -168c20 -190 30 -295 30 -315z" />
    <glyph glyph-name="K" unicode="K" horiz-adv-x="1063" 
d="M1009 1261c0 -14.667 -6.33398 -32.332 -19.001 -52.999c-19.333 -30.667 -79 -83 -179 -157c-112.667 -82 -231 -190 -355 -324c140 -148 235.333 -252 286 -312c138 -162.667 207 -273.667 207 -333c0 -22.667 -9.66699 -41.167 -29 -55.5s-40.333 -21.5 -63 -21.5
c-40 0 -95.333 44 -166 132l-138 186c-9.33301 11.333 -86 96.666 -230 255.999c-16 -14 -32 -18.667 -48 -14c-10.667 -246.667 -16 -379.667 -16 -399c0 -112.667 -28.333 -169 -85 -169c-36.667 0 -58.667 18 -66 54c-2.66699 9.33301 -4 41.666 -4 96.999
c0 107.333 -6 267 -18 479s-18 371.667 -18 479c0 175.333 47.333 263 142 263c69.333 0 104 -36.333 104 -109c0 -62 -4 -143.667 -12 -245c-10 -124.667 -16.333 -206 -19 -244l406 437l74 81c29.333 28 59 47.667 89 59c14.667 6 29.334 9 44.001 9
c28.667 0 54.667 -9.16699 78 -27.5s35 -41.166 35 -68.499z" />
    <glyph glyph-name="L" unicode="L" horiz-adv-x="862" 
d="M858 145c0 -32.667 -21.3311 -57.001 -63.998 -73.001c-28.667 -10.667 -100 -18.334 -214 -23.001c-151.333 -5.33301 -280.333 -20.666 -387 -45.999c-10.667 -2 -16.334 -3 -17.001 -3c-24 0 -45.333 8.16699 -64 24.5s-28 36.5 -28 60.5c0 66 1 164.833 3 296.5
s3 230.5 3 296.5s-3.33301 164.833 -10 296.5s-10 230.5 -10 296.5c0 30 10.5 54 31.5 72s46.833 27 77.5 27c91.333 0 137 -74.333 137 -223c0 -227.333 -17 -548.666 -51 -963.999c50 4 172 10 366 18c83.333 4 137.666 6 162.999 6c42.667 0 64 -20.667 64 -62z" />
    <glyph glyph-name="M" unicode="M" horiz-adv-x="1348" 
d="M1282 1162c0 -13.333 -4.00098 -68 -12.001 -164c-3.33301 -66 -9 -164.333 -17 -295c-1.33301 -16 -8.66602 -85.333 -21.999 -208c-9.33301 -84 -14 -153.333 -14 -208c0 -22.667 0.833008 -56.334 2.5 -101.001s2.5 -78.334 2.5 -101.001
c0 -48.667 -24.333 -73 -73 -73c-46 0 -74 29 -84 87c-3.33301 16 -5 62.667 -5 140c0 62.667 -2 156.834 -6 282.501s-6 218.5 -6 278.5l-207 -513c-14.667 -44.667 -42.334 -109 -83.001 -193c4.66699 -6.66699 7 -14 7 -22c0 -34.667 -17.667 -52 -53 -52
c-73.333 0 -206.666 260 -399.999 780l-61 -319c-20.667 -124 -31 -232 -31 -324c0 -9.33301 0.666992 -23.666 2 -42.999s2 -33.333 2 -42c0 -50 -24.667 -75 -74 -75c-35.333 0 -58.666 14 -69.999 42c-6.66699 16 -10 45 -10 87c0 68.667 6.33301 158.667 19 270
c14.667 136.667 23 226.667 25 270c3.33301 58.667 5 132 5 220c0 43.333 -3.33301 107.666 -10 192.999s-10 149.333 -10 192c0 28.667 12 52.334 36 71.001s50.667 28 80 28c24 0 50.667 -9.66699 80 -29c60.667 -39.333 116 -137.666 166 -294.999
c45.333 -164 119.666 -407.333 222.999 -730l118 449c9.33301 31.333 43 130.333 101 297c27.333 77.333 45.333 126.666 54 147.999c27.333 64 54.5 105.833 81.5 125.5s51.833 29.5 74.5 29.5c112.667 0 169 -67.667 169 -203z" />
    <glyph glyph-name="N" unicode="N" horiz-adv-x="1138" 
d="M1070 730c0 -16.667 -0.999023 -74.6689 -2.99902 -174.002c-3.33301 -162.667 -13.666 -277.334 -30.999 -344.001c-36.667 -144.667 -108.334 -217 -215.001 -217c-95.333 0 -184 57 -266 171c-43.333 60 -95.333 159.333 -156 298l-104 248
c-6.66699 -214 -10.667 -328 -12 -342c-8.66699 -161.333 -25 -267 -49 -317c-14.667 -32 -33.667 -48 -57 -48c-18 0 -34.333 6.83301 -49 20.5s-22 29.5 -22 47.5c0 -3.33301 1 0.666992 3 12c11.333 58 17 134.333 17 229s-10.167 236.334 -30.5 425.001
s-30.5 330.334 -30.5 425.001c0 132 42 198 126 198c74 0 131 -45.667 171 -137c6.66699 -13.333 30 -90.666 70 -231.999c36 -128.667 91 -278.334 165 -449.001c96 -219.333 174.667 -346 236 -380c37.333 50 56 143.667 56 281c0 157.333 -16 348 -48 572
c-11.333 80 -17 135.333 -17 166c0 40.667 9.33301 76 28 106c21.333 34.667 50.666 52 87.999 52c82 0 123 -111.333 123 -334c0 -30.667 1.16699 -76.667 3.5 -138s3.5 -107.666 3.5 -138.999z" />
    <glyph glyph-name="O" unicode="O" horiz-adv-x="1193" 
d="M1138 792c0 -201.333 -41.001 -375.333 -123.001 -522c-100.667 -178 -244 -267 -430 -267c-50 0 -101.667 8 -155 24c-119.333 36.667 -212.833 104.5 -280.5 203.5s-101.5 212.167 -101.5 339.5c0 188 59.667 364.333 179 529c130.667 180 286 270 466 270
c124 0 227 -48.333 309 -145c74.667 -88 118.334 -195.667 131.001 -323c3.33301 -32 5 -68.333 5 -109zM975.999 614c0 99.333 -16.001 194.332 -48.001 284.999c-39.333 112 -95 187.667 -167 227c-14.667 8 -27.667 12 -39 12c-17.333 0 -41.833 -4 -73.5 -12
s-56.167 -12 -73.5 -12c-5.33301 0 -11.666 1.33301 -18.999 4c-89.333 -52.667 -162 -130.167 -218 -232.5s-84 -206.5 -84 -312.5c0 -68 11.333 -128.667 34 -182c28.667 -67.333 75.5 -121.666 140.5 -162.999s134.5 -62 208.5 -62c106.667 0 192 50 256 150
c55.333 86 83 185.333 83 298z" />
    <glyph glyph-name="P" unicode="P" horiz-adv-x="1159" 
d="M1142 993c0 -108 -41.667 -208.667 -125 -302c-59.333 -66.667 -176.333 -139.334 -351 -218.001c-70.667 -32 -177.334 -78 -320.001 -138l-25 -250c-45.333 -30.667 -85.666 -46 -120.999 -46c-26.667 0 -40 15.333 -40 46c0 62.667 4.83301 155.834 14.5 279.501
s14.5 216.5 14.5 278.5c0 136.667 -7.66699 292.667 -23 468l-21 -5c-59.333 48.667 -89 93 -89 133c0 40.667 67.333 72.667 202 96c92 14.667 179.667 22 263 22c163.333 0 297 -21 401 -63c146.667 -60.667 220 -161 220 -301zM944 993
c0 65.333 -58 111.668 -174 139.001c-74 18 -159 27 -255 27c-40.667 0 -79.667 -1.33301 -117 -4c0.666992 -21.333 1 -45 1 -71c0 -131.333 -12.333 -329.333 -37 -594c172.667 69.333 263 106.333 271 111c91.333 45.333 166.333 107.666 225 186.999
c57.333 76.667 86 145 86 205z" />
    <glyph glyph-name="Q" unicode="Q" horiz-adv-x="1237" 
d="M1190 623c0 -116 -21.668 -220.666 -65.001 -313.999c-49.333 -104.667 -120 -183.334 -212 -236.001l22 -162c-63.333 -72.667 -116 -109 -158 -109c-22 0 -39 17.333 -51 52s-23 88.334 -33 161.001c-35.333 -8 -71.666 -12 -108.999 -12c-158.667 0 -292 74 -400 222
c-97.333 135.333 -146 285 -146 449c0 169.333 55 323 165 461c117.333 148 258.333 222 423 222c172 0 312 -82 420 -246c96 -144.667 144 -307.334 144 -488.001zM1015 577.001c0 110 -37.332 226 -111.999 348c-84 134 -178 201 -282 201
c-60 0 -124.333 -31.667 -193 -95c-102 -96 -153 -213.667 -153 -353c0 -162 32.667 -283 98 -363s143.666 -120 234.999 -120c13.333 0 27.333 1 42 3c-16 52 -24 97.667 -24 137c0 81.333 33.667 122 101 122c80 0 131.333 -66 154 -198
c89.333 78.667 134 184.667 134 318z" />
    <glyph glyph-name="R" unicode="R" horiz-adv-x="1213" 
d="M1154 896c0 -174 -125.666 -318.002 -376.999 -432.002c4 -12.667 21.333 -75.667 52 -189c20.667 -77.333 44.667 -138.333 72 -183c-32.667 -69.333 -65.667 -104 -99 -104c-24 0 -52.333 34.667 -85 104l-58 138l-89 157
c-95.333 -27.333 -186.333 -44.666 -273 -51.999c-6.66699 -67.333 -11.334 -150.666 -14.001 -249.999c-40.667 -27.333 -78 -41 -112 -41c-28.667 0 -43 23 -43 69c0 100 3.16699 249.5 9.5 448.5s9.5 348.5 9.5 448.5c0 22.667 -1.33301 64.334 -4 125.001
c-54.667 19.333 -82 54.666 -82 105.999c0 82.667 62 124 186 124c31.333 0 84.333 -4 159 -12c217.333 -22.667 377.333 -55.667 480 -99c178.667 -74.667 268 -194 268 -358zM934.001 859.998c0 34 -9.33203 66.332 -27.999 96.999c-8.66699 15.333 -25.667 31.333 -51 48
c-94.667 62.667 -251 100.334 -469 113.001c-2.66699 -83.333 -26 -296 -70 -638c129.333 22.667 253.666 63 372.999 121c163.333 78.667 245 165 245 259z" />
    <glyph glyph-name="S" unicode="S" horiz-adv-x="959" 
d="M911 1120c0 -96.667 -36.335 -145.002 -109.002 -145.002c-71.333 0 -113.333 48.333 -126 145l-4 3l4 -3c-10.667 5.33301 -22.667 8 -36 8c-61.333 0 -133.666 -21.667 -216.999 -65c-95.333 -47.333 -143 -98.333 -143 -153c0 -51.333 47.333 -111.666 142 -180.999
l266 -193c94 -83.333 141 -166.333 141 -249c0 -85.333 -43.667 -156.666 -131 -213.999c-78.667 -50.667 -163 -76 -253 -76c-126 0 -236.333 38.667 -331 116c12.667 94 37.334 141 74.001 141c4.66699 0 13.667 -4 27 -12c78.667 -45.333 151.334 -68 218.001 -68
c36.667 0 75.667 8 117 24c50.667 19.333 76 43.666 76 72.999c0 26.667 -50.667 74 -152 142c-136 92 -229 162 -279 210c-101.333 96.667 -152 192.334 -152 287.001c0 128.667 68 239 204 331c123.333 82.667 252.666 124 387.999 124c74 0 138.5 -22.667 193.5 -68
s82.5 -104.333 82.5 -177z" />
    <glyph glyph-name="T" unicode="T" horiz-adv-x="1036" 
d="M1012 1249c0 -94 -123 -136.001 -369 -126.001c0 -64.667 -5 -146.667 -15 -246l-27 -244c-9.33301 -127.333 -24.333 -318.333 -45 -573c-37.333 -26.667 -70.666 -40 -99.999 -40c-22 0 -33 13.333 -33 40c0 70.667 1.66699 176.5 5 317.5s5 246.833 5 317.5
c0 30.667 -1 77 -3 139s-3 108.333 -3 139c0 54.667 2 104.667 6 150c-76 -1.33301 -190.333 -6.33301 -343 -15c-45.333 58 -68 106.333 -68 145c0 20 15 34.667 45 44c24.667 8 70.667 16 138 24c117.333 14.667 220.666 25.334 309.999 32.001c167.333 14 278 21 332 21
c110 0 165 -41.667 165 -125z" />
    <glyph glyph-name="U" unicode="U" horiz-adv-x="1130" 
d="M1070 893c0 -218.667 -32.332 -407.665 -96.999 -566.998c-88.667 -219.333 -226 -329 -412 -329c-108.667 0 -208 44.667 -298 134c-80 81.333 -135.667 178.666 -167 291.999c-24 85.333 -36 188.333 -36 309c0 41.333 2 102.666 6 183.999s6 142.333 6 183
c0 56 -4 115.333 -12 178c60 47.333 110 71 150 71c21.333 0 37.333 -14.667 48 -44c13.333 -38.667 20 -105.334 20 -200.001c0 -56.667 -1.33301 -141.667 -4 -255s-4 -198.333 -4 -255c0 -143.333 15.667 -244 47 -302c46 -80.667 134.333 -121 265 -121
c109.333 0 184.333 41.333 225 124c30 59.333 45 150 45 272c0 190.667 -5.16699 337.334 -15.5 440.001s-15.5 161.667 -15.5 177c0 46.667 8.66699 86 26 118c21.333 40 53 60 95 60c53.333 0 88.666 -28.333 105.999 -85c8 -27.333 13 -77.666 15 -150.999
c4.66699 -170.667 7 -248.334 7 -233.001z" />
    <glyph glyph-name="V" unicode="V" horiz-adv-x="1133" 
d="M1101 1283c0 -81.333 -158.669 -499.336 -476.002 -1254h-14c-16 0 -32 1 -48 3c-11.333 -10 -23.666 -15 -36.999 -15c-12.667 0 -24.5 10.5 -35.5 31.5s-35.167 88.5 -72.5 202.5c-18 54.667 -70.333 193.334 -157 416.001
c-24.667 68.667 -65.667 169.334 -123 302.001l-71 140c-25.333 54.667 -38 105 -38 151v8c0 27.333 11.333 49.833 34 67.5s47.667 26.5 75 26.5c22.667 0 46 -9.66699 70 -29c36.667 -29.333 82.334 -134 137.001 -314l218 -717c28.667 87.333 61 201.666 97 342.999
c46.667 186.667 76.334 302.334 89.001 347.001c22.667 81.333 41 141 55 179c24.667 72.667 50.667 127.834 78 165.501s58.333 56.5 93 56.5c31.333 0 60.166 -10.667 86.499 -32s39.5 -47.333 39.5 -78z" />
    <glyph glyph-name="W" unicode="W" horiz-adv-x="1642" 
d="M1594 1285c0 -27.333 -17.001 -77.334 -51.001 -150.001c-42 -88.667 -92 -238.334 -150 -449.001c-68.667 -244.667 -113 -450.667 -133 -618c-39.333 -26 -92.333 -39 -159 -39c-19.333 0 -33.666 13.167 -42.999 39.5s-17.333 60.5 -24 102.5
c-10 63.333 -15.667 98 -17 104c-16 78.667 -46.667 177 -92 295c-59.333 156 -94.666 252.667 -105.999 290l-107 -415c-43.333 -161.333 -88.333 -296.666 -135 -405.999c-38.667 -10 -72.334 -15 -101.001 -15c-19.333 0 -39.333 33 -60 99l-34 128
c-53.333 195.333 -138 437.666 -254 726.999c-56 138.667 -84 232.667 -84 282c0 29.333 9.16699 53.333 27.5 72s42.166 28 71.499 28c33.333 0 64.833 -17 94.5 -51s64.167 -136.333 103.5 -307l176 -724c25.333 103.333 50.333 233 75 389l65 391
c11.333 64.667 21 110.334 29 137.001c17.333 52 41 92.833 71 122.5s61.667 44.5 95 44.5c32.667 0 61 -16.667 85 -50c16 -22.667 31.333 -73.667 46 -153c8 -57.333 16.667 -113.666 26 -168.999c12 -74 35.667 -177 71 -309c38 -142 63 -245 75 -309
c28.667 222 73.334 456.333 134.001 703c18 72.667 32.667 125.667 44 159c24.667 71.333 51 115.833 79 133.5s54 26.5 78 26.5c29.333 0 54 -10.5 74 -31.5s30 -46.833 30 -77.5z" />
    <glyph glyph-name="X" unicode="X" horiz-adv-x="1079" 
d="M1017 1239c0 -90 -41.001 -204.998 -123.001 -344.998c-60 -103.333 -132 -205 -216 -305l288 -492c-21.333 -48.667 -44 -73 -68 -73c-8 0 -16.667 5.66699 -26 17c-2 3.33301 -34.333 48.666 -97 135.999l-217 280l-198 -204c-75.333 -80 -136.333 -152.333 -183 -217
h-8c-77.333 0 -116 14.667 -116 44c0 25.333 127.333 207.333 382 546c-206 305.333 -309 512.666 -309 621.999c0 32.667 10.5 62.334 31.5 89.001s47.5 40 79.5 40c48 0 91.333 -45.333 130 -136l70 -198c20.667 -56 61 -138.667 121 -248c116 162 186 295.333 210 400
c6 28 12.333 55.667 19 83c8.66699 34 21 59 37 75c22 22 46 33 72 33c38.667 0 69.334 -15.333 92.001 -46c19.333 -26.667 29 -60.334 29 -101.001z" />
    <glyph glyph-name="Y" unicode="Y" horiz-adv-x="1106" 
d="M1087 1260c0 -34.667 -16.3301 -66.665 -48.9971 -95.998l-87 -70c-36.667 -32 -69.667 -71.667 -99 -119c-66 -106 -133.667 -261 -203 -465c-78 -229.333 -139 -387.333 -183 -474h-12c-70.667 0 -106 14.667 -106 44c0 4.66699 2.33301 12.667 7 24
c58 146 105.333 295.667 142 449c-76.667 83.333 -169.667 198.333 -279 345c-58.667 79.333 -97.667 135.666 -117 168.999c-42 71.333 -63 135.666 -63 192.999c0 28 9.66699 51.667 29 71s43 29 71 29c22.667 0 46.667 -10.333 72 -31
c21.333 -18 56.666 -73.667 105.999 -167c44 -84 125.667 -204.667 245 -362c41.333 141.333 92.666 258 153.999 350c91.333 138 180.666 207 267.999 207c69.333 0 104 -32.333 104 -97z" />
    <glyph glyph-name="Z" unicode="Z" horiz-adv-x="1046" 
d="M1009 1236c0 -12.667 -6.33301 -31.667 -19 -57c-18 -35.333 -84.667 -144.333 -200 -327l-432 -686c32 0 90.667 1 176 3c74 1.33301 132.667 2 176 2c91.333 0 137 -25.667 137 -77c0 -34 -23 -57.333 -69 -70c-28 -8 -102.333 -12 -223 -12
c-38.667 0 -96.5 -1.5 -173.5 -4.5s-134.833 -4.5 -173.5 -4.5c-24 0 -43.833 8.33301 -59.5 25s-23.5 37 -23.5 61c0 26 84.667 192.667 254 500l310 546c-128 6.66699 -316 10.667 -564 12c-43.333 64.667 -65 119.667 -65 165c0 41.333 34.667 62 104 62
s172.5 -1.5 309.5 -4.5s240.167 -4.5 309.5 -4.5c150.667 0 226 -43 226 -129z" />
    <glyph glyph-name="bracketleft" unicode="[" horiz-adv-x="756" 
d="M642 1241c0 -76.667 -58.6729 -115 -176.006 -115c-16 0 -31.333 0.666992 -46 2l-12 -206c-17.333 -318 -26 -564.333 -26 -739v-248c25.333 2.66699 50 4 74 4c100 0 150 -31 150 -93c0 -42 -20.667 -69.667 -62 -83c-23.333 -8 -56.666 -13.333 -99.999 -16
c-51.333 -4 -84.166 -7.16699 -98.499 -9.5s-22.5 -3.5 -24.5 -3.5c-30 0 -54.667 12.167 -74 36.5s-26.666 51.5 -21.999 81.5c-4.66699 16.667 -7 40.334 -7 71.001v84c1.33301 36 2 63.333 2 82c0 187.333 -9 476.666 -27 867.999
c-1.33301 14 -3.66602 46.667 -6.99902 98c-3.33301 39.333 -5 71.666 -5 96.999c0 27.333 2.66699 56.333 8 87c-0.666992 6.66699 -1 14 -1 22c0 32 11.333 58.167 34 78.5s50.334 30.5 83.001 30.5c18.667 0 43.334 -1.66699 74.001 -5l73 -8
c62.667 -3.33301 105 -9.66602 127 -18.999c42 -16 63 -48.333 63 -97z" />
    <glyph glyph-name="backslash" unicode="\" horiz-adv-x="577" 
d="M527 -210c0 -40.667 -22 -61.001 -66 -61.001c-30 0 -54 16.333 -72 49c-12.667 22.667 -30.834 94.334 -54.501 215.001l-110.5 539c-8 33.333 -72 280.333 -192 741c-2 9.33301 -3 16.333 -3 21c0 18 7.33301 33.5 22 46.5s31.667 19.5 51 19.5
c26.667 0 48.334 -16 65.001 -48c12.667 -23.333 35.667 -97 69 -221l141 -550l97 -369c35.333 -143.333 53 -268.333 53 -375v-7z" />
    <glyph glyph-name="bracketright" unicode="]" horiz-adv-x="758" 
d="M573 1140c0 -28.667 -2.00098 -65.667 -6.00098 -111l-9 -109l-17 -338c-4.66699 -90 -7 -302.333 -7 -637c0 -42 -2.66699 -73.667 -8 -95c2 -6 3 -11.333 3 -16c0 -27.333 -9.33301 -51.5 -28 -72.5s-41.334 -31.5 -68.001 -31.5c-2 0 -9.33301 1.33301 -22 4
c-54.667 5.33301 -108.667 10.333 -162 15c-69.333 12.667 -104 44 -104 94c0 61.333 51.667 92 155 92c23.333 0 47.333 -1 72 -3v234c0 124 -5 284.333 -15 481c-12.667 258 -20 417.667 -22 479c-39.333 -2 -64.666 -3 -75.999 -3c-39.333 0 -72.666 9 -99.999 27
c-33.333 22 -50 51.667 -50 89s16.667 67.333 50 90c19.333 14 45 22 77 24l80 4l66 7c28.667 3.33301 51 5 67 5c32 0 59.667 -10.5 83 -31.5s35 -47.5 35 -79.5c0 -14 1 -33.667 3 -59s3 -45 3 -59z" />
    <glyph glyph-name="asciicircum" unicode="^" horiz-adv-x="1005" 
d="M876 561c0 -19.333 -7.50293 -35.998 -22.5029 -49.998s-32.167 -21 -51.5 -21c-28.667 0 -51.334 17 -68.001 51c-6.66699 13.333 -21.667 53 -45 119c-19.333 57.333 -51.666 141.666 -96.999 252.999c-8.66699 19.333 -33.667 65 -75 137l-189 -364
c-19.333 -38.667 -52 -93.334 -98 -164.001c-18 -21.333 -37.333 -32 -58 -32c-20 0 -38.333 7 -55 21s-25 30.667 -25 50c0 9.33301 4 22.666 12 39.999c42 80.667 100 203.334 174 368.001l63 192c30.667 82.667 62 138.667 94 168c22.667 22 45.334 33 68.001 33
c38.667 0 72.334 -10.5 101.001 -31.5s60.334 -81 95.001 -180l105 -298.5c48 -144.667 72 -241.667 72 -291z" />
    <glyph glyph-name="underscore" unicode="_" horiz-adv-x="1058" 
d="M831 0h-609v137h609v-137z" />
    <glyph glyph-name="grave" unicode="`" horiz-adv-x="459" 
d="M353 1527c0 -20 -7.99902 -37.668 -23.999 -53.001s-34 -23 -54 -23c-22.667 0 -41.667 11.333 -57 34c-12 18 -38.167 71.167 -78.5 159.5s-60.5 138.5 -60.5 150.5c0 22 8.5 41.5 25.5 58.5s36.167 25.5 57.5 25.5c32 0 58.667 -20 80 -60
c19.333 -35.333 41.666 -83.666 66.999 -144.999c29.333 -74 44 -123 44 -147z" />
    <glyph glyph-name="a" unicode="a" horiz-adv-x="1097" 
d="M1041 94c0 -19.333 -7.66797 -35.833 -23.001 -49.5s-33.333 -20.5 -54 -20.5c-29.333 0 -53.666 17.667 -72.999 53l-62 162c-58.667 -6 -121.667 -9 -189 -9c-50 0 -115.333 2 -196 6c-104.667 3.33301 -170.334 5.33301 -197.001 6c-10 -42 -29.667 -102.333 -59 -181
c-17.333 -30.667 -38 -46 -62 -46c-16.667 0 -32.167 6 -46.5 18s-21.5 26.667 -21.5 44c0 6.66699 0.666992 13.334 2 20.001c27.333 173.333 71 384 131 632c76 316 138.667 508.333 188 577c24.667 34 56.334 51 95.001 51c35.333 0 66.5 -10.5 93.5 -31.5
s54.5 -68.5 82.5 -142.5l58 -164c57.333 -133.333 138.333 -336 243 -608c20 -22.667 28.333 -50.334 25 -83.001c43.333 -127.333 65 -205.333 65 -234zM733.999 449l-251 532c-29.333 -70 -60 -158.667 -92 -266l-79 -271c157.333 5.33301 260 8 308 8
c34.667 0 72.667 -1 114 -3z" />
    <glyph glyph-name="b" unicode="b" horiz-adv-x="1140" 
d="M1101 1075c0 -160 -117.669 -284 -353.002 -372c60 -21.333 108.833 -56.166 146.5 -104.499s56.5 -103.833 56.5 -166.5c0 -128.667 -73 -235.667 -219 -321c-125.333 -74 -257.333 -111 -396 -111c-47.333 0 -77 13.667 -89 41c-39.333 -2 -63.666 32.667 -72.999 104
c-2 17.333 -3 67.333 -3 150c0 88 -7.16699 218.167 -21.5 390.5s-22.166 300.5 -23.499 384.5c-48.667 17.333 -73 53.666 -73 108.999c0 80.667 80.333 137 241 169c92.667 19.333 205 29 337 29c197.333 0 332.333 -43 405 -129c43.333 -51.333 65 -109 65 -173z
M885.998 1050c0 36 -30.6689 63.335 -92.002 82.002c-43.333 12 -90.666 18 -141.999 18c-67.333 0 -165.666 -14.667 -294.999 -44c2 -17.333 3 -34.333 3 -51c0 -26.667 -1.16699 -65.834 -3.5 -117.501s-3.5 -90.5 -3.5 -116.5v-44l304 104
c152.667 61.333 229 117.666 229 168.999zM764.996 428.002c0 86.667 -138.333 135.001 -415 145.001l-14 -428c99.333 27.333 185.333 60.333 258 99c114 59.333 171 120.666 171 183.999z" />
    <glyph glyph-name="c" unicode="c" horiz-adv-x="1082" 
d="M1034 1019c0 -56 -11.335 -107.665 -34.002 -154.998c-27.333 -59.333 -66 -89 -116 -89c-29.333 0 -54.833 11.667 -76.5 35s-32.5 49.666 -32.5 78.999c0 16 4 39.667 12 71s12 55 12 71c0 67.333 -40.333 101 -121 101c-118.667 0 -219 -59.333 -301 -178
c-74 -106.667 -111 -221.667 -111 -345c0 -102 32 -196.333 96 -283c69.333 -95.333 153.333 -143 252 -143c28.667 0 66.334 11.333 113.001 34s79 34 97 34c22 0 41 -8.83301 57 -26.5s24 -37.167 24 -58.5c0 -43.333 -41.667 -82.333 -125 -117
c-69.333 -26.667 -130.333 -40 -183 -40c-155.333 0 -287.666 68 -396.999 204c-104 127.333 -156 270.666 -156 429.999c0 180 58 343 174 489c124 155.333 273.667 233 449 233c108 0 195.667 -30 263 -90c69.333 -64 104 -149.333 104 -256z" />
    <glyph glyph-name="d" unicode="d" horiz-adv-x="1232" 
d="M1198 812c0 -204.667 -105.333 -384.332 -316 -538.999c-153.333 -112.667 -352.333 -205.334 -597 -278.001c-8 -2.66699 -14.667 -4 -20 -4c-20.667 0 -38.667 8.33301 -54 25s-23 35.667 -23 57c0 42.667 21.667 67.667 65 75c-12.667 164 -24.667 328 -36 492
c-16 193.333 -33.667 357.333 -53 492c-28.667 0.666992 -54 10.5 -76 29.5s-33 42.5 -33 70.5c0 91.333 68.667 137 206 137c230 0 429.667 -37 599 -111c225.333 -98 338 -246.667 338 -446zM980 775.002c0 117.333 -70.666 207 -211.999 269
c-98.667 43.333 -220.334 69.666 -365.001 78.999c8 -114 12 -218.667 12 -314c0 -69.333 -2.33301 -172.333 -7 -309c-6 -143.333 -9 -245.666 -9 -306.999c214 70.667 370 168 468 292c75.333 95.333 113 192 113 290z" />
    <glyph glyph-name="e" unicode="e" horiz-adv-x="949" 
d="M884 1260c0 -54.667 -33.668 -89.6621 -101.001 -104.995c-35.333 -8 -86 -12.333 -152 -13c-71.333 -2.66699 -121.666 -6 -150.999 -10c-22 -4 -66 -13.667 -132 -29c6.66699 -42.667 10 -85.334 10 -128.001c0 -60.667 -5 -131.334 -15 -212.001
c56.667 13.333 127.667 20 213 20c86.667 0 148.667 -6.66699 186 -20c46.667 -17.333 70 -47 70 -89c0 -26 -8.5 -49.833 -25.5 -71.5s-37.833 -32.5 -62.5 -32.5c-17.333 0 -42.5 1.16699 -75.5 3.5s-58.167 3.5 -75.5 3.5c-69.333 0 -155 -4 -257 -12
c-11.333 -78.667 -25 -197 -41 -355c209.333 13.333 372 20 488 20c46.667 0 70 -24.333 70 -73c0 -32.667 -17.667 -57.667 -53 -75c-26 -12.667 -113.667 -25.334 -263 -38.001c-80.667 -6.66699 -187 -21.334 -319 -44.001c-14 -2 -23 -3 -27 -3
c-70.667 0 -106 63 -106 189c0 83.333 9.33301 208 28 374s28 290.667 28 374c0 26 -2.5 64.833 -7.5 116.5s-7.5 90.5 -7.5 116.5c0 33.333 11 62.166 33 86.499s49.667 34.833 83 31.5c106.667 51.333 276.667 77 510 77c101.333 0 152 -34 152 -102z" />
    <glyph glyph-name="f" unicode="f" horiz-adv-x="954" 
d="M947 1224c0 -80.667 -80.668 -120.998 -242.001 -120.998c-67.333 0 -201.666 5 -402.999 15c-3.33301 -76 -7.33301 -190.333 -12 -343c64 13.333 156.333 20 277 20c52 0 89 -4.33301 111 -13c34.667 -15.333 52 -45.666 52 -90.999
c0 -53.333 -33.333 -88.666 -100 -105.999c-74 -18 -189 -26 -345 -24c-6 -166 -9 -250.667 -9 -254c-6.66699 -113.333 -20.667 -193 -42 -239c-16 -34 -38.667 -51 -68 -51c-49.333 0 -74 22.667 -74 68c0 38 2.66699 94.833 8 170.5s8 132.167 8 169.5
c0 227.333 -8 419.666 -24 576.999c-10.667 101.333 -16 158 -16 170c0 6 0.666992 14.167 2 24.5s2 18.166 2 23.499c0 3.33301 -0.666992 8.16602 -2 14.499s-2 11.166 -2 14.499c0 34 10.833 61.333 32.5 82s49.5 31 83.5 31c41.333 0 103 -2.83301 185 -8.5
s143.333 -8.5 184 -8.5c16 0 39.667 0.5 71 1.5s55 1.5 71 1.5c168 0 252 -41.333 252 -124z" />
    <glyph glyph-name="g" unicode="g" 
d="M1118 973c0 -162 -48.9971 -242.997 -146.997 -242.997c-67.333 0 -101 43.333 -101 130c0 14.667 1 37.5 3 68.5s3 53.833 3 68.5c0 43.333 -6 74.666 -18 93.999c-15.333 24.667 -44.333 37 -87 37c-166 0 -314.333 -128.667 -445 -386
c-59.333 -116 -89 -217.667 -89 -305c0 -93.333 40.333 -164.333 121 -213c67.333 -41.333 150.666 -62 249.999 -62c60 0 120.667 7 182 21c-3.33301 29.333 -5 59.333 -5 90c0 19.333 1 38.666 3 57.999c-52 -2 -87.667 -3 -107 -3c-22.667 0 -41.667 8.16699 -57 24.5
s-23 35.833 -23 58.5c0 65.333 74 98 222 98c112.667 0 184.667 -6.33301 216 -19c41.333 -16 62 -42.333 62 -79c0 -28 -9.16699 -50.833 -27.5 -68.5s-41.5 -24.167 -69.5 -19.5c-10.667 -65.333 -16 -116.666 -16 -153.999c0 -12.667 1.16699 -31.5 3.5 -56.5
s3.5 -43.833 3.5 -56.5c0 -26 -8.33301 -48.667 -25 -68s-38 -29 -64 -29c-51.333 0 -81 23.333 -89 70c-88.667 -25.333 -178.334 -38 -269.001 -38c-148 0 -268 39.333 -360 118c-96.667 83.333 -145 197.666 -145 342.999c0 193.333 70 389 210 587
c151.333 215.333 319.666 323 504.999 323c118 0 208.333 -36 271 -108c59.333 -66.667 89 -160.334 89 -281.001z" />
    <glyph glyph-name="h" unicode="h" horiz-adv-x="1161" 
d="M1097 1249c0 -8 -1.6709 -20.3271 -5.00391 -36.9941c-37.333 -193.333 -56 -333.333 -56 -420c0 -70.667 3.33301 -176 10 -316s10 -245.333 10 -316c0 -108.667 -27.667 -163 -83 -163c-35.333 0 -57.666 23.667 -66.999 71c-2 9.33301 -4.33301 48.666 -7 117.999
c-0.666992 42 -9.66699 120 -27 234c-172 -27.333 -304.667 -41 -398 -41c-71.333 0 -136.666 5.66699 -195.999 17c0 -200 -8.33301 -320 -25 -360c-11.333 -27.333 -28.666 -41 -51.999 -41c-31.333 0 -53.333 19.333 -66 58c-11.333 34 -17 117 -17 249
c0 91.333 -8.5 227.666 -25.5 408.999s-25.5 317.666 -25.5 408.999c0 78 5.66699 135.333 17 172c16.667 54.667 49 82 97 82c32.667 0 62.5 -11.333 89.5 -34s40.5 -50.667 40.5 -84c0 -48.667 -6.33301 -122.834 -19 -222.501s-19 -174.5 -19 -224.5
c0 -6.66699 1.66699 -78.334 5 -215.001c41.333 -8 87 -12 137 -12c40.667 0 112.334 5 215.001 15c92 8 164.333 11 217 9c-18.667 132 -28 243.333 -28 334c0 158.667 15 269.667 45 333c26 56 63.333 84 112 84c30.667 0 58.5 -10.333 83.5 -31
s37.5 -46.334 37.5 -77.001z" />
    <glyph glyph-name="i" unicode="i" horiz-adv-x="357" 
d="M304 889c0 -74.667 -5.66699 -176.999 -17 -306.999c-14 -146.667 -22 -249 -24 -307c0 -35.333 -0.666992 -70 -2 -104c-1.33301 -43.333 -6.33301 -77.666 -15 -102.999c-16 -47.333 -44 -71 -84 -71c-45.333 0 -68 23.667 -68 71c0 51.333 4 128.166 12 230.499
s12 179.166 12 230.499c0 208 -11 370.667 -33 488c-24.667 135.333 -37 212.666 -37 231.999c0 85.333 32.333 128 97 128c68 0 113.667 -46.667 137 -140c11.333 -45.333 18 -118.666 20 -219.999c1.33301 -66 2 -108.667 2 -128z" />
    <glyph glyph-name="j" unicode="j" horiz-adv-x="1036" 
d="M981 707c0 -256 -68 -446 -204 -570c-112 -101.333 -251 -152 -417 -152c-77.333 0 -145 16.333 -203 49c-69.333 40 -104 95.667 -104 167c0 48 22 113.667 66 197c48 89.333 93 134 135 134c20.667 0 38.667 -8.16699 54 -24.5s23 -34.833 23 -55.5
c0 -21.333 -20.667 -55.333 -62 -102s-62 -86.667 -62 -120c0 -46.667 42 -70 126 -70c159.333 0 271.333 43.333 336 130c54.667 72.667 82 190.334 82 353.001c0 143.333 -14.333 280.666 -43 411.999c-19.333 88.667 -29 146.667 -29 174c0 35.333 11.167 67.5 33.5 96.5
s50.5 43.5 84.5 43.5c25.333 0 49.333 -11 72 -33c28 -27.333 49 -76 63 -146c2 -12 8.33301 -68 19 -168c20 -190 30 -295 30 -315z" />
    <glyph glyph-name="k" unicode="k" horiz-adv-x="1065" 
d="M1009 1261c0 -14.667 -6.33398 -32.332 -19.001 -52.999c-19.333 -30.667 -79 -83 -179 -157c-112.667 -82 -231 -190 -355 -324c140 -148 235.333 -252 286 -312c138 -162.667 207 -273.667 207 -333c0 -22.667 -9.66699 -41.167 -29 -55.5s-40.333 -21.5 -63 -21.5
c-40 0 -95.333 44 -166 132l-138 186c-9.33301 11.333 -86 96.666 -230 255.999c-16 -14 -32 -18.667 -48 -14c-10.667 -246.667 -16 -379.667 -16 -399c0 -112.667 -28.333 -169 -85 -169c-36.667 0 -58.667 18 -66 54c-2.66699 9.33301 -4 41.666 -4 96.999
c0 107.333 -6 267 -18 479s-18 371.667 -18 479c0 175.333 47.333 263 142 263c69.333 0 104 -36.333 104 -109c0 -62 -4 -143.667 -12 -245c-10 -124.667 -16.333 -206 -19 -244l406 437l74 81c29.333 28 59 47.667 89 59c14.667 6 29.334 9 44.001 9
c28.667 0 54.667 -9.16699 78 -27.5s35 -41.166 35 -68.499z" />
    <glyph glyph-name="l" unicode="l" horiz-adv-x="862" 
d="M858 145c0 -32.667 -21.3311 -57.001 -63.998 -73.001c-28.667 -10.667 -100 -18.334 -214 -23.001c-151.333 -5.33301 -280.333 -20.666 -387 -45.999c-10.667 -2 -16.334 -3 -17.001 -3c-24 0 -45.333 8.16699 -64 24.5s-28 36.5 -28 60.5c0 66 1 164.833 3 296.5
s3 230.5 3 296.5s-3.33301 164.833 -10 296.5s-10 230.5 -10 296.5c0 30 10.5 54 31.5 72s46.833 27 77.5 27c91.333 0 137 -74.333 137 -223c0 -227.333 -17 -548.666 -51 -963.999c50 4 172 10 366 18c83.333 4 137.666 6 162.999 6c42.667 0 64 -20.667 64 -62z" />
    <glyph glyph-name="m" unicode="m" horiz-adv-x="1348" 
d="M1282 1162c0 -13.333 -4.00098 -68 -12.001 -164c-3.33301 -66 -9 -164.333 -17 -295c-1.33301 -16 -8.66602 -85.333 -21.999 -208c-9.33301 -84 -14 -153.333 -14 -208c0 -22.667 0.833008 -56.334 2.5 -101.001s2.5 -78.334 2.5 -101.001
c0 -48.667 -24.333 -73 -73 -73c-46 0 -74 29 -84 87c-3.33301 16 -5 62.667 -5 140c0 62.667 -2 156.834 -6 282.501s-6 218.5 -6 278.5l-207 -513c-14.667 -44.667 -42.334 -109 -83.001 -193c4.66699 -6.66699 7 -14 7 -22c0 -34.667 -17.667 -52 -53 -52
c-73.333 0 -206.666 260 -399.999 780l-61 -319c-20.667 -124 -31 -232 -31 -324c0 -9.33301 0.666992 -23.666 2 -42.999s2 -33.333 2 -42c0 -50 -24.667 -75 -74 -75c-35.333 0 -58.666 14 -69.999 42c-6.66699 16 -10 45 -10 87c0 68.667 6.33301 158.667 19 270
c14.667 136.667 23 226.667 25 270c3.33301 58.667 5 132 5 220c0 43.333 -3.33301 107.666 -10 192.999s-10 149.333 -10 192c0 28.667 12 52.334 36 71.001s50.667 28 80 28c24 0 50.667 -9.66699 80 -29c60.667 -39.333 116 -137.666 166 -294.999
c45.333 -164 119.666 -407.333 222.999 -730l118 449c9.33301 31.333 43 130.333 101 297c27.333 77.333 45.333 126.666 54 147.999c27.333 64 54.5 105.833 81.5 125.5s51.833 29.5 74.5 29.5c112.667 0 169 -67.667 169 -203z" />
    <glyph glyph-name="n" unicode="n" horiz-adv-x="1138" 
d="M1070 730c0 -16.667 -0.999023 -74.6689 -2.99902 -174.002c-3.33301 -162.667 -13.666 -277.334 -30.999 -344.001c-36.667 -144.667 -108.334 -217 -215.001 -217c-95.333 0 -184 57 -266 171c-43.333 60 -95.333 159.333 -156 298l-104 248
c-6.66699 -214 -10.667 -328 -12 -342c-8.66699 -161.333 -25 -267 -49 -317c-14.667 -32 -33.667 -48 -57 -48c-18 0 -34.333 6.83301 -49 20.5s-22 29.5 -22 47.5c0 -3.33301 1 0.666992 3 12c11.333 58 17 134.333 17 229s-10.167 236.334 -30.5 425.001
s-30.5 330.334 -30.5 425.001c0 132 42 198 126 198c74 0 131 -45.667 171 -137c6.66699 -13.333 30 -90.666 70 -231.999c36 -128.667 91 -278.334 165 -449.001c96 -219.333 174.667 -346 236 -380c37.333 50 56 143.667 56 281c0 157.333 -16 348 -48 572
c-11.333 80 -17 135.333 -17 166c0 40.667 9.33301 76 28 106c21.333 34.667 50.666 52 87.999 52c82 0 123 -111.333 123 -334c0 -30.667 1.16699 -76.667 3.5 -138s3.5 -107.666 3.5 -138.999z" />
    <glyph glyph-name="o" unicode="o" horiz-adv-x="1193" 
d="M1138 792c0 -201.333 -41.001 -375.333 -123.001 -522c-100.667 -178 -244 -267 -430 -267c-50 0 -101.667 8 -155 24c-119.333 36.667 -212.833 104.5 -280.5 203.5s-101.5 212.167 -101.5 339.5c0 188 59.667 364.333 179 529c130.667 180 286 270 466 270
c124 0 227 -48.333 309 -145c74.667 -88 118.334 -195.667 131.001 -323c3.33301 -32 5 -68.333 5 -109zM975.999 614c0 99.333 -16.001 194.332 -48.001 284.999c-39.333 112 -95 187.667 -167 227c-14.667 8 -27.667 12 -39 12c-17.333 0 -41.833 -4 -73.5 -12
s-56.167 -12 -73.5 -12c-5.33301 0 -11.666 1.33301 -18.999 4c-89.333 -52.667 -162 -130.167 -218 -232.5s-84 -206.5 -84 -312.5c0 -68 11.333 -128.667 34 -182c28.667 -67.333 75.5 -121.666 140.5 -162.999s134.5 -62 208.5 -62c106.667 0 192 50 256 150
c55.333 86 83 185.333 83 298z" />
    <glyph glyph-name="p" unicode="p" horiz-adv-x="1159" 
d="M1142 993c0 -108 -41.667 -208.667 -125 -302c-59.333 -66.667 -176.333 -139.334 -351 -218.001c-70.667 -32 -177.334 -78 -320.001 -138l-25 -250c-45.333 -30.667 -85.666 -46 -120.999 -46c-26.667 0 -40 15.333 -40 46c0 62.667 4.83301 155.834 14.5 279.501
s14.5 216.5 14.5 278.5c0 136.667 -7.66699 292.667 -23 468l-21 -5c-59.333 48.667 -89 93 -89 133c0 40.667 67.333 72.667 202 96c92 14.667 179.667 22 263 22c163.333 0 297 -21 401 -63c146.667 -60.667 220 -161 220 -301zM944 993
c0 65.333 -58 111.668 -174 139.001c-74 18 -159 27 -255 27c-40.667 0 -79.667 -1.33301 -117 -4c0.666992 -21.333 1 -45 1 -71c0 -131.333 -12.333 -329.333 -37 -594c172 69.333 262.333 106.333 271 111c91.333 45.333 166.333 107.666 225 186.999
c57.333 76.667 86 145 86 205z" />
    <glyph glyph-name="q" unicode="q" horiz-adv-x="1237" 
d="M1190 623c0 -116 -21.668 -220.666 -65.001 -313.999c-49.333 -104.667 -120 -183.334 -212 -236.001l22 -162c-63.333 -72.667 -116 -109 -158 -109c-22 0 -39 17.333 -51 52s-23 88.334 -33 161.001c-35.333 -8 -71.666 -12 -108.999 -12c-158.667 0 -292 74 -400 222
c-97.333 135.333 -146 285 -146 449c0 169.333 55 323 165 461c117.333 148 258.333 222 423 222c172 0 312 -82 420 -246c96 -144.667 144 -307.334 144 -488.001zM1015 577.001c0 110 -37.332 226 -111.999 348c-84 134 -178 201 -282 201
c-60 0 -124.333 -31.667 -193 -95c-102 -96 -153 -213.667 -153 -353c0 -162 32.667 -283 98 -363s143.666 -120 234.999 -120c13.333 0 27.333 1 42 3c-16 52 -24 97.667 -24 137c0 81.333 33.667 122 101 122c80 0 131.333 -66 154 -198
c89.333 78.667 134 184.667 134 318z" />
    <glyph glyph-name="r" unicode="r" horiz-adv-x="1213" 
d="M1154 896c0 -174 -125.666 -318.002 -376.999 -432.002c4 -12.667 21.333 -75.667 52 -189c20.667 -77.333 44.667 -138.333 72 -183c-32.667 -69.333 -65.667 -104 -99 -104c-24 0 -52.333 34.667 -85 104l-58 138l-89 157
c-95.333 -27.333 -186.333 -44.666 -273 -51.999c-6.66699 -67.333 -11.334 -150.666 -14.001 -249.999c-40.667 -27.333 -78 -41 -112 -41c-28.667 0 -43 23 -43 69c0 100 3.16699 249.5 9.5 448.5s9.5 348.5 9.5 448.5c0 22.667 -1.33301 64.334 -4 125.001
c-54.667 19.333 -82 54.666 -82 105.999c0 82.667 62 124 186 124c31.333 0 84.333 -4 159 -12c217.333 -22.667 377.333 -55.667 480 -99c178.667 -74.667 268 -194 268 -358zM934.001 859.998c0 34 -9.33203 66.332 -27.999 96.999c-8.66699 15.333 -25.667 31.333 -51 48
c-94.667 62.667 -251 100.334 -469 113.001c-2.66699 -83.333 -26 -296 -70 -638c129.333 22.667 253.666 63 372.999 121c163.333 78.667 245 165 245 259z" />
    <glyph glyph-name="s" unicode="s" horiz-adv-x="959" 
d="M911 1120c0 -96.667 -36.335 -145.002 -109.002 -145.002c-71.333 0 -113.333 48.333 -126 145c-10.667 5.33301 -22.667 8 -36 8c-61.333 0 -133.666 -21.667 -216.999 -65c-95.333 -47.333 -143 -98.333 -143 -153c0 -51.333 47.333 -111.666 142 -180.999l266 -193
c94 -83.333 141 -166.333 141 -249c0 -85.333 -43.667 -156.666 -131 -213.999c-78.667 -50.667 -163 -76 -253 -76c-126 0 -236.333 38.667 -331 116c12.667 94 37.334 141 74.001 141c4.66699 0 13.667 -4 27 -12c78.667 -45.333 151.334 -68 218.001 -68
c36.667 0 75.667 8 117 24c50.667 19.333 76 43.666 76 72.999c0 26.667 -50.667 74 -152 142c-136 92 -229 162 -279 210c-101.333 96.667 -152 192.334 -152 287.001c0 128.667 68 239 204 331c123.333 82.667 252.666 124 387.999 124c74 0 138.5 -22.667 193.5 -68
s82.5 -104.333 82.5 -177z" />
    <glyph glyph-name="t" unicode="t" horiz-adv-x="1038" 
d="M1014 1249c0 -94 -122.997 -136.001 -368.997 -126.001c0 -64.667 -5 -146.667 -15 -246l-28 -244c-8.66699 -127.333 -23.334 -318.333 -44.001 -573c-37.333 -26.667 -71 -40 -101 -40c-21.333 0 -32 13.333 -32 40c0 70.667 1.66699 176.5 5 317.5s5 246.833 5 317.5
c0 30.667 -1.16699 77 -3.5 139s-3.5 108.333 -3.5 139c0 54.667 2.33301 104.667 7 150c-76 -1.33301 -190.333 -6.33301 -343 -15c-45.333 58 -68 106.333 -68 145c0 20 14.667 34.667 44 44c25.333 8 71.666 16 138.999 24c116.667 14.667 220 25.334 310 32.001
c167.333 14 277.666 21 330.999 21c110.667 0 166 -41.667 166 -125z" />
    <glyph glyph-name="u" unicode="u" horiz-adv-x="1128" 
d="M1070 893c0 -218.667 -32.332 -407.664 -96.999 -566.997c-88.667 -219.333 -226 -329 -412 -329c-108.667 0 -208 44.667 -298 134c-80 81.333 -135.667 178.666 -167 291.999c-24 85.333 -36 188.333 -36 309c0 41.333 2 102.666 6 183.999s6 142.333 6 183
c0 56 -4 115.333 -12 178c60 47.333 110 71 150 71c21.333 0 37.333 -14.667 48 -44c13.333 -38.667 20 -105.334 20 -200.001c0 -56.667 -1.33301 -141.667 -4 -255s-4 -198.333 -4 -255c0 -143.333 15.667 -244 47 -302c46 -80.667 134.333 -121 265 -121
c109.333 0 184.333 41.333 225 124c30 59.333 45 150 45 272c0 190 -5.16699 336.667 -15.5 440s-15.5 162.333 -15.5 177c0 46.667 8.66699 86 26 118c21.333 40 53 60 95 60c53.333 0 88.666 -28.333 105.999 -85c8 -27.333 13 -77.666 15 -150.999
c4.66699 -170.667 7 -248.334 7 -233.001z" />
    <glyph glyph-name="v" unicode="v" horiz-adv-x="1133" 
d="M1101 1283c0 -81.333 -158.669 -499.336 -476.002 -1254h-14c-16 0 -32 1 -48 3c-11.333 -10 -23.666 -15 -36.999 -15c-12.667 0 -24.5 10.5 -35.5 31.5s-35.167 88.5 -72.5 202.5c-18 54.667 -70.333 193.334 -157 416.001
c-24.667 68.667 -65.667 169.334 -123 302.001l-71 140c-25.333 54.667 -38 105 -38 151v8c0 27.333 11.333 49.833 34 67.5s47.667 26.5 75 26.5c22.667 0 46 -9.66699 70 -29c36.667 -29.333 82.334 -134 137.001 -314l218 -717c28.667 87.333 61 201.666 97 342.999
c46.667 186.667 76.334 302.334 89.001 347.001c22.667 81.333 41 141 55 179c24.667 72.667 50.667 127.834 78 165.501s58.333 56.5 93 56.5c31.333 0 60.166 -10.667 86.499 -32s39.5 -47.333 39.5 -78z" />
    <glyph glyph-name="w" unicode="w" horiz-adv-x="1642" 
d="M1594 1285c0 -27.333 -17.001 -77.334 -51.001 -150.001c-42 -88.667 -92 -238.334 -150 -449.001c-68.667 -244.667 -113 -450.667 -133 -618c-39.333 -26 -92.333 -39 -159 -39c-19.333 0 -33.666 13.167 -42.999 39.5s-17.333 60.5 -24 102.5
c-10 63.333 -15.667 98 -17 104c-16 78.667 -46.667 177 -92 295c-59.333 156 -94.666 252.667 -105.999 290l-107 -415c-43.333 -161.333 -88.333 -296.666 -135 -405.999c-38.667 -10 -72.334 -15 -101.001 -15c-19.333 0 -39.333 33 -60 99l-34 128
c-53.333 195.333 -138 437.666 -254 726.999c-56 138.667 -84 232.667 -84 282c0 29.333 9.16699 53.333 27.5 72s42.166 28 71.499 28c33.333 0 64.833 -17 94.5 -51s64.167 -136.333 103.5 -307l176 -724c25.333 103.333 50.333 233 75 389l65 391
c11.333 64.667 21 110.334 29 137.001c17.333 52 41 92.833 71 122.5s61.667 44.5 95 44.5c32.667 0 61 -16.667 85 -50c16 -22.667 31.333 -73.667 46 -153c8 -57.333 16.667 -113.666 26 -168.999c12 -74 35.667 -177 71 -309c38 -142 63 -245 75 -309
c28.667 222 73.334 456.333 134.001 703c18 72.667 32.667 125.667 44 159c24.667 71.333 51 115.833 79 133.5s54 26.5 78 26.5c29.333 0 54 -10.5 74 -31.5s30 -46.833 30 -77.5z" />
    <glyph glyph-name="x" unicode="x" horiz-adv-x="1079" 
d="M1017 1239c0 -90 -41.001 -204.998 -123.001 -344.998c-60 -103.333 -132 -205 -216 -305l288 -492c-21.333 -48.667 -44 -73 -68 -73c-8 0 -16.667 5.66699 -26 17c-2 3.33301 -34.333 48.666 -97 135.999l-217 280l-198 -204c-75.333 -80 -136.333 -152.333 -183 -217
h-8c-77.333 0 -116 14.667 -116 44c0 25.333 127.333 207.333 382 546c-206 305.333 -309 512.666 -309 621.999c0 32.667 10.5 62.334 31.5 89.001s47.5 40 79.5 40c48 0 91.333 -45.333 130 -136l70 -198c20.667 -56 61 -138.667 121 -248c116 162 186 295.333 210 400
c6 28 12.333 55.667 19 83c8.66699 34 21 59 37 75c22 22 46 33 72 33c38.667 0 69.334 -15.333 92.001 -46c19.333 -26.667 29 -60.334 29 -101.001z" />
    <glyph glyph-name="y" unicode="y" horiz-adv-x="1104" 
d="M1085 1260c0 -34.667 -16.334 -66.665 -49.001 -95.998l-87 -70c-36.667 -32 -69.667 -71.667 -99 -119c-66 -106 -133.667 -261 -203 -465c-77.333 -229.333 -138.333 -387.333 -183 -474h-12c-70.667 0 -106 14.667 -106 44c0 4.66699 2.33301 12.667 7 24
c58 146 105.333 295.667 142 449c-76 83.333 -168.667 198.333 -278 345c-59.333 79.333 -98.666 135.666 -117.999 168.999c-42 71.333 -63 135.666 -63 192.999c0 28 9.66699 51.667 29 71s43.333 29 72 29c22.667 0 46.334 -10.333 71.001 -31
c22 -18 57.333 -73.667 106 -167c44.667 -84 126.667 -204.667 246 -362c40.667 141.333 91.667 258 153 350c91.333 138 180.666 207 267.999 207c69.333 0 104 -32.333 104 -97z" />
    <glyph glyph-name="z" unicode="z" horiz-adv-x="1046" 
d="M1009 1236c0 -12.667 -6.33301 -31.667 -19 -57c-18 -35.333 -84.667 -144.333 -200 -327l-432 -686c32 0 90.667 1 176 3c74 1.33301 132.667 2 176 2c91.333 0 137 -25.667 137 -77c0 -34 -23 -57.333 -69 -70c-28 -8 -102.333 -12 -223 -12
c-38.667 0 -96.5 -1.5 -173.5 -4.5s-134.833 -4.5 -173.5 -4.5c-24 0 -43.833 8.33301 -59.5 25s-23.5 37 -23.5 61c0 26 84.667 192.667 254 500l310 546c-128 6.66699 -316 10.667 -564 12c-43.333 64.667 -65 119.667 -65 165c0 41.333 34.667 62 104 62
s172.5 -1.5 309.5 -4.5s240.167 -4.5 309.5 -4.5c150.667 0 226 -43 226 -129z" />
    <glyph glyph-name="braceleft" unicode="{" horiz-adv-x="746" 
d="M638 1261c0 -24.667 -9.66797 -49.5059 -29.001 -74.5059s-49.333 -42.833 -90 -53.5c-44.667 -11.333 -72.667 -22.666 -84 -33.999c-24.667 -24 -37 -70 -37 -138c0 -26 2.5 -65.833 7.5 -119.5s7.5 -93.5 7.5 -119.5c0 -85.333 -18.667 -152.333 -56 -201
c47.333 -48 71 -118 71 -210c0 -40 -7.33301 -99.833 -22 -179.5s-22 -139.5 -22 -179.5c0 -30.667 4.66699 -50 14 -58c4 -3.33301 22.667 -9.66602 56 -18.999c51.333 -13.333 77 -41.666 77 -84.999c0 -48.667 -25.667 -73 -77 -73
c-77.333 0 -137.666 21.333 -180.999 64s-65 102.667 -65 180c0 37.333 8 93 24 167s24 129.667 24 167c0 43.333 -6.5 71.833 -19.5 85.5s-41.833 26.834 -86.5 39.501c-61.333 18 -92 52 -92 102c0 34 14.333 57 43 69l80 23c28.667 15.333 43 45 43 89
c0 33.333 -4.33301 81.833 -13 145.5s-13 111.834 -13 144.501c0 102.667 26 186.334 78 251.001c65.333 80.667 143.333 121 234 121c34 0 63.833 -9 89.5 -27s38.5 -43.667 38.5 -77z" />
    <glyph glyph-name="bar" unicode="|" horiz-adv-x="647" 
d="M422 483c0 -72.667 -1.49902 -181.001 -4.49902 -325.001s-4.5 -252.333 -4.5 -325c0 -96 -26.667 -144 -80 -144c-51.333 0 -77 42.667 -77 128v99c1.33301 43.333 2 76 2 98c0 418.667 -9.33301 731.334 -28 938.001c-0.666992 14 -6.33398 60.333 -17.001 139
c-6.66699 55.333 -10 101.333 -10 138c0 93.333 28 140 84 140c90 0 135 -91 135 -273v-613z" />
    <glyph glyph-name="braceright" unicode="}" horiz-adv-x="717" 
d="M652 521c0 -51.333 -29.668 -86.334 -89.001 -105.001c-44 -13.333 -71.667 -25.666 -83 -36.999c-17.333 -16 -26 -45 -26 -87c0 -38.667 8 -95.5 24 -170.5s24 -131.833 24 -170.5c0 -75.333 -22.167 -134.333 -66.5 -177s-104.166 -64 -179.499 -64
c-51.333 0 -77 25 -77 75c0 43.333 25.333 71 76 83s76 37.333 76 76c0 42 -8 104 -24 186s-24 144 -24 186c0 90 27.333 158.667 82 206c-35.333 52.667 -53 122 -53 208c0 33.333 5.16699 82.666 15.5 147.999s15.5 114.666 15.5 147.999c0 19.333 -3.33301 41 -10 65
c-4.66699 14.667 -8.16699 23.667 -10.5 27s-10.166 8 -23.499 14c-41.333 8.66699 -82.333 18.334 -123 29.001c-44.667 12 -67 42.667 -67 92c0 37.333 16.667 66.333 50 87c27.333 16.667 60.666 25 99.999 25c84.667 0 153.167 -29.833 205.5 -89.5
s78.5 -132.167 78.5 -217.5c0 -42 -7.5 -103.667 -22.5 -185s-22.5 -143 -22.5 -185c0 -41.333 13.333 -68.666 40 -81.999l75 -19c26 -10 39 -32 39 -66z" />
    <glyph glyph-name="asciitilde" unicode="~" horiz-adv-x="1321" 
d="M1126 1000c0 -62.667 -22.668 -116.167 -68.001 -160.5s-99.333 -66.5 -162 -66.5s-152.834 27.833 -270.501 83.5s-187.5 83.5 -209.5 83.5c-27.333 0 -57.166 -23.833 -89.499 -71.5s-62.166 -71.5 -89.499 -71.5c-20 0 -37.833 6.83301 -53.5 20.5
s-23.5 30.167 -23.5 49.5c0 12.667 3 25.667 9 39c21.333 51.333 55.333 96.333 102 135c50 43.333 100.667 65 152 65c38 0 103 -21.667 195 -65c68 -32 140.333 -58 217 -78c24.667 -7.33301 42.667 -11 54 -11c25.333 0 44.833 26.833 58.5 80.5s38.5 80.5 74.5 80.5
c28.667 0 53.167 -11.5 73.5 -34.5s30.5 -49.167 30.5 -78.5z" />
    <glyph glyph-name="nonbreakingspace" unicode="&#xa0;" horiz-adv-x="602" 
 />
    <glyph glyph-name="exclamdown" unicode="&#xa1;" horiz-adv-x="565" 
d="M485 1075c0 -27.333 -12 -52.666 -36 -75.999s-49.667 -35 -77 -35s-51 9.66699 -71 29s-30 42.666 -30 69.999c0 1.33301 3 15 9 41c1.33301 6 3 14.667 5 26c11.333 40 40.333 60 87 60c32 0 58.833 -11.167 80.5 -33.5s32.5 -49.5 32.5 -81.5zM433 754
c0 -54.667 -9.66895 -134.665 -29.002 -239.998c-14.667 -82 -30 -163.333 -46 -244l-35 -212c-19.333 -92 -47.333 -154.667 -84 -188c-22.667 -20 -46 -30 -70 -30c-72 0 -108 44.333 -108 133c0 24.667 11 78.667 33 162c11.333 51.333 29.333 127.666 54 228.999
c10.667 39.333 40.334 137.666 89.001 294.999c6.66699 27.333 19.667 67 39 119c18.667 38.667 43.334 58 74.001 58c22.667 0 42.167 -8 58.5 -24s24.5 -35.333 24.5 -58z" />
    <glyph glyph-name="cent" unicode="&#xa2;" horiz-adv-x="928" 
d="M828 893c0 -108.667 -35.332 -163.001 -105.999 -163.001c-44.667 0 -74.334 11.667 -89.001 35c-10 13.333 -17.333 40 -22 80s-12 69.667 -22 89l3 -4h-3l-4 4c-28 -117.333 -74 -292.666 -138 -525.999c27.333 -8 58 -12 92 -12c35.333 0 82.666 8 141.999 24
c8 2 13.667 3 17 3c17.333 0 32.166 -7.33301 44.499 -22s18.5 -31 18.5 -49c0 -34.667 -37 -62 -111 -82c-54.667 -15.333 -105.667 -23 -153 -23c-30.667 0 -63.667 4 -99 12c-20.667 -68 -47 -102 -79 -102c-32.667 0 -49 14.667 -49 44c0 10.667 9.66699 42 29 94
c-67.333 35.333 -120.333 89.333 -159 162c-37.333 69.333 -56 143.333 -56 222c0 115.333 41.833 220.166 125.5 314.499s182.834 149.5 297.501 165.5c6.66699 38.667 21.334 94.334 44.001 167.001c14.667 29.333 34 44 58 44c17.333 0 32.5 -5.83301 45.5 -17.5
s19.5 -26.167 19.5 -43.5c0 -16 -11.333 -68.333 -34 -157c56.667 -14.667 102.167 -46.5 136.5 -95.5s51.5 -103.5 51.5 -163.5zM456.001 921.999c-57.333 -24 -104.167 -60.001 -140.5 -108.001s-54.5 -101.333 -54.5 -160c0 -74 30.667 -138.333 92 -193
c30 104.667 64.333 258.334 103 461.001z" />
    <glyph glyph-name="sterling" unicode="&#xa3;" horiz-adv-x="1159" 
d="M1043 1005c0 -32 -12.3311 -59.8311 -36.998 -83.498s-52.667 -35.5 -84 -35.5c-42.667 0 -74 27.667 -94 83c-42 118.667 -106.333 178 -193 178c-12.667 0 -27.334 -3 -44.001 -9c-38 -12 -64.333 -31.667 -79 -59c-12.667 -20.667 -20.667 -53.334 -24 -98.001
c-5.33301 -63.333 -10.333 -176 -15 -338c48.667 2.66699 105.334 4 170.001 4c58 0 99.667 -4 125 -12c35.333 -11.333 53 -34 53 -68c0 -56 -37.667 -84 -113 -84c-10 0 -25 0.833008 -45 2.5s-35 2.5 -45 2.5c-14.667 0 -64.334 -1 -149.001 -3v-65
c0 -53.333 2.33301 -136.333 7 -249c64 -11.333 200 -17 408 -17c52.667 0 79 -24.667 79 -74c0 -28 -16.667 -48 -50 -60c-48.667 -16.667 -159.667 -25 -333 -25c-102 0 -172.333 7.33301 -211 22c-33.333 12.667 -54 40.667 -62 84c-6.66699 36 -16.334 161 -29.001 375
c-69.333 -4.66699 -108 -7 -116 -7c-43.333 0 -65 23 -65 69c0 39.333 20.667 65.333 62 78c12 4.66699 48.333 9.33398 109 14.001c-8 159.333 -12 259.333 -12 300c0 125.333 26.667 227.666 80 306.999c62.667 91.333 153.667 137 273 137
c104.667 0 196 -31.833 274 -95.5s130 -146.834 156 -249.501c2.66699 -9.33301 4 -17.333 4 -24z" />
    <glyph glyph-name="currency" unicode="&#xa4;" horiz-adv-x="1164" 
d="M1051 916c0 -22.667 -20.334 -57.666 -61.001 -104.999c-35.333 -42 -66 -72.667 -92 -92c10 -33.333 15 -67 15 -101c0 -69.333 -21 -133.666 -63 -192.999c48 -72 72 -116.333 72 -133c0 -22 -8 -41.667 -24 -59s-35 -26 -57 -26c-38.667 0 -81.667 38.667 -129 116
c-38 -14 -81.333 -21 -130 -21c-45.333 0 -87 7 -125 21c-11.333 -27.333 -36.666 -59.333 -75.999 -96c-42.667 -40.667 -76.334 -61 -101.001 -61c-24 0 -44.833 9.33301 -62.5 28s-26.5 40 -26.5 64c0 21.333 14.833 54.166 44.5 98.499s54.834 73.5 75.501 87.5
c-18.667 32.667 -28 66.667 -28 102c0 69.333 28.667 134.666 86 195.999c-88.667 124 -133 205 -133 243c0 26 10.667 48.667 32 68s45.333 29 72 29c27.333 0 51.666 -16 72.999 -48c24 -36 53.667 -87 89 -153c38.667 23.333 81.334 35 128.001 35
c52 0 101 -13.333 147 -40c88.667 89.333 148.667 134 180 134c24 0 45.667 -9.66699 65 -29s29 -41 29 -65zM723.999 602.001c0 48 -19.002 80.666 -57.002 97.999h4c-17.333 0 -42.166 -5.16699 -74.499 -15.5s-57.166 -16.166 -74.499 -17.499
c-45.333 -39.333 -68 -77.333 -68 -114c0 -48 43.667 -72 131 -72c92.667 0 139 40.333 139 121z" />
    <glyph glyph-name="yen" unicode="&#xa5;" horiz-adv-x="1249" 
d="M1150 565c0 -35.333 -21.6738 -57.998 -65.0068 -67.998c-30.667 -8 -67 -12.667 -109 -14c-30.667 -1.33301 -70 -1.33301 -118 0c-63.333 1.33301 -100.666 2 -111.999 2c-16 -46 -31 -97.333 -45 -154c44.667 0 89.334 -0.666992 134.001 -2
c52 -0.666992 95.667 -5.66699 131 -15c48 -12.667 72 -40.667 72 -84c0 -46.667 -24 -69.334 -72 -68.001l-292 9c-5.33301 -74 -8.66602 -113.333 -9.99902 -118c-11.333 -43.333 -38.666 -65 -81.999 -65c-34 0 -56.667 13 -68 39c-7.33301 17.333 -11 46 -11 86
c0 23.333 0.666992 43.666 2 60.999h-155c-56 0 -97.667 2.33301 -125 7c-47.333 8 -71 32.333 -71 73c0 41.333 23.333 67 70 77c18 4.66699 58.333 7 121 7c20 0 50.5 -0.5 91.5 -1.5s70.833 -1.5 89.5 -1.5c2 13.333 7 35.333 15 66l-44 84
c-25.333 0 -71 -1.33301 -137 -4c-59.333 -0.666992 -104.333 -1 -135 -1c-42 0 -63 20.333 -63 61c0 35.333 21 58 63 68c25.333 6 93 9 203 9c-198.667 406 -298 629.667 -298 671c0 21.333 7.83301 40 23.5 56s34.5 24 56.5 24c21.333 0 40.333 -13.667 57 -41
s35.334 -64.333 56.001 -111c30.667 -72.667 47 -110.667 49 -114l230 -482h7l174 386c26.667 75.333 72.334 185 137.001 329c16.667 30 36 45 58 45c24 0 45.833 -10 65.5 -30s29.5 -42 29.5 -66c0 -1.33301 -1 -6 -3 -14c-26 -92.667 -50 -167 -72 -223l-198 -427
c30 0 76.833 0.833008 140.5 2.5s111.834 2.5 144.501 2.5c43.333 0 65 -20.333 65 -61z" />
    <glyph glyph-name="brokenbar" unicode="&#xa6;" horiz-adv-x="543" 
d="M353 758c0 -72.667 -27.666 -109 -82.999 -109c-46.667 0 -74 26.667 -82 80c-2.66699 18 -6.33398 67 -11.001 147c-5.33301 113.333 -8 219.666 -8 318.999c0 113.333 32.333 170 97 170c30 0 50 -18.667 60 -56c18 -67.333 27 -172.666 27 -315.999v-235zM362.001 302
c0 -133.333 -4.00098 -270.333 -12.001 -411c-1.33301 -28.667 -4.33301 -71.334 -9 -128.001c-8 -49.333 -32.333 -74 -73 -74c-52.667 0 -79 39.333 -79 118v282c0 120.667 6.33301 210.334 19 269.001c10.667 48 36.334 72 77.001 72c51.333 0 77 -42.667 77 -128z" />
    <glyph glyph-name="dieresis" unicode="&#xa8;" horiz-adv-x="939" 
d="M746 1568c0 -10 -8 -28.667 -24 -56c-24 -40.667 -50.333 -61 -79 -61c-23.333 0 -43.666 7.66699 -60.999 23s-26 35 -26 59c0 27.333 11.167 54.333 33.5 81s47.166 40 74.499 40c22.667 0 42 -8.5 58 -25.5s24 -37.167 24 -60.5zM374 1533
c0 -23.333 -8.5 -42.833 -25.5 -58.5s-37.167 -23.5 -60.5 -23.5c-56.667 0 -85 34 -85 102c0 64 28.333 96 85 96c57.333 0 86 -38.667 86 -116z" />
    <glyph glyph-name="copyright" unicode="&#xa9;" horiz-adv-x="1853" 
d="M1691 739c0 -48.667 -5.00098 -97.999 -15.001 -147.999c-40 -192.667 -132.667 -342.334 -278 -449.001c-138.667 -100.667 -309 -151 -511 -151c-193.333 0 -361 48.667 -503 146c-160.667 108.667 -241 256 -241 442c0 176 78 340.667 234 494
c143.333 139.333 306.666 230 489.999 272c10 2 23.667 3 41 3c-1.33301 0 17.334 2.83301 56.001 8.5s74 8.5 106 8.5c180.667 0 329.334 -58.833 446.001 -176.5s175 -267.5 175 -449.5zM1529 638.001c0 133.333 -39.667 247.333 -119 342
c-85.333 98.667 -193.666 148 -324.999 148c-20 0 -50.833 -3.33301 -92.5 -10s-72.834 -10 -93.501 -10c-13.333 0 -27 3.33301 -41 10c-136 -48 -248.333 -114.667 -337 -200c-108.667 -102 -163 -217 -163 -345c0 -143.333 73.667 -252 221 -326
c116 -58 253.667 -87 413 -87c154.667 0 280.667 40.667 378 122c106 86 159 204.667 159 356zM1254 824.001c0 -42 -11.667 -80.667 -35 -116c-27.333 -40.667 -61 -61 -101 -61c-30.667 0 -56.5 12.167 -77.5 36.5s-31.5 52.5 -31.5 84.5c0 19.333 1.66699 39.333 5 60
c-11.333 0.666992 -28 -0.666016 -50 -3.99902c-38.667 -14.667 -69.334 -44.667 -92.001 -90c-19.333 -40 -29 -82.667 -29 -128c0 -40 12.667 -79.333 38 -118c28 -42 61 -63 99 -63c12 0 28.833 5.33301 50.5 16s38.834 16 51.501 16
c21.333 0 40.666 -8.16699 57.999 -24.5s26 -35.5 26 -57.5c0 -34.667 -27.333 -64.667 -82 -90c-46 -20.667 -88.667 -31 -128 -31c-94.667 0 -175.667 41 -243 123c-63.333 77.333 -95 164.333 -95 261c0 107.333 37 205.333 111 294c78.667 92 170.334 138 275.001 138
c68 0 126.667 -23.833 176 -71.5s74 -105.834 74 -174.501z" />
    <glyph glyph-name="guillemotleft" unicode="&#xab;" horiz-adv-x="1172" 
d="M975 106c0 -19.333 -6.83398 -36.999 -20.501 -52.999s-29.834 -24 -48.501 -24c-39.333 0 -98.333 35.833 -177 107.5s-118 127.5 -118 167.5c0 18 6.83301 36.167 20.5 54.5s55.834 54.166 126.501 107.499s113.334 80 128.001 80c19.333 0 35.833 -8 49.5 -24
s20.5 -33.667 20.5 -53c0 -13.333 -7 -27 -21 -41l-157 -129c17.333 -19.333 46.5 -44.5 87.5 -75.5s69.5 -55 85.5 -72s24 -32.167 24 -45.5zM526.999 89.001c0 -18.667 -7.33203 -34.8311 -21.999 -48.498s-31 -20.5 -49 -20.5c-38.667 0 -105.834 36.167 -201.501 108.5
s-143.5 126.166 -143.5 161.499c0 18 9.66699 35.667 29 53c13.333 11.333 71 45.166 173 101.499s157.667 84.5 167 84.5c31.333 0 47 -17.667 47 -53c0 -13.333 -8 -28 -24 -44c-26 -26 -62.667 -52.667 -110 -80l-120 -70l147 -87c71.333 -44.667 107 -80 107 -106z" />
    <glyph glyph-name="minus" unicode="&#xad;" horiz-adv-x="1022" 
d="M829 582c0 -51.333 -36.334 -76.999 -109.001 -76.999h-114c-151.333 0 -264.666 5.33301 -339.999 16c-50 6.66699 -75 31 -75 73c0 38.667 21 63.667 63 75c18.667 4.66699 55.667 7 111 7h103c148.667 0 251.667 -9.66699 309 -29
c34.667 -12.667 52 -34.334 52 -65.001z" />
    <glyph glyph-name="registered" unicode="&#xae;" horiz-adv-x="1958" 
d="M1795 744c0 -70.667 -13 -144.667 -39 -222c-59.333 -174 -165 -305.333 -317 -394c-138.667 -79.333 -305.334 -119 -500.001 -119c-204 0 -380.333 45.333 -529 136c-178 106.667 -267 255.334 -267 446.001c0 179.333 92.333 353.666 277 522.999
c180.667 165.333 360.334 248 539.001 248l58 8c45.333 7.33301 85.333 11 120 11c190 0 347.167 -59 471.5 -177s186.5 -271.333 186.5 -460zM1632 654c0 146.667 -47 264.333 -141 353s-214.333 133 -361 133c-20.667 0 -51.167 -2.33301 -91.5 -7s-70.833 -7 -91.5 -7
c-16 0 -30 2 -42 6c-146 -46.667 -268 -111.667 -366 -195c-124 -104.667 -186 -222 -186 -352c0 -144 85.333 -253 256 -327c128.667 -56 276.667 -84 444 -84c160.667 0 293.667 38.667 399 116c120 88 180 209.333 180 364zM1355 758.999
c0 -96.667 -64.3311 -178.334 -192.998 -245.001c2.66699 -19.333 8 -48 16 -86c2 -6.66699 9.33301 -26.334 22 -59.001c10 -25.333 15 -44.666 15 -57.999c0 -20.667 -8.5 -38.167 -25.5 -52.5s-35.833 -21.5 -56.5 -21.5c-30.667 0 -63 28.667 -97 86
c-48.667 78 -74.334 118.333 -77.001 121c-24 -6 -46.667 -10 -68 -12c-6 -67.333 -9.33301 -104.333 -10 -111c-11.333 -42 -36.333 -63 -75 -63c-40 0 -65.333 24.333 -76 73c-6.66699 33.333 -10 75.333 -10 126c0 17.333 0.666992 42.833 2 76.5s2 58.834 2 75.501
c0 22.667 -1.66699 63 -5 121c-2.66699 52.667 -3.33398 93.667 -2.00098 123c-24 26.667 -36 53.667 -36 81c0 82.667 58 124 174 124c64.667 0 135.667 -9.66699 213 -29c191.333 -48 287 -138 287 -270zM1137 726.999c0 44.667 -60.332 72.001 -180.999 82.001
c-2.66699 -24 -16.334 -98.667 -41.001 -224c148 43.333 222 90.666 222 141.999z" />
    <glyph glyph-name="glyph136" unicode="&#xaf;" horiz-adv-x="1058" 
d="M831 1229h-609v136h609v-136z" />
    <glyph glyph-name="degree" unicode="&#xb0;" horiz-adv-x="893" 
d="M730 1091c0 -80 -25.5 -143.002 -76.5 -189.002s-116.833 -69 -197.5 -69c-82 0 -152.667 25.667 -212 77c-62.667 53.333 -94 120.333 -94 201c0 78.667 32 142.334 96 191.001c59.333 45.333 129.333 68 210 68c76 0 140.667 -27.167 194 -81.5
s80 -120.166 80 -197.499zM577 1091c0 39.333 -14.5 69.834 -43.5 91.501s-64.167 32.5 -105.5 32.5c-80.667 0 -121 -30.667 -121 -92c0 -36.667 16.833 -68.834 50.5 -96.501s69.167 -41.5 106.5 -41.5c30.667 0 57.167 9.83301 79.5 29.5s33.5 45.167 33.5 76.5z" />
    <glyph glyph-name="plusminus" unicode="&#xb1;" horiz-adv-x="848" 
d="M765 594c0 -50 -42.3311 -75 -126.998 -75c-47.333 0 -100 0.666992 -158 2c0 -41.333 -3 -101.666 -9 -180.999c-5.33301 -43.333 -27 -65 -65 -65c-45.333 0 -68 21.667 -68 65v186c-38.667 0.666992 -95.667 5.66699 -171 15c-45.333 9.33301 -68 36 -68 80
c0 43.333 20.333 65 61 65c22 0 51.667 -1 89 -3c43.333 -3.33301 73 -5 89 -5v191c0 19.333 7.66699 35 23 47s32.666 18 51.999 18c29.333 0 48.666 -16 57.999 -48c11.333 -40 16.333 -110.667 15 -212c46.667 1.33301 116.667 -1.33398 210 -8.00098
c46 -7.33301 69 -31.333 69 -72zM713.002 97c0 -32.667 -16.334 -54.333 -49.001 -65c-50 -15.333 -125.667 -23 -227 -23h-205c-56.667 0 -85 25.333 -85 76c0 40 20 65 60 75c14.667 4 50.334 6 107.001 6h82c27.333 0 68.833 1.33301 124.5 4s97.167 4 124.5 4
c45.333 0 68 -25.667 68 -77z" />
    <glyph glyph-name="acute" unicode="&#xb4;" horiz-adv-x="466" 
d="M384 1799c0 -22.667 -22.6689 -75.666 -68.002 -158.999c-42 -78.667 -73 -129.834 -93 -153.501s-41.333 -35.5 -64 -35.5c-20.667 0 -39 7 -55 21s-24 31.333 -24 52c0 19.333 24.833 74.166 74.5 164.499s83.334 143.333 101.001 159s33.834 23.5 48.501 23.5
c20.667 0 39.167 -7.16699 55.5 -21.5s24.5 -31.166 24.5 -50.499z" />
    <glyph glyph-name="paragraph" unicode="&#xb6;" horiz-adv-x="1691" 
d="M1580 1273c0 -74 -62.3311 -111.001 -186.998 -111.001h-79c-40 1.33301 -66 2 -78 2c-3.33301 -62.667 -11 -270.334 -23 -623.001c-8 -254 -18.667 -461.667 -32 -623c-3.33301 -59.333 -13 -134.333 -29 -225c-12.667 -32 -32 -48 -58 -48c-48 0 -72 21.667 -72 65
c0 50 4 125.333 12 226s12 176 12 226c0 82 -2.5 204.667 -7.5 368s-7.5 286 -7.5 368c0 16 -1.33301 59 -4 129c-2 52.667 -2 95.334 0 128.001c-234 -15.333 -413.667 -50.333 -539 -105c-158 -70 -237 -164 -237 -282c0 -86.667 45 -161.334 135 -224.001
c44 -30.667 127 -71 249 -121c-3.33301 62.667 -5 115.667 -5 159c0 32.667 0.333008 67.334 1 104.001c7.33301 212.667 55.333 319 144 319c54.667 0 82 -41.333 82 -124c0 -33.333 -4 -76 -12 -128c-10.667 -65.333 -16.334 -107.666 -17.001 -126.999
c-4.66699 -54.667 -7 -129.667 -7 -225c0 -66 1.66699 -164.167 5 -294.5s5 -228.5 5 -294.5c0 -105.333 -29 -158 -87 -158c-30.667 0 -51 11.333 -61 34c-6 13.333 -9 38.333 -9 75c0 58 -10.333 227 -31 507c-186 69.333 -310 125 -372 167
c-124 85.333 -186 198 -186 338c0 78.667 22.333 154.334 67 227.001c42 69.333 97.667 125.666 167 168.999c233.333 145.333 590.666 218 1072 218c126 0 189 -38.667 189 -116z" />
    <glyph glyph-name="periodcentered" unicode="&#xb7;" horiz-adv-x="526" 
d="M365 577c0 -30 -12.501 -54.334 -37.501 -73.001s-52.833 -28 -83.5 -28c-24 0 -45 8.83301 -63 26.5s-27 37.834 -27 60.501c0 28.667 11.333 53.167 34 73.5s48.334 30.5 77.001 30.5c26.667 0 50 -8.5 70 -25.5s30 -38.5 30 -64.5z" />
    <glyph glyph-name="guillemotright" unicode="&#xbb;" horiz-adv-x="1166" 
d="M1056 278c0 -35.333 -47.666 -89 -142.999 -161s-162.333 -108 -201 -108c-18.667 0 -35.334 6.16699 -50.001 18.5s-22 27.5 -22 45.5c0 28.667 36 64.667 108 108l146 85l-119 70c-48 27.333 -85 54 -111 80c-16 16 -24 31 -24 45c0 35.333 16 53 48 53
c8.66699 0 63.667 -28 165 -84s159.333 -90 174 -102c19.333 -16 29 -32.667 29 -50zM558.001 292c0 -40 -39.167 -96.166 -117.5 -168.499s-137.5 -108.5 -177.5 -108.5c-18 0 -33.833 8 -47.5 24s-20.5 33.667 -20.5 53c0 14.667 6.66699 29.667 20 45
c17.333 19.333 46.5 44 87.5 74s69.833 54 86.5 72c-36 27.333 -88.333 70.666 -157 129.999c-13.333 14.667 -20 29.334 -20 44.001c0 19.333 7 36.666 21 51.999s30.667 23 50 23c16 0 59.333 -27 130 -81c67.333 -52.667 108.333 -88.167 123 -106.5s22 -35.833 22 -52.5
z" />
    <glyph glyph-name="questiondown" unicode="&#xbf;" horiz-adv-x="990" 
d="M705 1075c0 -24.667 -9.16602 -46.167 -27.499 -64.5s-39.833 -27.5 -64.5 -27.5c-27.333 0 -51.5 9.33301 -72.5 28s-31.5 41.334 -31.5 68.001c0 27.333 10.167 51.166 30.5 71.499s44.166 30.5 71.499 30.5c28.667 0 51.5 -10.167 68.5 -30.5s25.5 -45.5 25.5 -75.5z
M872.001 99c0 -72.667 -34.667 -134.666 -104 -185.999c-64 -46.667 -134 -70 -210 -70c-122 0 -236.167 53.5 -342.5 160.5s-159.5 221.167 -159.5 342.5c0 93.333 33.833 175.666 101.5 246.999s147.834 107 240.501 107c27.333 0 60.666 -5.66699 99.999 -17
c54 -16 86.667 -25.333 98 -28v12c0 9.33301 -1.16699 22.833 -3.5 40.5s-3.5 31.167 -3.5 40.5c0 21.333 8.5 40 25.5 56s36.167 24 57.5 24c54.667 0 82 -57.667 82 -173c0 -113.333 -64.333 -170 -193 -170c-19.333 0 -48.333 1.16699 -87 3.5s-67.667 3.5 -87 3.5
c-31.333 0 -55.833 -12.833 -73.5 -38.5s-26.5 -55.5 -26.5 -89.5c0 -66 30.667 -129.833 92 -191.5s125 -92.5 191 -92.5c24 0 52.833 21.667 86.5 65s70.167 65 109.5 65c70.667 0 106 -37 106 -111z" />
    <glyph glyph-name="Agrave" unicode="&#xc0;" horiz-adv-x="1085" 
d="M538 1527c0 -20 -7.99902 -37.668 -23.999 -53.001s-34.333 -23 -55 -23c-22.667 0 -41.334 11.333 -56.001 34c-12.667 18 -39.167 71.167 -79.5 159.5s-60.5 138.5 -60.5 150.5c0 22 8.5 41.5 25.5 58.5s36.167 25.5 57.5 25.5c32 0 59 -20 81 -60
c19.333 -35.333 41.333 -83.666 66 -144.999c30 -74 45 -123 45 -147zM1034 93.999c0 -19.333 -7.66992 -35.833 -23.0029 -49.5s-33.333 -20.5 -54 -20.5c-29.333 0 -53.666 17.667 -72.999 53l-61 162c-59.333 -6 -122.666 -9 -189.999 -9c-50 0 -115.333 2 -196 6
c-104.667 3.33301 -170 5.33301 -196 6c-10.667 -42 -30.667 -102.333 -60 -181c-17.333 -30.667 -38 -46 -62 -46c-16.667 0 -32.167 6 -46.5 18s-21.5 26.667 -21.5 44c0 6.66699 0.666992 13.334 2 20.001c27.333 173.333 71 384 131 632
c76.667 316 139.334 508.333 188.001 577c25.333 34 57.333 51 96 51c35.333 0 66.333 -10.5 93 -31.5s54 -68.5 82 -142.5l58 -164c57.333 -133.333 138.333 -336 243 -608c20.667 -22.667 29 -50.334 25 -83.001c43.333 -127.333 65 -205.333 65 -234zM726.998 448.999
l-251 532c-29.333 -70 -60 -158.667 -92 -266l-79 -271c157.333 5.33301 260 8 308 8c35.333 0 73.333 -1 114 -3z" />
    <glyph glyph-name="Aacute" unicode="&#xc1;" horiz-adv-x="1077" 
d="M686 1799c0 -22.667 -22.6689 -75.666 -68.002 -158.999c-42 -78.667 -73 -129.834 -93 -153.501s-41.333 -35.5 -64 -35.5c-20.667 0 -39 7 -55 21s-24 31.333 -24 52c0 19.333 24.833 74.166 74.5 164.499s83.334 143.333 101.001 159s33.834 23.5 48.501 23.5
c20.667 0 39.167 -7.16699 55.5 -21.5s24.5 -31.166 24.5 -50.499zM1031 94.001c0 -19.333 -7.67188 -35.833 -23.0049 -49.5s-33.333 -20.5 -54 -20.5c-29.333 0 -53.666 17.667 -72.999 53l-62 162c-59.333 -6 -122.333 -9 -189 -9c-50 0 -115.667 2 -197 6
c-104.667 3.33301 -170 5.33301 -196 6c-10 -42 -30 -102.333 -60 -181c-16.667 -30.667 -37 -46 -61 -46c-17.333 0 -33 6 -47 18s-21 26.667 -21 44c0 6.66699 0.333008 13.334 1 20.001c27.333 173.333 71.333 384 132 632c76 316 138.667 508.333 188 577
c24.667 34 56.334 51 95.001 51c35.333 0 66.333 -10.5 93 -31.5s54.334 -68.5 83.001 -142.5l58 -164c56.667 -133.333 137.334 -336 242.001 -608c20.667 -22.667 29.334 -50.334 26.001 -83.001c43.333 -127.333 65 -205.333 65 -234zM723.993 449.001l-250.998 532
c-30 -70 -60.667 -158.667 -92 -266l-79 -271c157.333 5.33301 259.666 8 306.999 8c35.333 0 73.666 -1 114.999 -3z" />
    <glyph glyph-name="Acircumflex" unicode="&#xc2;" horiz-adv-x="1082" 
d="M679 1514c0 -17.333 -7.33301 -32.167 -22 -44.5s-31 -18.5 -49 -18.5c-34.667 0 -83 68.667 -145 206c-20.667 -36 -55 -87.667 -103 -155c-16 -18 -33 -27 -51 -27c-41.333 0 -62 18.667 -62 56c0 20.667 26 69 78 145s88 122 108 138c16 12.667 31 19 45 19
c19.333 0 37 -10.167 53 -30.5s44.333 -68.833 85 -145.5c42 -79.333 63 -127 63 -143zM1034 93.999c0 -19.333 -7.66992 -35.833 -23.0029 -49.5s-33.333 -20.5 -54 -20.5c-29.333 0 -53.666 17.667 -72.999 53l-61 162c-59.333 -6 -122.666 -9 -189.999 -9
c-50 0 -115.333 2 -196 6c-104.667 3.33301 -170 5.33301 -196 6c-10.667 -42 -30.667 -102.333 -60 -181c-17.333 -30.667 -38 -46 -62 -46c-16.667 0 -32.167 6 -46.5 18s-21.5 26.667 -21.5 44c0 6.66699 0.666992 13.334 2 20.001c27.333 173.333 71 384 131 632
c76.667 316 139.334 508.333 188.001 577c25.333 34 57.333 51 96 51c35.333 0 66.333 -10.5 93 -31.5s54 -68.5 82 -142.5l58 -164c57.333 -133.333 138.333 -336 243 -608c20.667 -22.667 29 -50.334 25 -83.001c43.333 -127.333 65 -205.333 65 -234zM726.997 448.999
l-251 532c-29.333 -70 -60 -158.667 -92 -266l-79 -271c157.333 5.33301 260 8 308 8c35.333 0 73.333 -1 114 -3z" />
    <glyph glyph-name="Atilde" unicode="&#xc3;" horiz-adv-x="1080" 
d="M751 1567c0 -34 -19.334 -62.668 -58.001 -86.001c-33.333 -20 -68 -30 -104 -30c-30.667 0 -69.667 10.833 -117 32.5s-80.666 32.5 -99.999 32.5s-38.333 -11.5 -57 -34.5s-37.667 -34.5 -57 -34.5c-18.667 0 -34.834 6.83301 -48.501 20.5s-20.5 29.834 -20.5 48.501
c0 37.333 20.333 73.333 61 108s80.334 52 119.001 52c26 0 62.333 -10.5 109 -31.5s82.334 -31.5 107.001 -31.5c11.333 0 27 4 47 12s35.667 12 47 12c19.333 0 36.166 -6.83301 50.499 -20.5s21.5 -30.167 21.5 -49.5zM1033 93.999
c0 -19.333 -7.83789 -35.833 -23.5049 -49.5s-33.5 -20.5 -53.5 -20.5c-30 0 -54.667 17.667 -74 53l-61 162c-59.333 -6 -122.666 -9 -189.999 -9c-50 0 -115.333 2 -196 6c-104.667 3.33301 -170 5.33301 -196 6c-10 -42 -30 -102.333 -60 -181
c-16.667 -30.667 -37 -46 -61 -46c-17.333 0 -33.166 6 -47.499 18s-21.5 26.667 -21.5 44c0 6.66699 0.666992 13.334 2 20.001c27.333 173.333 71.333 384 132 632c76 316 138.333 508.333 187 577c25.333 34 57.333 51 96 51c35.333 0 66.333 -10.5 93 -31.5
s54.334 -68.5 83.001 -142.5l58 -164c56.667 -133.333 137.334 -336 242.001 -608c20.667 -22.667 29.334 -50.334 26.001 -83.001c43.333 -127.333 65 -205.333 65 -234zM724.994 448.999l-251 532c-29.333 -70 -60 -158.667 -92 -266l-78 -271
c156.667 5.33301 259 8 307 8c35.333 0 73.333 -1 114 -3z" />
    <glyph glyph-name="Adieresis" unicode="&#xc4;" horiz-adv-x="1082" 
d="M742 1568c0 -10 -7.66699 -28.667 -23 -56c-24 -40.667 -50.333 -61 -79 -61c-24 0 -44.5 7.66699 -61.5 23s-25.5 35 -25.5 59c0 27.333 11.167 54.333 33.5 81s46.833 40 73.5 40c23.333 0 42.833 -8.5 58.5 -25.5s23.5 -37.167 23.5 -60.5zM370 1533
c0 -23.333 -8.5 -42.833 -25.5 -58.5s-36.833 -23.5 -59.5 -23.5c-56.667 0 -85 34 -85 102c0 64 28.333 96 85 96s85 -38.667 85 -116zM1034 94c0 -19.333 -7.66992 -35.833 -23.0029 -49.5s-33.333 -20.5 -54 -20.5c-29.333 0 -53.666 17.667 -72.999 53l-61 162
c-59.333 -6 -122.666 -9 -189.999 -9c-50 0 -115.333 2 -196 6c-104.667 3.33301 -170 5.33301 -196 6c-10.667 -42 -30.667 -102.333 -60 -181c-17.333 -30.667 -38 -46 -62 -46c-16.667 0 -32.167 6 -46.5 18s-21.5 26.667 -21.5 44c0 6.66699 0.666992 13.334 2 20.001
c27.333 173.333 71 384 131 632c76.667 316 139.334 508.333 188.001 577c25.333 34 57.333 51 96 51c35.333 0 66.333 -10.5 93 -31.5s54 -68.5 82 -142.5l58 -164c57.333 -133.333 138.333 -336 243 -608c20.667 -22.667 29 -50.334 25 -83.001
c43.333 -127.333 65 -205.333 65 -234zM726.997 449l-251 532c-29.333 -70 -60 -158.667 -92 -266l-79 -271c157.333 5.33301 260 8 308 8c35.333 0 73.333 -1 114 -3z" />
    <glyph glyph-name="Aring" unicode="&#xc5;" horiz-adv-x="1101" 
d="M773 1708c0 -79.333 -25.5 -142.001 -76.5 -188.001s-117.167 -69 -198.5 -69c-82 0 -152.333 25.333 -211 76c-62.667 54 -94 121.333 -94 202c0 78.667 31.667 142.334 95 191.001c59.333 45.333 129.333 68 210 68c76.667 0 141.667 -27.333 195 -82
s80 -120.667 80 -198zM1043 93.999c0 -19.333 -7.67188 -35.833 -23.0049 -49.5s-33.333 -20.5 -54 -20.5c-29.333 0 -53.666 17.667 -72.999 53l-62 162c-59.333 -6 -122.333 -9 -189 -9c-50 0 -115.667 2 -197 6c-104.667 3.33301 -170 5.33301 -196 6
c-10 -42 -30 -102.333 -60 -181c-16.667 -30.667 -37 -46 -61 -46c-17.333 0 -33 6 -47 18s-21 26.667 -21 44c0 6.66699 0.333008 13.334 1 20.001c27.333 173.333 71.333 384 132 632c76 316 138.667 508.333 188 577c24.667 34 56.334 51 95.001 51
c35.333 0 66.333 -10.5 93 -31.5s54.334 -68.5 83.001 -142.5l58 -164c56.667 -133.333 137.334 -336 242.001 -608c20.667 -22.667 29.334 -50.334 26.001 -83.001c43.333 -127.333 65 -205.333 65 -234zM619.995 1708c0 40 -14.667 70.833 -44 92.5
s-64.333 32.5 -105 32.5c-80.667 0 -121 -30.667 -121 -92c0 -36.667 16.833 -68.834 50.5 -96.501s69.167 -41.5 106.5 -41.5c30.667 0 57.167 9.83301 79.5 29.5s33.5 44.834 33.5 75.501zM735.995 448.999l-250.998 532c-30 -70 -60.667 -158.667 -92 -266l-79 -271
c157.333 5.33301 259.666 8 306.999 8c35.333 0 73.666 -1 114.999 -3z" />
    <glyph glyph-name="AE" unicode="&#xc6;" horiz-adv-x="1729" 
d="M1669 1256c0 -56.667 -31.665 -91.335 -94.998 -104.002c-54.667 -3.33301 -109.334 -6.33301 -164.001 -9c-76.667 -4 -168.334 -18.667 -275.001 -44c5.33301 -36.667 8 -78 8 -124c0 -66 -5 -139 -15 -219c62.667 16 131 24 205 24c92 0 158 -7 198 -21
c45.333 -15.333 68 -44.666 68 -87.999c0 -26.667 -8.16699 -50.667 -24.5 -72s-37.166 -32 -62.499 -32c-16.667 0 -41.5 1.66699 -74.5 5s-58.167 5 -75.5 5c-43.333 0 -129.666 -5.33301 -258.999 -16c-12 -78 -25.333 -196 -40 -354
c218.667 13.333 380.334 20 485.001 20c48.667 0 73 -25.667 73 -77c0 -32 -17.667 -55.333 -53 -70c-28 -12.667 -107 -25 -237 -37c-26 -2.66699 -88 -12.334 -186 -29.001c-77.333 -12.667 -139.333 -19 -186 -19c-60 0 -94 33 -102 99c0 13.333 -1.33301 33.333 -4 60
c-2 13.333 -11.667 40 -29 80c-56.667 -6 -122.667 -9 -198 -9c-48.667 0 -113 1.66699 -193 5c-100 4 -163.667 6.33301 -191 7c-10 -42 -31 -102.333 -63 -181c-16.667 -29.333 -38.334 -44 -65.001 -44c-45.333 0 -68 20 -68 60c0 4.66699 1 11.334 3 20.001
c43.333 169.333 103.666 372 180.999 608l113 322c14.667 49.333 30 98.333 46 147c22 64.667 43.667 109.667 65 135c28.667 32.667 60.667 49 96 49c39.333 0 71.666 -10.667 96.999 -32c34 -29.333 75.333 -127.666 124 -294.999l115 -372
c13.333 122.667 20 229.667 20 321c0 72.667 -2.66699 127 -8 163c-2.66699 15.333 -4 23.333 -4 24c0 34 10.833 63.667 32.5 89s49.5 36 83.5 32c106 51.333 276.667 77 512 77c98 0 147 -34.667 147 -104zM748.002 443.999l-195 530.999
c-28.667 -57.333 -105 -236.666 -229 -537.999c174 6.66699 277.667 10 311 10c34 0 71.667 -1 113 -3z" />
    <glyph glyph-name="Egrave" unicode="&#xc8;" horiz-adv-x="930" 
d="M553 1527c0 -20 -7.99805 -37.668 -23.998 -53.001s-34.333 -23 -55 -23c-22.667 0 -41.334 11.333 -56.001 34c-12.667 18 -39.167 71.167 -79.5 159.5s-60.5 138.5 -60.5 150.5c0 22 8.5 41.5 25.5 58.5s36.5 25.5 58.5 25.5c32 0 58.667 -20 80 -60
c19.333 -35.333 41.666 -83.666 66.999 -144.999c29.333 -74 44 -123 44 -147zM874.002 1260c0 -54.667 -33.667 -89.6621 -101 -104.995c-35.333 -8 -86 -12.333 -152 -13c-71.333 -2.66699 -122 -6 -152 -10c-21.333 -4 -65 -13.667 -131 -29
c6.66699 -42.667 10 -85.334 10 -128.001c0 -60.667 -5 -131.334 -15 -212.001c56.667 13.333 127.667 20 213 20c86.667 0 148.667 -6.66699 186 -20c46.667 -17.333 70 -47 70 -89c0 -26 -8.5 -49.833 -25.5 -71.5s-38.167 -32.5 -63.5 -32.5
c-16.667 0 -41.5 1.16699 -74.5 3.5s-58.167 3.5 -75.5 3.5c-69.333 0 -155.333 -4 -258 -12c-11.333 -78.667 -24.666 -197 -39.999 -355c209.333 13.333 372 20 488 20c46.667 0 70 -24.333 70 -73c0 -32.667 -17.667 -57.667 -53 -75
c-26.667 -12.667 -114.334 -25.334 -263.001 -38.001c-80.667 -6.66699 -187 -21.334 -319 -44.001c-14 -2 -23.333 -3 -28 -3c-70 0 -105 63 -105 189c0 83.333 9.33301 208 28 374s28 290.667 28 374c0 26 -2.5 64.833 -7.5 116.5s-7.5 90.5 -7.5 116.5
c0 33.333 11 62.166 33 86.499s49.667 34.833 83 31.5c106.667 51.333 276.667 77 510 77c101.333 0 152 -34 152 -102z" />
    <glyph glyph-name="Eacute" unicode="&#xc9;" horiz-adv-x="915" 
d="M688 1799c0 -22.667 -22.665 -75.666 -67.998 -158.999c-42.667 -78.667 -73.834 -129.834 -93.501 -153.501s-40.834 -35.5 -63.501 -35.5c-20.667 0 -39 7 -55 21s-24 31.333 -24 52c0 19.333 24.667 74.166 74 164.499s82.833 143.333 100.5 159
s34.167 23.5 49.5 23.5c20 0 38.333 -7.16699 55 -21.5s25 -31.166 25 -50.499zM867.002 1260c0 -54.667 -33.668 -89.6621 -101.001 -104.995c-35.333 -8 -86 -12.333 -152 -13c-71.333 -2.66699 -121.666 -6 -150.999 -10c-22 -4 -66 -13.667 -132 -29
c6.66699 -42.667 10 -85.334 10 -128.001c0 -60.667 -5 -131.334 -15 -212.001c56.667 13.333 127.667 20 213 20c86.667 0 148.667 -6.66699 186 -20c46.667 -17.333 70 -47 70 -89c0 -26 -8.5 -49.833 -25.5 -71.5s-37.833 -32.5 -62.5 -32.5
c-17.333 0 -42.5 1.16699 -75.5 3.5s-58.167 3.5 -75.5 3.5c-69.333 0 -155 -4 -257 -12c-11.333 -78.667 -25 -197 -41 -355c209.333 13.333 372 20 488 20c46.667 0 70 -24.333 70 -73c0 -32.667 -17.667 -57.667 -53 -75c-26 -12.667 -113.667 -25.334 -263 -38.001
c-80.667 -6.66699 -187 -21.334 -319 -44.001c-14 -2 -23 -3 -27 -3c-70.667 0 -106 63 -106 189c0 83.333 9.33301 208 28 374s28 290.667 28 374c0 26 -2.5 64.833 -7.5 116.5s-7.5 90.5 -7.5 116.5c0 33.333 11 62.166 33 86.499s49.667 34.833 83 31.5
c106.667 51.333 276.667 77 510 77c101.333 0 152 -34 152 -102z" />
    <glyph glyph-name="Ecircumflex" unicode="&#xca;" horiz-adv-x="927" 
d="M669 1514c0 -17.333 -7.33203 -32.167 -21.999 -44.5s-31.334 -18.5 -50.001 -18.5c-34 0 -82.333 68.667 -145 206c-20 -36 -54 -87.667 -102 -155c-16 -18 -33 -27 -51 -27c-41.333 0 -62 18.667 -62 56c0 20.667 26 69 78 145s88 122 108 138c16 12.667 31 19 45 19
c19.333 0 36.833 -10.167 52.5 -30.5s44.167 -68.833 85.5 -145.5c42 -79.333 63 -127 63 -143zM874.001 1260c0 -54.667 -33.667 -89.6621 -101 -104.995c-35.333 -8 -86 -12.333 -152 -13c-71.333 -2.66699 -122 -6 -152 -10c-21.333 -4 -65 -13.667 -131 -29
c6.66699 -42.667 10 -85.334 10 -128.001c0 -60.667 -5 -131.334 -15 -212.001c56.667 13.333 127.667 20 213 20c86.667 0 148.667 -6.66699 186 -20c46.667 -17.333 70 -47 70 -89c0 -26 -8.5 -49.833 -25.5 -71.5s-38.167 -32.5 -63.5 -32.5
c-16.667 0 -41.5 1.16699 -74.5 3.5s-58.167 3.5 -75.5 3.5c-69.333 0 -155.333 -4 -258 -12c-11.333 -78.667 -24.666 -197 -39.999 -355c209.333 13.333 372 20 488 20c46.667 0 70 -24.333 70 -73c0 -32.667 -17.667 -57.667 -53 -75
c-26.667 -12.667 -114.334 -25.334 -263.001 -38.001c-80.667 -6.66699 -187 -21.334 -319 -44.001c-14 -2 -23.333 -3 -28 -3c-70 0 -105 63 -105 189c0 83.333 9.33301 208 28 374s28 290.667 28 374c0 26 -2.5 64.833 -7.5 116.5s-7.5 90.5 -7.5 116.5
c0 33.333 11 62.166 33 86.499s49.667 34.833 83 31.5c106.667 51.333 276.667 77 510 77c101.333 0 152 -34 152 -102z" />
    <glyph glyph-name="Edieresis" unicode="&#xcb;" horiz-adv-x="918" 
d="M727 1568c0 -10 -8 -28.667 -24 -56c-24 -40.667 -50 -61 -78 -61c-24 0 -44.5 7.66699 -61.5 23s-25.5 35 -25.5 59c0 27.333 11 54.333 33 81s46.667 40 74 40c22.667 0 42 -8.5 58 -25.5s24 -37.167 24 -60.5zM355 1533c0 -23.333 -8.5 -42.833 -25.5 -58.5
s-36.833 -23.5 -59.5 -23.5c-57.333 0 -86 34 -86 102c0 64 28.667 96 86 96c56.667 0 85 -38.667 85 -116zM869 1260c0 -54.667 -33.665 -89.6621 -100.998 -104.995c-35.333 -8 -86 -12.333 -152 -13c-71.333 -2.66699 -122 -6 -152 -10c-21.333 -4 -65 -13.667 -131 -29
c6.66699 -42.667 10 -85.334 10 -128.001c0 -60.667 -5 -131.334 -15 -212.001c56.667 13.333 127.667 20 213 20c86.667 0 148.667 -6.66699 186 -20c46.667 -17.333 70 -47 70 -89c0 -26 -8.5 -49.833 -25.5 -71.5s-38.167 -32.5 -63.5 -32.5
c-16.667 0 -41.5 1.16699 -74.5 3.5s-58.167 3.5 -75.5 3.5c-69.333 0 -155.333 -4 -258 -12c-11.333 -78.667 -25 -197 -41 -355c209.333 13.333 372.333 20 489 20c46 0 69 -24.333 69 -73c0 -32.667 -17.333 -57.667 -52 -75
c-26.667 -12.667 -114.334 -25.334 -263.001 -38.001c-80.667 -6.66699 -187 -21.334 -319 -44.001c-14 -2 -23.333 -3 -28 -3c-70.667 0 -106 63 -106 189c0 83.333 9.5 208 28.5 374s28.5 290.667 28.5 374c0 26 -2.66699 64.833 -8 116.5s-8 90.5 -8 116.5
c0 33.333 11.167 62.166 33.5 86.499s50.166 34.833 83.499 31.5c106.667 51.333 276.667 77 510 77c101.333 0 152 -34 152 -102z" />
    <glyph glyph-name="Igrave" unicode="&#xcc;" horiz-adv-x="655" 
d="M406 1527c0 -20 -7.99805 -37.668 -23.998 -53.001s-34 -23 -54 -23c-22.667 0 -41.667 11.333 -57 34c-12 18 -38.333 71.167 -79 159.5s-61 138.5 -61 150.5c0 22 8.66699 41.5 26 58.5s36.666 25.5 57.999 25.5c32 0 58.667 -20 80 -60
c19.333 -35.333 41.666 -83.666 66.999 -144.999c29.333 -74 44 -123 44 -147zM638.002 1277c0 -62.667 -64.334 -96.3311 -193.001 -100.998c0 -19.333 -0.833008 -50.333 -2.5 -93s-2.5 -75 -2.5 -97v-206c0 -52.667 -2.5 -130.334 -7.5 -233.001
s-7.5 -180.334 -7.5 -233.001c0 -32 2.33301 -80.333 7 -145c103.333 -3.33301 155 -32.333 155 -87c0 -48.667 -37 -73 -111 -73h-305c-18.667 0 -33.667 7.66699 -45 23s-17 32 -17 50c0 51.333 57 79.333 171 84c-16 182 -38.667 455.333 -68 820
c-7.33301 91.333 -10.333 153 -9 185c-17.333 -1.33301 -32.666 -2 -45.999 -2c-87.333 0 -131 30.333 -131 91c0 44 29.5 73.333 88.5 88s138.5 22 238.5 22h123c108 0 162 -31 162 -93z" />
    <glyph glyph-name="Iacute" unicode="&#xcd;" horiz-adv-x="659" 
d="M548 1799c0 -22.667 -22.6641 -75.666 -67.9971 -158.999c-42.667 -78.667 -73.834 -129.834 -93.501 -153.501s-40.834 -35.5 -63.501 -35.5c-20.667 0 -39 7 -55 21s-24 31.333 -24 52c0 19.333 24.833 74.166 74.5 164.499s83.167 143.333 100.5 159
s33.666 23.5 48.999 23.5c20 0 38.333 -7.16699 55 -21.5s25 -31.166 25 -50.499zM625.003 1277c0 -62.667 -64.333 -96.3311 -193 -100.998c0 -19.333 -0.833008 -50.333 -2.5 -93s-2.5 -75 -2.5 -97v-206c0 -52.667 -2.66699 -130.334 -8 -233.001
s-8 -180.334 -8 -233.001c0 -32 2.33301 -80.333 7 -145c103.333 -3.33301 155 -32.333 155 -87c0 -48.667 -36.667 -73 -110 -73h-306c-18 0 -32.667 7.66699 -44 23s-17 32 -17 50c0 51.333 56.667 79.333 170 84c-16 182 -38.667 455.333 -68 820
c-6.66699 91.333 -9.66699 153 -9 185c-16.667 -1.33301 -32 -2 -46 -2c-87.333 0 -131 30.333 -131 91c0 44 29.5 73.333 88.5 88s138.833 22 239.5 22h123c108 0 162 -31 162 -93z" />
    <glyph glyph-name="Icircumflex" unicode="&#xce;" horiz-adv-x="666" 
d="M519 1514c0 -17.333 -7.50098 -32.167 -22.501 -44.5s-31.5 -18.5 -49.5 -18.5c-34 0 -82.333 68.667 -145 206c-20.667 -36 -54.667 -87.667 -102 -155c-16 -18 -33.333 -27 -52 -27c-40.667 0 -61 18.667 -61 56c0 20.667 25.833 69 77.5 145s87.834 122 108.501 138
c16 12.667 30.667 19 44 19c19.333 0 37 -10.167 53 -30.5s44.667 -68.833 86 -145.5c42 -79.333 63 -127 63 -143zM639.999 1277c0 -62.667 -64.333 -96.3311 -193 -100.998c0 -19.333 -0.833008 -50.333 -2.5 -93s-2.5 -75 -2.5 -97v-206
c0 -52.667 -2.5 -130.334 -7.5 -233.001s-7.5 -180.334 -7.5 -233.001c0 -32 2 -80.333 6 -145c104 -3.33301 156 -32.333 156 -87c0 -48.667 -37 -73 -111 -73h-306c-18 0 -32.667 7.66699 -44 23s-17 32 -17 50c0 51.333 57 79.333 171 84l-69 820
c-6.66699 91.333 -9.33398 153 -8.00098 185c-17.333 -1.33301 -32.666 -2 -45.999 -2c-88 0 -132 30.333 -132 91c0 44 29.667 73.333 89 88s139 22 239 22h123c108 0 162 -31 162 -93z" />
    <glyph glyph-name="Idieresis" unicode="&#xcf;" horiz-adv-x="669" 
d="M613 1568c0 -10 -7.99902 -28.667 -23.999 -56c-24 -40.667 -50.333 -61 -79 -61c-24 0 -44.5 7.66699 -61.5 23s-25.5 35 -25.5 59c0 27.333 11.167 54.333 33.5 81s47.166 40 74.499 40c22.667 0 42 -8.5 58 -25.5s24 -37.167 24 -60.5zM241.001 1533
c0 -23.333 -8.66699 -42.833 -26 -58.5s-37.333 -23.5 -60 -23.5c-56.667 0 -85 34 -85 102c0 64 28.333 96 85 96c57.333 0 86 -38.667 86 -116zM638.001 1277c0 -62.667 -64.334 -96.3311 -193.001 -100.998c0 -19.333 -0.833008 -50.333 -2.5 -93s-2.5 -75 -2.5 -97v-206
c0 -52.667 -2.5 -130.334 -7.5 -233.001s-7.5 -180.334 -7.5 -233.001c0 -32 2.33301 -80.333 7 -145c103.333 -3.33301 155 -32.333 155 -87c0 -48.667 -37 -73 -111 -73h-305c-18.667 0 -33.667 7.66699 -45 23s-17 32 -17 50c0 51.333 57 79.333 171 84
c-16 182 -38.667 455.333 -68 820c-7.33301 91.333 -10.333 153 -9 185c-17.333 -1.33301 -32.666 -2 -45.999 -2c-87.333 0 -131 30.333 -131 91c0 44 29.5 73.333 88.5 88s138.5 22 238.5 22h123c108 0 162 -31 162 -93z" />
    <glyph glyph-name="Ntilde" unicode="&#xd1;" horiz-adv-x="1114" 
d="M821 1567c0 -34 -19.334 -62.668 -58.001 -86.001c-33.333 -20 -68 -30 -104 -30c-30.667 0 -69.667 10.833 -117 32.5s-80.666 32.5 -99.999 32.5s-38.333 -11.5 -57 -34.5s-37.667 -34.5 -57 -34.5c-18.667 0 -34.834 6.83301 -48.501 20.5s-20.5 29.834 -20.5 48.501
c0 37.333 20.333 73.333 61 108s80.334 52 119.001 52c26 0 62.333 -10.5 109 -31.5s82.334 -31.5 107.001 -31.5c11.333 0 27 4 47 12s35.667 12 47 12c19.333 0 36.166 -6.83301 50.499 -20.5s21.5 -30.167 21.5 -49.5zM1060 729.999
c0 -16.667 -1.33203 -74.6689 -3.99902 -174.002c-3.33301 -162.667 -13.333 -277.334 -30 -344.001c-36.667 -144.667 -108.334 -217 -215.001 -217c-96 0 -185 57 -267 171c-42.667 60 -94.334 159.333 -155.001 298l-104 248c-6.66699 -214 -10.667 -328 -12 -342
c-9.33301 -161.333 -25.666 -267 -48.999 -317c-15.333 -32 -34.333 -48 -57 -48c-18 0 -34.333 6.83301 -49 20.5s-22 29.5 -22 47.5c0 -3.33301 1 0.666992 3 12c11.333 58 17 134.333 17 229s-10.167 236.334 -30.5 425.001s-30.5 330.334 -30.5 425.001
c0 132 42 198 126 198c74 0 131 -45.667 171 -137c6.66699 -13.333 30 -90.666 70 -231.999c36 -128.667 91 -278.334 165 -449.001c95.333 -219.333 174 -346 236 -380c37.333 50 56 143.667 56 281c0 157.333 -16 348 -48 572c-11.333 80 -17 135.333 -17 166
c0 40.667 9 76 27 106c22 34.667 51.667 52 89 52c82 0 123 -111.333 123 -334c0 -30.667 1.16699 -76.667 3.5 -138s3.5 -107.666 3.5 -138.999z" />
    <glyph glyph-name="Ograve" unicode="&#xd2;" horiz-adv-x="1159" 
d="M727 1527c0 -20 -7.99902 -37.668 -23.999 -53.001s-34 -23 -54 -23c-23.333 0 -42.333 11.333 -57 34c-12.667 18 -39.167 71.167 -79.5 159.5s-60.5 138.5 -60.5 150.5c0 22 8.5 41.5 25.5 58.5s36.5 25.5 58.5 25.5c32 0 58.667 -20 80 -60
c19.333 -35.333 41.666 -83.666 66.999 -144.999c29.333 -74 44 -123 44 -147zM1123 791.999c0 -201.333 -41.001 -375.333 -123.001 -522c-101.333 -178 -244.666 -267 -429.999 -267c-50 0 -101.667 8 -155 24c-119.333 36.667 -213 104.5 -281 203.5
s-102 212.167 -102 339.5c0 188 60 364.333 180 529c130.667 180 286 270 466 270c124 0 226.667 -48.333 308 -145c75.333 -88 119.333 -195.667 132 -323c3.33301 -32 5 -68.333 5 -109zM961 613.999c0 99.333 -16 194.332 -48 284.999c-40 112 -95.667 187.667 -167 227
c-14.667 8 -27.667 12 -39 12c-17.333 0 -42 -4 -74 -12s-56.333 -12 -73 -12c-6 0 -12.333 1.33301 -19 4c-90 -52.667 -162.833 -130.167 -218.5 -232.5s-83.5 -206.5 -83.5 -312.5c0 -68 11.333 -128.667 34 -182c28.667 -67.333 75.334 -121.666 140.001 -162.999
s134 -62 208 -62c107.333 0 192.666 50 255.999 150c56 86 84 185.333 84 298z" />
    <glyph glyph-name="Oacute" unicode="&#xd3;" horiz-adv-x="1161" 
d="M881 1799c0 -22.667 -23.002 -75.666 -69.002 -158.999c-42 -78.667 -73 -129.834 -93 -153.501s-41.333 -35.5 -64 -35.5c-20 0 -38 7 -54 21s-24 31.333 -24 52c0 19.333 24.667 74.166 74 164.499s82.833 143.333 100.5 159s33.834 23.5 48.501 23.5
c20.667 0 39.334 -7.16699 56.001 -21.5s25 -31.166 25 -50.499zM1116 792.001c0 -201.333 -41.002 -375.333 -123.002 -522c-101.333 -178 -244.666 -267 -429.999 -267c-50 0 -101.667 8 -155 24c-119.333 36.667 -212.833 104.5 -280.5 203.5
s-101.5 212.167 -101.5 339.5c0 188 59.667 364.333 179 529c130.667 180 286 270 466 270c124 0 227 -48.333 309 -145c74.667 -88 118.334 -195.667 131.001 -323c3.33301 -32 5 -68.333 5 -109zM953.996 614.001c0 99.333 -16 194.332 -48 284.999
c-39.333 112 -95 187.667 -167 227c-14.667 8 -27.667 12 -39 12c-17.333 0 -41.833 -4 -73.5 -12s-56.167 -12 -73.5 -12c-6 0 -12.333 1.33301 -19 4c-90 -52.667 -162.833 -130.167 -218.5 -232.5s-83.5 -206.5 -83.5 -312.5c0 -68 11.333 -128.667 34 -182
c28.667 -67.333 75.334 -121.666 140.001 -162.999s134 -62 208 -62c107.333 0 192.666 50 255.999 150c56 86 84 185.333 84 298z" />
    <glyph glyph-name="Ocircumflex" unicode="&#xd4;" horiz-adv-x="1166" 
d="M864 1514c0 -17.333 -7.50098 -32.167 -22.501 -44.5s-31.5 -18.5 -49.5 -18.5c-34 0 -82.333 68.667 -145 206c-20.667 -36 -55 -87.667 -103 -155c-15.333 -18 -32.333 -27 -51 -27c-40.667 0 -61 18.667 -61 56c0 20.667 25.833 69 77.5 145s87.834 122 108.501 138
c16 12.667 30.667 19 44 19c19.333 0 37 -10.167 53 -30.5s44.333 -68.833 85 -145.5c42.667 -79.333 64 -127 64 -143zM1123 791.999c0 -201.333 -41.001 -375.333 -123.001 -522c-101.333 -178 -244.666 -267 -429.999 -267c-50 0 -101.667 8 -155 24
c-119.333 36.667 -213 104.5 -281 203.5s-102 212.167 -102 339.5c0 188 60 364.333 180 529c130.667 180 286 270 466 270c124 0 226.667 -48.333 308 -145c75.333 -88 119.333 -195.667 132 -323c3.33301 -32 5 -68.333 5 -109zM960.998 613.999
c0 99.333 -16 194.332 -48 284.999c-40 112 -95.667 187.667 -167 227c-14.667 8 -27.667 12 -39 12c-17.333 0 -42 -4 -74 -12s-56.333 -12 -73 -12c-6 0 -12.333 1.33301 -19 4c-90 -52.667 -162.833 -130.167 -218.5 -232.5s-83.5 -206.5 -83.5 -312.5
c0 -68 11.333 -128.667 34 -182c28.667 -67.333 75.334 -121.666 140.001 -162.999s134 -62 208 -62c107.333 0 192.666 50 255.999 150c56 86 84 185.333 84 298z" />
    <glyph glyph-name="Otilde" unicode="&#xd5;" 
d="M922 1567c0 -34 -19.334 -62.668 -58.001 -86.001c-33.333 -20 -68.333 -30 -105 -30c-30.667 0 -69.5 10.833 -116.5 32.5s-80.167 32.5 -99.5 32.5s-38.5 -11.5 -57.5 -34.5s-38.167 -34.5 -57.5 -34.5c-18 0 -33.833 6.83301 -47.5 20.5s-20.5 29.834 -20.5 48.501
c0 37.333 20.167 73.333 60.5 108s79.833 52 118.5 52c26.667 0 63.334 -10.5 110.001 -31.5s82.334 -31.5 107.001 -31.5c11.333 0 27 4 47 12s35.667 12 47 12c19.333 0 36.166 -6.83301 50.499 -20.5s21.5 -30.167 21.5 -49.5zM1128 791.999
c0 -201.333 -41.002 -375.333 -123.002 -522c-101.333 -178 -244.666 -267 -429.999 -267c-50 0 -101.667 8 -155 24c-119.333 36.667 -212.833 104.5 -280.5 203.5s-101.5 212.167 -101.5 339.5c0 188 59.667 364.333 179 529c130.667 180 286 270 466 270
c124 0 227 -48.333 309 -145c74.667 -88 118.334 -195.667 131.001 -323c3.33301 -32 5 -68.333 5 -109zM965.997 613.999c0 99.333 -16 194.332 -48 284.999c-40 112 -95.667 187.667 -167 227c-14.667 8 -27.667 12 -39 12c-17.333 0 -41.833 -4 -73.5 -12
s-56.167 -12 -73.5 -12c-6 0 -12.333 1.33301 -19 4c-90 -52.667 -162.833 -130.167 -218.5 -232.5s-83.5 -206.5 -83.5 -312.5c0 -68 11.333 -128.667 34 -182c28.667 -67.333 75.334 -121.666 140.001 -162.999s134 -62 208 -62c107.333 0 192.666 50 255.999 150
c56 86 84 185.333 84 298z" />
    <glyph glyph-name="Odieresis" unicode="&#xd6;" 
d="M913 1568c0 -10 -8 -28.667 -24 -56c-24 -40.667 -50 -61 -78 -61c-24 0 -44.5 7.66699 -61.5 23s-25.5 35 -25.5 59c0 27.333 11 54.333 33 81s46.667 40 74 40c22.667 0 42 -8.5 58 -25.5s24 -37.167 24 -60.5zM541 1533c0 -23.333 -8.5 -42.833 -25.5 -58.5
s-36.833 -23.5 -59.5 -23.5c-57.333 0 -86 34 -86 102c0 64 28.667 96 86 96c56.667 0 85 -38.667 85 -116zM1128 792c0 -201.333 -41.002 -375.333 -123.002 -522c-101.333 -178 -244.666 -267 -429.999 -267c-50 0 -101.667 8 -155 24
c-119.333 36.667 -212.833 104.5 -280.5 203.5s-101.5 212.167 -101.5 339.5c0 188 59.667 364.333 179 529c130.667 180 286 270 466 270c124 0 227 -48.333 309 -145c74.667 -88 118.334 -195.667 131.001 -323c3.33301 -32 5 -68.333 5 -109zM965.998 614
c0 99.333 -16 194.332 -48 284.999c-40 112 -95.667 187.667 -167 227c-14.667 8 -27.667 12 -39 12c-17.333 0 -41.833 -4 -73.5 -12s-56.167 -12 -73.5 -12c-6 0 -12.333 1.33301 -19 4c-90 -52.667 -162.833 -130.167 -218.5 -232.5s-83.5 -206.5 -83.5 -312.5
c0 -68 11.333 -128.667 34 -182c28.667 -67.333 75.334 -121.666 140.001 -162.999s134 -62 208 -62c107.333 0 192.666 50 255.999 150c56 86 84 185.333 84 298z" />
    <glyph glyph-name="multiply" unicode="&#xd7;" horiz-adv-x="945" 
d="M768 340c0 -19.333 -7.33301 -36.499 -22 -51.499s-31.667 -22.5 -51 -22.5c-23.333 0 -60.333 26.667 -111 80l-99 111l-101 -116c-50 -54.667 -87.667 -82 -113 -82c-21.333 0 -40.5 8.66699 -57.5 26s-25.5 36.666 -25.5 57.999c0 16 8.83301 34.5 26.5 55.5
s45.834 49.167 84.501 84.5c44 37.333 74 65.333 90 84l-99 93c-48 46.667 -72 81 -72 103c0 18 7.16699 34.167 21.5 48.5s30.5 21.5 48.5 21.5c27.333 0 61.666 -22.667 102.999 -68l87 -103l83 103c41.333 47.333 74 71 98 71c19.333 0 36.333 -7 51 -21
s22 -30.667 22 -50c0 -20.667 -51 -89.667 -153 -207l112 -102c51.333 -50 77 -88.667 77 -116z" />
    <glyph glyph-name="Oslash" unicode="&#xd8;" horiz-adv-x="1171" 
d="M1128 792c0 -201.333 -41.0029 -374.999 -123.003 -520.999c-101.333 -178.667 -244.666 -268 -429.999 -268c-34 0 -68 3.66699 -102 11c-6.66699 -28.667 -18 -71.334 -34 -128.001c-10.667 -35.333 -30 -53 -58 -53c-54.667 0 -82 25 -82 75
c0 22.667 9.66699 75 29 157c-93.333 48 -165.666 118 -216.999 210c-48.667 88.667 -73 187 -73 295c0 188 59.667 364.333 179 529c130.667 180 286 270 466 270c40.667 0 81 -6.33301 121 -19c4.66699 18 13.167 45.833 25.5 83.5s38.5 56.5 78.5 56.5
c20.667 0 40.334 -6.33301 59.001 -19s28 -29 28 -49c0 -15.333 -14.333 -67.666 -43 -156.999c117.333 -104.667 176 -262.334 176 -473.001zM965.997 614.001c0 156 -33.999 289.333 -101.999 400c-78.667 -184.667 -191 -463 -337 -835
c33.333 -8.66699 66.333 -13 99 -13c107.333 0 192.666 50 255.999 150c56 86 84 185.333 84 298zM729.998 1135c-6.66699 2 -12.667 2.99902 -18 2.99902c-17.333 0 -41.833 -4 -73.5 -12s-56.167 -12 -73.5 -12c-6 0 -12.333 1.33301 -19 4
c-90 -52.667 -162.833 -130.167 -218.5 -232.5s-83.5 -206.5 -83.5 -312.5c0 -136 45.667 -241.667 137 -317c36 114.667 92.333 262 169 442c96.667 226.667 156.667 372.334 180 437.001z" />
    <glyph glyph-name="Ugrave" unicode="&#xd9;" horiz-adv-x="1091" 
d="M613 1527c0 -20 -7.99902 -37.668 -23.999 -53.001s-34.333 -23 -55 -23c-22.667 0 -41.334 11.333 -56.001 34c-12.667 18 -39.167 71.167 -79.5 159.5s-60.5 138.5 -60.5 150.5c0 22 8.5 41.5 25.5 58.5s36.5 25.5 58.5 25.5c31.333 0 58 -20 80 -60
c19.333 -35.333 41.333 -83.666 66 -144.999c30 -74 45 -123 45 -147zM1055 892.999c0 -218.667 -32.665 -407.664 -97.998 -566.997c-88.667 -219.333 -225.667 -329 -411 -329c-109.333 0 -209 44.667 -299 134c-79.333 81.333 -135 178.666 -167 291.999
c-24 85.333 -36 188.333 -36 309c0 41.333 2 102.666 6 183.999s6 142.333 6 183c0 56 -4 115.333 -12 178c60.667 47.333 111 71 151 71c21.333 0 37 -14.667 47 -44c14 -38.667 21 -105.334 21 -200.001c0 -56.667 -1.5 -141.667 -4.5 -255s-4.5 -198.333 -4.5 -255
c0 -143.333 16 -244 48 -302c45.333 -80.667 133.666 -121 264.999 -121c108.667 0 183.667 41.333 225 124c29.333 59.333 44 150 44 272c0 190 -5 336.667 -15 440s-15 162.333 -15 177c0 46.667 8.33301 86 25 118c22 40 54 60 96 60
c53.333 0 88.666 -28.333 105.999 -85c7.33301 -27.333 12.333 -77.666 15 -150.999c4.66699 -170.667 7 -248.334 7 -233.001z" />
    <glyph glyph-name="Uacute" unicode="&#xda;" horiz-adv-x="1092" 
d="M751 1799c0 -22.667 -22.6689 -75.666 -68.002 -158.999c-42 -78.667 -73 -129.834 -93 -153.501s-41.333 -35.5 -64 -35.5c-20.667 0 -39 7 -55 21s-24 31.333 -24 52c0 19.333 24.833 74.166 74.5 164.499s83.334 143.333 101.001 159s33.834 23.5 48.501 23.5
c20 0 38.333 -7.16699 55 -21.5s25 -31.166 25 -50.499zM1048 893.001c0 -218.667 -32.334 -407.664 -97.001 -566.997c-89.333 -219.333 -226.666 -329 -411.999 -329c-109.333 0 -208.666 44.667 -297.999 134c-80 81.333 -136 178.666 -168 291.999
c-23.333 85.333 -35 188.333 -35 309c0 41.333 1.83301 102.666 5.5 183.999s5.5 142.333 5.5 183c0 56 -3.66699 115.333 -11 178c60 47.333 110 71 150 71c21.333 0 37.333 -14.667 48 -44c13.333 -38.667 20 -105.334 20 -200.001c0 -56.667 -1.5 -141.667 -4.5 -255
s-4.5 -198.333 -4.5 -255c0 -143.333 16 -244 48 -302c46 -80.667 134.333 -121 265 -121c109.333 0 184.333 41.333 225 124c29.333 59.333 44 150 44 272c0 190 -5 336.667 -15 440s-15 162.333 -15 177c0 46.667 8.33301 86 25 118c22 40 54 60 96 60
c53.333 0 88.666 -28.333 105.999 -85c8 -27.333 13 -77.666 15 -150.999c4.66699 -170.667 7 -248.334 7 -233.001z" />
    <glyph glyph-name="Ucircumflex" unicode="&#xdb;" horiz-adv-x="1097" 
d="M754 1514c0 -17.333 -7.33398 -32.167 -22.001 -44.5s-31 -18.5 -49 -18.5c-34.667 0 -83 68.667 -145 206c-20.667 -36 -55 -87.667 -103 -155c-16 -18 -33 -27 -51 -27c-40.667 0 -61 18.667 -61 56c0 20.667 25.833 69 77.5 145s87.834 122 108.501 138
c15.333 12.667 30 19 44 19c19.333 0 37 -10.167 53 -30.5s44.333 -68.833 85 -145.5c42 -79.333 63 -127 63 -143zM1055 892.999c0 -218.667 -32.665 -407.664 -97.998 -566.997c-88.667 -219.333 -225.667 -329 -411 -329c-109.333 0 -209 44.667 -299 134
c-79.333 81.333 -135 178.666 -167 291.999c-24 85.333 -36 188.333 -36 309c0 41.333 2 102.666 6 183.999s6 142.333 6 183c0 56 -4 115.333 -12 178c60.667 47.333 111 71 151 71c21.333 0 37 -14.667 47 -44c14 -38.667 21 -105.334 21 -200.001
c0 -56.667 -1.5 -141.667 -4.5 -255s-4.5 -198.333 -4.5 -255c0 -143.333 16 -244 48 -302c45.333 -80.667 133.666 -121 264.999 -121c108.667 0 183.667 41.333 225 124c29.333 59.333 44 150 44 272c0 190 -5 336.667 -15 440s-15 162.333 -15 177
c0 46.667 8.33301 86 25 118c22 40 54 60 96 60c53.333 0 88.666 -28.333 105.999 -85c7.33301 -27.333 12.333 -77.666 15 -150.999c4.66699 -170.667 7 -248.334 7 -233.001z" />
    <glyph glyph-name="Udieresis" unicode="&#xdc;" horiz-adv-x="1109" 
d="M800 1568c0 -10 -7.66699 -28.667 -23 -56c-24 -40.667 -50.333 -61 -79 -61c-24 0 -44.5 7.66699 -61.5 23s-25.5 35 -25.5 59c0 27.333 11.167 54.333 33.5 81s47.166 40 74.499 40c22.667 0 41.834 -8.5 57.501 -25.5s23.5 -37.167 23.5 -60.5zM428 1533
c0 -23.333 -8.5 -42.833 -25.5 -58.5s-36.833 -23.5 -59.5 -23.5c-56.667 0 -85 34 -85 102c0 64 28.333 96 85 96s85 -38.667 85 -116zM1062 893c0 -218.667 -32.666 -407.664 -97.999 -566.997c-88.667 -219.333 -225.667 -329 -411 -329c-109.333 0 -209 44.667 -299 134
c-79.333 81.333 -135 178.666 -167 291.999c-24 85.333 -36 188.333 -36 309c0 41.333 2 102.666 6 183.999s6 142.333 6 183c0 56 -4 115.333 -12 178c60.667 47.333 110.667 71 150 71c22 0 38 -14.667 48 -44c14 -38.667 21 -105.334 21 -200.001
c0 -56.667 -1.5 -141.667 -4.5 -255s-4.5 -198.333 -4.5 -255c0 -143.333 16 -244 48 -302c45.333 -80.667 133.333 -121 264 -121c109.333 0 184.666 41.333 225.999 124c29.333 59.333 44 150 44 272c0 190 -5.16699 336.667 -15.5 440s-15.5 162.333 -15.5 177
c0 46.667 8.66699 86 26 118c21.333 40 53.333 60 96 60c53.333 0 88.333 -28.333 105 -85c8 -27.333 13.333 -77.666 16 -150.999c4.66699 -170.667 7 -248.334 7 -233.001z" />
    <glyph glyph-name="Yacute" unicode="&#xdd;" horiz-adv-x="1077" 
d="M758 1799c0 -22.667 -23 -75.666 -69 -158.999c-42 -78.667 -72.833 -129.834 -92.5 -153.501s-41.167 -35.5 -64.5 -35.5c-20 0 -38 7 -54 21s-24 31.333 -24 52c0 19.333 24.667 74.166 74 164.499s82.833 143.333 100.5 159s34.167 23.5 49.5 23.5
c20 0 38.333 -7.16699 55 -21.5s25 -31.166 25 -50.499zM1065 1260c0 -34.667 -16.665 -66.665 -49.998 -95.998c-28 -24 -57 -47.333 -87 -70c-36 -32 -69 -71.667 -99 -119c-66 -106 -133.667 -261 -203 -465c-77.333 -229.333 -138 -387.333 -182 -474h-12
c-70.667 0 -106 14.667 -106 44c0 4.66699 2.33301 12.667 7 24c58 146 105 295.667 141 449c-76 83.333 -168.667 198.333 -278 345c-58.667 79.333 -97.667 135.666 -117 168.999c-42.667 71.333 -64 135.666 -64 192.999c0 28 9.66699 51.667 29 71s43.333 29 72 29
c22.667 0 46.667 -10.333 72 -31c21.333 -18 56.666 -73.667 105.999 -167c44 -84 125.667 -204.667 245 -362c41.333 141.333 92.666 258 153.999 350c90.667 138 180 207 268 207c69.333 0 104 -32.333 104 -97z" />
    <glyph glyph-name="Thorn" unicode="&#xde;" horiz-adv-x="1335" 
d="M1283 736c0 -152.667 -100 -286.002 -300 -400.002c-153.333 -86 -323 -143.333 -509 -172c-0.666992 -56 -2.33398 -88.333 -5.00098 -97c-8 -38 -28.333 -57 -61 -57c-38.667 0 -58 23.333 -58 70c0 102.667 -11 247.667 -33 435
c-23.333 200.667 -36.333 345.334 -39 434.001c-51.333 2 -87 7.66699 -107 17c-33.333 14.667 -50 44.334 -50 89.001c0 44 17 74 51 90c19.333 9.33301 56.333 16.333 111 21c10.667 143.333 48.334 215 113.001 215c34 0 62.167 -13.5 84.5 -40.5
s33.5 -57.833 33.5 -92.5c0 -23.333 -2.33301 -48 -7 -74c401.333 -6.66699 646 -96 734 -268c28 -55.333 42 -112 42 -170zM1108 741.998c0 34.667 -14.334 67.332 -43.001 97.999c-69.333 76 -221.333 114 -456 114c-27.333 0 -67.666 -1 -120.999 -3
c-3.33301 -80 -5 -193.333 -5 -340v-41c0 -104.667 -0.666992 -186 -2 -244c178 38.667 327 97.334 447 176.001s180 158.667 180 240z" />
    <glyph glyph-name="germandbls" unicode="&#xdf;" horiz-adv-x="1287" 
d="M1241 410c0 -117.333 -35.8359 -214.165 -107.503 -290.498s-165.5 -114.5 -281.5 -114.5c-58 0 -119.833 11.667 -185.5 35s-120.167 53.333 -163.5 90c-31.333 27.333 -47 56.333 -47 87c0 27.333 9.83301 50.833 29.5 70.5s43.167 29.5 70.5 29.5
c23.333 0 69.333 -13.5 138 -40.5s123.334 -40.5 164.001 -40.5c49.333 0 87.333 15.333 114 46s40 71 40 121c0 63.333 -19 114.666 -57 153.999s-88.333 59 -151 59c-18 0 -45 -4 -81 -12s-63 -12 -81 -12c-28.667 0 -52.667 11.167 -72 33.5s-29 48.166 -29 77.499
c0 38.667 43 98.5 129 179.5s129 150.5 129 208.5c0 50 -25 75 -75 75c-88.667 0 -165 -33.667 -229 -101c-56 -58 -97 -133.667 -123 -227c-32 -114 -48 -258 -48 -432c0 -42 1.16699 -105.167 3.5 -189.5s3.5 -147.5 3.5 -189.5c0 -198 -11.333 -324.667 -34 -380
c-10 -26.667 -25.333 -40 -46 -40c-38.667 0 -58 19 -58 57c0 -1.33301 0.666992 2 2 10c12 85.333 18 167.333 18 246c0 66.667 -4.16699 167 -12.5 301s-12.5 234.333 -12.5 301c0 278 49.333 483 148 615c106 140.667 235.667 211 389 211
c86.667 0 152.834 -27.333 198.501 -82s68.5 -116 68.5 -184c0 -75.333 -35 -159.666 -105 -252.999c102.667 -15.333 187.334 -62.833 254.001 -142.5s100 -171.834 100 -276.501z" />
    <glyph glyph-name="agrave" unicode="&#xe0;" horiz-adv-x="1077" 
d="M534 1527c0 -20 -7.99805 -37.668 -23.998 -53.001s-34 -23 -54 -23c-22.667 0 -41.667 11.333 -57 34c-12 18 -38.333 71.167 -79 159.5s-61 138.5 -61 150.5c0 22 8.66699 41.5 26 58.5s36.666 25.5 57.999 25.5c32 0 58.667 -20 80 -60
c19.333 -35.333 41.666 -83.666 66.999 -144.999c29.333 -74 44 -123 44 -147zM1031 93.999c0 -19.333 -7.67188 -35.833 -23.0049 -49.5s-33.333 -20.5 -54 -20.5c-29.333 0 -53.666 17.667 -72.999 53l-62 162c-59.333 -6 -122.333 -9 -189 -9c-50 0 -115.667 2 -197 6
c-104.667 3.33301 -170 5.33301 -196 6c-10 -42 -30 -102.333 -60 -181c-16.667 -30.667 -37 -46 -61 -46c-17.333 0 -33 6 -47 18s-21 26.667 -21 44c0 6.66699 0.333008 13.334 1 20.001c27.333 173.333 71.333 384 132 632c76 316 138.667 508.333 188 577
c24.667 34 56.334 51 95.001 51c35.333 0 66.333 -10.5 93 -31.5s54.334 -68.5 83.001 -142.5l58 -164c56.667 -133.333 137.334 -336 242.001 -608c20.667 -22.667 29.334 -50.334 26.001 -83.001c43.333 -127.333 65 -205.333 65 -234zM723.997 448.999l-250.998 532
c-30 -70 -60.667 -158.667 -92 -266l-79 -271c157.333 5.33301 259.666 8 306.999 8c35.333 0 73.666 -1 114.999 -3z" />
    <glyph glyph-name="aacute" unicode="&#xe1;" horiz-adv-x="1075" 
d="M684 1799c0 -22.667 -22.667 -75.666 -68 -158.999c-42 -78.667 -73 -129.834 -93 -153.501s-41.333 -35.5 -64 -35.5c-20.667 0 -38.834 7 -54.501 21s-23.5 31.333 -23.5 52c0 19.333 24.667 74.166 74 164.499s82.833 143.333 100.5 159s33.834 23.5 48.501 23.5
c20.667 0 39.167 -7.16699 55.5 -21.5s24.5 -31.166 24.5 -50.499zM1029 94.001c0 -19.333 -7.66895 -35.833 -23.002 -49.5s-33.333 -20.5 -54 -20.5c-29.333 0 -53.666 17.667 -72.999 53l-62 162c-58.667 -6 -121.667 -9 -189 -9c-50 0 -115.333 2 -196 6
c-104.667 3.33301 -170 5.33301 -196 6c-10.667 -42 -30.667 -102.333 -60 -181c-17.333 -30.667 -38 -46 -62 -46c-16.667 0 -32.167 6 -46.5 18s-21.5 26.667 -21.5 44c0 6.66699 0.666992 13.334 2 20.001c27.333 173.333 71 384 131 632
c76.667 316 139.334 508.333 188.001 577c24.667 34 56.667 51 96 51c34.667 0 65.5 -10.5 92.5 -31.5s54.5 -68.5 82.5 -142.5l58 -164c57.333 -133.333 138.333 -336 243 -608c20 -22.667 28.333 -50.334 25 -83.001c43.333 -127.333 65 -205.333 65 -234z
M721.998 449.001l-251 532c-29.333 -70 -60 -158.667 -92 -266l-79 -271c157.333 5.33301 260 8 308 8c34.667 0 72.667 -1 114 -3z" />
    <glyph glyph-name="acircumflex" unicode="&#xe2;" horiz-adv-x="1082" 
d="M679 1514c0 -17.333 -7.33301 -32.167 -22 -44.5s-31 -18.5 -49 -18.5c-34.667 0 -83 68.667 -145 206c-20.667 -36 -55 -87.667 -103 -155c-16 -18 -33 -27 -51 -27c-41.333 0 -62 18.667 -62 56c0 20.667 26 69 78 145s88 122 108 138c16 12.667 31 19 45 19
c19.333 0 37 -10.167 53 -30.5s44.333 -68.833 85 -145.5c42 -79.333 63 -127 63 -143zM1034 93.999c0 -19.333 -7.66992 -35.833 -23.0029 -49.5s-33.333 -20.5 -54 -20.5c-29.333 0 -53.666 17.667 -72.999 53l-61 162c-59.333 -6 -122.666 -9 -189.999 -9
c-50 0 -115.333 2 -196 6c-104.667 3.33301 -170 5.33301 -196 6c-10.667 -42 -30.667 -102.333 -60 -181c-17.333 -30.667 -38 -46 -62 -46c-16.667 0 -32.167 6 -46.5 18s-21.5 26.667 -21.5 44c0 6.66699 0.666992 13.334 2 20.001c27.333 173.333 71 384 131 632
c76.667 316 139.334 508.333 188.001 577c25.333 34 57.333 51 96 51c35.333 0 66.333 -10.5 93 -31.5s54 -68.5 82 -142.5l58 -164c57.333 -133.333 138.333 -336 243 -608c20.667 -22.667 29 -50.334 25 -83.001c43.333 -127.333 65 -205.333 65 -234zM726.997 448.999
l-251 532c-29.333 -70 -60 -158.667 -92 -266l-79 -271c157.333 5.33301 260 8 308 8c35.333 0 73.333 -1 114 -3z" />
    <glyph glyph-name="atilde" unicode="&#xe3;" horiz-adv-x="1075" 
d="M748 1567c0 -34 -19.665 -62.668 -58.998 -86.001c-32.667 -20 -67.334 -30 -104.001 -30c-30.667 0 -69.5 10.833 -116.5 32.5s-80.167 32.5 -99.5 32.5s-38.5 -11.5 -57.5 -34.5s-38.167 -34.5 -57.5 -34.5c-18 0 -33.833 6.83301 -47.5 20.5
s-20.5 29.834 -20.5 48.501c0 37.333 20.167 73.333 60.5 108s79.833 52 118.5 52c26 0 62.333 -10.5 109 -31.5s82.667 -31.5 108 -31.5c11.333 0 27 4 47 12s35.667 12 47 12c19.333 0 36.166 -6.83301 50.499 -20.5s21.5 -30.167 21.5 -49.5zM1029 93.999
c0 -19.333 -7.66895 -35.833 -23.002 -49.5s-33.333 -20.5 -54 -20.5c-29.333 0 -53.666 17.667 -72.999 53l-62 162c-58.667 -6 -121.667 -9 -189 -9c-50 0 -115.333 2 -196 6c-104.667 3.33301 -170 5.33301 -196 6c-10.667 -42 -30.667 -102.333 -60 -181
c-17.333 -30.667 -38 -46 -62 -46c-16.667 0 -32.167 6 -46.5 18s-21.5 26.667 -21.5 44c0 6.66699 0.666992 13.334 2 20.001c27.333 173.333 71 384 131 632c76.667 316 139.334 508.333 188.001 577c24.667 34 56.667 51 96 51c34.667 0 65.5 -10.5 92.5 -31.5
s54.5 -68.5 82.5 -142.5l58 -164c57.333 -133.333 138.333 -336 243 -608c20 -22.667 28.333 -50.334 25 -83.001c43.333 -127.333 65 -205.333 65 -234zM722 448.999l-251 532c-29.333 -70 -60 -158.667 -92 -266l-79 -271c157.333 5.33301 260 8 308 8
c34.667 0 72.667 -1 114 -3z" />
    <glyph glyph-name="adieresis" unicode="&#xe4;" horiz-adv-x="1080" 
d="M741 1568c0 -10 -7.99902 -28.667 -23.999 -56c-24 -40.667 -50.333 -61 -79 -61c-24 0 -44.5 7.66699 -61.5 23s-25.5 35 -25.5 59c0 27.333 11.167 54.333 33.5 81s47.166 40 74.499 40c22.667 0 42 -8.5 58 -25.5s24 -37.167 24 -60.5zM369.001 1533
c0 -23.333 -8.66699 -42.833 -26 -58.5s-37.333 -23.5 -60 -23.5c-56.667 0 -85 34 -85 102c0 64 28.333 96 85 96c57.333 0 86 -38.667 86 -116zM1033 94c0 -19.333 -7.83789 -35.833 -23.5049 -49.5s-33.5 -20.5 -53.5 -20.5c-30 0 -54.667 17.667 -74 53l-61 162
c-59.333 -6 -122.666 -9 -189.999 -9c-50 0 -115.333 2 -196 6c-104.667 3.33301 -170 5.33301 -196 6c-10 -42 -30 -102.333 -60 -181c-16.667 -30.667 -37 -46 -61 -46c-17.333 0 -33.166 6 -47.499 18s-21.5 26.667 -21.5 44c0 6.66699 0.666992 13.334 2 20.001
c27.333 173.333 71.333 384 132 632c76 316 138.333 508.333 187 577c25.333 34 57.333 51 96 51c35.333 0 66.333 -10.5 93 -31.5s54.334 -68.5 83.001 -142.5l58 -164c56.667 -133.333 137.334 -336 242.001 -608c20.667 -22.667 29.334 -50.334 26.001 -83.001
c43.333 -127.333 65 -205.333 65 -234zM724.996 449l-251 532c-29.333 -70 -60 -158.667 -92 -266l-78 -271c156.667 5.33301 259 8 307 8c35.333 0 73.333 -1 114 -3z" />
    <glyph glyph-name="aring" unicode="&#xe5;" horiz-adv-x="1097" 
d="M771 1708c0 -79.333 -25.5 -142.001 -76.5 -188.001s-116.833 -69 -197.5 -69c-82 0 -152.667 25.333 -212 76c-62.667 54 -94 121.333 -94 202c0 78.667 32 142.334 96 191.001c58.667 45.333 128.667 68 210 68c76 0 140.667 -27.333 194 -82s80 -120.667 80 -198z
M1041 93.999c0 -19.333 -7.66797 -35.833 -23.001 -49.5s-33.333 -20.5 -54 -20.5c-29.333 0 -53.666 17.667 -72.999 53l-62 162c-58.667 -6 -121.667 -9 -189 -9c-50 0 -115.333 2 -196 6c-104.667 3.33301 -170.334 5.33301 -197.001 6
c-10 -42 -29.667 -102.333 -59 -181c-17.333 -30.667 -38 -46 -62 -46c-16.667 0 -32.167 6 -46.5 18s-21.5 26.667 -21.5 44c0 6.66699 0.666992 13.334 2 20.001c27.333 173.333 71 384 131 632c76 316 138.667 508.333 188 577c24.667 34 56.334 51 95.001 51
c35.333 0 66.5 -10.5 93.5 -31.5s54.5 -68.5 82.5 -142.5l58 -164c57.333 -133.333 138.333 -336 243 -608c20 -22.667 28.333 -50.334 25 -83.001c43.333 -127.333 65 -205.333 65 -234zM617.999 1708c0 40 -14.5 70.833 -43.5 92.5s-64.167 32.5 -105.5 32.5
c-80.667 0 -121 -30.667 -121 -92c0 -36.667 16.833 -68.834 50.5 -96.501s69.167 -41.5 106.5 -41.5c30.667 0 57.167 9.83301 79.5 29.5s33.5 44.834 33.5 75.501zM733.999 448.999l-251 532c-29.333 -70 -60 -158.667 -92 -266l-79 -271c157.333 5.33301 260 8 308 8
c34.667 0 72.667 -1 114 -3z" />
    <glyph glyph-name="ae" unicode="&#xe6;" horiz-adv-x="1729" 
d="M1669 1256c0 -56.667 -31.665 -91.335 -94.998 -104.002c-54.667 -3.33301 -109.334 -6.33301 -164.001 -9c-76.667 -4 -168.334 -18.667 -275.001 -44c5.33301 -36.667 8 -78 8 -124c0 -66 -5 -139 -15 -219c62.667 16 131 24 205 24c92 0 158 -7 198 -21
c45.333 -15.333 68 -44.666 68 -87.999c0 -26.667 -8.16699 -50.667 -24.5 -72s-37.166 -32 -62.499 -32c-16.667 0 -41.5 1.66699 -74.5 5s-58.167 5 -75.5 5c-43.333 0 -129.666 -5.33301 -258.999 -16c-12 -78 -25.333 -196 -40 -354
c218.667 13.333 380.334 20 485.001 20c48.667 0 73 -25.667 73 -77c0 -32 -17.667 -55.333 -53 -70c-28 -12.667 -107 -25 -237 -37c-26 -2.66699 -88 -12.334 -186 -29.001c-77.333 -12.667 -139.333 -19 -186 -19c-60 0 -94 33 -102 99c0 13.333 -1.33301 33.333 -4 60
c-2 13.333 -11.667 40 -29 80c-56.667 -6 -122.667 -9 -198 -9c-48.667 0 -113 1.66699 -193 5c-100 4 -163.667 6.33301 -191 7c-10 -42 -31 -102.333 -63 -181c-16.667 -29.333 -38.334 -44 -65.001 -44c-45.333 0 -68 20 -68 60c0 4.66699 1 11.334 3 20.001
c43.333 169.333 103.666 372 180.999 608l113 322c14.667 49.333 30 98.333 46 147c22 64.667 43.667 109.667 65 135c28.667 32.667 60.667 49 96 49c39.333 0 71.666 -10.667 96.999 -32c32.667 -29.333 74 -127.666 124 -294.999l115 -372
c13.333 122.667 20 229.667 20 321c0 72.667 -2.66699 127 -8 163c-2.66699 15.333 -4 23.333 -4 24c0 34 10.833 63.667 32.5 89s49.5 36 83.5 32c106 51.333 276.667 77 512 77c98 0 147 -34.667 147 -104zM748.002 443.999l-195 530.999
c-28.667 -57.333 -105 -236.666 -229 -537.999c174 6.66699 277.667 10 311 10c34 0 71.667 -1 113 -3z" />
    <glyph glyph-name="egrave" unicode="&#xe8;" horiz-adv-x="928" 
d="M553 1527c0 -20 -7.99805 -37.668 -23.998 -53.001s-34.333 -23 -55 -23c-22.667 0 -41.334 11.333 -56.001 34c-12.667 18 -39.167 71.167 -79.5 159.5s-60.5 138.5 -60.5 150.5c0 22 8.5 41.5 25.5 58.5s36.5 25.5 58.5 25.5c32 0 58.667 -20 80 -60
c19.333 -35.333 41.666 -83.666 66.999 -144.999c29.333 -74 44 -123 44 -147zM874.002 1260c0 -54.667 -33.667 -89.6621 -101 -104.995c-35.333 -8 -86 -12.333 -152 -13c-71.333 -2.66699 -122 -6 -152 -10c-21.333 -4 -65 -13.667 -131 -29
c6.66699 -42.667 10 -85.334 10 -128.001c0 -60.667 -5 -131.334 -15 -212.001c56.667 13.333 127.667 20 213 20c86.667 0 148.667 -6.66699 186 -20c46.667 -17.333 70 -47 70 -89c0 -26 -8.5 -49.833 -25.5 -71.5s-38.167 -32.5 -63.5 -32.5
c-16.667 0 -41.5 1.16699 -74.5 3.5s-58.167 3.5 -75.5 3.5c-69.333 0 -155.333 -4 -258 -12c-11.333 -78.667 -24.666 -197 -39.999 -355c209.333 13.333 372 20 488 20c46.667 0 70 -24.333 70 -73c0 -32.667 -17.667 -57.667 -53 -75
c-26.667 -12.667 -114.334 -25.334 -263.001 -38.001c-80.667 -6.66699 -187 -21.334 -319 -44.001c-14 -2 -23.333 -3 -28 -3c-70 0 -105 63 -105 189c0 83.333 9.33301 208 28 374s28 290.667 28 374c0 26 -2.5 64.833 -7.5 116.5s-7.5 90.5 -7.5 116.5
c0 33.333 11 62.166 33 86.499s49.667 34.833 83 31.5c106.667 51.333 276.667 77 510 77c101.333 0 152 -34 152 -102z" />
    <glyph glyph-name="eacute" unicode="&#xe9;" horiz-adv-x="915" 
d="M688 1799c0 -22.667 -22.665 -75.666 -67.998 -158.999c-42.667 -78.667 -73.834 -129.834 -93.501 -153.501s-40.834 -35.5 -63.501 -35.5c-20.667 0 -39 7 -55 21s-24 31.333 -24 52c0 19.333 24.667 74.166 74 164.499s82.833 143.333 100.5 159
s34.167 23.5 49.5 23.5c20 0 38.333 -7.16699 55 -21.5s25 -31.166 25 -50.499zM867.002 1260c0 -54.667 -33.668 -89.6621 -101.001 -104.995c-35.333 -8 -86 -12.333 -152 -13c-71.333 -2.66699 -121.666 -6 -150.999 -10c-22 -4 -66 -13.667 -132 -29
c6.66699 -42.667 10 -85.334 10 -128.001c0 -60.667 -5 -131.334 -15 -212.001c56.667 13.333 127.667 20 213 20c86.667 0 148.667 -6.66699 186 -20c46.667 -17.333 70 -47 70 -89c0 -26 -8.5 -49.833 -25.5 -71.5s-37.833 -32.5 -62.5 -32.5
c-17.333 0 -42.5 1.16699 -75.5 3.5s-58.167 3.5 -75.5 3.5c-69.333 0 -155 -4 -257 -12c-11.333 -78.667 -25 -197 -41 -355c209.333 13.333 372 20 488 20c46.667 0 70 -24.333 70 -73c0 -32.667 -17.667 -57.667 -53 -75c-26 -12.667 -113.667 -25.334 -263 -38.001
c-80.667 -6.66699 -187 -21.334 -319 -44.001c-14 -2 -23 -3 -27 -3c-70.667 0 -106 63 -106 189c0 83.333 9.33301 208 28 374s28 290.667 28 374c0 26 -2.5 64.833 -7.5 116.5s-7.5 90.5 -7.5 116.5c0 33.333 11 62.166 33 86.499s49.667 34.833 83 31.5
c106.667 51.333 276.667 77 510 77c101.333 0 152 -34 152 -102z" />
    <glyph glyph-name="ecircumflex" unicode="&#xea;" horiz-adv-x="927" 
d="M669 1514c0 -17.333 -7.33203 -32.167 -21.999 -44.5s-31.334 -18.5 -50.001 -18.5c-34 0 -82.333 68.667 -145 206c-20 -36 -54 -87.667 -102 -155c-16 -18 -33 -27 -51 -27c-41.333 0 -62 18.667 -62 56c0 20.667 26 69 78 145s88 122 108 138c16 12.667 31 19 45 19
c19.333 0 36.833 -10.167 52.5 -30.5s44.167 -68.833 85.5 -145.5c42 -79.333 63 -127 63 -143zM874.001 1260c0 -54.667 -33.667 -89.6621 -101 -104.995c-35.333 -8 -86 -12.333 -152 -13c-71.333 -2.66699 -122 -6 -152 -10c-21.333 -4 -65 -13.667 -131 -29
c6.66699 -42.667 10 -85.334 10 -128.001c0 -60.667 -5 -131.334 -15 -212.001c56.667 13.333 127.667 20 213 20c86.667 0 148.667 -6.66699 186 -20c46.667 -17.333 70 -47 70 -89c0 -26 -8.5 -49.833 -25.5 -71.5s-38.167 -32.5 -63.5 -32.5
c-16.667 0 -41.5 1.16699 -74.5 3.5s-58.167 3.5 -75.5 3.5c-69.333 0 -155.333 -4 -258 -12c-11.333 -78.667 -24.666 -197 -39.999 -355c209.333 13.333 372 20 488 20c46.667 0 70 -24.333 70 -73c0 -32.667 -17.667 -57.667 -53 -75
c-26.667 -12.667 -114.334 -25.334 -263.001 -38.001c-80.667 -6.66699 -187 -21.334 -319 -44.001c-14 -2 -23.333 -3 -28 -3c-70 0 -105 63 -105 189c0 83.333 9.33301 208 28 374s28 290.667 28 374c0 26 -2.5 64.833 -7.5 116.5s-7.5 90.5 -7.5 116.5
c0 33.333 11 62.166 33 86.499s49.667 34.833 83 31.5c106.667 51.333 276.667 77 510 77c101.333 0 152 -34 152 -102z" />
    <glyph glyph-name="edieresis" unicode="&#xeb;" horiz-adv-x="918" 
d="M727 1568c0 -10 -8 -28.667 -24 -56c-24 -40.667 -50 -61 -78 -61c-24 0 -44.5 7.66699 -61.5 23s-25.5 35 -25.5 59c0 27.333 11 54.333 33 81s46.667 40 74 40c22.667 0 42 -8.5 58 -25.5s24 -37.167 24 -60.5zM355 1533c0 -23.333 -8.5 -42.833 -25.5 -58.5
s-36.833 -23.5 -59.5 -23.5c-57.333 0 -86 34 -86 102c0 64 28.667 96 86 96c56.667 0 85 -38.667 85 -116zM869 1260c0 -54.667 -33.665 -89.6621 -100.998 -104.995c-35.333 -8 -86 -12.333 -152 -13c-71.333 -2.66699 -122 -6 -152 -10c-21.333 -4 -65 -13.667 -131 -29
c6.66699 -42.667 10 -85.334 10 -128.001c0 -60.667 -5 -131.334 -15 -212.001c56.667 13.333 127.667 20 213 20c86.667 0 148.667 -6.66699 186 -20c46.667 -17.333 70 -47 70 -89c0 -26 -8.5 -49.833 -25.5 -71.5s-38.167 -32.5 -63.5 -32.5
c-16.667 0 -41.5 1.16699 -74.5 3.5s-58.167 3.5 -75.5 3.5c-69.333 0 -155.333 -4 -258 -12c-11.333 -78.667 -25 -197 -41 -355c209.333 13.333 372.333 20 489 20c46 0 69 -24.333 69 -73c0 -32.667 -17.333 -57.667 -52 -75
c-26.667 -12.667 -114.334 -25.334 -263.001 -38.001c-80.667 -6.66699 -187 -21.334 -319 -44.001c-14 -2 -23.333 -3 -28 -3c-70.667 0 -106 63 -106 189c0 83.333 9.5 208 28.5 374s28.5 290.667 28.5 374c0 26 -2.66699 64.833 -8 116.5s-8 90.5 -8 116.5
c0 33.333 11.167 62.166 33.5 86.499s50.166 34.833 83.499 31.5c106.667 51.333 276.667 77 510 77c101.333 0 152 -34 152 -102z" />
    <glyph glyph-name="igrave" unicode="&#xec;" horiz-adv-x="420" 
d="M295 1527c0 -20 -7.99805 -37.668 -23.998 -53.001s-34 -23 -54 -23c-22.667 0 -41.667 11.333 -57 34c-12 18 -38.333 71.167 -79 159.5s-61 138.5 -61 150.5c0 22 8.66699 41.5 26 58.5s36.666 25.5 57.999 25.5c32 0 58.667 -20 80 -60
c19.333 -35.333 41.666 -83.666 66.999 -144.999c29.333 -74 44 -123 44 -147zM379.002 888.999c0 -74.667 -5.66797 -176.999 -17.001 -306.999c-14 -146.667 -22 -249 -24 -307c0 -35.333 -0.666992 -70 -2 -104c-0.666992 -43.333 -5.66699 -77.666 -15 -102.999
c-16 -47.333 -44 -71 -84 -71c-45.333 0 -68 23.667 -68 71c0 51.333 4 128.166 12 230.499s12 179.166 12 230.499c0 208 -11 370.667 -33 488c-24.667 135.333 -37 212.666 -37 231.999c0 85.333 32.333 128 97 128c68.667 0 114.334 -46.667 137.001 -140
c11.333 -45.333 18 -118.666 20 -219.999c1.33301 -66 2 -108.667 2 -128z" />
    <glyph glyph-name="iacute" unicode="&#xed;" horiz-adv-x="375" 
d="M345 1799c0 -22.667 -23 -75.666 -69 -158.999c-42 -78.667 -72.833 -129.834 -92.5 -153.501s-41.167 -35.5 -64.5 -35.5c-20 0 -38 7 -54 21s-24 31.333 -24 52c0 19.333 24.667 74.166 74 164.499s82.833 143.333 100.5 159s34.167 23.5 49.5 23.5
c20 0 38.333 -7.16699 55 -21.5s25 -31.166 25 -50.499zM290 889.001c0 -74.667 -5.66797 -176.999 -17.001 -306.999c-13.333 -146.667 -21.333 -249 -24 -307c0 -35.333 -0.666992 -70 -2 -104c-0.666992 -43.333 -5.66699 -77.666 -15 -102.999
c-16 -47.333 -44 -71 -84 -71c-45.333 0 -68 23.667 -68 71c0 51.333 4 128.166 12 230.499s12 179.166 12 230.499c0 208 -10.667 370.667 -32 488c-25.333 135.333 -38 212.666 -38 231.999c0 85.333 32.333 128 97 128c68.667 0 114.334 -46.667 137.001 -140
c11.333 -45.333 18 -118.666 20 -219.999c1.33301 -66 2 -108.667 2 -128z" />
    <glyph glyph-name="icircumflex" unicode="&#xee;" horiz-adv-x="485" 
d="M452 1514c0 -17.333 -7.33301 -32.167 -22 -44.5s-31 -18.5 -49 -18.5c-34.667 0 -83 68.667 -145 206c-20.667 -36 -55 -87.667 -103 -155c-16 -18 -33 -27 -51 -27c-41.333 0 -62 18.667 -62 56c0 20.667 26 69 78 145s88.333 122 109 138c15.333 12.667 30 19 44 19
c19.333 0 37 -10.167 53 -30.5s44.333 -68.833 85 -145.5c42 -79.333 63 -127 63 -143zM381 888.999c0 -74.667 -5.66699 -176.999 -17 -306.999c-14 -146.667 -22 -249 -24 -307c0 -35.333 -0.666992 -70 -2 -104c-1.33301 -43.333 -6.33301 -77.666 -15 -102.999
c-16 -47.333 -44 -71 -84 -71c-45.333 0 -68 23.667 -68 71c0 51.333 4 128.166 12 230.499s12 179.166 12 230.499c0 208 -11 370.667 -33 488c-24.667 135.333 -37 212.666 -37 231.999c0 85.333 32.333 128 97 128c68 0 113.333 -46.667 136 -140
c11.333 -45.333 18.333 -118.666 21 -219.999c1.33301 -66 2 -108.667 2 -128z" />
    <glyph glyph-name="idieresis" unicode="&#xef;" horiz-adv-x="582" 
d="M558 1568c0 -10 -8 -28.667 -24 -56c-24 -40.667 -50 -61 -78 -61c-24 0 -44.5 7.66699 -61.5 23s-25.5 35 -25.5 59c0 27.333 11 54.333 33 81s46.667 40 74 40c22.667 0 42 -8.5 58 -25.5s24 -37.167 24 -60.5zM186 1533c0 -23.333 -8.5 -42.833 -25.5 -58.5
s-36.833 -23.5 -59.5 -23.5c-57.333 0 -86 34 -86 102c0 64 28.667 96 86 96c56.667 0 85 -38.667 85 -116zM432 889c0 -74.667 -5.66699 -176.999 -17 -306.999c-14 -146.667 -22 -249 -24 -307c0 -35.333 -0.666992 -70 -2 -104
c-1.33301 -43.333 -6.33301 -77.666 -15 -102.999c-16 -47.333 -44 -71 -84 -71c-45.333 0 -68 23.667 -68 71c0 51.333 4 128.166 12 230.499s12 179.166 12 230.499c0 208 -11 370.667 -33 488c-24.667 135.333 -37 212.666 -37 231.999c0 85.333 32.333 128 97 128
c68 0 113.667 -46.667 137 -140c11.333 -45.333 18 -118.666 20 -219.999c1.33301 -66 2 -108.667 2 -128z" />
    <glyph glyph-name="ntilde" unicode="&#xf1;" horiz-adv-x="1114" 
d="M821 1567c0 -34 -19.334 -62.668 -58.001 -86.001c-33.333 -20 -68 -30 -104 -30c-30.667 0 -69.667 10.833 -117 32.5s-80.666 32.5 -99.999 32.5s-38.333 -11.5 -57 -34.5s-37.667 -34.5 -57 -34.5c-18.667 0 -34.834 6.83301 -48.501 20.5s-20.5 29.834 -20.5 48.501
c0 37.333 20.333 73.333 61 108s80.334 52 119.001 52c26 0 62.333 -10.5 109 -31.5s82.334 -31.5 107.001 -31.5c11.333 0 27 4 47 12s35.667 12 47 12c19.333 0 36.166 -6.83301 50.499 -20.5s21.5 -30.167 21.5 -49.5zM1060 729.999
c0 -16.667 -1.33203 -74.6689 -3.99902 -174.002c-3.33301 -162.667 -13.333 -277.334 -30 -344.001c-36.667 -144.667 -108.334 -217 -215.001 -217c-96 0 -185 57 -267 171c-42.667 60 -94.334 159.333 -155.001 298l-104 248c-6.66699 -214 -10.667 -328 -12 -342
c-9.33301 -161.333 -25.666 -267 -48.999 -317c-15.333 -32 -34.333 -48 -57 -48c-18 0 -34.333 6.83301 -49 20.5s-22 29.5 -22 47.5c0 -3.33301 1 0.666992 3 12c11.333 58 17 134.333 17 229s-10.167 236.334 -30.5 425.001s-30.5 330.334 -30.5 425.001
c0 132 42 198 126 198c74 0 131 -45.667 171 -137c6.66699 -13.333 30 -90.666 70 -231.999c36 -128.667 91 -278.334 165 -449.001c95.333 -219.333 174 -346 236 -380c37.333 50 56 143.667 56 281c0 157.333 -16 348 -48 572c-11.333 80 -17 135.333 -17 166
c0 40.667 9 76 27 106c22 34.667 51.667 52 89 52c82 0 123 -111.333 123 -334c0 -30.667 1.16699 -76.667 3.5 -138s3.5 -107.666 3.5 -138.999z" />
    <glyph glyph-name="ograve" unicode="&#xf2;" horiz-adv-x="1159" 
d="M727 1527c0 -20 -7.99902 -37.668 -23.999 -53.001s-34 -23 -54 -23c-23.333 0 -42.333 11.333 -57 34c-12.667 18 -39.167 71.167 -79.5 159.5s-60.5 138.5 -60.5 150.5c0 22 8.5 41.5 25.5 58.5s36.5 25.5 58.5 25.5c32 0 58.667 -20 80 -60
c19.333 -35.333 41.666 -83.666 66.999 -144.999c29.333 -74 44 -123 44 -147zM1123 791.999c0 -201.333 -41.001 -375.333 -123.001 -522c-101.333 -178 -244.666 -267 -429.999 -267c-50 0 -101.667 8 -155 24c-119.333 36.667 -213 104.5 -281 203.5
s-102 212.167 -102 339.5c0 188 60 364.333 180 529c130.667 180 286 270 466 270c124 0 226.667 -48.333 308 -145c75.333 -88 119.333 -195.667 132 -323c3.33301 -32 5 -68.333 5 -109zM961 613.999c0 99.333 -16 194.332 -48 284.999c-40 112 -95.667 187.667 -167 227
c-14.667 8 -27.667 12 -39 12c-17.333 0 -42 -4 -74 -12s-56.333 -12 -73 -12c-6 0 -12.333 1.33301 -19 4c-90 -52.667 -162.833 -130.167 -218.5 -232.5s-83.5 -206.5 -83.5 -312.5c0 -68 11.333 -128.667 34 -182c28.667 -67.333 75.334 -121.666 140.001 -162.999
s134 -62 208 -62c107.333 0 192.666 50 255.999 150c56 86 84 185.333 84 298z" />
    <glyph glyph-name="oacute" unicode="&#xf3;" horiz-adv-x="1161" 
d="M881 1799c0 -22.667 -23.002 -75.666 -69.002 -158.999c-42 -78.667 -73 -129.834 -93 -153.501s-41.333 -35.5 -64 -35.5c-20 0 -38 7 -54 21s-24 31.333 -24 52c0 19.333 24.667 74.166 74 164.499s82.833 143.333 100.5 159s33.834 23.5 48.501 23.5
c20.667 0 39.334 -7.16699 56.001 -21.5s25 -31.166 25 -50.499zM1116 792.001c0 -201.333 -41.002 -375.333 -123.002 -522c-101.333 -178 -244.666 -267 -429.999 -267c-50 0 -101.667 8 -155 24c-119.333 36.667 -212.833 104.5 -280.5 203.5
s-101.5 212.167 -101.5 339.5c0 188 59.667 364.333 179 529c130.667 180 286 270 466 270c124 0 227 -48.333 309 -145c74.667 -88 118.334 -195.667 131.001 -323c3.33301 -32 5 -68.333 5 -109zM953.996 614.001c0 99.333 -16 194.332 -48 284.999
c-39.333 112 -95 187.667 -167 227c-14.667 8 -27.667 12 -39 12c-17.333 0 -41.833 -4 -73.5 -12s-56.167 -12 -73.5 -12c-6 0 -12.333 1.33301 -19 4c-90 -52.667 -162.833 -130.167 -218.5 -232.5s-83.5 -206.5 -83.5 -312.5c0 -68 11.333 -128.667 34 -182
c28.667 -67.333 75.334 -121.666 140.001 -162.999s134 -62 208 -62c107.333 0 192.666 50 255.999 150c56 86 84 185.333 84 298z" />
    <glyph glyph-name="ocircumflex" unicode="&#xf4;" horiz-adv-x="1166" 
d="M864 1514c0 -17.333 -7.50098 -32.167 -22.501 -44.5s-31.5 -18.5 -49.5 -18.5c-34 0 -82.333 68.667 -145 206c-20.667 -36 -55 -87.667 -103 -155c-15.333 -18 -32.333 -27 -51 -27c-40.667 0 -61 18.667 -61 56c0 20.667 25.833 69 77.5 145s87.834 122 108.501 138
c16 12.667 30.667 19 44 19c19.333 0 37 -10.167 53 -30.5s44.333 -68.833 85 -145.5c42.667 -79.333 64 -127 64 -143zM1123 791.999c0 -201.333 -41.001 -375.333 -123.001 -522c-101.333 -178 -244.666 -267 -429.999 -267c-50 0 -101.667 8 -155 24
c-119.333 36.667 -213 104.5 -281 203.5s-102 212.167 -102 339.5c0 188 60 364.333 180 529c130.667 180 286 270 466 270c124 0 226.667 -48.333 308 -145c75.333 -88 119.333 -195.667 132 -323c3.33301 -32 5 -68.333 5 -109zM960.998 613.999
c0 99.333 -16 194.332 -48 284.999c-40 112 -95.667 187.667 -167 227c-14.667 8 -27.667 12 -39 12c-17.333 0 -42 -4 -74 -12s-56.333 -12 -73 -12c-6 0 -12.333 1.33301 -19 4c-90 -52.667 -162.833 -130.167 -218.5 -232.5s-83.5 -206.5 -83.5 -312.5
c0 -68 11.333 -128.667 34 -182c28.667 -67.333 75.334 -121.666 140.001 -162.999s134 -62 208 -62c107.333 0 192.666 50 255.999 150c56 86 84 185.333 84 298z" />
    <glyph glyph-name="otilde" unicode="&#xf5;" 
d="M922 1567c0 -34 -19.334 -62.668 -58.001 -86.001c-33.333 -20 -68.333 -30 -105 -30c-30.667 0 -69.5 10.833 -116.5 32.5s-80.167 32.5 -99.5 32.5s-38.5 -11.5 -57.5 -34.5s-38.167 -34.5 -57.5 -34.5c-18 0 -33.833 6.83301 -47.5 20.5s-20.5 29.834 -20.5 48.501
c0 37.333 20.167 73.333 60.5 108s79.833 52 118.5 52c26.667 0 63.334 -10.5 110.001 -31.5s82.334 -31.5 107.001 -31.5c11.333 0 27 4 47 12s35.667 12 47 12c19.333 0 36.166 -6.83301 50.499 -20.5s21.5 -30.167 21.5 -49.5zM1128 791.999
c0 -201.333 -41.002 -375.333 -123.002 -522c-101.333 -178 -244.666 -267 -429.999 -267c-50 0 -101.667 8 -155 24c-119.333 36.667 -212.833 104.5 -280.5 203.5s-101.5 212.167 -101.5 339.5c0 188 59.667 364.333 179 529c130.667 180 286 270 466 270
c124 0 227 -48.333 309 -145c74.667 -88 118.334 -195.667 131.001 -323c3.33301 -32 5 -68.333 5 -109zM965.997 613.999c0 99.333 -16 194.332 -48 284.999c-40 112 -95.667 187.667 -167 227c-14.667 8 -27.667 12 -39 12c-17.333 0 -41.833 -4 -73.5 -12
s-56.167 -12 -73.5 -12c-6 0 -12.333 1.33301 -19 4c-90 -52.667 -162.833 -130.167 -218.5 -232.5s-83.5 -206.5 -83.5 -312.5c0 -68 11.333 -128.667 34 -182c28.667 -67.333 75.334 -121.666 140.001 -162.999s134 -62 208 -62c107.333 0 192.666 50 255.999 150
c56 86 84 185.333 84 298z" />
    <glyph glyph-name="odieresis" unicode="&#xf6;" 
d="M913 1568c0 -10 -8 -28.667 -24 -56c-24 -40.667 -50 -61 -78 -61c-24 0 -44.5 7.66699 -61.5 23s-25.5 35 -25.5 59c0 27.333 11 54.333 33 81s46.667 40 74 40c22.667 0 42 -8.5 58 -25.5s24 -37.167 24 -60.5zM541 1533c0 -23.333 -8.5 -42.833 -25.5 -58.5
s-36.833 -23.5 -59.5 -23.5c-57.333 0 -86 34 -86 102c0 64 28.667 96 86 96c56.667 0 85 -38.667 85 -116zM1128 792c0 -201.333 -41.002 -375.333 -123.002 -522c-101.333 -178 -244.666 -267 -429.999 -267c-50 0 -101.667 8 -155 24
c-119.333 36.667 -212.833 104.5 -280.5 203.5s-101.5 212.167 -101.5 339.5c0 188 59.667 364.333 179 529c130.667 180 286 270 466 270c124 0 227 -48.333 309 -145c74.667 -88 118.334 -195.667 131.001 -323c3.33301 -32 5 -68.333 5 -109zM965.998 614
c0 99.333 -16 194.332 -48 284.999c-40 112 -95.667 187.667 -167 227c-14.667 8 -27.667 12 -39 12c-17.333 0 -41.833 -4 -73.5 -12s-56.167 -12 -73.5 -12c-6 0 -12.333 1.33301 -19 4c-90 -52.667 -162.833 -130.167 -218.5 -232.5s-83.5 -206.5 -83.5 -312.5
c0 -68 11.333 -128.667 34 -182c28.667 -67.333 75.334 -121.666 140.001 -162.999s134 -62 208 -62c107.333 0 192.666 50 255.999 150c56 86 84 185.333 84 298z" />
    <glyph glyph-name="divide" unicode="&#xf7;" horiz-adv-x="725" 
d="M440 889c0 -67.333 -27.667 -101 -83 -101c-52.667 0 -79 33.667 -79 101c0 22 7.66699 40 23 54s34 21 56 21c21.333 0 40.5 -7 57.5 -21s25.5 -32 25.5 -54zM686 582c0 -51.333 -37 -76.999 -111 -76.999h-118c-150 0 -262 5.33301 -336 16
c-48.667 6.66699 -73 31 -73 73c0 54.667 46 82 138 82h155c138 0 235.333 -9.66699 292 -29c35.333 -12.667 53 -34.334 53 -65.001zM432 290.001c0 -19.333 -7.66699 -36.167 -23 -50.5s-32.666 -21.5 -51.999 -21.5c-54.667 0 -82 24 -82 72c0 46.667 27.333 70 82 70
c19.333 0 36.666 -6.83301 51.999 -20.5s23 -30.167 23 -49.5z" />
    <glyph glyph-name="oslash" unicode="&#xf8;" horiz-adv-x="1171" 
d="M1128 792c0 -201.333 -41.0029 -374.999 -123.003 -520.999c-101.333 -178.667 -244.666 -268 -429.999 -268c-34 0 -68 3.66699 -102 11c-6.66699 -28.667 -18 -71.334 -34 -128.001c-10.667 -35.333 -30 -53 -58 -53c-54.667 0 -82 25 -82 75
c0 22.667 9.66699 75 29 157c-93.333 48 -165.666 118 -216.999 210c-48.667 88.667 -73 187 -73 295c0 188 59.667 364.333 179 529c130.667 180 286 270 466 270c40.667 0 81 -6.33301 121 -19c4.66699 18 13.167 45.833 25.5 83.5s38.5 56.5 78.5 56.5
c20.667 0 40.334 -6.33301 59.001 -19s28 -29 28 -49c0 -15.333 -14.333 -67.666 -43 -156.999c117.333 -104.667 176 -262.334 176 -473.001zM965.997 614.001c0 156 -33.999 289.333 -101.999 400c-78.667 -184.667 -191 -463 -337 -835
c33.333 -8.66699 66.333 -13 99 -13c107.333 0 192.666 50 255.999 150c56 86 84 185.333 84 298zM729.998 1135c-6.66699 2 -12.667 2.99902 -18 2.99902c-17.333 0 -41.833 -4 -73.5 -12s-56.167 -12 -73.5 -12c-6 0 -12.333 1.33301 -19 4
c-90 -52.667 -162.833 -130.167 -218.5 -232.5s-83.5 -206.5 -83.5 -312.5c0 -136 45.667 -241.667 137 -317c36 114.667 92.333 262 169 442c96.667 226.667 156.667 372.334 180 437.001z" />
    <glyph glyph-name="ugrave" unicode="&#xf9;" horiz-adv-x="1091" 
d="M613 1527c0 -20 -7.99902 -37.668 -23.999 -53.001s-34.333 -23 -55 -23c-22.667 0 -41.334 11.333 -56.001 34c-12.667 18 -39.167 71.167 -79.5 159.5s-60.5 138.5 -60.5 150.5c0 22 8.5 41.5 25.5 58.5s36.5 25.5 58.5 25.5c31.333 0 58 -20 80 -60
c19.333 -35.333 41.333 -83.666 66 -144.999c30 -74 45 -123 45 -147zM1055 892.999c0 -218.667 -32.665 -407.664 -97.998 -566.997c-88.667 -219.333 -225.667 -329 -411 -329c-109.333 0 -209 44.667 -299 134c-79.333 81.333 -135 178.666 -167 291.999
c-24 85.333 -36 188.333 -36 309c0 41.333 2 102.666 6 183.999s6 142.333 6 183c0 56 -4 115.333 -12 178c60.667 47.333 111 71 151 71c21.333 0 37 -14.667 47 -44c14 -38.667 21 -105.334 21 -200.001c0 -56.667 -1.5 -141.667 -4.5 -255s-4.5 -198.333 -4.5 -255
c0 -143.333 16 -244 48 -302c45.333 -80.667 133.666 -121 264.999 -121c108.667 0 183.667 41.333 225 124c29.333 59.333 44 150 44 272c0 190 -5 336.667 -15 440s-15 162.333 -15 177c0 46.667 8.33301 86 25 118c22 40 54 60 96 60
c53.333 0 88.666 -28.333 105.999 -85c7.33301 -27.333 12.333 -77.666 15 -150.999c4.66699 -170.667 7 -248.334 7 -233.001z" />
    <glyph glyph-name="uacute" unicode="&#xfa;" horiz-adv-x="1092" 
d="M751 1799c0 -22.667 -22.6689 -75.666 -68.002 -158.999c-42 -78.667 -73 -129.834 -93 -153.501s-41.333 -35.5 -64 -35.5c-20.667 0 -39 7 -55 21s-24 31.333 -24 52c0 19.333 24.833 74.166 74.5 164.499s83.334 143.333 101.001 159s33.834 23.5 48.501 23.5
c20 0 38.333 -7.16699 55 -21.5s25 -31.166 25 -50.499zM1048 893.001c0 -218.667 -32.334 -407.664 -97.001 -566.997c-89.333 -219.333 -226.666 -329 -411.999 -329c-109.333 0 -208.666 44.667 -297.999 134c-80 81.333 -136 178.666 -168 291.999
c-23.333 85.333 -35 188.333 -35 309c0 41.333 1.83301 102.666 5.5 183.999s5.5 142.333 5.5 183c0 56 -3.66699 115.333 -11 178c60 47.333 110 71 150 71c21.333 0 37.333 -14.667 48 -44c13.333 -38.667 20 -105.334 20 -200.001c0 -56.667 -1.5 -141.667 -4.5 -255
s-4.5 -198.333 -4.5 -255c0 -143.333 16 -244 48 -302c46 -80.667 134.333 -121 265 -121c109.333 0 184.333 41.333 225 124c29.333 59.333 44 150 44 272c0 190 -5 336.667 -15 440s-15 162.333 -15 177c0 46.667 8.33301 86 25 118c22 40 54 60 96 60
c53.333 0 88.666 -28.333 105.999 -85c8 -27.333 13 -77.666 15 -150.999c4.66699 -170.667 7 -248.334 7 -233.001z" />
    <glyph glyph-name="ucircumflex" unicode="&#xfb;" horiz-adv-x="1097" 
d="M754 1514c0 -17.333 -7.33398 -32.167 -22.001 -44.5s-31 -18.5 -49 -18.5c-34.667 0 -83 68.667 -145 206c-20.667 -36 -55 -87.667 -103 -155c-16 -18 -33 -27 -51 -27c-40.667 0 -61 18.667 -61 56c0 20.667 25.833 69 77.5 145s87.834 122 108.501 138
c15.333 12.667 30 19 44 19c19.333 0 37 -10.167 53 -30.5s44.333 -68.833 85 -145.5c42 -79.333 63 -127 63 -143zM1055 892.999c0 -218.667 -32.665 -407.664 -97.998 -566.997c-88.667 -219.333 -225.667 -329 -411 -329c-109.333 0 -209 44.667 -299 134
c-79.333 81.333 -135 178.666 -167 291.999c-24 85.333 -36 188.333 -36 309c0 41.333 2 102.666 6 183.999s6 142.333 6 183c0 56 -4 115.333 -12 178c60.667 47.333 111 71 151 71c21.333 0 37 -14.667 47 -44c14 -38.667 21 -105.334 21 -200.001
c0 -56.667 -1.5 -141.667 -4.5 -255s-4.5 -198.333 -4.5 -255c0 -143.333 16 -244 48 -302c45.333 -80.667 133.666 -121 264.999 -121c108.667 0 183.667 41.333 225 124c29.333 59.333 44 150 44 272c0 190 -5 336.667 -15 440s-15 162.333 -15 177
c0 46.667 8.33301 86 25 118c22 40 54 60 96 60c53.333 0 88.666 -28.333 105.999 -85c7.33301 -27.333 12.333 -77.666 15 -150.999c4.66699 -170.667 7 -248.334 7 -233.001z" />
    <glyph glyph-name="udieresis" unicode="&#xfc;" horiz-adv-x="1109" 
d="M800 1568c0 -10 -7.66699 -28.667 -23 -56c-24 -40.667 -50.333 -61 -79 -61c-24 0 -44.5 7.66699 -61.5 23s-25.5 35 -25.5 59c0 27.333 11.167 54.333 33.5 81s47.166 40 74.499 40c22.667 0 41.834 -8.5 57.501 -25.5s23.5 -37.167 23.5 -60.5zM428 1533
c0 -23.333 -8.5 -42.833 -25.5 -58.5s-36.833 -23.5 -59.5 -23.5c-56.667 0 -85 34 -85 102c0 64 28.333 96 85 96s85 -38.667 85 -116zM1062 893c0 -218.667 -32.666 -407.664 -97.999 -566.997c-88.667 -219.333 -225.667 -329 -411 -329c-109.333 0 -209 44.667 -299 134
c-79.333 81.333 -135 178.666 -167 291.999c-24 85.333 -36 188.333 -36 309c0 41.333 2 102.666 6 183.999s6 142.333 6 183c0 56 -4 115.333 -12 178c60.667 47.333 110.667 71 150 71c22 0 38 -14.667 48 -44c14 -38.667 21 -105.334 21 -200.001
c0 -56.667 -1.5 -141.667 -4.5 -255s-4.5 -198.333 -4.5 -255c0 -143.333 16 -244 48 -302c45.333 -80.667 133.333 -121 264 -121c109.333 0 184.666 41.333 225.999 124c29.333 59.333 44 150 44 272c0 190 -5.16699 336.667 -15.5 440s-15.5 162.333 -15.5 177
c0 46.667 8.66699 86 26 118c21.333 40 53.333 60 96 60c53.333 0 88.333 -28.333 105 -85c8 -27.333 13.333 -77.666 16 -150.999c4.66699 -170.667 7 -248.334 7 -233.001z" />
    <glyph glyph-name="yacute" unicode="&#xfd;" horiz-adv-x="1077" 
d="M758 1799c0 -22.667 -23 -75.666 -69 -158.999c-42 -78.667 -72.833 -129.834 -92.5 -153.501s-41.167 -35.5 -64.5 -35.5c-20 0 -38 7 -54 21s-24 31.333 -24 52c0 19.333 24.667 74.166 74 164.499s82.833 143.333 100.5 159s34.167 23.5 49.5 23.5
c20 0 38.333 -7.16699 55 -21.5s25 -31.166 25 -50.499zM1065 1260c0 -34.667 -16.665 -66.665 -49.998 -95.998c-28 -24 -57 -47.333 -87 -70c-36 -32 -69 -71.667 -99 -119c-66 -106 -133.667 -261 -203 -465c-77.333 -229.333 -138 -387.333 -182 -474h-12
c-70.667 0 -106 14.667 -106 44c0 4.66699 2.33301 12.667 7 24c58 146 105 295.667 141 449c-76 83.333 -168.667 198.333 -278 345c-58.667 79.333 -97.667 135.666 -117 168.999c-42.667 71.333 -64 135.666 -64 192.999c0 28 9.66699 51.667 29 71s43.333 29 72 29
c22.667 0 46.667 -10.333 72 -31c21.333 -18 56.666 -73.667 105.999 -167c44 -84 125.667 -204.667 245 -362c41.333 141.333 92.666 258 153.999 350c90.667 138 180 207 268 207c69.333 0 104 -32.333 104 -97z" />
    <glyph glyph-name="thorn" unicode="&#xfe;" horiz-adv-x="1335" 
d="M1283 736c0 -152.667 -100 -286.002 -300 -400.002c-153.333 -86 -323 -143.333 -509 -172c-0.666992 -56 -2.33398 -88.333 -5.00098 -97c-8 -38 -28.333 -57 -61 -57c-38.667 0 -58 23.333 -58 70c0 102.667 -11 247.667 -33 435
c-23.333 200.667 -36.333 345.334 -39 434.001c-51.333 2 -87 7.66699 -107 17c-33.333 14.667 -50 44.334 -50 89.001c0 44 17 74 51 90c19.333 9.33301 56.333 16.333 111 21c10.667 143.333 48.334 215 113.001 215c34 0 62.167 -13.5 84.5 -40.5
s33.5 -57.833 33.5 -92.5c0 -23.333 -2.33301 -48 -7 -74c401.333 -6.66699 646 -96 734 -268c28 -55.333 42 -112 42 -170zM1108 741.998c0 34.667 -14.334 67.332 -43.001 97.999c-69.333 76 -221.333 114 -456 114c-27.333 0 -67.666 -1 -120.999 -3
c-3.33301 -80 -5 -193.333 -5 -340v-41c0 -104.667 -0.666992 -186 -2 -244c178 38.667 327 97.334 447 176.001s180 158.667 180 240z" />
    <glyph glyph-name="ydieresis" unicode="&#xff;" horiz-adv-x="1085" 
d="M816 1568c0 -10 -8 -28.667 -24 -56c-24 -40.667 -50.333 -61 -79 -61c-23.333 0 -43.666 7.66699 -60.999 23s-26 35 -26 59c0 27.333 11.167 54.333 33.5 81s47.166 40 74.499 40c22.667 0 42 -8.5 58 -25.5s24 -37.167 24 -60.5zM444 1533
c0 -23.333 -8.5 -42.833 -25.5 -58.5s-37.167 -23.5 -60.5 -23.5c-56.667 0 -85 34 -85 102c0 64 28.333 96 85 96c57.333 0 86 -38.667 86 -116zM1072 1260c0 -34.667 -16.667 -66.665 -50 -95.998c-28 -24 -57 -47.333 -87 -70c-36 -32 -69 -71.667 -99 -119
c-66 -106 -133.667 -261 -203 -465c-77.333 -229.333 -138 -387.333 -182 -474h-12c-70.667 0 -106 14.667 -106 44c0 4.66699 2.33301 12.667 7 24c58 146 105 295.667 141 449c-76 83.333 -168.667 198.333 -278 345c-59.333 79.333 -98.666 135.666 -117.999 168.999
c-42 71.333 -63 135.666 -63 192.999c0 28 9.66699 51.667 29 71s43.333 29 72 29c22.667 0 46.667 -10.333 72 -31c21.333 -18 56.333 -73.667 105 -167c44.667 -84 126.667 -204.667 246 -362c41.333 141.333 92.666 258 153.999 350c90.667 138 180 207 268 207
c69.333 0 104 -32.333 104 -97z" />
    <glyph glyph-name="dotlessi" unicode="&#x131;" horiz-adv-x="560" 
d="M398 889c0 -74.667 -5.66699 -176.999 -17 -306.999c-14 -146.667 -22 -249 -24 -307c0 -35.333 -0.666992 -70 -2 -104c-1.33301 -43.333 -6.33301 -77.666 -15 -102.999c-16 -47.333 -44 -71 -84 -71c-45.333 0 -68 23.667 -68 71c0 51.333 4 128.166 12 230.499
s12 179.166 12 230.499c0 208 -11 370.667 -33 488c-24.667 135.333 -37 212.666 -37 231.999c0 85.333 32.333 128 97 128c68 0 113.333 -46.667 136 -140c12 -45.333 19 -118.666 21 -219.999c1.33301 -66 2 -108.667 2 -128z" />
    <glyph glyph-name="OE" unicode="&#x152;" horiz-adv-x="2092" 
d="M1910 1256c0 -54.667 -33.001 -89.334 -99.001 -104.001c-35.333 -8 -86 -12.667 -152 -14c-72 -2 -123.333 -5.33301 -154 -10c-21.333 -3.33301 -64.333 -13 -129 -29c5.33301 -37.333 8 -78.666 8 -123.999c0 -59.333 -5.66699 -132.333 -17 -219
c62.667 16 132 24 208 24c90 0 154.333 -7 193 -21c48 -16.667 72 -46 72 -88c0 -26.667 -8.33301 -50.667 -25 -72s-38 -32 -64 -32c-17.333 0 -42.166 1.66699 -74.499 5s-56.833 5 -73.5 5c-49.333 0 -137 -5.33301 -263 -16
c-20.667 -146.667 -33.334 -264.667 -38.001 -354c218.667 13.333 383 20 493 20c19.333 0 35 -8 47 -24s18 -33.667 18 -53c0 -30.667 -17.667 -54 -53 -70c-23.333 -11.333 -105 -23.333 -245 -36c-30 -2 -91 -11.667 -183 -29c-76 -13.333 -136.333 -20 -181 -20
c-70.667 0 -106 62 -106 186c-94 -126.667 -221.333 -190 -382 -190c-58 0 -111 8.66699 -159 26c-254.667 90 -382 270.333 -382 541c0 186.667 60.333 363 181 529c132 182 287.667 273 467 273c128 0 235 -53.333 321 -160c4.66699 26 17.834 47.333 39.501 64
s45.5 23 71.5 19c106 51.333 276.667 77 512 77c99.333 0 149 -34.667 149 -104zM1101 606c0 82 -12.6641 164.998 -37.9971 248.998c-28 95.333 -66.667 168 -116 218c-22.667 24 -42.834 38.833 -60.501 44.5s-46.834 8.5 -87.501 8.5c-10.667 0 -25.667 -3.66699 -45 -11
s-34 -11 -44 -11s-19.667 1.33301 -29 4c-90 -52.667 -162.833 -130.5 -218.5 -233.5s-83.5 -207.5 -83.5 -313.5c0 -69.333 10.667 -130 32 -182c27.333 -67.333 74 -121.166 140 -161.499s136 -60.5 210 -60.5c107.333 0 192.666 50 255.999 150
c56 86.667 84 186.334 84 299.001z" />
    <glyph glyph-name="oe" unicode="&#x153;" horiz-adv-x="2092" 
d="M1910 1256c0 -54.667 -33.001 -89.334 -99.001 -104.001c-35.333 -8 -86 -12.667 -152 -14c-72 -2 -123.333 -5.33301 -154 -10c-21.333 -3.33301 -64.333 -13 -129 -29c5.33301 -37.333 8 -78.666 8 -123.999c0 -59.333 -5.66699 -132.333 -17 -219
c62.667 16 132 24 208 24c90 0 154.333 -7 193 -21c48 -16.667 72 -46 72 -88c0 -26.667 -8.33301 -50.667 -25 -72s-38 -32 -64 -32c-17.333 0 -42.166 1.66699 -74.499 5s-56.833 5 -73.5 5c-49.333 0 -137 -5.33301 -263 -16
c-20.667 -146.667 -33.334 -264.667 -38.001 -354c218.667 13.333 383 20 493 20c19.333 0 35 -8 47 -24s18 -33.667 18 -53c0 -30.667 -17.667 -54 -53 -70c-23.333 -11.333 -105 -23.333 -245 -36c-30 -2 -91 -11.667 -183 -29c-76 -13.333 -136.333 -20 -181 -20
c-70.667 0 -106 62 -106 186c-94 -126.667 -221.333 -190 -382 -190c-58 0 -111 8.66699 -159 26c-254.667 90 -382 270.333 -382 541c0 186.667 60.333 363 181 529c132 182 287.667 273 467 273c128 0 235 -53.333 321 -160c4.66699 26 17.834 47.333 39.501 64
s45.5 23 71.5 19c106 51.333 276.667 77 512 77c99.333 0 149 -34.667 149 -104zM1101 606c0 82 -12.6641 164.998 -37.9971 248.998c-28 95.333 -66.667 168 -116 218c-22.667 24 -42.834 38.833 -60.501 44.5s-46.834 8.5 -87.501 8.5c-10.667 0 -25.667 -3.66699 -45 -11
s-34 -11 -44 -11s-19.667 1.33301 -29 4c-90 -52.667 -162.833 -130.5 -218.5 -233.5s-83.5 -207.5 -83.5 -313.5c0 -69.333 10.667 -130 32 -182c27.333 -67.333 74 -121.166 140 -161.499s136 -60.5 210 -60.5c107.333 0 192.666 50 255.999 150
c56 86.667 84 186.334 84 299.001z" />
    <glyph glyph-name="Sacute" unicode="&#x15a;" horiz-adv-x="1041" 
d="M736 1799c0 -22.667 -23.002 -75.666 -69.002 -158.999c-42 -78.667 -73 -129.834 -93 -153.501s-41.333 -35.5 -64 -35.5c-20 0 -38 7 -54 21s-24 31.333 -24 52c0 19.333 24.667 74.166 74 164.499s82.833 143.333 100.5 159s33.834 23.5 48.501 23.5
c20.667 0 39.334 -7.16699 56.001 -21.5s25 -31.166 25 -50.499zM934.998 1120c0 -96.667 -36.3359 -145.002 -109.003 -145.002c-71.333 0 -113.333 48.333 -126 145l-4 3l4 -3c-10.667 5.33301 -22.667 8 -36 8c-61.333 0 -133.666 -21.667 -216.999 -65
c-95.333 -47.333 -143 -98.333 -143 -153c0 -51.333 47 -111.666 141 -180.999l267 -193c94 -83.333 141 -166.333 141 -249c0 -85.333 -43.667 -156.666 -131 -213.999c-78.667 -50.667 -163 -76 -253 -76c-126 0 -236.333 38.667 -331 116
c12.667 94 37.334 141 74.001 141c4 0 13 -4 27 -12c78.667 -45.333 151.334 -68 218.001 -68c36.667 0 75.334 8 116.001 24c51.333 19.333 77 43.666 77 72.999c0 26.667 -50.667 74 -152 142c-136 92 -229.333 162 -280 210c-100.667 96.667 -151 192.334 -151 287.001
c0 128.667 68 239 204 331c123.333 82.667 252.666 124 387.999 124c74 0 138.5 -22.667 193.5 -68s82.5 -104.333 82.5 -177z" />
    <glyph glyph-name="sacute" unicode="&#x15b;" horiz-adv-x="1041" 
d="M736 1799c0 -22.667 -23.002 -75.666 -69.002 -158.999c-42 -78.667 -73 -129.834 -93 -153.501s-41.333 -35.5 -64 -35.5c-20 0 -38 7 -54 21s-24 31.333 -24 52c0 19.333 24.667 74.166 74 164.499s82.833 143.333 100.5 159s33.834 23.5 48.501 23.5
c20.667 0 39.334 -7.16699 56.001 -21.5s25 -31.166 25 -50.499zM934.998 1120c0 -96.667 -36.3359 -145.002 -109.003 -145.002c-71.333 0 -113.333 48.333 -126 145l-4 3l4 -3c-10.667 5.33301 -22.667 8 -36 8c-61.333 0 -133.666 -21.667 -216.999 -65
c-95.333 -47.333 -143 -98.333 -143 -153c0 -51.333 47 -111.666 141 -180.999l267 -193c94 -83.333 141 -166.333 141 -249c0 -85.333 -43.667 -156.666 -131 -213.999c-78.667 -50.667 -163 -76 -253 -76c-126 0 -236.333 38.667 -331 116
c12.667 94 37.334 141 74.001 141c4 0 13 -4 27 -12c78.667 -45.333 151.334 -68 218.001 -68c36.667 0 75.334 8 116.001 24c51.333 19.333 77 43.666 77 72.999c0 26.667 -50.667 74 -152 142c-136 92 -229.333 162 -280 210c-100.667 96.667 -151 192.334 -151 287.001
c0 128.667 68 239 204 331c123.333 82.667 252.666 124 387.999 124c74 0 138.5 -22.667 193.5 -68s82.5 -104.333 82.5 -177z" />
    <glyph glyph-name="Scircumflex" unicode="&#x15c;" horiz-adv-x="1060" 
d="M746 1514c0 -17.333 -7.50098 -32.167 -22.501 -44.5s-31.5 -18.5 -49.5 -18.5c-34 0 -82.333 68.667 -145 206c-20.667 -36 -54.667 -87.667 -102 -155c-16 -18 -33.333 -27 -52 -27c-40.667 0 -61 18.667 -61 56c0 20.667 25.833 69 77.5 145s87.834 122 108.501 138
c16 12.667 30.667 19 44 19c19.333 0 37 -10.167 53 -30.5s44.667 -68.833 86 -145.5c42 -79.333 63 -127 63 -143zM962.999 1120c0 -96.667 -36.668 -145.002 -110.001 -145.002c-71.333 0 -113.333 48.333 -126 145l-3 3l3 -3c-10 5.33301 -22 8 -36 8
c-61.333 0 -133.666 -21.667 -216.999 -65c-95.333 -47.333 -143 -98.333 -143 -153c0 -51.333 47.333 -111.666 142 -180.999l266 -193c94.667 -83.333 142 -166.333 142 -249c0 -85.333 -44 -156.666 -132 -213.999c-78.667 -50.667 -162.667 -76 -252 -76
c-126.667 0 -237 38.667 -331 116c12 94 36.333 141 73 141c4.66699 0 13.667 -4 27 -12c78.667 -45.333 151.667 -68 219 -68c36 0 74.667 8 116 24c51.333 19.333 77 43.666 77 72.999c0 26.667 -50.667 74 -152 142c-136.667 92 -230 162 -280 210
c-101.333 96.667 -152 192.334 -152 287.001c0 128.667 68.333 239 205 331c122.667 82.667 251.667 124 387 124c74 0 138.667 -22.667 194 -68s83 -104.333 83 -177z" />
    <glyph glyph-name="scircumflex" unicode="&#x15d;" horiz-adv-x="1060" 
d="M746 1514c0 -17.333 -7.50098 -32.167 -22.501 -44.5s-31.5 -18.5 -49.5 -18.5c-34 0 -82.333 68.667 -145 206c-20.667 -36 -54.667 -87.667 -102 -155c-16 -18 -33.333 -27 -52 -27c-40.667 0 -61 18.667 -61 56c0 20.667 25.833 69 77.5 145s87.834 122 108.501 138
c16 12.667 30.667 19 44 19c19.333 0 37 -10.167 53 -30.5s44.667 -68.833 86 -145.5c42 -79.333 63 -127 63 -143zM962.999 1120c0 -96.667 -36.668 -145.002 -110.001 -145.002c-71.333 0 -113.333 48.333 -126 145l-3 3l3 -3c-10 5.33301 -22 8 -36 8
c-61.333 0 -133.666 -21.667 -216.999 -65c-95.333 -47.333 -143 -98.333 -143 -153c0 -51.333 47.333 -111.666 142 -180.999l266 -193c94.667 -83.333 142 -166.333 142 -249c0 -85.333 -44 -156.666 -132 -213.999c-78.667 -50.667 -162.667 -76 -252 -76
c-126.667 0 -237 38.667 -331 116c12 94 36.333 141 73 141c4.66699 0 13.667 -4 27 -12c78.667 -45.333 151.667 -68 219 -68c36 0 74.667 8 116 24c51.333 19.333 77 43.666 77 72.999c0 26.667 -50.667 74 -152 142c-136.667 92 -230 162 -280 210
c-101.333 96.667 -152 192.334 -152 287.001c0 128.667 68.333 239 205 331c122.667 82.667 251.667 124 387 124c74 0 138.667 -22.667 194 -68s83 -104.333 83 -177z" />
    <glyph glyph-name="Scaron" unicode="&#x160;" horiz-adv-x="1070" 
d="M792 1753c0 -20.667 -25.832 -69.168 -77.499 -145.501s-87.834 -122.5 -108.501 -138.5c-16 -12 -31 -18 -45 -18c-19.333 0 -36.833 10.167 -52.5 30.5s-44.334 69.5 -86.001 147.5s-62.5 125 -62.5 141c0 16.667 7.33301 31.334 22 44.001s31.334 19 50.001 19
c34 0 82.333 -69 145 -207c20.667 36.667 54.667 88.667 102 156c16 18 33 27 51 27c41.333 0 62 -18.667 62 -56zM961.001 1120c0 -96.667 -36.334 -145.002 -109.001 -145.002c-72 0 -114.333 48.333 -127 145c-10 5.33301 -22 8 -36 8
c-61.333 0 -133.333 -21.667 -216 -65c-96 -47.333 -144 -98.333 -144 -153c0 -51.333 47.333 -111.666 142 -180.999l266 -193c94.667 -83.333 142 -166.333 142 -249c0 -85.333 -43.667 -156.666 -131 -213.999c-78.667 -50.667 -163 -76 -253 -76
c-126.667 0 -237 38.667 -331 116c12.667 94 37 141 73 141c4.66699 0 14 -4 28 -12c78 -45.333 150.667 -68 218 -68c36.667 0 75.334 8 116.001 24c51.333 19.333 77 43.666 77 72.999c0 26.667 -50.667 74 -152 142c-136.667 92 -230 162 -280 210
c-101.333 96.667 -152 192.334 -152 287.001c0 128.667 68.333 239 205 331c122.667 82.667 251.667 124 387 124c74 0 138.667 -22.667 194 -68s83 -104.333 83 -177z" />
    <glyph glyph-name="scaron" unicode="&#x161;" horiz-adv-x="1070" 
d="M792 1753c0 -20.667 -25.832 -69.168 -77.499 -145.501s-87.834 -122.5 -108.501 -138.5c-16 -12 -31 -18 -45 -18c-19.333 0 -36.833 10.167 -52.5 30.5s-44.334 69.5 -86.001 147.5s-62.5 125 -62.5 141c0 16.667 7.33301 31.334 22 44.001s31.334 19 50.001 19
c34 0 82.333 -69 145 -207c20.667 36.667 54.667 88.667 102 156c16 18 33 27 51 27c41.333 0 62 -18.667 62 -56zM961.001 1120c0 -96.667 -36.334 -145.002 -109.001 -145.002c-72 0 -114.333 48.333 -127 145c-10 5.33301 -22 8 -36 8
c-61.333 0 -133.333 -21.667 -216 -65c-96 -47.333 -144 -98.333 -144 -153c0 -51.333 47.333 -111.666 142 -180.999l266 -193c94.667 -83.333 142 -166.333 142 -249c0 -85.333 -43.667 -156.666 -131 -213.999c-78.667 -50.667 -163 -76 -253 -76
c-126.667 0 -237 38.667 -331 116c12.667 94 37 141 73 141c4.66699 0 14 -4 28 -12c78 -45.333 150.667 -68 218 -68c36.667 0 75.334 8 116.001 24c51.333 19.333 77 43.666 77 72.999c0 26.667 -50.667 74 -152 142c-136.667 92 -230 162 -280 210
c-101.333 96.667 -152 192.334 -152 287.001c0 128.667 68.333 239 205 331c122.667 82.667 251.667 124 387 124c74 0 138.667 -22.667 194 -68s83 -104.333 83 -177z" />
    <glyph glyph-name="Ycircumflex" unicode="&#x176;" horiz-adv-x="1150" 
d="M788 1514c0 -17.333 -7.33398 -32.167 -22.001 -44.5s-31 -18.5 -49 -18.5c-34 0 -82.333 68.667 -145 206c-20.667 -36 -55 -87.667 -103 -155c-16 -18 -33 -27 -51 -27c-40.667 0 -61 18.667 -61 56c0 20.667 25.833 69 77.5 145s87.834 122 108.501 138
c16 12.667 30.667 19 44 19c19.333 0 37 -10.167 53 -30.5s44.333 -68.833 85 -145.5c42 -79.333 63 -127 63 -143zM1114 1260c0 -34.667 -16.334 -66.665 -49.001 -95.998l-87 -70c-36.667 -32 -69.667 -71.667 -99 -119c-66 -106 -133.667 -261 -203 -465
c-77.333 -229.333 -138.333 -387.333 -183 -474h-12c-70.667 0 -106 14.667 -106 44c0 4.66699 2.33301 12.667 7 24c58 146 105.333 295.667 142 449c-76 83.333 -168.667 198.333 -278 345c-59.333 79.333 -98.666 135.666 -117.999 168.999
c-42 71.333 -63 135.666 -63 192.999c0 28 9.66699 51.667 29 71s43.333 29 72 29c22.667 0 46.334 -10.333 71.001 -31c22 -18 57.333 -73.667 106 -167c44.667 -84 126.667 -204.667 246 -362c40.667 141.333 91.667 258 153 350c91.333 138 180.666 207 267.999 207
c69.333 0 104 -32.333 104 -97z" />
    <glyph glyph-name="ycircumflex" unicode="&#x177;" horiz-adv-x="1150" 
d="M788 1514c0 -17.333 -7.33398 -32.167 -22.001 -44.5s-31 -18.5 -49 -18.5c-34 0 -82.333 68.667 -145 206c-20.667 -36 -55 -87.667 -103 -155c-16 -18 -33 -27 -51 -27c-40.667 0 -61 18.667 -61 56c0 20.667 25.833 69 77.5 145s87.834 122 108.501 138
c16 12.667 30.667 19 44 19c19.333 0 37 -10.167 53 -30.5s44.333 -68.833 85 -145.5c42 -79.333 63 -127 63 -143zM1114 1260c0 -34.667 -16.334 -66.665 -49.001 -95.998l-87 -70c-36.667 -32 -69.667 -71.667 -99 -119c-66 -106 -133.667 -261 -203 -465
c-77.333 -229.333 -138.333 -387.333 -183 -474h-12c-70.667 0 -106 14.667 -106 44c0 4.66699 2.33301 12.667 7 24c58 146 105.333 295.667 142 449c-76 83.333 -168.667 198.333 -278 345c-59.333 79.333 -98.666 135.666 -117.999 168.999
c-42 71.333 -63 135.666 -63 192.999c0 28 9.66699 51.667 29 71s43.333 29 72 29c22.667 0 46.334 -10.333 71.001 -31c22 -18 57.333 -73.667 106 -167c44.667 -84 126.667 -204.667 246 -362c40.667 141.333 91.667 258 153 350c91.333 138 180.666 207 267.999 207
c69.333 0 104 -32.333 104 -97z" />
    <glyph glyph-name="Ydieresis" unicode="&#x178;" horiz-adv-x="1159" 
d="M864 1568c0 -10 -7.99902 -28.667 -23.999 -56c-24 -40.667 -50.333 -61 -79 -61c-24 0 -44.5 7.66699 -61.5 23s-25.5 35 -25.5 59c0 27.333 11.167 54.333 33.5 81s47.166 40 74.499 40c22.667 0 42 -8.5 58 -25.5s24 -37.167 24 -60.5zM492.001 1533
c0 -23.333 -8.66699 -42.833 -26 -58.5s-37.333 -23.5 -60 -23.5c-56.667 0 -85 34 -85 102c0 64 28.333 96 85 96c57.333 0 86 -38.667 86 -116zM1120 1260c0 -34.667 -16.6689 -66.665 -50.002 -95.998l-87 -70c-36.667 -32 -69.667 -71.667 -99 -119
c-66 -106 -133.667 -261 -203 -465c-77.333 -229.333 -138.333 -387.333 -183 -474h-12c-70 0 -105 14.667 -105 44c0 4.66699 2 12.667 6 24c58 146 105.333 295.667 142 449c-76 83.333 -168.667 198.333 -278 345c-59.333 79.333 -98.666 135.666 -117.999 168.999
c-42 71.333 -63 135.666 -63 192.999c0 28 9.66699 51.667 29 71s43.333 29 72 29c22.667 0 46.334 -10.333 71.001 -31c22 -18 57.333 -73.667 106 -167c44.667 -84 126.667 -204.667 246 -362c40.667 141.333 92 258 154 350c90.667 138 179.667 207 267 207
c70 0 105 -32.333 105 -97z" />
    <glyph glyph-name="Zacute" unicode="&#x179;" horiz-adv-x="1073" 
d="M766 1799c0 -22.667 -22.667 -75.666 -68 -158.999c-42 -78.667 -73 -129.834 -93 -153.501s-41.333 -35.5 -64 -35.5c-20.667 0 -38.834 7 -54.501 21s-23.5 31.333 -23.5 52c0 19.333 24.667 74.166 74 164.499s82.833 143.333 100.5 159s33.834 23.5 48.501 23.5
c20.667 0 39.167 -7.16699 55.5 -21.5s24.5 -31.166 24.5 -50.499zM1009 1236c0 -12.667 -6.33301 -31.667 -19 -57c-18 -35.333 -84.667 -144.333 -200 -327l-432 -686c32 0 90.667 1 176 3c74 1.33301 132.667 2 176 2c91.333 0 137 -25.667 137 -77
c0 -34 -23 -57.333 -69 -70c-28 -8 -102.333 -12 -223 -12c-38.667 0 -96.5 -1.5 -173.5 -4.5s-134.833 -4.5 -173.5 -4.5c-24 0 -43.833 8.33301 -59.5 25s-23.5 37 -23.5 61c0 26 84.667 192.667 254 500l310 546c-128 6.66699 -316 10.667 -564 12
c-43.333 64.667 -65 119.667 -65 165c0 41.333 34.667 62 104 62s172.5 -1.5 309.5 -4.5s240.167 -4.5 309.5 -4.5c150.667 0 226 -43 226 -129z" />
    <glyph glyph-name="zacute" unicode="&#x17a;" horiz-adv-x="1073" 
d="M766 1799c0 -22.667 -22.667 -75.666 -68 -158.999c-42 -78.667 -73 -129.834 -93 -153.501s-41.333 -35.5 -64 -35.5c-20.667 0 -38.834 7 -54.501 21s-23.5 31.333 -23.5 52c0 19.333 24.667 74.166 74 164.499s82.833 143.333 100.5 159s33.834 23.5 48.501 23.5
c20.667 0 39.167 -7.16699 55.5 -21.5s24.5 -31.166 24.5 -50.499zM1009 1236c0 -12.667 -6.33301 -31.667 -19 -57c-17.333 -35.333 -84 -144.333 -200 -327l-432 -686c32 0 90.667 1 176 3c74 1.33301 132.667 2 176 2c91.333 0 137 -25.667 137 -77
c0 -34 -23 -57.333 -69 -70c-28 -8 -102.333 -12 -223 -12c-38.667 0 -96.5 -1.5 -173.5 -4.5s-134.833 -4.5 -173.5 -4.5c-24 0 -43.833 8.33301 -59.5 25s-23.5 37 -23.5 61c0 26 84.667 192.667 254 500l310 546c-128 6.66699 -316 10.667 -564 12
c-43.333 64.667 -65 119.667 -65 165c0 41.333 34.667 62 104 62s172.5 -1.5 309.5 -4.5s240.167 -4.5 309.5 -4.5c150.667 0 226 -43 226 -129z" />
    <glyph glyph-name="Zcaron" unicode="&#x17d;" horiz-adv-x="1111" 
d="M804 1753c0 -20.667 -25.832 -69.168 -77.499 -145.501s-87.834 -122.5 -108.501 -138.5c-16 -12 -31 -18 -45 -18c-19.333 0 -36.833 10.167 -52.5 30.5s-44.334 69.5 -86.001 147.5s-62.5 125 -62.5 141c0 16.667 7.33301 31.334 22 44.001s31.334 19 50.001 19
c34 0 82.333 -69 145 -207c20.667 36.667 54.667 88.667 102 156c16 18 33 27 51 27c41.333 0 62 -18.667 62 -56zM1046 1236c0 -12.667 -6.32812 -31.667 -18.9951 -57c-18 -35.333 -84.333 -144.333 -199 -327l-432 -686c32 0 90.667 1 176 3c74 1.33301 132.667 2 176 2
c90.667 0 136 -25.667 136 -77c0 -34 -22.667 -57.333 -68 -70c-28.667 -8 -103.334 -12 -224.001 -12c-38.667 0 -96.334 -1.5 -173.001 -4.5s-134.334 -4.5 -173.001 -4.5c-24 0 -44 8.33301 -60 25s-24 37 -24 61c0 26 84.667 192.667 254 500l311 546
c-128.667 6.66699 -317 10.667 -565 12c-43.333 64.667 -65 119.667 -65 165c0 41.333 34.667 62 104 62s172.666 -1.5 309.999 -4.5s240.666 -4.5 309.999 -4.5c150 0 225 -43 225 -129z" />
    <glyph glyph-name="zcaron" unicode="&#x17e;" horiz-adv-x="1111" 
d="M804 1753c0 -20.667 -25.832 -69.168 -77.499 -145.501s-87.834 -122.5 -108.501 -138.5c-16 -12 -31 -18 -45 -18c-19.333 0 -36.833 10.167 -52.5 30.5s-44.334 69.5 -86.001 147.5s-62.5 125 -62.5 141c0 16.667 7.33301 31.334 22 44.001s31.334 19 50.001 19
c34 0 82.333 -69 145 -207c20.667 36.667 54.667 88.667 102 156c16 18 33 27 51 27c41.333 0 62 -18.667 62 -56zM1046 1236c0 -12.667 -6.32812 -31.667 -18.9951 -57c-16.667 -35.333 -83 -144.333 -199 -327l-432 -686c32 0 90.667 1 176 3c74 1.33301 132.667 2 176 2
c90.667 0 136 -25.667 136 -77c0 -34 -22.667 -57.333 -68 -70c-28.667 -8 -103.334 -12 -224.001 -12c-38.667 0 -96.334 -1.5 -173.001 -4.5s-134.334 -4.5 -173.001 -4.5c-24 0 -44 8.33301 -60 25s-24 37 -24 61c0 26 84.667 192.667 254 500l311 546
c-128.667 6.66699 -317 10.667 -565 12c-43.333 64.667 -65 119.667 -65 165c0 41.333 34.667 62 104 62s172.666 -1.5 309.999 -4.5s240.666 -4.5 309.999 -4.5c150 0 225 -43 225 -129z" />
    <glyph glyph-name="AEacute" unicode="&#x1fc;" horiz-adv-x="1795" 
d="M1080 1799c0 -22.667 -22.667 -75.666 -68 -158.999c-42 -78.667 -73 -129.834 -93 -153.501s-41.333 -35.5 -64 -35.5c-20.667 0 -38.834 7 -54.501 21s-23.5 31.333 -23.5 52c0 19.333 24.667 74.166 74 164.499s82.833 143.333 100.5 159s33.834 23.5 48.501 23.5
c20.667 0 39.167 -7.16699 55.5 -21.5s24.5 -31.166 24.5 -50.499zM1713 1256c0 -56.667 -31.666 -91.335 -94.999 -104.002c-54.667 -3.33301 -109.334 -6.33301 -164.001 -9c-76 -4 -167.667 -18.667 -275 -44c6 -36.667 9 -78 9 -124c0 -66 -5.33301 -139 -16 -219
c62.667 16 131 24 205 24c92.667 0 158.667 -7 198 -21c46 -15.333 69 -44.666 69 -87.999c0 -26.667 -8.33301 -50.667 -25 -72s-37.667 -32 -63 -32c-16.667 0 -41.5 1.66699 -74.5 5s-58.167 5 -75.5 5c-43.333 0 -129.666 -5.33301 -258.999 -16
c-11.333 -78 -24.333 -196 -39 -354c218 13.333 379.333 20 484 20c49.333 0 74 -25.667 74 -77c0 -32 -17.667 -55.333 -53 -70c-28.667 -12.667 -107.667 -25 -237 -37c-26.667 -2.66699 -88.667 -12.334 -186 -29.001c-78 -12.667 -140 -19 -186 -19
c-60.667 0 -95 33 -103 99c0 13.333 -1 33.333 -3 60c-2.66699 13.333 -12.334 40 -29.001 80c-57.333 -6 -123.333 -9 -198 -9c-49.333 0 -113.666 1.66699 -192.999 5c-100 4 -163.667 6.33301 -191 7c-10.667 -42 -31.667 -102.333 -63 -181
c-17.333 -29.333 -39 -44 -65 -44c-46 0 -69 20 -69 60c0 4.66699 1.33301 11.334 4 20.001c43.333 169.333 103.666 372 180.999 608l112 322l46 147c22 64.667 43.667 109.667 65 135c28.667 32.667 60.667 49 96 49c40 0 72.333 -10.667 97 -32
c33.333 -29.333 75 -127.666 125 -294.999l114 -372c14 122.667 21 229.667 21 321c0 72.667 -3 127 -9 163c-2 15.333 -3 23.333 -3 24c0 34 10.833 63.667 32.5 89s49.5 36 83.5 32c105.333 51.333 276 77 512 77c97.333 0 146 -34.667 146 -104zM792.001 444
l-195 530.999c-28 -57.333 -104 -236.666 -228 -537.999c174 6.66699 277.333 10 310 10c34 0 71.667 -1 113 -3z" />
    <glyph glyph-name="aeacute" unicode="&#x1fd;" horiz-adv-x="1795" 
d="M1080 1799c0 -22.667 -22.667 -75.666 -68 -158.999c-42 -78.667 -73 -129.834 -93 -153.501s-41.333 -35.5 -64 -35.5c-20.667 0 -38.834 7 -54.501 21s-23.5 31.333 -23.5 52c0 19.333 24.667 74.166 74 164.499s82.833 143.333 100.5 159s33.834 23.5 48.501 23.5
c20.667 0 39.167 -7.16699 55.5 -21.5s24.5 -31.166 24.5 -50.499zM1713 1256c0 -56.667 -31.666 -91.335 -94.999 -104.002c-54.667 -3.33301 -109.334 -6.33301 -164.001 -9c-76 -4 -167.667 -18.667 -275 -44c6 -36.667 9 -78 9 -124c0 -66 -5.33301 -139 -16 -219
c62.667 16 131 24 205 24c92.667 0 158.667 -7 198 -21c46 -15.333 69 -44.666 69 -87.999c0 -26.667 -8.33301 -50.667 -25 -72s-37.667 -32 -63 -32c-16.667 0 -41.5 1.66699 -74.5 5s-58.167 5 -75.5 5c-43.333 0 -129.666 -5.33301 -258.999 -16
c-11.333 -78 -24.333 -196 -39 -354c218 13.333 379.333 20 484 20c49.333 0 74 -25.667 74 -77c0 -32 -17.667 -55.333 -53 -70c-28.667 -12.667 -107.667 -25 -237 -37c-26.667 -2.66699 -88.667 -12.334 -186 -29.001c-78 -12.667 -140 -19 -186 -19
c-60.667 0 -95 33 -103 99c0 13.333 -1 33.333 -3 60c-2.66699 13.333 -12.334 40 -29.001 80c-57.333 -6 -123.333 -9 -198 -9c-49.333 0 -113.666 1.66699 -192.999 5c-100 4 -163.667 6.33301 -191 7c-10.667 -42 -31.667 -102.333 -63 -181
c-17.333 -29.333 -39 -44 -65 -44c-46 0 -69 20 -69 60c0 4.66699 1.33301 11.334 4 20.001c43.333 169.333 103.666 372 180.999 608l112 322l46 147c22 64.667 43.667 109.667 65 135c28.667 32.667 60.667 49 96 49c40 0 72.333 -10.667 97 -32
c33.333 -29.333 75 -127.666 125 -294.999l114 -372c14 122.667 21 229.667 21 321c0 72.667 -3 127 -9 163c-2 15.333 -3 23.333 -3 24c0 34 10.833 63.667 32.5 89s49.5 36 83.5 32c105.333 51.333 276 77 512 77c97.333 0 146 -34.667 146 -104zM792.001 444
l-195 530.999c-28 -57.333 -104 -236.666 -228 -537.999c174 6.66699 277.333 10 310 10c34 0 71.667 -1 113 -3z" />
    <glyph glyph-name="circumflex" unicode="&#x2c6;" horiz-adv-x="662" 
d="M534 1514c0 -17.333 -7.33203 -32.167 -21.999 -44.5s-31 -18.5 -49 -18.5c-34.667 0 -83.334 68.667 -146.001 206c-20 -36 -54 -87.667 -102 -155c-16 -18 -33 -27 -51 -27c-41.333 0 -62 18.667 -62 56c0 20.667 26 69 78 145s88 122 108 138c16 12.667 31 19 45 19
c19.333 0 37 -10.167 53 -30.5s44.333 -68.833 85 -145.5c42 -79.333 63 -127 63 -143z" />
    <glyph glyph-name="caron" unicode="&#x2c7;" horiz-adv-x="655" 
d="M550 1753c0 -20.667 -26.001 -69.168 -78.001 -145.501s-88 -122.5 -108 -138.5c-16 -12 -31 -18 -45 -18c-19.333 0 -37 10.167 -53 30.5s-44.667 69.5 -86 147.5s-62 125 -62 141c0 16.667 7.33301 31.334 22 44.001s31 19 49 19c34.667 0 83.334 -69 146.001 -207
c20 36.667 54 88.667 102 156c16 18 33 27 51 27c41.333 0 62 -18.667 62 -56z" />
    <glyph glyph-name="macron" unicode="&#x2c9;" horiz-adv-x="1022" 
d="M829 1527c0 -50.667 -36.334 -76 -109.001 -76h-114c-151.333 0 -264.666 5 -339.999 15c-50 6.66699 -75 31 -75 73c0 38.667 21 64 63 76c18.667 4 55.667 6 111 6h103c148.667 0 251.667 -9.66699 309 -29c34.667 -12 52 -33.667 52 -65z" />
    <glyph glyph-name="ring" unicode="&#x2da;" horiz-adv-x="893" 
d="M730 1708c0 -79.333 -25.5 -142.001 -76.5 -188.001s-116.833 -69 -197.5 -69c-82 0 -152.667 25.333 -212 76c-62.667 54 -94 121.333 -94 202c0 78.667 32 142.334 96 191.001c59.333 45.333 129.333 68 210 68c76 0 140.667 -27.333 194 -82s80 -120.667 80 -198z
M577 1708c0 40 -14.5 70.833 -43.5 92.5s-64.167 32.5 -105.5 32.5c-80.667 0 -121 -30.667 -121 -92c0 -36.667 16.833 -68.834 50.5 -96.501s69.167 -41.5 106.5 -41.5c30.667 0 57.167 9.83301 79.5 29.5s33.5 44.834 33.5 75.501z" />
    <glyph glyph-name="tilde" unicode="&#x2dc;" horiz-adv-x="876" 
d="M739 1567c0 -34 -19.334 -62.668 -58.001 -86.001c-33.333 -20 -68 -30 -104 -30c-30.667 0 -69.667 10.833 -117 32.5s-80.666 32.5 -99.999 32.5s-38.333 -11.5 -57 -34.5s-37.667 -34.5 -57 -34.5c-18.667 0 -34.834 6.83301 -48.501 20.5s-20.5 29.834 -20.5 48.501
c0 37.333 20.333 73.333 61 108s80.334 52 119.001 52c26 0 62.333 -10.5 109 -31.5s82.334 -31.5 107.001 -31.5c12 0 27.833 4 47.5 12s35.167 12 46.5 12c19.333 0 36.166 -6.83301 50.499 -20.5s21.5 -30.167 21.5 -49.5z" />
    <glyph glyph-name="endash" unicode="&#x2013;" horiz-adv-x="843" 
d="M649 599c0 -51.333 -36.665 -77 -109.998 -77c-22.667 0 -56.5 -1.16699 -101.5 -3.5s-78.833 -3.5 -101.5 -3.5c-94 0 -141 26.333 -141 79c0 51.333 25 77 75 77c47.333 0 124.666 -1.33301 231.999 -4c21.333 0 52.666 -1 93.999 -3c35.333 -6 53 -27.667 53 -65z" />
    <glyph glyph-name="emdash" unicode="&#x2014;" horiz-adv-x="1283" 
d="M1091 582c0 -51.333 -36.666 -77 -109.999 -77c-60 0 -150.833 0.833008 -272.5 2.5s-212.834 2.5 -273.501 2.5c-70.667 0 -124.667 3.66699 -162 11c-50 8.66699 -75 33 -75 73c0 54.667 45 82 135 82c117.333 0 281 -4 491 -12c36.667 -1.33301 72.667 -2 108 -2
c44 -2 79.333 -7 106 -15c35.333 -11.333 53 -33 53 -65z" />
    <glyph glyph-name="quoteleft" unicode="&#x2018;" horiz-adv-x="425" 
d="M323 1070c0 -18 -7.16602 -33.333 -21.499 -46s-30.5 -19 -48.5 -19c-20.667 0 -38.334 11 -53.001 33c-10.667 14.667 -32.667 58.167 -66 130.5s-50 113.5 -50 123.5c0 19.333 7.83301 36.333 23.5 51s33.167 22 52.5 22c22 0 41 -12 57 -36
c12.667 -19.333 33 -62.333 61 -129c30 -70.667 45 -114 45 -130z" />
    <glyph glyph-name="quoteright" unicode="&#x2019;" horiz-adv-x="440" 
d="M358 1297c0 -22.667 -19.667 -64.6699 -59 -126.003c-33.333 -50 -63 -90 -89 -120c-19.333 -21.333 -39.333 -32 -60 -32c-18 0 -34.167 7.33301 -48.5 22s-21.5 31.334 -21.5 50.001c0 8.66699 4 19.334 12 32.001l135 203c13.333 20.667 33.333 31 60 31
c18 0 34.333 -5.66699 49 -17s22 -25.666 22 -42.999z" />
    <glyph glyph-name="quotesinglbase" unicode="&#x201a;" horiz-adv-x="437" 
d="M358 79c0 -23.333 -19.667 -65.667 -59 -127c-33.333 -50 -63 -89.667 -89 -119c-19.333 -22 -39.333 -33 -60 -33c-18 0 -34.167 7.5 -48.5 22.5s-21.5 31.5 -21.5 49.5c0 9.33301 4 20 12 32l135 204c13.333 20 33.333 30 60 30c18 0 34.333 -5.66699 49 -17
s22 -25.333 22 -42z" />
    <glyph glyph-name="quotedblleft" unicode="&#x201c;" horiz-adv-x="788" 
d="M630 1108c0 -20.667 -7.66797 -38.667 -23.001 -54s-33.333 -23 -54 -23c-32 0 -56 18.5 -72 55.5s-42 92.5 -78 166.5c-10.667 18 -16 31.667 -16 41c0 21.333 8.83301 39.333 26.5 54s37.5 22 59.5 22c26 0 48.333 -12.167 67 -36.5s38.334 -60.5 59.001 -108.5
c20.667 -50.667 31 -89.667 31 -117zM383.999 1070c0 -18 -7.16699 -33.333 -21.5 -46s-30.5 -19 -48.5 -19c-20.667 0 -38.334 11 -53.001 33c-10 14.667 -31.833 58.167 -65.5 130.5s-50.5 113.5 -50.5 123.5c0 19.333 8 36.333 24 51s33.667 22 53 22
c21.333 0 40 -12 56 -36c12.667 -19.333 33.334 -62.333 62.001 -129c29.333 -70.667 44 -114 44 -130z" />
    <glyph glyph-name="quotedblright" unicode="&#x201d;" horiz-adv-x="835" 
d="M695 1297c0 -22.667 -20.001 -64.667 -60.001 -126c-33.333 -49.333 -63 -89.333 -89 -120c-19.333 -21.333 -38.666 -32 -57.999 -32s-36.166 7.16699 -50.499 21.5s-21.5 31.166 -21.5 50.499c0 10 4 20.667 12 32l137 203c13.333 20.667 32.666 31 57.999 31
c18 0 34.5 -5.66699 49.5 -17s22.5 -25.666 22.5 -42.999zM422.999 1292c0 -14.667 -19.667 -55 -59 -121c-36.667 -60.667 -64 -101 -82 -121c-20.667 -24 -42 -36 -64 -36c-20 0 -38.333 6.83301 -55 20.5s-25 30.167 -25 49.5c0 14.667 24 58.334 72 131.001
c43.333 67.333 73.5 110 90.5 128s32.167 27 45.5 27c20.667 0 38.667 -7.83301 54 -23.5s23 -33.834 23 -54.501z" />
    <glyph glyph-name="quotedblbase" unicode="&#x201e;" horiz-adv-x="833" 
d="M695 77c0 -22.667 -20.001 -64.666 -60.001 -125.999c-33.333 -49.333 -63 -89.333 -89 -120c-19.333 -21.333 -38.666 -32 -57.999 -32s-36.166 7 -50.499 21s-21.5 30.667 -21.5 50c0 10.667 4 21.667 12 33l137 203c13.333 20.667 32.666 31 57.999 31
c18 0 34.5 -5.83301 49.5 -17.5s22.5 -25.834 22.5 -42.501zM422.999 72.001c0 -15.333 -19.667 -55.666 -59 -120.999c-36.667 -60.667 -64 -101.334 -82 -122.001c-20.667 -24 -42 -36 -64 -36c-20 0 -38.333 6.83301 -55 20.5s-25 30.167 -25 49.5
c0 15.333 24 59.333 72 132c43.333 67.333 73.5 110 90.5 128s32.167 27 45.5 27c20.667 0 38.667 -8 54 -24s23 -34 23 -54z" />
    <glyph glyph-name="dagger" unicode="&#x2020;" horiz-adv-x="853" 
d="M835 792c0 -40 -23.9971 -66.667 -71.9971 -80c-34 -9.33301 -78.333 -15.666 -133 -18.999c-84.667 -4.66699 -129 -7 -133 -7c-1.33301 -161.333 -3 -308 -5 -440l-4 -263c-4.66699 -109.333 -15.334 -194 -32.001 -254c-12.667 -43.333 -37.334 -65 -74.001 -65
c-39.333 0 -59 19.333 -59 58c0 44 1.66699 111 5 201s5 157.333 5 202c0 27.333 -1.33301 60.666 -4 99.999l-24 437c-6.66699 -1.33301 -37.334 -8 -92.001 -20c-37.333 -8 -68.666 -12 -93.999 -12c-21.333 0 -39.333 8.16699 -54 24.5s-22 35.5 -22 57.5
c0 31.333 18.667 54 56 68c25.333 9.33301 92 22.333 200 39c-6 144.667 -9 243 -9 295c0 170.667 41.667 256 125 256c64.667 0 97 -66 97 -198c0 -38.667 -2.33301 -93.667 -7 -165c-4.66699 -76 -7.33398 -130.667 -8.00098 -164c119.333 11.333 208 17 266 17
c48 0 72 -22.667 72 -68z" />
    <glyph glyph-name="daggerdbl" unicode="&#x2021;" horiz-adv-x="869" 
d="M845 792c0 -41.333 -24.001 -67.999 -72.001 -79.999c-34 -9.33301 -78.333 -15 -133 -17c-82 -4.66699 -126.333 -7.66699 -133 -9c0 -61.333 -0.666992 -153 -2 -275c62.667 8 106.667 12 132 12c22.667 0 41.334 -7.66699 56.001 -23s22 -34.333 22 -57
c0 -35.333 -18.667 -59.333 -56 -72c-6 -2 -58.333 -10.333 -157 -25c-1.33301 -86.667 -3 -173.667 -5 -261c-4.66699 -102.667 -15 -188 -31 -256c-10 -43.333 -34.333 -65 -73 -65c-40 0 -60 19.333 -60 58c0 30.667 1.33301 76.5 4 137.5s4 106.833 4 137.5v99
c0 54 -0.333008 97 -1 129c-70.667 -6.66699 -118.667 -10 -144 -10c-52 0 -78 26.667 -78 80c0 46 26 74 78 84c44.667 3.33301 89 6 133 8l-13 275c-8 -1.33301 -38.667 -8 -92 -20c-38 -8 -69.333 -12 -94 -12c-22 0 -40.333 8.16699 -55 24.5s-22 35.5 -22 57.5
c0 31.333 18.667 54 56 68c27.333 9.33301 94 22.333 200 39c-6 146 -9 243.333 -9 292c0 172.667 41.667 259 125 259c64.667 0 97 -62 97 -186c0 -40.667 -2.33301 -97.334 -7 -170.001c-4 -80 -6.66699 -137 -8 -171c119.333 11.333 208 17 266 17
c48 0 72 -22.667 72 -68z" />
    <glyph glyph-name="bullet" unicode="&#x2022;" horiz-adv-x="688" 
d="M543 611c0 -59.333 -22.5 -111.997 -67.5 -157.997s-97.167 -69 -156.5 -69c-52 0 -94 18.167 -126 54.5s-48 81.166 -48 134.499c0 65.333 24.5 124.666 73.5 177.999s105.167 80 168.5 80c30 0 64.333 -29.667 103 -89c35.333 -54.667 53 -98.334 53 -131.001z" />
    <glyph glyph-name="ellipsis" unicode="&#x2026;" horiz-adv-x="1420" 
d="M1217 104c0 -24.667 -8.83301 -47.667 -26.5 -69s-39.167 -32 -64.5 -32c-54.667 0 -82 33 -82 99c0 22 8 41 24 57s35 24 57 24c24 0 45.333 -7.5 64 -22.5s28 -33.833 28 -56.5zM824 101c0 -30 -12.501 -54.334 -37.501 -73.001s-52.833 -28 -83.5 -28
c-24 0 -45 8.83301 -63 26.5s-27 37.834 -27 60.501c0 28.667 11.333 53.167 34 73.5s48.334 30.5 77.001 30.5c27.333 0 50.833 -8.5 70.5 -25.5s29.5 -38.5 29.5 -64.5zM376.999 103.999c0 -24.667 -8.83203 -47.667 -26.499 -69s-38.834 -32 -63.501 -32
c-54.667 0 -82 33 -82 99c0 22 8 41 24 57s34.667 24 56 24c24 0 45.333 -7.5 64 -22.5s28 -33.833 28 -56.5z" />
    <glyph glyph-name="perthousand" unicode="&#x2030;" horiz-adv-x="2227" 
d="M2140 314c0 -84 -36.6699 -158.833 -110.003 -224.5s-152.666 -98.5 -237.999 -98.5c-74 0 -137.5 28 -190.5 84s-79.5 121 -79.5 195c0 87.333 34.5 163.166 103.5 227.499s147.833 96.5 236.5 96.5c54.667 -18 88.334 -30 101.001 -36
c50.667 -21.333 92.834 -54.166 126.501 -98.499s50.5 -92.833 50.5 -145.5zM1248 1306c0 -115.333 -90.665 -335.001 -271.998 -659.001c-170.667 -305.333 -307.667 -510.333 -411 -615c-11.333 -11.333 -22.333 -17 -33 -17c-13.333 0 -25.333 6 -36 18s-16 25 -16 39
c0 6.66699 5 17.334 15 32.001c158 223.333 300.667 485 428 785c33.333 72.667 79.666 183 138.999 331c21.333 58 33.666 90.667 36.999 98c20.667 42 44.667 63 72 63c51.333 0 77 -25 77 -75zM834.999 1055c0 -91.333 -30.166 -167.333 -90.499 -228
s-135.5 -91 -225.5 -91c-96.667 0 -182.667 30 -258 90c-80.667 64 -121 143 -121 237c0 140 83.667 234 251 282c40 11.333 71.667 17 95 17c93.333 0 173.666 -27.333 240.999 -82c72 -59.333 108 -134.333 108 -225zM1493 318.999c0 -84 -29 -159.665 -87 -226.998
c-61.333 -69.333 -133.333 -104 -216 -104c-74 0 -141.333 24 -202 72c-64.667 51.333 -97 113.333 -97 186c0 74 30 148.333 90 223c54.667 67.333 119 118.666 193 153.999c14.667 6.66699 26.667 10 36 10c11.333 0 29 -5 53 -15
c153.333 -64.667 230 -164.334 230 -299.001zM1963 307.001c0 30 -13.667 57.998 -41 83.998l-69 66c-40.667 -14.667 -77.334 -36.667 -110.001 -66c-40 -35.333 -60 -71.666 -60 -108.999c0 -27.333 11.333 -54.166 34 -80.499s47.667 -39.5 75 -39.5
c36.667 0 74.334 15.167 113.001 45.5s58 63.5 58 99.5zM662 1046c0 59.333 -30.001 99.332 -90.001 119.999l-162 34c-74 -26 -111 -68.333 -111 -127c0 -45.333 26 -85 78 -119c46.667 -30.667 94.667 -46 144 -46c38.667 0 71.834 13.333 99.501 40
s41.5 59.334 41.5 98.001zM1323 306.998c0 64.667 -37.666 121.001 -112.999 169.001c-106.667 -74.667 -160 -145.667 -160 -213c0 -30.667 13.667 -56.5 41 -77.5s56.666 -31.5 87.999 -31.5c38 0 71.5 16.167 100.5 48.5s43.5 67.166 43.5 104.499z" />
    <glyph glyph-name="minute" unicode="&#x2032;" horiz-adv-x="507" 
d="M312 1294c0 -80 -4.33203 -153.667 -12.999 -221c-6 -39.333 -26 -59 -60 -59c-40 0 -60 28.333 -60 85v62c0 72.667 6.33301 127.667 19 165c9.33301 28.667 25.666 43 48.999 43c43.333 0 65 -25 65 -75z" />
    <glyph glyph-name="second" unicode="&#x2033;" horiz-adv-x="800" 
d="M592 1300c0 -23.333 -2 -58.667 -6 -106s-6 -83 -6 -107c0 -46.667 -25 -70 -75 -70c-46.667 0 -70 23.333 -70 70v84c0 137.333 28.667 206 86 206c47.333 0 71 -25.667 71 -77zM343 1294c0 -74 -5 -147.667 -15 -221c-6 -39.333 -25.333 -59 -58 -59
c-40 0 -60 28.333 -60 85v62c0 72.667 6.33301 127.667 19 165c8.66699 28.667 25 43 49 43c43.333 0 65 -25 65 -75z" />
    <glyph glyph-name="guilsinglleft" unicode="&#x2039;" horiz-adv-x="614" 
d="M423 106c0 -19.333 -6.83203 -37 -20.499 -53s-29.5 -24 -47.5 -24c-40 0 -99.167 35.833 -177.5 107.5s-117.5 127.5 -117.5 167.5c0 18 6.83301 36.167 20.5 54.5s55.667 54.166 126 107.499s113.166 80 128.499 80c19.333 0 36 -8 50 -24s21 -33.667 21 -53
c0 -13.333 -6.66699 -27 -20 -41l-157 -129c16.667 -19.333 45.5 -44.166 86.5 -74.499s70.167 -55.166 87.5 -74.499c13.333 -14.667 20 -29.334 20 -44.001z" />
    <glyph glyph-name="guilsinglright" unicode="&#x203a;" horiz-adv-x="609" 
d="M550 292c0 -40 -39.668 -96.167 -119.001 -168.5s-138.666 -108.5 -177.999 -108.5c-18.667 0 -34.5 8 -47.5 24s-19.5 33.667 -19.5 53c0 14.667 7 29.667 21 45c16.667 19.333 45.5 44 86.5 74s70.167 54 87.5 72c-36.667 27.333 -89 70.666 -157 129.999
c-14 14.667 -21 29.334 -21 44.001c0 19.333 6.83301 36.666 20.5 51.999s30.167 23 49.5 23c16 0 59.333 -27 130 -81c66 -51.333 107 -86.666 123 -105.999s24 -37 24 -53z" />
    <glyph glyph-name="exclamdbl" unicode="&#x203c;" horiz-adv-x="1220" 
d="M1082 1227c0 -24.667 -10.6689 -78.6709 -32.002 -162.004c-11.333 -51.333 -29.666 -127.666 -54.999 -228.999c-10 -39.333 -39.667 -137.666 -89 -294.999c-6.66699 -27.333 -19.667 -67 -39 -119c-18 -38.667 -42.333 -58 -73 -58
c-23.333 0 -43.166 7.83301 -59.499 23.5s-24.5 34.834 -24.5 57.501c0 54.667 9.66699 135 29 241c14.667 82 30 163.333 46 244c11.333 70.667 23.333 141.334 36 212.001c19.333 92 47.333 154.333 84 187c22.667 20.667 46 31 70 31c71.333 0 107 -44.333 107 -133z
M569.998 1227c0 -24.667 -10.6689 -78.6709 -32.002 -162.004c-11.333 -51.333 -29.666 -127.666 -54.999 -228.999c-10 -39.333 -39.667 -137.666 -89 -294.999c-6.66699 -27.333 -19.667 -67 -39 -119c-18 -38.667 -42.333 -58 -73 -58
c-23.333 0 -43.166 7.83301 -59.499 23.5s-24.5 34.834 -24.5 57.501c0 54.667 9.66699 135 29 241c14.667 82 30 163.333 46 244c11.333 70.667 23.333 141.334 36 212.001c19.333 92 47.333 154.333 84 187c22.667 20.667 46 31 70 31c71.333 0 107 -44.333 107 -133z
M871.996 136.992c0 -1.33301 -2.66699 -14.998 -8 -40.998l-6 -26c-11.333 -40 -40.333 -60 -87 -60c-31.333 0 -57.833 11.167 -79.5 33.5s-32.5 49.5 -32.5 81.5c0 27.333 11.833 52.666 35.5 75.999s49.167 35 76.5 35s51 -9.83301 71 -29.5s30 -42.834 30 -69.501z
M359.996 136.994c0 -1.33301 -2.66699 -14.998 -8 -40.998l-6 -26c-11.333 -40 -40.333 -60 -87 -60c-31.333 0 -57.833 11.167 -79.5 33.5s-32.5 49.5 -32.5 81.5c0 27.333 11.833 52.666 35.5 75.999s49.167 35 76.5 35s51 -9.83301 71 -29.5s30 -42.834 30 -69.501z" />
    <glyph glyph-name="Euro" unicode="&#x20ac;" horiz-adv-x="1333" 
d="M1176 1094c0 -110.667 -43.998 -165.998 -131.998 -165.998c-37.333 0 -62.666 12.667 -75.999 38c-8 14.667 -12.833 41.667 -14.5 81s-6.5 65.666 -14.5 78.999c-4.66699 1.33301 -8.66699 2 -12 2c-66 0 -139.333 -36.333 -220 -109
c-67.333 -61.333 -120.333 -127.333 -159 -198h133c52 -2.66699 96.333 -8.33398 133 -17.001c58 -14.667 87 -47 87 -97c0 -51.333 -29 -77 -87 -77c-37.333 0 -93 0.833008 -167 2.5s-128.667 2.5 -164 2.5c-3.33301 -20.667 -5 -42.334 -5 -65.001
c0 -40.667 8 -78.667 24 -114c96.667 8 163 12 199 12c44.667 0 67 -20 67 -60c0 -37.333 -23.333 -62.333 -70 -75c-14.667 -4.66699 -53.334 -9.33398 -116.001 -14.001c76 -102 151.667 -153 227 -153c26 0 54.667 9.83301 86 29.5s54 29.5 68 29.5
c19.333 0 36.833 -7 52.5 -21s23.5 -30.667 23.5 -50c0 -15.333 -8 -32 -24 -50c-58.667 -66 -134.334 -99 -227.001 -99c-84 0 -167 31.333 -249 94c-70.667 53.333 -129.667 121 -177 203c-80 -4.66699 -154.667 -7 -224 -7c-55.333 0 -83 19 -83 57
c0 19.333 12.167 34.333 36.5 45s95.5 23.334 213.5 38.001c-16.667 64 -23.334 129 -20.001 195c-76 -4.66699 -127.5 -7 -154.5 -7s-40.5 29 -40.5 87c0 52 29 85 87 99c17.333 4.66699 67.666 8 150.999 10c46.667 130.667 123.334 248.334 230.001 353.001
c122 118.667 246 178 372 178c74 0 133.5 -24.167 178.5 -72.5s67.5 -109.5 67.5 -183.5z" />
    <glyph glyph-name="trademark" unicode="&#x2122;" horiz-adv-x="2070" 
d="M1862 1179c0 -82 -7.99902 -195 -23.999 -339c-21.333 -197.333 -32 -306 -32 -326c0 -17.333 0.5 -43 1.5 -77s1.5 -59.667 1.5 -77c0 -48.667 -24.333 -73 -73 -73c-43.333 0 -70.666 25.667 -81.999 77c-2.66699 11.333 -5 54 -7 128
c-3.33301 64.667 -7.33301 161.667 -12 291l-125 -290c-11.333 -30.667 -31 -75 -59 -133c2 -40.667 -14.667 -61 -50 -61c-10 0 -22 5 -36 15c-47.333 35.333 -98.333 114.333 -153 237c-9.33301 22 -45.666 114.333 -108.999 277c-38 -149.333 -57 -309.333 -57 -480
c0 -48.667 -24.333 -73 -73 -73c-53.333 0 -80 38.667 -80 116c0 59.333 5.83301 147 17.5 263s17.5 203.333 17.5 262c0 65.333 -4 146.333 -12 243c-48.667 -33.333 -129.334 -49.333 -242.001 -48c0 -43.333 -4 -98 -12 -164c-13.333 -104.667 -20 -159.334 -20 -164.001
c-3.33301 -39.333 -11.333 -147.333 -24 -324c-1.33301 -29.333 -6.66602 -73 -15.999 -131c-12 -43.333 -35.333 -65 -70 -65c-42 0 -63 21.667 -63 65v460c0 22 -1.66699 76.333 -5 163c-2 66 -2 119.333 0 160h-8c-26.667 0 -65.834 -0.833008 -117.501 -2.5
s-90.5 -2.5 -116.5 -2.5c-25.333 0 -45.833 10 -61.5 30s-23.5 43 -23.5 69c0 42 23 71.833 69 89.5s103.667 29.834 173 36.501l177 14c131.333 11.333 203 17 215 17c68.667 0 119 -14.667 151 -44c23.333 34 56.666 51 99.999 51c78.667 0 147 -81 205 -243
c22.667 -62 49 -149.333 79 -262c34 -128 59 -215.667 75 -263c47.333 194.667 80.666 325 99.999 391c56 188.667 107.333 302.334 154 341.001c22.667 18 47 27 73 27c9.33301 0 23 -2.33301 41 -7c40 -8.66699 68 -25 84 -49c19.333 -28.667 29 -70.334 29 -125.001z" />
    <glyph glyph-name=".null" horiz-adv-x="0" 
 />
    <glyph glyph-name="nonmarkingreturn" horiz-adv-x="1024" 
 />
    </font>
</defs>
</svg>
